<svg xmlns="http://www.w3.org/2000/svg" width="38" height="36" fill="none" viewBox="0 0 38 36"><path fill="#2F70B6" fill-rule="evenodd" d="M21.314 4.383l9.396 7.023h6.48v24.378H0V11.407h6.48l9.396-7.023a3.017 3.017 0 0 1-.317-1.347A3.04 3.04 0 0 1 18.595 0a3.04 3.04 0 0 1 3.036 3.036c0 .484-.114.94-.317 1.347zm-.781-1.347a1.94 1.94 0 0 0-1.938-1.938 1.94 1.94 0 0 0-1.938 1.938 1.94 1.94 0 0 0 1.938 1.938 1.94 1.94 0 0 0 1.938-1.938zM1.098 12.504v22.182h34.994V12.504H16.01v-1.098H28.876l-8.22-6.144a3.024 3.024 0 0 1-4.123 0l-8.219 6.144h4.401v1.098H1.098zm5.067 1.647v-.549h24.86v.55a3.423 3.423 0 0 0 3.42 3.419h.549V29.62h-.55a3.423 3.423 0 0 0-3.419 3.42v.548h-4.254V32.49h3.19a4.526 4.526 0 0 1 3.935-3.935v-9.92A4.526 4.526 0 0 1 29.96 14.7H7.23a4.527 4.527 0 0 1-3.936 3.936v9.919A4.527 4.527 0 0 1 7.23 32.49h16.247v1.098H6.165v-.549a3.423 3.423 0 0 0-3.42-3.42h-.549V17.572h.55a3.423 3.423 0 0 0 3.419-3.42zM18.629 2.227h1.098v1.098H18.63V2.227zm-6.758 18.766v5.205H10.8v-2.23H8.708v2.23H7.635v-5.205h1.073v2.109h2.09v-2.109h1.073zm4.152.241a2.154 2.154 0 0 0-1.156-.313c-.434 0-.82.105-1.157.313a2.062 2.062 0 0 0-.783.897c-.184.39-.277.841-.277 1.354v.257c.003.5.097.943.283 1.328.186.385.448.68.786.888.338.208.723.311 1.155.311.436 0 .822-.105 1.16-.314.337-.21.596-.508.777-.894.181-.386.272-.835.272-1.348v-.232c0-.51-.092-.96-.277-1.35a2.062 2.062 0 0 0-.783-.897zm-.027 2.497c-.002.541-.1.953-.293 1.235-.193.282-.47.424-.83.424-.366 0-.647-.147-.843-.44-.195-.293-.293-.705-.293-1.237v-.254c.002-.54.101-.951.297-1.231.195-.28.473-.42.833-.42.362 0 .64.142.836.425.196.284.293.699.293 1.244v.254zm3.886-1.87v4.337h-1.073v-4.336h-1.572v-.869h4.24v.869h-1.595zm5.687 0v-.868h-3.482v5.205h3.49v-.862H23.16v-1.394h2.059v-.84h-2.06v-1.24h2.41zm.636 4.337v-5.205h1.073v4.343h2.277v.862h-3.35zm-18.57-8.183h19.04v1.099H7.634v-1.099zm21.92 11.16v-1.098H7.635v1.098h21.92z" clip-rule="evenodd"/></svg>