<svg xmlns="http://www.w3.org/2000/svg" width="43" height="30" fill="none" viewBox="0 0 43 30"><path fill="#2F70B6" d="M13.336 23.064c-.772 0-1.404.67-1.404 1.488s.632 1.488 1.404 1.488c.772 0 1.404-.67 1.404-1.488s-.632-1.488-1.404-1.488zM23.162 23.064c-.772 0-1.404.67-1.404 1.488s.632 1.488 1.404 1.488c.772 0 1.404-.67 1.404-1.488s-.632-1.488-1.404-1.488z"/><path fill="#2F70B6" d="M41.411 23.808h-4.913V1.488C36.498.67 35.867 0 35.094 0H1.404C.632 0 0 .67 0 1.488v22.32c0 .819.632 1.488 1.404 1.488h7.78c.337 2.104 2.075 3.72 4.152 3.72s3.814-1.616 4.151-3.72h1.524c.337 2.104 2.074 3.72 4.151 3.72 2.078 0 3.815-1.616 4.152-3.72H41.41c.422 0 .702-.297.702-.744 0-.446-.28-.744-.702-.744zM1.404 22.32H4.21c.421 0 .702-.297.702-.744 0-.446-.28-.744-.702-.744H1.404v-1.488h4.913c.421 0 .702-.297.702-.744 0-.446-.28-.744-.702-.744H1.404V1.488h33.69v22.32h-7.78c-.237-1.48-1.168-2.718-2.422-3.322-.028-.014-.056-.028-.084-.04-.017-.009-.035-.016-.053-.024a3.87 3.87 0 0 0-.138-.057l-.037-.014a3.945 3.945 0 0 0-.549-.166l-.04-.01a3.903 3.903 0 0 0-.159-.03l-.047-.007a3.899 3.899 0 0 0-.154-.021l-.053-.007a4.025 4.025 0 0 0-.156-.012l-.052-.004a4.094 4.094 0 0 0-.416 0l-.052.003a4.025 4.025 0 0 0-.156.013l-.052.007a4.094 4.094 0 0 0-.155.02l-.047.009c-.053.009-.106.019-.158.03l-.04.009a3.942 3.942 0 0 0-.55.166l-.037.014a3.887 3.887 0 0 0-.138.058l-.053.023c-.028.012-.056.026-.084.04-1.254.604-2.184 1.842-2.421 3.322h-1.524c-.237-1.48-1.167-2.718-2.422-3.322-.028-.014-.055-.028-.084-.04-.017-.009-.035-.016-.053-.024a3.949 3.949 0 0 0-.137-.057l-.038-.014a4.113 4.113 0 0 0-.351-.116l-.036-.01a3.943 3.943 0 0 0-.162-.04l-.04-.009a3.932 3.932 0 0 0-.159-.03l-.047-.008a3.924 3.924 0 0 0-.154-.021l-.053-.007a4.01 4.01 0 0 0-.156-.012l-.052-.004a4.097 4.097 0 0 0-.416 0 4.01 4.01 0 0 0-.208.016l-.052.007a4.122 4.122 0 0 0-.154.02l-.048.009c-.053.009-.105.019-.158.03l-.04.009a4.076 4.076 0 0 0-.36.098l-.033.011a4.118 4.118 0 0 0-.156.057l-.038.014a3.782 3.782 0 0 0-.137.058l-.053.023c-.029.012-.056.026-.084.04-1.255.604-2.185 1.842-2.422 3.322h-7.78V22.32zm11.932 5.208c-1.544 0-2.808-1.34-2.808-2.976 0-1.637 1.264-2.976 2.808-2.976 1.544 0 2.807 1.34 2.807 2.976 0 1.637-1.263 2.976-2.807 2.976zm9.826 0c-1.544 0-2.807-1.34-2.807-2.976 0-1.637 1.263-2.976 2.807-2.976s2.808 1.34 2.808 2.976c0 1.637-1.264 2.976-2.808 2.976z"/><path fill="#2F70B6" d="M14.74 10.416V4.464c0-.447-.281-.744-.702-.744H5.615c-.421 0-.702.297-.702.744v5.952c0 .446.28.744.702.744h8.423c.42 0 .702-.298.702-.744zm-1.404-.744h-7.02V5.208h7.02v4.464zM22.46 11.16h8.423c.421 0 .702-.298.702-.744V4.464c0-.447-.28-.744-.702-.744h-8.422c-.422 0-.702.297-.702.744v5.952c0 .446.28.744.701.744zm.702-5.952h7.02v4.464h-7.02V5.208z"/></svg>