<svg xmlns="http://www.w3.org/2000/svg" width="32" height="32" fill="none" viewBox="0 0 32 32"><path fill="#565656" d="M26.664 5.136c-1.424-.854-2.94-1.27-4.639-1.27-2.032 0-4.026.599-5.955 1.177-1.884.565-3.664 1.1-5.425 1.1-1.178 0-2.245-.25-3.245-.76v-.597a.92.92 0 0 0-1.84 0V27.08a.92.92 0 1 0 1.84 0v-7.176a8.889 8.889 0 0 0 3.245.585c2.032 0 4.026-.598 5.954-1.176 1.885-.566 3.664-1.1 5.426-1.1 1.355 0 2.563.33 3.692 1.008a.92.92 0 0 0 1.393-.79V5.925a.92.92 0 0 0-.446-.788zM16.07 17.55c-1.885.565-3.664 1.1-5.426 1.1-1.178 0-2.245-.25-3.245-.76V7.397a8.886 8.886 0 0 0 3.244.586h.001c2.032 0 4.026-.599 5.954-1.177 1.884-.566 3.664-1.1 5.426-1.1 1.178 0 2.245.25 3.245.76v10.493a8.889 8.889 0 0 0-3.245-.586c-2.032 0-4.026.599-5.954 1.177z"/></svg>