<svg xmlns="http://www.w3.org/2000/svg" width="32" height="32" fill="none" viewBox="0 0 32 32"><path fill="#565656" fill-rule="evenodd" d="M4 16C4 9.367 9.368 4 16 4c6.633 0 12 5.368 12 12 0 6.633-5.368 12-12 12H4.937A.937.937 0 0 1 4 27.062V16zm1.875 10.125H16A10.12 10.12 0 0 0 26.125 16 10.12 10.12 0 0 0 16 5.875 10.12 10.12 0 0 0 5.875 16v10.125zm9.97-15.562c-2.206 0-3.219 1.307-3.219 2.189 0 .637.54.931.98.931.372 0 .523-.223.699-.481.24-.355.526-.777 1.49-.777.818 0 1.471.36 1.471 1.111 0 .722-.612 1.193-1.13 1.59a8.776 8.776 0 0 0-.324.257c-.474.408-1.095 1.078-1.095 2.483 0 .85.23 1.095.9 1.095.8 0 .963-.36.963-.67 0-.85.017-1.34.915-2.042.441-.343 1.83-1.454 1.83-2.99 0-1.536-1.389-2.696-3.48-2.696zm-.213 9.525c-.686 0-1.241.572-1.241 1.259 0 .67.539 1.258 1.241 1.258a1.27 1.27 0 0 0 1.258-1.258 1.27 1.27 0 0 0-1.258-1.259z" clip-rule="evenodd"/></svg>