<svg xmlns="http://www.w3.org/2000/svg" width="32" height="32" fill="none" viewBox="0 0 32 32"><path fill="#565656" fill-rule="evenodd" d="M15.667 2.667c-7.169 0-13 5.831-13 12.999s5.831 13 13 13c7.168 0 13-5.832 13-13s-5.832-13-13-13zm0 23.635c-5.865 0-10.637-4.771-10.637-10.636C5.03 9.801 9.802 5.03 15.667 5.03s10.636 4.771 10.636 10.636c0 5.865-4.771 10.636-10.636 10.636zm0-13.393c-.653 0-1.182.53-1.182 1.182v7.877a1.182 1.182 0 0 0 2.364 0v-7.877c0-.653-.53-1.182-1.182-1.182zm-.836-4.381c.22-.22.524-.346.836-.346.31 0 .615.126.836.346.22.22.346.525.346.836 0 .311-.127.615-.346.836-.221.22-.525.346-.836.346a1.19 1.19 0 0 1-.836-.346 1.192 1.192 0 0 1-.346-.836c0-.311.126-.616.346-.836z" clip-rule="evenodd"/></svg>