<svg xmlns="http://www.w3.org/2000/svg" width="32" height="32" fill="none" viewBox="0 0 32 32"><path fill="#565656" fill-rule="evenodd" d="M16.948 2.014a10.408 10.408 0 0 1 8.18 16.074l-7.236 11.107a1.773 1.773 0 0 1-2.97 0L7.686 18.088a10.408 10.408 0 0 1 9.262-16.074zm-.541 25.953l7.116-10.925c2.178-3.344 1.711-7.819-1.11-10.64a8.494 8.494 0 0 0-12.011 0c-2.822 2.821-3.29 7.296-1.111 10.64l7.116 10.924zm-2.128-18.74a3.83 3.83 0 1 1 4.256 6.369 3.83 3.83 0 0 1-4.256-6.369zm1.064 4.777a1.915 1.915 0 1 0 2.128-3.184 1.915 1.915 0 0 0-2.128 3.184z" clip-rule="evenodd"/></svg>