<svg xmlns="http://www.w3.org/2000/svg" width="32" height="32" fill="none" viewBox="0 0 32 32"><path fill="#565656" d="M27.301 7.813h-6.379v-.704c0-1.163-.946-2.109-2.11-2.109h-5.625c-1.163 0-2.109.946-2.109 2.11v.702H4.703A.705.705 0 0 0 4 8.516v15.468c0 1.163.946 2.11 2.11 2.11h19.78c1.164 0 2.11-.947 2.11-2.11V8.53v-.002c-.027-.462-.31-.713-.699-.715zm-14.817-.704c0-.387.316-.703.704-.703h5.624c.388 0 .704.316.704.703v.703h-7.032V7.11zm13.837 2.11l-2.183 6.55a.702.702 0 0 1-.667.481h-3.955v-.703a.703.703 0 0 0-.703-.703h-5.625a.703.703 0 0 0-.704.703v.703H8.53a.702.702 0 0 1-.667-.48L5.68 9.218H26.32zM18.11 16.25v1.406h-4.218V16.25h4.218zm8.485 7.734a.704.704 0 0 1-.703.703H6.109a.704.704 0 0 1-.703-.703V12.848l1.122 3.366a2.106 2.106 0 0 0 2.001 1.442h3.955v.703c0 .389.315.703.704.703h5.624a.703.703 0 0 0 .704-.703v-.703h3.955c.91 0 1.713-.58 2-1.442l1.123-3.366v11.136z"/></svg>