<svg xmlns="http://www.w3.org/2000/svg" width="32" height="32" fill="none" viewBox="0 0 32 32"><path fill="#565656" d="M11.157 17.314a1.54 1.54 0 1 0 0-3.078 1.54 1.54 0 0 0 0 3.078zm1.54 3.079a1.54 1.54 0 1 1-3.079 0 1.54 1.54 0 0 1 3.078 0zm3.078-3.079a1.54 1.54 0 1 0 0-3.078 1.54 1.54 0 0 0 0 3.078zm1.54 3.079a1.54 1.54 0 1 1-3.08 0 1.54 1.54 0 0 1 3.08 0zm3.078-3.079a1.54 1.54 0 1 0 0-3.078 1.54 1.54 0 0 0 0 3.078zm6.157-8.466A3.848 3.848 0 0 0 22.702 5H8.848A3.848 3.848 0 0 0 5 8.848v13.854a3.848 3.848 0 0 0 3.848 3.848h13.854a3.848 3.848 0 0 0 3.848-3.848V8.848zm-20.01 2.31h18.47v11.544a2.308 2.308 0 0 1-2.308 2.309H8.848A2.309 2.309 0 0 1 6.54 22.7V11.158zm2.308-4.619h13.854a2.309 2.309 0 0 1 2.309 2.31v.769H6.539v-.77A2.309 2.309 0 0 1 8.85 6.54z"/></svg>