<svg xmlns="http://www.w3.org/2000/svg" width="32" height="32" fill="none" viewBox="0 0 32 32"><path fill="#565656" d="M1.48 22.7c11.926-3.39 16.285 3.461 29.523.006a.92.92 0 0 0-.464-1.78c-2.599.679-4.852.93-6.892.933l-2.665-4.296a4.122 4.122 0 0 0 7.337-2.705c-.113-3.689-4.634-5.344-7.123-2.697a4.122 4.122 0 0 0-.742 4.551l-3.647-5.878 5.412-1.562a2.72 2.72 0 0 0 1.622-3.939 2.709 2.709 0 0 0-3.13-1.288l-8.194 2.364a3.334 3.334 0 0 0-1.91 4.963l2.478 3.992c-1.786 1.108-7.448 4.62-7.508 4.661-1.422.15-2.944.436-4.6.907A.92.92 0 0 0 1.48 22.7zm21.055-9.28a2.283 2.283 0 1 1 3.327 3.128 2.283 2.283 0 0 1-3.327-3.127zm-7.403 1.756l-2.962-4.773a1.496 1.496 0 0 1 .857-2.227l8.194-2.364a.881.881 0 1 1 .489 1.694l-6.58 1.898a.92.92 0 0 0-.526 1.368l6.82 10.994c-4.289-.36-7.775-1.654-12.188-1.85l5.598-3.474a.92.92 0 0 0 .297-1.266zM30.54 25.217c-12.667 3.306-17.111-3.534-29.563.005a.92.92 0 0 0 .503 1.769c11.926-3.39 16.285 3.46 29.523.005a.92.92 0 1 0-.464-1.779z"/></svg>