<svg xmlns="http://www.w3.org/2000/svg" width="48" height="48" fill="none" viewBox="0 0 48 48"><circle cx="24" cy="24" r="24" fill="#F7C24D"/><path fill="#010107" fill-rule="evenodd" d="M16.372 28.697l7.803 9.203 7.806-9.206c.042-.05.32-.414.32-.414v-.003a10.067 10.067 0 0 0 2.049-6.102 10.175 10.175 0 1 0-20.35 0 10.073 10.073 0 0 0 2.05 6.105c.106.14.213.279.322.417zm1.255-1.4l-.1-.132a8.238 8.238 0 0 1-1.677-4.99 8.325 8.325 0 0 1 16.65 0 8.234 8.234 0 0 1-1.709 5.031l-.224.295-6.392 7.539-6.383-7.529a12.678 12.678 0 0 1-.166-.215zm3.979-1.277a4.625 4.625 0 1 0 5.138-7.69 4.625 4.625 0 0 0-5.139 7.69zm1.027-6.152a2.774 2.774 0 1 1 3.083 4.613 2.774 2.774 0 0 1-3.083-4.613z" clip-rule="evenodd"/></svg>