<svg xmlns="http://www.w3.org/2000/svg" width="56" height="56" fill="none" viewBox="0 0 56 56"><circle cx="28" cy="28" r="28" fill="#fff"/><path fill="#010107" d="M18.127 20.675c1.27-.531 3.093-1.104 4.865-1.282 1.91-.193 3.53.09 4.469 1.08v13.994c-1.343-.76-3.045-.865-4.614-.707-1.695.172-3.403.661-4.72 1.164v-14.25zm10.77-.203c.939-.989 2.559-1.272 4.468-1.08 1.772.179 3.595.752 4.865 1.283v14.249c-1.318-.503-3.025-.994-4.72-1.163-1.57-.16-3.27-.056-4.613.706V20.472zm-.718-1.298c-1.415-1.216-3.465-1.397-5.332-1.21-2.174.22-4.368.965-5.735 1.587a.718.718 0 0 0-.421.653V36a.719.719 0 0 0 1.015.653c1.267-.575 3.307-1.265 5.285-1.465 2.023-.204 3.719.125 4.628 1.26a.718.718 0 0 0 1.12 0c.909-1.135 2.605-1.464 4.626-1.26 1.98.2 4.021.89 5.286 1.465A.718.718 0 0 0 39.666 36V20.204a.719.719 0 0 0-.42-.654c-1.367-.621-3.562-1.367-5.736-1.586-1.866-.188-3.917-.006-5.331 1.21z"/></svg>