<svg xmlns="http://www.w3.org/2000/svg" width="56" height="56" fill="none" viewBox="0 0 56 56"><circle cx="28" cy="28" r="28" fill="#fff"/><path fill="#010107" fill-rule="evenodd" d="M18.219 40.22a.763.763 0 0 0 1.303-.54v-22.9a.764.764 0 0 0-1.527 0v22.902c0 .202.08.397.224.54zm18.9-22.917c.133 0 .265.035.381.102a.764.764 0 0 1 .344.65v11.397a.764.764 0 0 1-.42.679 12.816 12.816 0 0 1-5.344 1.046c-1.6-.094-3.16-.526-4.58-1.267a8.564 8.564 0 0 0-3.207-.977 6.717 6.717 0 0 0-3.244.824V28.07a8.292 8.292 0 0 1 3.237-.65 9.756 9.756 0 0 1 3.817 1.108 10.01 10.01 0 0 0 3.954 1.137c1.45.016 2.893-.224 4.26-.71v-9.794c-1.373.42-2.801.631-4.237.626-1.6-.094-3.16-.526-4.58-1.267a8.566 8.566 0 0 0-3.207-.977 6.718 6.718 0 0 0-3.244.824v-1.702a8.29 8.29 0 0 1 3.237-.619 9.756 9.756 0 0 1 3.817 1.107 10.01 10.01 0 0 0 3.954 1.138c1.605.038 3.2-.264 4.68-.886a.763.763 0 0 1 .381-.102z" clip-rule="evenodd"/></svg>