<svg xmlns="http://www.w3.org/2000/svg" width="56" height="56" fill="none" viewBox="0 0 56 56"><circle cx="28" cy="28" r="28" fill="#fff"/><path fill="#010107" d="M36.248 15.689a2.365 2.365 0 0 0-2.063-1.194h-6.936a2.359 2.359 0 0 0-2.356 2.356v3.141c0 1.3 1.057 2.356 2.356 2.356h4.712c.433 0 .785.353.785.786v6.17a15.026 15.026 0 0 0-6.946-.23c-1.748-1.673-4.224-2.353-6.697-1.735-2.473.618-4.525 2.636-5.112 5.147a7.147 7.147 0 0 0 1.351 6.105 7.083 7.083 0 0 0 5.572 2.71c10.252 0 17.349-3.895 19.252-4.847a.786.786 0 0 0 .434-.702v-3.407a34.02 34.02 0 0 0-4.352-16.656zm2.781 19.579c-2.551 1.285-9.01 4.463-18.115 4.463a5.52 5.52 0 0 1-4.341-2.117 5.585 5.585 0 0 1-1.053-4.77c.445-1.9 2.037-3.5 3.964-3.981 1.581-.396 3.167-.125 4.447.72a14.74 14.74 0 0 0-1.798.754.785.785 0 1 0 .703 1.405 13.386 13.386 0 0 1 11.915 0 .785.785 0 0 0 .703-1.405 14.703 14.703 0 0 0-1.137-.509v-6.694c0-1.3-1.057-2.357-2.356-2.357h-.785v-2.356a.785.785 0 0 0-.786-.785h-1.57a.785.785 0 1 0 0 1.57h.785v1.572h-2.356a.786.786 0 0 1-.785-.786v-3.141c0-.433.352-.786.785-.786h6.936c.292 0 .558.151.695.394a32.447 32.447 0 0 1 4.15 15.886v2.923z"/></svg>