<svg xmlns="http://www.w3.org/2000/svg" width="56" height="56" fill="none" viewBox="0 0 56 56"><circle cx="28" cy="28" r="28" fill="#fff"/><path fill="#010107" d="M42.79 19.69l-6.28-3.59-.006-.002a.756.756 0 0 0-.045-.023l-.023-.011c-.014-.007-.029-.012-.044-.017l-.027-.01-.038-.01-.036-.01-.03-.005-.046-.007-.025-.002a.78.78 0 0 0-.05-.002h-4.073a.763.763 0 0 0-.762.762 3.303 3.303 0 1 1-6.606 0 .762.762 0 0 0-.763-.763h-4.071a.654.654 0 0 0-.05.003l-.027.002-.045.007-.03.005-.036.01-.038.01-.027.01a.413.413 0 0 0-.045.017l-.023.011-.045.023-.006.003-6.28 3.588a1.78 1.78 0 0 0-.708 2.34l2.338 4.676a1.769 1.769 0 0 0 1.591.983h2.675v10.417a1.78 1.78 0 0 0 1.779 1.779h14.228a1.78 1.78 0 0 0 1.779-1.779V27.688h2.674a1.77 1.77 0 0 0 1.591-.983l2.338-4.676a1.78 1.78 0 0 0-.708-2.34zm-26.356 6.474a.254.254 0 0 1-.227-.14l-2.338-4.677a.255.255 0 0 1 .101-.334l5.14-2.937v8.088h-2.676zM35.37 38.105a.254.254 0 0 1-.254.254H20.888a.255.255 0 0 1-.255-.254v-20.58h2.601a4.828 4.828 0 0 0 9.535 0h2.601v20.58zm6.765-16.758l-2.338 4.676a.252.252 0 0 1-.228.14h-2.675v-8.087l5.14 2.937a.254.254 0 0 1 .1.334z"/></svg>