<svg xmlns="http://www.w3.org/2000/svg" width="160" height="60" fill="none" viewBox="0 0 160 60"><path fill="#010107" fill-rule="evenodd" d="M17.047 23.665c-3.876 0-7.047 3.05-7.047 6.776v13.665c0 3.727 3.171 6.776 7.047 6.776h38.876c3.876 0 7.047-3.049 7.047-6.776v-27.33c0-3.727-3.171-6.776-7.047-6.776H10.117v6.889h43.574c1.292 0 2.232 1.016 2.232 2.146v22.7c0 1.242-1.057 2.145-2.232 2.145H19.396c-1.292 0-2.232-1.016-2.232-2.145v-9.148c0-1.242 1.057-2.146 2.232-2.146h29.48v-6.776H17.047zM121.46 49.98c.352.339 1.174.903 2.818.903 1.88 0 2.937-1.242 2.937-2.484 0-1.581-1.527-2.372-2.467-2.71-.94-.34-1.292-.678-1.292-1.13 0-.339.352-.678.822-.678.501 0 1.12.342 1.478.54.147.08.25.138.284.138.118.113.352 0 .47-.113l.705-.904c.117-.112.117-.338-.118-.338-.352-.34-1.409-.904-2.701-.904-1.879 0-2.819 1.242-2.819 2.372 0 1.468 1.292 2.258 2.467 2.597.822.34 1.291.678 1.291 1.243 0 .451-.352.677-.939.677-.597 0-1.194-.357-1.521-.553-.124-.073-.209-.124-.241-.124-.117-.113-.352-.113-.469.113l-.588 1.016c-.176.085-.154.17-.132.254.007.028.015.057.015.085zm-7.4-3.953V44.22h1.88c.469 0 .939.452.939.904 0 .451-.47.903-.939.903h-1.88zm-1.879 4.517c0 .113.118.226.235.226h1.527c.117 0 .235-.113.235-.225v-3.05h.939l1.645 3.162c0 .113.117.113.235.113h1.644c.235 0 .352-.225.235-.338l-1.645-3.05c1.057-.451 1.879-1.242 1.879-2.371 0-1.468-1.291-2.598-2.701-2.598h-3.641c-.117 0-.235.113-.235.226v7.906h-.352zm-9.396-3.952c0-1.355 1.057-2.372 2.467-2.372 1.409 0 2.466 1.017 2.466 2.372 0 1.242-1.057 2.371-2.466 2.371-1.292.113-2.467-1.016-2.467-2.371zm-1.879 0c0 2.371 1.996 4.291 4.463 4.291s4.463-1.92 4.463-4.291c0-2.372-1.996-4.292-4.463-4.292-2.584 0-4.463 1.92-4.463 4.292zm-7.282 3.388c.235.339.822.903 1.88.903 1.526 0 2.7-.903 2.7-2.597v-5.647c0-.113-.117-.226-.234-.226h-1.527c-.118 0-.235.113-.235.226v5.534c0 .565-.352.903-.705.903-.352 0-.47-.113-.704-.339-.118-.112-.235-.112-.353 0l-.822.791v.452zm-6.46-2.033l.94-2.033.94 2.033h-1.88zm-3.053 2.823h1.409c.235 0 .353-.113.47-.338l.47-1.017h3.406l.47.904c.117.226.235.338.47.338h1.409c.235 0 .352-.112.235-.338L88.573 42.3c-.116-.113-.116-.113-.234-.113h-.118c-.059 0-.088.029-.117.057-.03.028-.059.056-.117.056l-3.876 8.019c-.235.338-.118.451 0 .451zm-11.628-.225c0 .112.118.338.235.338h1.527c.117 0 .235-.113.235-.226l.47-3.726 2.114 3.84c.117.112.117.112.235.112h.234c.06 0 .089-.028.118-.056.03-.028.059-.057.118-.057l2.114-3.84.587 3.727c0 .113.117.226.235.226h1.291c.118 0 .353-.113.236-.338l-1.41-8.019c0-.113-.117-.226-.235-.226h-.118c-.058 0-.087.028-.116.057-.03.028-.06.056-.118.056l-2.82 5.195-2.818-5.195c-.117-.113-.117-.113-.235-.113h-.234c-.118 0-.236.113-.236.226l-1.409 8.019zm70-10.842c0 .113.117.226.235.226h1.527c.117 0 .235-.113.235-.226v-4.405l4.933 4.744.117.113h.235c.117 0 .235-.113.235-.226V31.91c0-.113-.118-.226-.235-.226h-1.527c-.117 0-.235.113-.235.226v4.292l-4.933-4.63h-.352c-.118 0-.235.112-.235.225v7.906zm-9.396-3.84c0-1.355 1.057-2.372 2.466-2.372 1.41 0 2.467 1.017 2.467 2.372 0 1.242-1.057 2.372-2.467 2.372-1.291-.113-2.466-1.13-2.466-2.372zm-1.996 0c0 2.372 1.996 4.291 4.462 4.291 2.467 0 4.463-1.92 4.463-4.291 0-2.372-1.996-4.292-4.463-4.292-2.466-.113-4.462 1.807-4.462 4.292zm-9.866 3.84c0 .113.117.226.235.226h1.527c.117 0 .234-.113.234-.226V36.54h3.524v3.162c0 .113.117.226.235.226h1.527c.117 0 .235-.113.235-.226v-7.793c0-.113-.118-.226-.235-.226h-1.527c-.118 0-.235.113-.235.226v2.937h-3.524v-2.937c0-.113-.117-.226-.234-.226h-1.527c-.118 0-.235.113-.235.226v7.793zm-6.578 0c0 .113.118.226.236.226h1.526c.118 0 .235-.113.235-.226v-6.325h1.762c.118 0 .235-.113.235-.225V31.91c0-.113-.117-.226-.235-.226h-5.52c-.118 0-.235.113-.235.226v1.243c0 .112.117.225.235.225h1.761v6.325zm-6.577-2.598h-1.879l.94-2.033.939 2.033zm-4.815 2.824h1.409c.235 0 .353-.113.47-.34l.47-.903h3.406l.47.904c.117.226.235.339.47.339h1.409c.235 0 .352-.113.235-.34l-3.876-8.018c-.067-.064-.096-.092-.13-.104-.026-.009-.055-.009-.105-.009h-.117c-.059 0-.088.029-.118.057-.029.028-.058.056-.117.056l-3.876 8.019c-.235.226-.235.339 0 .339zm-6.694-4.744v-1.807h1.878c.47 0 .94.452.94.904s-.47.903-.94.903h-1.878zm-1.88 4.518c0 .113.118.226.235.226h1.527c.118 0 .235-.113.235-.226v-3.05h.94l1.643 3.163c0 .113.118.113.236.113h1.644c.235 0 .352-.226.235-.34l-1.644-3.048c1.056-.452 1.879-1.243 1.879-2.372 0-1.468-1.293-2.598-2.702-2.598h-3.993c-.117 0-.235.113-.235.226v7.906zm-5.637-2.598h-1.88l.94-2.033.94 2.033zm-4.933 2.824h1.409c.235 0 .353-.113.47-.34l.47-.903h3.406l.47.904c.117.226.235.339.47.339h1.409c.235 0 .352-.113.235-.34l-3.877-8.018c-.116-.113-.116-.113-.234-.113h-.118c-.059 0-.088.029-.117.057-.03.028-.059.056-.117.056L84.11 39.59c-.235.226-.118.339 0 .339zm-11.628-.226c0 .113.118.339.235.339h1.527c.117 0 .235-.113.235-.226l.47-3.727 2.114 3.84c.117.113.117.113.235.113h.234c.06 0 .089-.029.118-.057.03-.028.059-.056.118-.056l2.114-3.84.587 3.727c0 .113.117.226.235.226h1.291c.118 0 .353-.113.236-.34l-1.293-8.018c0-.113-.117-.226-.234-.226h-.236c-.058 0-.087.029-.116.057-.03.028-.06.056-.118.056l-2.82 5.195-2.818-5.195c-.067-.064-.096-.092-.13-.104-.026-.009-.054-.009-.105-.009h-.234c-.118 0-.236.113-.236.226l-1.409 8.019zM113.59 27.28v-4.856h1.175c1.409 0 2.466 1.016 2.466 2.371 0 1.356-1.057 2.372-2.466 2.372l-1.175.113zm-1.996 1.581c0 .113.117.226.235.226h3.054c2.466 0 4.345-1.807 4.345-4.179 0-2.258-1.997-4.178-4.345-4.178h-3.054c-.118 0-.235.113-.235.226v7.905zm-7.399 0c0 .113.117.226.234.226h4.581c.117 0 .235-.113.235-.226v-1.242c0-.113-.118-.226-.235-.226h-2.936v-6.324c0-.113-.118-.226-.235-.226h-1.527c-.117 0-.235.113-.235.226v7.792h.118zm-7.634-4.517v-1.807h1.878c.47 0 .94.451.94.903s-.47.904-.94.904h-1.878zm-1.88 4.517c0 .113.118.226.235.226h1.527c.118 0 .235-.113.235-.226v-3.05h.94l1.643 3.163c0 .113.118.113.236.113h1.644c.235 0 .352-.226.235-.339l-1.88-3.05c1.058-.45 1.88-1.241 1.88-2.37 0-1.469-1.292-2.598-2.701-2.598h-3.759c-.117 0-.235.113-.235.226v7.905zm-9.161-3.953c0-1.355 1.057-2.371 2.467-2.371 1.409 0 2.466 1.016 2.466 2.371 0 1.243-1.057 2.372-2.466 2.372-1.292 0-2.467-1.13-2.467-2.372zm-1.997 0c0 2.372 1.997 4.292 4.464 4.292 2.466 0 4.463-1.92 4.463-4.292 0-2.371-1.997-4.291-4.463-4.291-2.467 0-4.464 1.92-4.464 4.291zm-8.926 4.066c0 .113.118.113.235.113h.118c.058 0 .088-.028.117-.057.03-.028.059-.056.118-.056l2.23-4.856h.118l2.232 4.856c.118.113.118.113.235.113h.235c.118 0 .234-.113.234-.113l2.35-8.018c.117-.113-.118-.34-.235-.34h-1.527c-.118 0-.235.114-.235.114l-1.057 4.065h-.117l-1.88-4.178c0-.113-.117-.113-.235-.113H77.3c-.059 0-.088.028-.118.056-.03.029-.058.057-.117.057l-1.88 4.178h-.117L74.01 20.73c0-.113-.118-.113-.235-.113H72.25c-.118 0-.353.113-.236.339l2.584 8.018zm48.859-18.86h-5.52c-.117 0-.235.113-.235.226v1.242c0 .113.118.226.235.226h1.762v6.324c0 .113.117.226.235.226h1.527c.117 0 .234-.113.234-.226v-6.324h1.762c.118 0 .235-.113.235-.226V10.34c.117-.113-.117-.226-.235-.226zm-13.624 0h5.52c.235 0 .352.113.235.226v1.242c0 .113-.117.226-.235.226h-1.762v6.324c0 .113-.117.226-.234.226h-1.527c-.118 0-.235-.113-.235-.226v-6.324h-1.762c-.117 0-.235-.113-.235-.226V10.34c0-.113.118-.226.235-.226zM103.607 10c-2.466 0-4.463 1.92-4.463 4.291 0 2.372 1.997 4.292 4.463 4.292 2.467 0 4.463-1.92 4.463-4.291-.117-2.372-2.114-4.292-4.463-4.292zm0 6.663c-1.292 0-2.466-1.016-2.466-2.372 0-1.355 1.057-2.371 2.466-2.371 1.41 0 2.467 1.016 2.467 2.371-.118 1.356-1.175 2.372-2.467 2.372zm-6.694-4.404c0 .903-.94 1.58-1.527 1.92.705.338 1.644.903 1.762 1.92 0 1.355-1.175 2.371-2.702 2.371h-3.053c-.118 0-.236-.113-.236-.226V10.34c0-.113.118-.226.236-.226h2.818c1.527 0 2.702.903 2.702 2.146zm-2.936-.452h-.94V13.5h.94a.908.908 0 0 0 .939-.903c0-.452-.47-.791-.94-.791zm-.94 4.97h1.057c.47 0 .822-.453 1.057-.792 0-.564-.587-.903-1.057-.903h-1.057v1.694zm-6.225-2.598c.587-.34 1.527-1.017 1.527-1.92 0-1.243-1.175-2.146-2.702-2.146h-2.936c-.117 0-.234.113-.234.226v7.905c0 .113.117.226.234.226h3.054c1.527 0 2.701-1.016 2.701-2.371 0-1.017-.94-1.582-1.644-1.92zm-2.466-2.372h.94c.469 0 .939.339.939.79a.908.908 0 0 1-.94.904h-.94v-1.694zm1.174 4.97h-1.174v-1.695h1.057c.47 0 1.057.339 1.057.903-.118.34-.47.791-.94.791zM76.242 10c.117 0 .234 0 .234.113l4.111 8.018c.118.226 0 .34-.235.34h-1.41c-.234 0-.352-.114-.47-.34l-.469-.903h-3.406l-.47.903c-.117.226-.235.34-.47.34H72.25c-.236 0-.353-.227-.236-.34l3.876-8.018c.059 0 .088-.028.118-.056.029-.029.058-.057.117-.057h.118zm0 3.614l-.94 2.033H77.3l-1.057-2.033z" clip-rule="evenodd"/></svg>