<svg width="160" height="60" viewBox="0 0 160 60" fill="none" xmlns="http://www.w3.org/2000/svg">
<path fill-rule="evenodd" clip-rule="evenodd" d="M127.045 3C130.059 2.99999 133.044 3.59373 135.829 4.74733C138.614 5.90094 141.145 7.59181 143.277 9.7234C145.408 11.855 147.099 14.3856 148.253 17.1706C149.406 19.9557 150 22.9407 150 25.9552C150 30.4953 148.654 34.9334 146.131 38.7084C143.609 42.4833 140.024 45.4255 135.829 47.1629C131.635 48.9004 127.019 49.3549 122.566 48.4692C118.114 47.5835 114.023 45.3972 110.813 42.1869C107.603 38.9766 105.416 34.8863 104.531 30.4335C103.645 25.9806 104.1 21.3651 105.837 17.1706C107.574 12.9761 110.517 9.39102 114.292 6.86867C118.067 4.34632 122.505 3.00002 127.045 3V3Z" fill="white"/>
<path fill-rule="evenodd" clip-rule="evenodd" d="M35.2977 43.9427H33.2C32.3264 43.9427 31.4526 43.9427 30.5789 43.9427H26.1464C25.2556 43.9427 24.3648 43.9427 23.474 43.9427H23.3456C22.2834 43.9427 21.2212 43.9427 20.1591 43.9427H16.7032C15.8466 43.9427 14.99 43.9427 14.1333 43.9427H10L11.3553 40.0379C12.4834 36.7873 13.6151 33.5379 14.7433 30.2873L15.4293 28.3108H17.5213C18.3779 28.3108 19.2343 28.3108 20.0909 28.3108H23.3415C24.3777 28.3108 25.4142 28.3108 26.4504 28.3108H29.7526C31.0545 28.3108 32.3564 28.3108 33.6583 28.3108H36.7405L36.7125 28.9059C37.9696 28.3732 39.3934 28.22 40.7435 28.22C42.2434 28.22 43.9255 28.3847 45.1948 29.256C45.4639 29.441 45.7009 29.6442 45.9071 29.8633C45.95 29.7965 45.9929 29.7299 46.0358 29.6632L46.9028 28.3108H48.5105C49.8123 28.3108 51.1143 28.3108 52.4162 28.3108H56.3094C57.1659 28.3108 58.0223 28.3108 58.8789 28.3108H62.2321C63.0887 28.3108 63.9451 28.3108 64.8017 28.3108H68.935L68.9293 28.3269C69.5724 28.2484 70.2198 28.22 70.8461 28.22C71.9035 28.22 73.0142 28.3273 74.0053 28.7123L74.1445 28.3108H76.2365C77.0932 28.3108 77.9496 28.3108 78.8062 28.3108H82.0563C82.7895 28.3108 83.5227 28.3108 84.2559 28.3108H86.3479C87.1616 28.3108 87.9753 28.3108 88.7891 28.3108H91.8852C92.8923 28.3108 93.8994 28.3108 94.9066 28.3108H96.9401C96.997 28.0656 97.0683 27.8219 97.1518 27.5819L97.8384 25.6068H99.9295C100.289 25.6068 100.649 25.6068 101.009 25.6068H103.347C103.707 25.6068 104.067 25.6068 104.426 25.6068H108.562L107.622 28.3108H110.049L108.693 32.2157C107.619 35.3107 106.542 38.4048 105.468 41.4997C106.115 41.5878 106.754 41.7402 107.346 41.9928L107.522 41.4844H109.614C110.471 41.4844 111.327 41.4844 112.184 41.4844H115.537C116.394 41.4844 117.25 41.4844 118.107 41.4844H122.24L120.885 45.3891C119.757 48.6397 118.625 51.8891 117.497 55.1398L116.811 57.1163H114.719C113.863 57.1163 113.006 57.1163 112.15 57.1163H108.797C107.94 57.1163 107.084 57.1163 106.227 57.1163H102.2C101.551 57.2092 100.894 57.2461 100.246 57.2461C98.5448 57.2461 96.6631 57.0064 95.333 55.8435C95.1887 55.7173 95.0559 55.5863 94.9341 55.4509C94.0937 55.8162 93.1853 56.0059 92.2612 56.0731L91.9137 57.1163H89.7941C88.9375 57.1163 88.0811 57.1163 87.2245 57.1163H82.3424C81.4688 57.1163 80.5949 57.1163 79.7214 57.1163H75.2889C74.3981 57.1163 73.5073 57.1163 72.6165 57.1163H66.9892C66.7465 57.1163 66.504 57.1163 66.2612 57.1163H63.4558C62.5819 57.1163 61.7081 57.1163 60.8343 57.1163H56.4025C55.8877 57.1163 55.3729 57.1163 54.8581 57.1163H52.7661C51.9095 57.1163 51.0531 57.1163 50.1964 57.1163H47.9225C47.1816 57.1163 46.4407 57.1163 45.6998 57.1163H43.4128C42.5561 57.1163 41.6998 57.1163 40.8431 57.1163H36.7098L38.0651 53.2114C39.1375 50.1215 40.2129 47.0327 41.2856 43.9427H39.5315C38.7786 44.0434 38.0175 44.0728 37.3045 44.0728C36.6561 44.0728 35.9698 44.0458 35.2975 43.9427H35.2977Z" fill="white"/>
<path fill-rule="evenodd" clip-rule="evenodd" d="M20.0907 31.2515L18.8168 34.9179H19.5878L23.3413 31.2515H26.4502L21.3963 36.0355L23.3454 41.0022H20.1589L18.8019 37.1798H18.031L16.703 41.0022H14.1331L17.5211 31.2515H20.0907ZM44.2308 44.4249H48.3036L48.0134 50.5484H48.1035L51.9778 44.4249H56.1539L52.7661 54.1756H50.1964L53.0508 46.6998L52.9441 46.6738L47.9225 54.1756H45.6998L45.8775 46.6738L45.753 46.6998L43.4127 54.1756H40.8431L44.2308 44.4249V44.4249ZM112.184 44.4249L110.91 48.0912H114.264L115.537 44.4249H118.107L114.719 54.1756H112.15L113.478 50.3534H110.125L108.797 54.1756H106.227L109.614 44.4249H112.184ZM100.246 54.3055C98.7728 54.3055 97.7801 54.0799 97.2685 53.6296C96.6306 53.0749 96.5569 52.091 97.0476 50.6782L98.0054 47.9221C98.4867 46.5353 99.2396 45.5644 100.263 45.0097C101.096 44.5592 102.245 44.3339 103.71 44.3339C105.184 44.3339 106.177 44.5548 106.692 44.9968C107.333 45.5429 107.41 46.5181 106.922 47.9221L105.964 50.6782C105.479 52.0736 104.724 53.0529 103.697 53.6168C102.852 54.0758 101.702 54.3055 100.246 54.3055V54.3055ZM101.032 52.0435C101.734 52.0435 102.233 51.9527 102.527 51.7702C102.876 51.5534 103.173 51.0944 103.417 50.3926L104.18 48.1951C104.418 47.5105 104.44 47.0641 104.247 46.856C104.085 46.6823 103.643 46.5961 102.924 46.5961C102.205 46.5961 101.709 46.6784 101.438 46.8431C101.092 47.051 100.798 47.5016 100.557 48.1951L99.7939 50.3926C99.5529 51.0855 99.5273 51.5406 99.7178 51.7574C99.883 51.9481 100.321 52.0435 101.032 52.0435V52.0435ZM89.794 54.1756H87.2245L87.577 53.1614H86.2535C84.9602 53.1614 84.1527 52.8971 83.831 52.3683C83.4958 51.8051 83.5853 50.7821 84.1001 49.3001C84.6093 47.8351 85.2258 46.8193 85.9496 46.2515C86.6737 45.684 87.678 45.4 88.963 45.4H90.2736L90.6124 44.4249H93.1816L92.8432 45.4H94.1406C95.4338 45.4 96.2452 45.684 96.575 46.2515C96.9044 46.8193 96.8148 47.8351 96.306 49.3001C95.7937 50.7736 95.1837 51.7856 94.4741 52.3358C93.7648 52.8861 92.7547 53.1614 91.4442 53.1614H90.1463L89.794 54.1756V54.1756ZM92.1022 47.5321L90.8873 51.0292H91.7608C92.249 51.0292 92.6294 50.9079 92.9024 50.6652C93.175 50.4226 93.4273 49.9677 93.6594 49.3001C93.882 48.6587 93.946 48.2036 93.8508 47.935C93.7556 47.6663 93.464 47.5321 92.9755 47.5321H92.1022V47.5321ZM88.3176 51.0292L89.5326 47.5321H88.6461C88.1667 47.5321 87.7858 47.6663 87.5038 47.935C87.2224 48.2036 86.9698 48.6587 86.7473 49.3001C86.5151 49.9677 86.447 50.4226 86.5429 50.6652C86.6383 50.9079 86.9255 51.0292 87.4057 51.0292H88.3176V51.0292ZM79.8025 52.4986H76.3464L75.2889 54.1756H72.6164L78.8947 44.4249H82.8002L82.3424 54.1756H79.7213L79.8025 52.4986ZM79.9308 50.6131L80.2214 46.3747L77.5541 50.6131H79.9308ZM67.9287 51.4709L66.9892 54.1756H64.4193L67.8072 44.4249H72.6506C73.8497 44.4249 74.6089 44.6805 74.9282 45.192C75.2473 45.7032 75.1851 46.5961 74.7428 47.87C74.2549 49.274 73.7181 50.2146 73.133 50.6916C72.4988 51.2114 71.5217 51.4709 70.2027 51.4709H67.9287ZM69.6359 46.5571L68.6689 49.3391H70.4297C70.9179 49.3391 71.2617 49.2547 71.4618 49.0854C71.6621 48.9166 71.8702 48.5202 72.0869 47.8961C72.2705 47.3674 72.3267 47.0207 72.2558 46.856C72.1704 46.6564 71.8842 46.5571 71.3959 46.5571H69.6359V46.5571ZM60.9164 52.4986H57.4601L56.4025 54.1756H53.7296L60.0084 44.4249H63.9139L63.4557 54.1756H60.8343L60.9164 52.4986ZM61.0444 50.6131L61.3344 46.3747L58.6675 50.6131H61.0444ZM99.4397 31.2515L97.2087 37.6738H97.2986L102.536 31.2515H105.915L102.528 41.0022H100.086L102.318 34.5798H102.228L97.1059 41.0022H93.611L96.9986 31.2515H99.4397V31.2515ZM101.009 28.5474C100.891 28.8853 100.897 29.1149 101.027 29.2365C101.156 29.3576 101.439 29.4182 101.875 29.4182C102.312 29.4182 102.637 29.3597 102.849 29.2426C103.06 29.1257 103.227 28.894 103.347 28.5474H104.426C104.143 29.3618 103.751 29.9126 103.249 30.1982C102.854 30.4237 102.267 30.5366 101.487 30.5366C100.69 30.5366 100.18 30.4278 99.9554 30.2115C99.6522 29.9252 99.6434 29.3704 99.9295 28.5474H101.009V28.5474ZM88.789 31.2515L86.5573 37.6738H86.6474L91.8852 31.2515H95.2646L91.8769 41.0022H89.4355L91.6668 34.5798H91.5769L86.455 41.0022H82.9601L86.3478 31.2515H88.789V31.2515ZM78.8062 31.2515L77.5323 34.9179H78.3033L82.0563 31.2515H85.1658L80.1117 36.0355L82.0607 41.0022H78.8748L77.5173 37.1798H76.7465L75.4182 41.0022H72.8486L76.2365 31.2515H78.8062V31.2515ZM73.5439 34.7486H70.897L71.0281 34.3717C71.1516 34.0161 71.0863 33.7607 70.8321 33.6047C70.626 33.4831 70.2746 33.4226 69.7777 33.4226C69.084 33.4226 68.5878 33.557 68.2886 33.8254C68.039 34.0509 67.7845 34.5361 67.5255 35.2818L66.9972 36.8029C66.7144 37.6174 66.6047 38.1418 66.6691 38.376C66.7602 38.7052 67.1656 38.8699 67.885 38.8699C68.4765 38.8699 68.891 38.8094 69.1305 38.6878C69.4533 38.5235 69.7063 38.1764 69.8901 37.6479L69.9892 37.3618H72.6359L72.5368 37.6479C72.0637 39.0087 71.4675 39.9296 70.7479 40.4107C70.0287 40.8915 68.9064 41.1322 67.382 41.1322C66.3027 41.1322 65.5427 41.0759 65.1023 40.9631C64.4427 40.7899 64.0252 40.4517 63.8485 39.9491C63.6535 39.377 63.7527 38.5235 64.1474 37.388L65.0235 34.8656C65.5446 33.3661 66.3005 32.3477 67.2925 31.8103C68.0855 31.3771 69.2704 31.1606 70.8461 31.1606C72.1996 31.1606 73.0989 31.3815 73.5451 31.8235C74.0502 32.3175 74.0934 33.1668 73.6747 34.3717L73.5439 34.7486V34.7486ZM58.8787 31.2515L57.6049 34.9179H60.9582L62.2319 31.2515H64.8015L61.414 41.0022H58.8443L60.1724 37.1798H56.8191L55.4913 41.0022H52.9216L56.3092 31.2515H58.8787V31.2515ZM49.4185 39.3248H45.9624L44.9042 41.0022H42.2322L48.5103 31.2515H52.416L51.9581 41.0022H49.3368L49.4185 39.3248V39.3248ZM49.5465 37.4398L49.8371 33.2017L47.1701 37.4398H49.5465ZM37.868 36.9587L38.4958 35.1519H39.7162C40.0504 35.1519 40.2904 35.1257 40.4373 35.0734C40.7589 34.961 40.9998 34.6752 41.1592 34.2154C41.2707 33.8949 41.2634 33.6694 41.1372 33.5398C40.9718 33.3748 40.5806 33.2925 39.9638 33.2925C39.4244 33.2925 39.0246 33.3597 38.7632 33.4939C38.5024 33.6283 38.3028 33.8949 38.1645 34.2939H35.7103L35.8502 33.8905C36.2058 32.8678 36.7995 32.1443 37.6322 31.7194C38.3618 31.3466 39.3985 31.1606 40.7433 31.1606C42.0968 31.1606 43.0257 31.3338 43.5304 31.6804C44.1115 32.0791 44.2318 32.768 43.8915 33.7476C43.6507 34.441 43.3861 34.9435 43.0977 35.2558C42.7364 35.6548 42.2354 35.9014 41.5942 35.9968L41.5579 36.1007C42.1395 36.1528 42.4985 36.3522 42.6348 36.6988C42.7715 37.0454 42.7311 37.5308 42.5144 38.1549C42.108 39.3249 41.5802 40.1051 40.9305 40.4951C40.2262 40.9198 39.0177 41.1322 37.3044 41.1322C35.8313 41.1322 34.8784 40.9415 34.4455 40.56C33.9229 40.092 33.8903 39.1992 34.3482 37.8818H36.8149C36.646 38.3674 36.6444 38.675 36.8092 38.805C36.9737 38.9349 37.3857 39.0001 38.045 39.0001C38.6617 39.0001 39.1086 38.9285 39.3853 38.7855C39.6617 38.6424 39.8712 38.3674 40.0122 37.9599C40.139 37.5958 40.145 37.3381 40.0306 37.1866C39.9163 37.0347 39.6495 36.9587 39.23 36.9587H37.8679H37.868ZM30.6602 39.3248H27.2041L26.1463 41.0022H23.4738L29.7524 31.2515H33.6581L33.1998 41.0022H30.5787L30.6602 39.3248V39.3248ZM30.7886 37.4398L31.0789 33.2017L28.4117 37.4398H30.7886V37.4398Z" fill="#1A1E47"/>
<path d="M135.04 42.5185L135.022 42.4947C134.609 42.1345 133.919 41.9022 133.698 41.7355C132.287 40.6723 131.736 40.0649 130.889 39.778C130.345 39.5938 128.052 38.7083 127.154 38.4248C127.077 38.4005 126.364 38.3548 127.165 37.5819C130.644 33.4271 134.641 30.6599 135.806 29.5292C135.871 29.465 136.033 29.3117 136.182 29.3517C136.24 29.3673 136.384 29.6672 136.608 29.9394C136.837 30.2177 138.056 31.6641 139.337 33.1941C139.845 33.8008 140.363 34.4206 140.832 34.986C140.984 35.1687 141.295 35.5693 141.787 35.7461C141.908 35.7896 142.31 35.9839 142.916 35.7949C140.971 38.7271 138.286 41.0754 135.04 42.5185V42.5185Z" fill="url(#paint0_linear)"/>
<path d="M135.04 42.5185L135.022 42.4947C134.609 42.1345 133.919 41.9022 133.698 41.7355C132.287 40.6723 131.736 40.0649 130.889 39.778C130.345 39.5938 128.052 38.7083 127.154 38.4248C127.077 38.4005 126.364 38.3548 127.165 37.5819C130.644 33.4271 134.641 30.6599 135.806 29.5292C135.871 29.465 136.033 29.3117 136.182 29.3517C136.24 29.3673 136.384 29.6672 136.608 29.9394C136.837 30.2177 138.056 31.6641 139.337 33.1941C139.845 33.8008 140.363 34.4206 140.832 34.986C140.984 35.1687 141.295 35.5693 141.787 35.7461C141.908 35.7896 142.31 35.9839 142.916 35.7949C140.971 38.7271 138.286 41.0754 135.04 42.5185V42.5185Z" fill="url(#paint1_linear)"/>
<path d="M116.693 40.6677C111.98 37.3038 108.905 31.7899 108.905 25.5638C108.905 24.9531 108.935 24.3491 108.993 23.7536C109.163 23.5005 109.277 23.3093 109.277 23.3093C109.417 23.0619 109.889 22.3343 110.36 22.0365C111.605 21.2488 115.319 20.3145 116.583 19.8905C117.033 19.7398 117.481 19.5772 117.949 19.4925C118.605 19.3737 119.014 19.3339 119.496 19.5176C120.603 19.9399 121.273 21.6235 124.595 22.0261C124.863 22.0586 125.367 22.1458 125.393 22.4729C125.433 22.9621 124.399 24.4311 124.399 24.4311C123.55 25.6345 122.427 27.8889 121.795 29.8107C121.366 31.1145 121.543 32.26 120.231 33.6202C119.461 34.4182 119.145 34.5816 118.35 35.3023C117.324 36.2323 116.927 37.6141 116.774 38.2422C116.574 39.0616 116.568 39.9777 116.661 40.6451L116.693 40.6677V40.6677Z" fill="url(#paint2_linear)"/>
<path d="M116.693 40.6677C111.98 37.3038 108.905 31.7899 108.905 25.5638C108.905 24.9531 108.935 24.3491 108.993 23.7536C109.163 23.5005 109.277 23.3093 109.277 23.3093C109.417 23.0619 109.889 22.3343 110.36 22.0365C111.605 21.2488 115.319 20.3145 116.583 19.8905C117.033 19.7398 117.481 19.5772 117.949 19.4925C118.605 19.3737 119.014 19.3339 119.496 19.5176C120.603 19.9399 121.273 21.6235 124.595 22.0261C124.863 22.0586 125.367 22.1458 125.393 22.4729C125.433 22.9621 124.399 24.4311 124.399 24.4311C123.55 25.6345 122.427 27.8889 121.795 29.8107C121.366 31.1145 121.543 32.26 120.231 33.6202C119.461 34.4182 119.145 34.5816 118.35 35.3023C117.324 36.2323 116.927 37.6141 116.774 38.2422C116.574 39.0616 116.568 39.9777 116.661 40.6451L116.693 40.6677V40.6677Z" fill="url(#paint3_linear)"/>
<path d="M145.987 25.0066C145.856 25.1701 145.849 25.1615 145.81 25.2476C145.695 25.5022 145.608 25.8925 145.591 26.2958C145.576 26.6573 145.619 26.7497 145.633 27.4216C145.636 27.5625 145.636 27.8246 145.538 27.9903C145.237 28.5037 144.334 29.911 143.822 30.5024C143.357 31.0391 142.495 31.2518 142.325 31.353C142.099 31.4867 141.813 31.3449 141.754 31.0902C141.694 30.8338 141.308 30.1989 140.755 29.7592C140.12 29.2549 139.806 28.9536 139.457 28.5227C139.182 28.1816 139.092 27.8457 139.016 27.6573C138.826 27.1816 138.814 27.0067 138.656 26.5869C138.426 25.9751 138.128 25.4272 137.974 25.2697C137.552 24.8402 137.435 24.6253 137.181 24.4712C137.118 24.4334 136.605 24.2081 136.707 23.8196C136.803 23.4509 137.253 22.8608 137.78 22.6439C138.204 22.4695 138.545 22.7831 139.208 22.8851C139.5 22.9303 139.702 22.9361 139.865 22.7492C139.985 22.6122 139.885 22.4397 140.02 22.2141C140.182 21.9448 140.414 22.072 140.464 21.8649C140.512 21.6667 140.321 21.6954 140.397 21.5181C140.455 21.3852 140.668 21.478 140.736 21.2739C140.788 21.117 140.631 20.8428 140.841 20.7001C141.017 20.5803 141.263 20.7461 141.423 20.5615C141.49 20.4855 141.38 20.0693 141.265 19.7266C141.129 19.318 141.044 19.177 141.107 18.9145C141.17 18.6519 141.598 18.5851 141.642 18.1516C141.67 17.8796 141.56 17.3181 141.551 17.1504C141.47 15.6054 141.324 15.1633 140.841 14.6383C140.257 14.0027 139.105 13.3659 137.96 13.4185C135.539 13.5296 134.456 15.2215 134.216 15.7457C133.883 16.475 133.882 16.8426 133.942 17.5058C134.003 18.1817 134.148 18.6012 134.142 18.8753C134.124 19.623 133.692 19.8769 133.182 20.1433C132.191 20.66 131.534 20.4664 131.259 20.3492C129.98 19.8039 129.971 19.0506 128.878 18.6307C127.913 18.2601 126.219 18.4956 125.555 18.1648C124.457 17.6181 120.549 16.3051 117.854 16.3132C117.061 16.3156 116.215 16.6497 115.538 17.004C114.831 17.3738 113.476 18.1723 112.688 18.5297C111.763 18.9494 110.631 19.4834 109.907 19.9392C109.852 19.9737 109.797 20.0079 109.742 20.0421C112.095 12.4999 119.138 7.0188 127.45 7.0188C137.499 7.0188 145.692 15.0286 145.987 25.0066V25.0066Z" fill="url(#paint4_linear)"/>
<path d="M145.987 25.0066C145.856 25.1701 145.849 25.1615 145.81 25.2476C145.695 25.5022 145.608 25.8925 145.591 26.2958C145.576 26.6573 145.619 26.7497 145.633 27.4216C145.636 27.5625 145.636 27.8246 145.538 27.9903C145.237 28.5037 144.334 29.911 143.822 30.5024C143.357 31.0391 142.495 31.2518 142.325 31.353C142.099 31.4867 141.813 31.3449 141.754 31.0902C141.694 30.8338 141.308 30.1989 140.755 29.7592C140.12 29.2549 139.806 28.9536 139.457 28.5227C139.182 28.1816 139.092 27.8457 139.016 27.6573C138.826 27.1816 138.814 27.0067 138.656 26.5869C138.426 25.9751 138.128 25.4272 137.974 25.2697C137.552 24.8402 137.435 24.6253 137.181 24.4712C137.118 24.4334 136.605 24.2081 136.707 23.8196C136.803 23.4509 137.253 22.8608 137.78 22.6439C138.204 22.4695 138.545 22.7831 139.208 22.8851C139.5 22.9303 139.702 22.9361 139.865 22.7492C139.985 22.6122 139.885 22.4397 140.02 22.2141C140.182 21.9448 140.414 22.072 140.464 21.8649C140.512 21.6667 140.321 21.6954 140.397 21.5181C140.455 21.3852 140.668 21.478 140.736 21.2739C140.788 21.117 140.631 20.8428 140.841 20.7001C141.017 20.5803 141.263 20.7461 141.423 20.5615C141.49 20.4855 141.38 20.0693 141.265 19.7266C141.129 19.318 141.044 19.177 141.107 18.9145C141.17 18.6519 141.598 18.5851 141.642 18.1516C141.67 17.8796 141.56 17.3181 141.551 17.1504C141.47 15.6054 141.324 15.1633 140.841 14.6383C140.257 14.0027 139.105 13.3659 137.96 13.4185C135.539 13.5296 134.456 15.2215 134.216 15.7457C133.883 16.475 133.882 16.8426 133.942 17.5058C134.003 18.1817 134.148 18.6012 134.142 18.8753C134.124 19.623 133.692 19.8769 133.182 20.1433C132.191 20.66 131.534 20.4664 131.259 20.3492C129.98 19.8039 129.971 19.0506 128.878 18.6307C127.913 18.2601 126.219 18.4956 125.555 18.1648C124.457 17.6181 120.549 16.3051 117.854 16.3132C117.061 16.3156 116.215 16.6497 115.538 17.004C114.831 17.3738 113.476 18.1723 112.688 18.5297C111.763 18.9494 110.631 19.4834 109.907 19.9392C109.852 19.9737 109.797 20.0079 109.742 20.0421C112.095 12.4999 119.138 7.0188 127.45 7.0188C137.499 7.0188 145.692 15.0286 145.987 25.0066V25.0066Z" fill="url(#paint5_linear)"/>
<path d="M145.629 27.2799C145.631 27.3242 145.631 27.3713 145.633 27.4216C145.636 27.5625 145.636 27.8246 145.539 27.9903C145.237 28.5037 144.334 29.911 143.822 30.5024C143.358 31.0391 142.496 31.2518 142.325 31.353C142.1 31.4867 141.813 31.3449 141.754 31.0902C141.694 30.8338 141.309 30.1989 140.755 29.7591C140.121 29.2549 139.806 28.9536 139.457 28.5227C139.182 28.1815 139.092 27.8457 139.017 27.6573C138.827 27.1816 138.814 27.0067 138.656 26.5869C138.426 25.9751 138.128 25.4272 137.974 25.2697C137.552 24.8402 137.435 24.6253 137.181 24.4712C137.118 24.4334 136.605 24.2081 136.707 23.8196C136.727 23.742 136.763 23.6547 136.812 23.5631C136.94 23.7636 137.217 23.8706 137.263 23.8951C137.525 24.036 137.653 24.2445 138.096 24.6521C138.258 24.8013 138.583 25.3333 138.845 25.9325C139.024 26.3437 139.045 26.5178 139.259 26.9832C139.344 27.1674 139.451 27.4982 139.744 27.8248C140.113 28.2373 140.443 28.522 141.103 28.9934C141.678 29.4043 142.095 30.0187 142.168 30.2717C142.241 30.5231 142.534 30.65 142.752 30.505C142.917 30.3951 143.767 30.1386 144.204 29.5789C144.612 29.0556 145.271 27.9314 145.629 27.2799H145.629ZM149.475 25.9724C149.398 25.7766 149.299 25.5304 149.299 25.5304C149.236 25.4198 148.273 24.4653 147.657 23.8694C147.426 23.6466 147.358 23.4823 147.072 23.5589C146.906 23.6032 146.795 23.9005 146.428 24.4129C145.852 25.2199 145.874 25.1064 145.81 25.2476C145.792 25.2885 145.774 25.3328 145.757 25.3801C145.756 25.351 145.755 25.3202 145.755 25.2873C145.751 24.8837 145.818 24.4894 145.92 24.2294C145.977 24.0849 145.96 24.1995 146.495 23.3641C146.835 22.8336 146.931 22.5309 147.094 22.4784C147.376 22.3871 147.452 22.5477 147.694 22.7584C148.339 23.3221 149.351 24.2262 149.419 24.3333C149.419 24.3333 149.588 24.6984 149.672 24.8869C149.765 25.0966 149.68 25.4783 149.475 25.9724H149.475Z" fill="url(#paint6_linear)"/>
<path d="M145.629 27.2799C145.631 27.3242 145.631 27.3713 145.633 27.4216C145.636 27.5625 145.636 27.8246 145.539 27.9903C145.237 28.5037 144.334 29.911 143.822 30.5024C143.358 31.0391 142.496 31.2518 142.325 31.353C142.1 31.4867 141.813 31.3449 141.754 31.0902C141.694 30.8338 141.309 30.1989 140.755 29.7591C140.121 29.2549 139.806 28.9536 139.457 28.5227C139.182 28.1815 139.092 27.8457 139.017 27.6573C138.827 27.1816 138.814 27.0067 138.656 26.5869C138.426 25.9751 138.128 25.4272 137.974 25.2697C137.552 24.8402 137.435 24.6253 137.181 24.4712C137.118 24.4334 136.605 24.2081 136.707 23.8196C136.727 23.742 136.763 23.6547 136.812 23.5631C136.94 23.7636 137.217 23.8706 137.263 23.8951C137.525 24.036 137.653 24.2445 138.096 24.6521C138.258 24.8013 138.583 25.3333 138.845 25.9325C139.024 26.3437 139.045 26.5178 139.259 26.9832C139.344 27.1674 139.451 27.4982 139.744 27.8248C140.113 28.2373 140.443 28.522 141.103 28.9934C141.678 29.4043 142.095 30.0187 142.168 30.2717C142.241 30.5231 142.534 30.65 142.752 30.505C142.917 30.3951 143.767 30.1386 144.204 29.5789C144.612 29.0556 145.271 27.9314 145.629 27.2799H145.629ZM149.475 25.9724C149.398 25.7766 149.299 25.5304 149.299 25.5304C149.236 25.4198 148.273 24.4653 147.657 23.8694C147.426 23.6466 147.358 23.4823 147.072 23.5589C146.906 23.6032 146.795 23.9005 146.428 24.4129C145.852 25.2199 145.874 25.1064 145.81 25.2476C145.792 25.2885 145.774 25.3328 145.757 25.3801C145.756 25.351 145.755 25.3202 145.755 25.2873C145.751 24.8837 145.818 24.4894 145.92 24.2294C145.977 24.0849 145.96 24.1995 146.495 23.3641C146.835 22.8336 146.931 22.5309 147.094 22.4784C147.376 22.3871 147.452 22.5477 147.694 22.7584C148.339 23.3221 149.351 24.2262 149.419 24.3333C149.419 24.3333 149.588 24.6984 149.672 24.8869C149.765 25.0966 149.68 25.4783 149.475 25.9724H149.475Z" fill="url(#paint7_linear)"/>
<path d="M125.391 22.5523C125.391 22.5345 125.391 22.5178 125.388 22.5021C125.345 22.1766 124.838 22.1153 124.568 22.0967C121.23 21.8642 120.475 20.217 119.347 19.852C118.856 19.6932 118.45 19.7539 117.801 19.906C117.338 20.0144 116.899 20.1998 116.458 20.3733C115.216 20.8614 111.556 21.9842 110.352 22.8348C109.897 23.1561 109.463 23.9071 109.336 24.1612C109.336 24.1612 108.477 25.7845 107.969 25.9021C107.571 25.9945 107.158 26.0771 106.614 26.5579C106.344 26.7972 105.75 27.1861 105.429 27.0684C105.115 26.9531 104.423 26.3787 104.503 25.1668C104.504 25.1595 104.505 25.1519 104.505 25.1446C104.688 25.6501 105.03 25.9293 105.226 26.013C105.541 26.147 106.153 25.7889 106.436 25.5638C107.004 25.1114 107.42 25.0499 107.823 24.9782C108.336 24.8865 109.276 23.3093 109.276 23.3093C109.416 23.0619 109.888 22.3343 110.359 22.0365C111.605 21.2488 115.318 20.3145 116.583 19.8905C117.032 19.7398 117.481 19.5772 117.948 19.4925C118.604 19.3737 119.013 19.3339 119.495 19.5176C120.603 19.9399 121.273 21.6235 124.595 22.0261C124.863 22.0586 125.367 22.1458 125.393 22.4729C125.395 22.497 125.394 22.5237 125.391 22.5523H125.391Z" fill="url(#paint8_linear)"/>
<path d="M125.391 22.5523C125.391 22.5345 125.391 22.5178 125.388 22.5021C125.345 22.1766 124.838 22.1153 124.568 22.0967C121.23 21.8642 120.475 20.217 119.347 19.852C118.856 19.6932 118.45 19.7539 117.801 19.906C117.338 20.0144 116.899 20.1998 116.458 20.3733C115.216 20.8614 111.556 21.9842 110.352 22.8348C109.897 23.1561 109.463 23.9071 109.336 24.1612C109.336 24.1612 108.477 25.7845 107.969 25.9021C107.571 25.9945 107.158 26.0771 106.614 26.5579C106.344 26.7972 105.75 27.1861 105.429 27.0684C105.115 26.9531 104.423 26.3787 104.503 25.1668C104.504 25.1595 104.505 25.1519 104.505 25.1446C104.688 25.6501 105.03 25.9293 105.226 26.013C105.541 26.147 106.153 25.7889 106.436 25.5638C107.004 25.1114 107.42 25.0499 107.823 24.9782C108.336 24.8865 109.276 23.3093 109.276 23.3093C109.416 23.0619 109.888 22.3343 110.359 22.0365C111.605 21.2488 115.318 20.3145 116.583 19.8905C117.032 19.7398 117.481 19.5772 117.948 19.4925C118.604 19.3737 119.013 19.3339 119.495 19.5176C120.603 19.9399 121.273 21.6235 124.595 22.0261C124.863 22.0586 125.367 22.1458 125.393 22.4729C125.395 22.497 125.394 22.5237 125.391 22.5523H125.391Z" fill="url(#paint9_linear)"/>
<path d="M140.991 14.8129C140.945 14.7547 140.895 14.6971 140.841 14.6383C140.257 14.0027 139.105 13.3659 137.96 13.4184C135.539 13.5295 134.456 15.2215 134.216 15.7457C133.883 16.475 133.882 16.8426 133.942 17.5058C134.003 18.1816 134.148 18.6012 134.142 18.8753C134.124 19.623 133.692 19.8768 133.182 20.1433C132.191 20.66 131.534 20.4664 131.259 20.3491C129.98 19.8039 129.971 19.0506 128.878 18.6306C128.161 18.3548 127.04 18.4146 126.239 18.3273C127.018 18.3471 128.006 18.2688 128.673 18.4865C129.786 18.8501 129.832 19.6019 131.138 20.0811C131.418 20.1841 132.084 20.344 133.048 19.777C133.544 19.485 133.962 19.2096 133.942 18.4618C133.934 18.1878 133.768 17.7761 133.672 17.1042C133.578 16.4452 133.56 16.0778 133.856 15.3324C134.069 14.7967 135.063 13.0518 137.476 12.8169C138.616 12.7058 139.8 13.2829 140.416 13.8878C140.688 14.1552 140.863 14.4038 140.991 14.8129V14.8129Z" fill="url(#paint10_linear)"/>
<path d="M140.991 14.8129C140.945 14.7547 140.895 14.6971 140.841 14.6383C140.257 14.0027 139.105 13.3659 137.96 13.4184C135.539 13.5295 134.456 15.2215 134.216 15.7457C133.883 16.475 133.882 16.8426 133.942 17.5058C134.003 18.1816 134.148 18.6012 134.142 18.8753C134.124 19.623 133.692 19.8768 133.182 20.1433C132.191 20.66 131.534 20.4664 131.259 20.3491C129.98 19.8039 129.971 19.0506 128.878 18.6306C128.161 18.3548 127.04 18.4146 126.239 18.3273C127.018 18.3471 128.006 18.2688 128.673 18.4865C129.786 18.8501 129.832 19.6019 131.138 20.0811C131.418 20.1841 132.084 20.344 133.048 19.777C133.544 19.485 133.962 19.2096 133.942 18.4618C133.934 18.1878 133.768 17.7761 133.672 17.1042C133.578 16.4452 133.56 16.0778 133.856 15.3324C134.069 14.7967 135.063 13.0518 137.476 12.8169C138.616 12.7058 139.8 13.2829 140.416 13.8878C140.688 14.1552 140.863 14.4038 140.991 14.8129V14.8129Z" fill="url(#paint11_linear)"/>
<path fill-rule="evenodd" clip-rule="evenodd" d="M111.985 32.0994V32.6564H112.188V32.3522C112.188 32.2545 112.118 32.1704 111.985 32.0994ZM120.003 32.6564H120.169V31.3137C120.086 31.3758 120.026 31.448 120.003 31.5374V32.6564ZM111.985 30.6416V31.9397H112.188V30.6604H112.32L112.324 30.6416H111.985H111.985ZM120.169 29.8266H119.884L119.887 29.8456H120.003V31.1247H120.169V29.8266H120.169ZM116.401 29.8397V27.0813C116.399 26.8973 116.266 26.7491 116.012 26.6333H115.821L115.824 26.6554H115.938V28.1423H116.274V28.2382L116.272 28.239C116.107 28.3375 115.975 28.4536 115.938 28.6217V29.8382C116.012 29.8317 116.087 29.8285 116.163 29.8285C116.244 29.8285 116.323 29.8325 116.401 29.8394L116.401 29.8397ZM116.661 40.6451C114.412 39.0324 112.538 36.929 111.195 34.4922V32.6564H111.202V27.8017C111.202 27.6299 111.076 27.4919 110.837 27.3845V27.2801H111.202V25.6634H111.326L111.329 25.6393H110.998V25.6388C110.998 25.5828 111.111 25.5115 111.281 25.4686C111.292 25.4605 111.303 25.4518 111.315 25.4414C111.314 25.3765 111.316 25.2928 111.324 25.1847C111.355 24.721 111.519 23.9911 111.539 23.7052C111.547 23.4271 111.553 23.1603 111.555 23.053C111.542 23.0546 111.529 23.0554 111.515 23.0554C111.415 23.0554 111.326 23.0083 111.269 22.9351C111.297 22.9455 111.327 22.951 111.359 22.951C111.503 22.951 111.619 22.8343 111.619 22.6903C111.619 22.5724 111.541 22.4726 111.433 22.4404C111.459 22.4331 111.487 22.4296 111.515 22.4296C111.688 22.4296 111.828 22.5698 111.828 22.7425C111.828 22.8743 111.746 22.9871 111.631 23.0332C111.633 23.1241 111.639 23.4082 111.648 23.7052C111.663 23.9237 111.763 24.4016 111.822 24.8218C111.841 24.9512 111.855 25.0754 111.863 25.1846C111.87 25.2911 111.872 25.3741 111.872 25.4385C111.881 25.4486 111.89 25.4581 111.9 25.4669C112.073 25.5097 112.189 25.5823 112.189 25.6391H111.858L111.861 25.6632H111.984V27.2799H112.35V27.3843L112.348 27.3859C112.168 27.4931 112.024 27.6193 111.985 27.8019V30.6141C112.021 30.5758 112.127 30.534 112.272 30.5066C112.284 30.501 112.296 30.4934 112.308 30.4852C112.308 30.4339 112.311 30.3676 112.318 30.282C112.351 29.9152 112.525 29.3377 112.547 29.1116C112.556 28.8915 112.562 28.6804 112.564 28.5955C112.55 28.5971 112.536 28.5971 112.521 28.5971C112.415 28.5971 112.32 28.5598 112.259 28.502C112.289 28.5102 112.321 28.5147 112.355 28.5147C112.508 28.5147 112.632 28.4222 112.632 28.3084C112.632 28.2149 112.549 28.136 112.434 28.1107C112.462 28.105 112.491 28.1021 112.521 28.1021C112.705 28.1021 112.854 28.213 112.854 28.3496C112.854 28.4539 112.767 28.5432 112.645 28.5797C112.646 28.6514 112.653 28.8762 112.663 29.1112C112.679 29.2841 112.785 29.6623 112.848 29.9948C112.868 30.0973 112.883 30.1954 112.891 30.2816C112.898 30.366 112.901 30.4315 112.901 30.4826C112.91 30.4907 112.92 30.4981 112.931 30.5052C113.115 30.5391 113.238 30.5962 113.238 30.6415H112.886L112.889 30.6602H113.02V31.9395H113.409V32.022L113.406 32.0228C113.215 32.1075 113.062 32.2073 113.02 32.3518V32.656H113.633C113.623 32.5633 113.618 32.4689 113.618 32.3734C113.618 31.3023 114.28 30.3851 115.218 30.0097V28.6216C115.217 28.4636 115.102 28.3367 114.882 28.2378V28.1419H115.218V26.655H115.332L115.335 26.6329H115.03V26.6324C115.031 26.5807 115.135 26.5153 115.29 26.4758C115.301 26.4685 115.311 26.4604 115.322 26.4507C115.321 26.3912 115.323 26.3142 115.33 26.2148C115.359 25.7883 115.509 25.1169 115.528 24.8541C115.536 24.5984 115.541 24.3531 115.543 24.2543C115.531 24.256 115.518 24.2568 115.506 24.2568C115.414 24.2568 115.332 24.2137 115.279 24.1462C115.305 24.1558 115.333 24.161 115.362 24.161C115.494 24.161 115.602 24.0534 115.602 23.9211C115.602 23.8126 115.53 23.7208 115.431 23.6912C115.455 23.6848 115.48 23.6813 115.506 23.6813C115.665 23.6813 115.794 23.8102 115.794 23.9691C115.794 24.0904 115.719 24.1941 115.612 24.2365C115.614 24.32 115.62 24.5814 115.628 24.8545C115.642 25.0553 115.733 25.4949 115.788 25.8815C115.805 26.0004 115.819 26.1146 115.826 26.215C115.832 26.3131 115.834 26.3893 115.834 26.4485C115.842 26.4579 115.851 26.4666 115.86 26.4746C115.916 26.4885 115.965 26.5058 116.006 26.5246V26.5182H116.401V24.7714H116.534L116.537 24.7456H116.179V24.7451C116.18 24.6845 116.302 24.6074 116.485 24.5611C116.497 24.5528 116.509 24.5431 116.522 24.5318C116.521 24.4618 116.524 24.3714 116.532 24.2544C116.565 23.7536 116.742 22.965 116.764 22.6561C116.773 22.3557 116.779 22.0674 116.782 21.9515C116.767 21.9531 116.753 21.954 116.738 21.954C116.63 21.954 116.534 21.9031 116.472 21.824C116.502 21.8352 116.535 21.8413 116.569 21.8413C116.725 21.8413 116.851 21.715 116.851 21.5596C116.851 21.432 116.766 21.3243 116.65 21.2896C116.678 21.2815 116.708 21.278 116.738 21.278C116.925 21.278 117.076 21.4293 117.076 21.6158C117.076 21.7583 116.988 21.8803 116.863 21.93C116.865 22.0281 116.872 22.335 116.882 22.656C116.898 22.892 117.006 23.4083 117.07 23.8623C117.09 24.0022 117.106 24.1362 117.114 24.2541C117.121 24.3694 117.124 24.4587 117.124 24.5284C117.133 24.5393 117.143 24.5498 117.154 24.5592C117.341 24.6054 117.466 24.6838 117.466 24.7453H117.108L117.111 24.7711H117.245V26.5178H117.639V26.6305L117.637 26.6321C117.443 26.7479 117.288 26.8843 117.245 27.0815V30.0707C118.108 30.4777 118.707 31.3564 118.707 32.374C118.707 32.4695 118.701 32.5638 118.691 32.6566H119.267V31.5375C119.265 31.4018 119.148 31.2924 118.924 31.2075V31.1249H119.267V29.8457H119.383L119.386 29.8267H119.075V29.8264C119.076 29.7821 119.182 29.7256 119.341 29.6917C119.351 29.6852 119.362 29.6785 119.373 29.6701C119.373 29.619 119.375 29.5527 119.382 29.4671C119.41 29.1003 119.565 28.5227 119.583 28.2965C119.591 28.0766 119.597 27.8655 119.599 27.7806C119.586 27.7822 119.574 27.7822 119.561 27.7822C119.467 27.7822 119.383 27.7449 119.33 27.6871C119.356 27.6953 119.384 27.6998 119.414 27.6998C119.549 27.6998 119.659 27.6073 119.659 27.4933C119.659 27.4 119.585 27.3211 119.484 27.2956C119.509 27.2899 119.534 27.287 119.561 27.287C119.723 27.287 119.855 27.398 119.855 27.5348C119.855 27.6388 119.778 27.7282 119.67 27.7646C119.671 27.8365 119.677 28.0613 119.686 28.2963C119.7 28.4692 119.793 28.8474 119.85 29.1798C119.867 29.2821 119.881 29.3802 119.887 29.4667C119.894 29.5511 119.896 29.6166 119.896 29.6675C119.904 29.6757 119.913 29.6832 119.923 29.6901C120.038 29.7142 120.126 29.7502 120.168 29.7851V27.8021C120.167 27.6468 120.053 27.5222 119.838 27.425V27.3308H120.168V25.8697H120.28L120.283 25.8481H119.983V25.8477C119.984 25.7971 120.086 25.7327 120.239 25.6938C120.249 25.6873 120.26 25.6788 120.27 25.6694C120.269 25.6106 120.272 25.5351 120.278 25.4374C120.306 25.0184 120.454 24.3588 120.472 24.1004C120.48 23.8491 120.485 23.6081 120.487 23.5111C120.475 23.5127 120.463 23.5135 120.451 23.5135C120.361 23.5135 120.28 23.4709 120.228 23.4048C120.254 23.4141 120.281 23.4192 120.31 23.4192C120.44 23.4192 120.545 23.3136 120.545 23.1836C120.545 23.077 120.474 22.9868 120.377 22.9577C120.401 22.9512 120.425 22.948 120.451 22.948C120.607 22.948 120.734 23.0746 120.734 23.2307C120.734 23.3499 120.66 23.4519 120.556 23.4935C120.557 23.5755 120.563 23.8323 120.571 24.1007C120.585 24.2981 120.674 24.73 120.729 25.1096C120.745 25.2268 120.759 25.3387 120.765 25.4375C120.771 25.5336 120.774 25.6087 120.773 25.6668C120.781 25.6761 120.79 25.6847 120.799 25.6925C120.955 25.7312 121.06 25.7967 121.06 25.8481H120.76L120.764 25.8698H120.875V27.3309H121.205V27.4251L121.204 27.4259C121.042 27.5226 120.911 27.6367 120.876 27.8017V32.6558H120.956C120.783 32.9679 120.551 33.2873 120.231 33.6196C119.461 34.4176 119.145 34.581 118.35 35.3017C117.324 36.2317 116.927 37.6135 116.774 38.2416C116.574 39.061 116.568 39.9771 116.661 40.6445V40.6451Z" fill="#F3CCB6"/>
<path fill-rule="evenodd" clip-rule="evenodd" d="M111.985 32.0994V32.6564H112.188V32.3522C112.188 32.2545 112.118 32.1704 111.985 32.0994ZM120.003 32.6564H120.169V31.3137C120.086 31.3758 120.026 31.448 120.003 31.5374V32.6564ZM111.985 30.6416V31.9397H112.188V30.6604H112.32L112.324 30.6416H111.985H111.985ZM120.169 29.8266H119.884L119.887 29.8456H120.003V31.1247H120.169V29.8266H120.169ZM116.401 29.8397V27.0813C116.399 26.8973 116.266 26.7491 116.012 26.6333H115.821L115.824 26.6554H115.938V28.1423H116.274V28.2382L116.272 28.239C116.107 28.3375 115.975 28.4536 115.938 28.6217V29.8382C116.012 29.8317 116.087 29.8285 116.163 29.8285C116.244 29.8285 116.323 29.8325 116.401 29.8394L116.401 29.8397ZM116.661 40.6451C114.412 39.0324 112.538 36.929 111.195 34.4922V32.6564H111.202V27.8017C111.202 27.6299 111.076 27.4919 110.837 27.3845V27.2801H111.202V25.6634H111.326L111.329 25.6393H110.998V25.6388C110.998 25.5828 111.111 25.5115 111.281 25.4686C111.292 25.4605 111.303 25.4518 111.315 25.4414C111.314 25.3765 111.316 25.2928 111.324 25.1847C111.355 24.721 111.519 23.9911 111.539 23.7052C111.547 23.4271 111.553 23.1603 111.555 23.053C111.542 23.0546 111.529 23.0554 111.515 23.0554C111.415 23.0554 111.326 23.0083 111.269 22.9351C111.297 22.9455 111.327 22.951 111.359 22.951C111.503 22.951 111.619 22.8343 111.619 22.6903C111.619 22.5724 111.541 22.4726 111.433 22.4404C111.459 22.4331 111.487 22.4296 111.515 22.4296C111.688 22.4296 111.828 22.5698 111.828 22.7425C111.828 22.8743 111.746 22.9871 111.631 23.0332C111.633 23.1241 111.639 23.4082 111.648 23.7052C111.663 23.9237 111.763 24.4016 111.822 24.8218C111.841 24.9512 111.855 25.0754 111.863 25.1846C111.87 25.2911 111.872 25.3741 111.872 25.4385C111.881 25.4486 111.89 25.4581 111.9 25.4669C112.073 25.5097 112.189 25.5823 112.189 25.6391H111.858L111.861 25.6632H111.984V27.2799H112.35V27.3843L112.348 27.3859C112.168 27.4931 112.024 27.6193 111.985 27.8019V30.6141C112.021 30.5758 112.127 30.534 112.272 30.5066C112.284 30.501 112.296 30.4934 112.308 30.4852C112.308 30.4339 112.311 30.3676 112.318 30.282C112.351 29.9152 112.525 29.3377 112.547 29.1116C112.556 28.8915 112.562 28.6804 112.564 28.5955C112.55 28.5971 112.536 28.5971 112.521 28.5971C112.415 28.5971 112.32 28.5598 112.259 28.502C112.289 28.5102 112.321 28.5147 112.355 28.5147C112.508 28.5147 112.632 28.4222 112.632 28.3084C112.632 28.2149 112.549 28.136 112.434 28.1107C112.462 28.105 112.491 28.1021 112.521 28.1021C112.705 28.1021 112.854 28.213 112.854 28.3496C112.854 28.4539 112.767 28.5432 112.645 28.5797C112.646 28.6514 112.653 28.8762 112.663 29.1112C112.679 29.2841 112.785 29.6623 112.848 29.9948C112.868 30.0973 112.883 30.1954 112.891 30.2816C112.898 30.366 112.901 30.4315 112.901 30.4826C112.91 30.4907 112.92 30.4981 112.931 30.5052C113.115 30.5391 113.238 30.5962 113.238 30.6415H112.886L112.889 30.6602H113.02V31.9395H113.409V32.022L113.406 32.0228C113.215 32.1075 113.062 32.2073 113.02 32.3518V32.656H113.633C113.623 32.5633 113.618 32.4689 113.618 32.3734C113.618 31.3023 114.28 30.3851 115.218 30.0097V28.6216C115.217 28.4636 115.102 28.3367 114.882 28.2378V28.1419H115.218V26.655H115.332L115.335 26.6329H115.03V26.6324C115.031 26.5807 115.135 26.5153 115.29 26.4758C115.301 26.4685 115.311 26.4604 115.322 26.4507C115.321 26.3912 115.323 26.3142 115.33 26.2148C115.359 25.7883 115.509 25.1169 115.528 24.8541C115.536 24.5984 115.541 24.3531 115.543 24.2543C115.531 24.256 115.518 24.2568 115.506 24.2568C115.414 24.2568 115.332 24.2137 115.279 24.1462C115.305 24.1558 115.333 24.161 115.362 24.161C115.494 24.161 115.602 24.0534 115.602 23.9211C115.602 23.8126 115.53 23.7208 115.431 23.6912C115.455 23.6848 115.48 23.6813 115.506 23.6813C115.665 23.6813 115.794 23.8102 115.794 23.9691C115.794 24.0904 115.719 24.1941 115.612 24.2365C115.614 24.32 115.62 24.5814 115.628 24.8545C115.642 25.0553 115.733 25.4949 115.788 25.8815C115.805 26.0004 115.819 26.1146 115.826 26.215C115.832 26.3131 115.834 26.3893 115.834 26.4485C115.842 26.4579 115.851 26.4666 115.86 26.4746C115.916 26.4885 115.965 26.5058 116.006 26.5246V26.5182H116.401V24.7714H116.534L116.537 24.7456H116.179V24.7451C116.18 24.6845 116.302 24.6074 116.485 24.5611C116.497 24.5528 116.509 24.5431 116.522 24.5318C116.521 24.4618 116.524 24.3714 116.532 24.2544C116.565 23.7536 116.742 22.965 116.764 22.6561C116.773 22.3557 116.779 22.0674 116.782 21.9515C116.767 21.9531 116.753 21.954 116.738 21.954C116.63 21.954 116.534 21.9031 116.472 21.824C116.502 21.8352 116.535 21.8413 116.569 21.8413C116.725 21.8413 116.851 21.715 116.851 21.5596C116.851 21.432 116.766 21.3243 116.65 21.2896C116.678 21.2815 116.708 21.278 116.738 21.278C116.925 21.278 117.076 21.4293 117.076 21.6158C117.076 21.7583 116.988 21.8803 116.863 21.93C116.865 22.0281 116.872 22.335 116.882 22.656C116.898 22.892 117.006 23.4083 117.07 23.8623C117.09 24.0022 117.106 24.1362 117.114 24.2541C117.121 24.3694 117.124 24.4587 117.124 24.5284C117.133 24.5393 117.143 24.5498 117.154 24.5592C117.341 24.6054 117.466 24.6838 117.466 24.7453H117.108L117.111 24.7711H117.245V26.5178H117.639V26.6305L117.637 26.6321C117.443 26.7479 117.288 26.8843 117.245 27.0815V30.0707C118.108 30.4777 118.707 31.3564 118.707 32.374C118.707 32.4695 118.701 32.5638 118.691 32.6566H119.267V31.5375C119.265 31.4018 119.148 31.2924 118.924 31.2075V31.1249H119.267V29.8457H119.383L119.386 29.8267H119.075V29.8264C119.076 29.7821 119.182 29.7256 119.341 29.6917C119.351 29.6852 119.362 29.6785 119.373 29.6701C119.373 29.619 119.375 29.5527 119.382 29.4671C119.41 29.1003 119.565 28.5227 119.583 28.2965C119.591 28.0766 119.597 27.8655 119.599 27.7806C119.586 27.7822 119.574 27.7822 119.561 27.7822C119.467 27.7822 119.383 27.7449 119.33 27.6871C119.356 27.6953 119.384 27.6998 119.414 27.6998C119.549 27.6998 119.659 27.6073 119.659 27.4933C119.659 27.4 119.585 27.3211 119.484 27.2956C119.509 27.2899 119.534 27.287 119.561 27.287C119.723 27.287 119.855 27.398 119.855 27.5348C119.855 27.6388 119.778 27.7282 119.67 27.7646C119.671 27.8365 119.677 28.0613 119.686 28.2963C119.7 28.4692 119.793 28.8474 119.85 29.1798C119.867 29.2821 119.881 29.3802 119.887 29.4667C119.894 29.5511 119.896 29.6166 119.896 29.6675C119.904 29.6757 119.913 29.6832 119.923 29.6901C120.038 29.7142 120.126 29.7502 120.168 29.7851V27.8021C120.167 27.6468 120.053 27.5222 119.838 27.425V27.3308H120.168V25.8697H120.28L120.283 25.8481H119.983V25.8477C119.984 25.7971 120.086 25.7327 120.239 25.6938C120.249 25.6873 120.26 25.6788 120.27 25.6694C120.269 25.6106 120.272 25.5351 120.278 25.4374C120.306 25.0184 120.454 24.3588 120.472 24.1004C120.48 23.8491 120.485 23.6081 120.487 23.5111C120.475 23.5127 120.463 23.5135 120.451 23.5135C120.361 23.5135 120.28 23.4709 120.228 23.4048C120.254 23.4141 120.281 23.4192 120.31 23.4192C120.44 23.4192 120.545 23.3136 120.545 23.1836C120.545 23.077 120.474 22.9868 120.377 22.9577C120.401 22.9512 120.425 22.948 120.451 22.948C120.607 22.948 120.734 23.0746 120.734 23.2307C120.734 23.3499 120.66 23.4519 120.556 23.4935C120.557 23.5755 120.563 23.8323 120.571 24.1007C120.585 24.2981 120.674 24.73 120.729 25.1096C120.745 25.2268 120.759 25.3387 120.765 25.4375C120.771 25.5336 120.774 25.6087 120.773 25.6668C120.781 25.6761 120.79 25.6847 120.799 25.6925C120.955 25.7312 121.06 25.7967 121.06 25.8481H120.76L120.764 25.8698H120.875V27.3309H121.205V27.4251L121.204 27.4259C121.042 27.5226 120.911 27.6367 120.876 27.8017V32.6558H120.956C120.783 32.9679 120.551 33.2873 120.231 33.6196C119.461 34.4176 119.145 34.581 118.35 35.3017C117.324 36.2317 116.927 37.6135 116.774 38.2416C116.574 39.061 116.568 39.9771 116.661 40.6445V40.6451Z" fill="#F3CCB6"/>
<path fill-rule="evenodd" clip-rule="evenodd" d="M136.758 40.5237C136.758 40.4745 136.738 40.4273 136.703 40.3927C136.669 40.3578 136.622 40.3382 136.572 40.3382C136.569 40.3382 136.566 40.3382 136.562 40.3382C136.514 40.3382 136.468 40.3574 136.434 40.3913C136.4 40.4254 136.381 40.4716 136.381 40.5197C136.381 40.7003 136.381 40.9509 136.381 40.9509H136.758C136.758 40.9509 136.758 40.704 136.758 40.5237ZM135.391 42.3246V40.9509L135.862 40.9039V39.7256L136.145 39.5842V38.2177L136.475 38.1704L136.479 37.0498L136.333 36.9971V36.8507L136.616 36.8036L136.758 36.5681L136.852 33.7403L137.001 33.5529L136.946 33.269L136.913 33.1398L137.135 33.0806L137.229 31.4311H137.323L137.417 33.0806L137.639 33.1398L137.606 33.269L137.551 33.5529L137.7 33.7403L137.795 36.5681L137.936 36.8036L138.219 36.8507V36.9971L138.073 37.0498L138.077 38.1704L138.407 38.2177V39.5842L138.69 39.7256V40.311C138.513 40.4456 138.335 40.5772 138.153 40.7056V40.5237C138.153 40.4745 138.134 40.4273 138.099 40.3927C138.064 40.3578 138.017 40.3382 137.968 40.3382C137.965 40.3382 137.961 40.3382 137.958 40.3382C137.909 40.3382 137.863 40.3574 137.829 40.3913C137.795 40.4254 137.776 40.4716 137.776 40.5197C137.776 40.7003 137.776 40.9509 137.776 40.9509H137.799C137.034 41.4662 136.23 41.926 135.391 42.3246H135.391ZM137.394 38.9903C137.394 38.9279 137.343 38.8774 137.281 38.8774C137.273 38.8774 137.264 38.8774 137.255 38.8774C137.23 38.8774 137.205 38.8876 137.187 38.9058C137.169 38.924 137.158 38.9487 137.158 38.9745C137.158 39.0862 137.158 39.2543 137.158 39.2543H137.394C137.394 39.2543 137.394 39.1014 137.394 38.9903V38.9903ZM137.394 37.1921C137.394 37.1338 137.347 37.0865 137.288 37.0865C137.275 37.0865 137.262 37.0865 137.249 37.0865C137.225 37.0865 137.202 37.096 137.185 37.113C137.168 37.13 137.158 37.1529 137.158 37.1768C137.158 37.3771 137.158 37.8405 137.158 37.8405H137.394C137.394 37.8405 137.394 37.3997 137.394 37.1921ZM137.37 34.123C137.37 34.0678 137.326 34.0232 137.271 34.0232C137.221 34.0232 137.182 34.0628 137.182 34.1118C137.182 34.2599 137.182 34.5416 137.182 34.5416H137.37C137.37 34.5416 137.37 34.2736 137.37 34.123V34.123Z" fill="#D0D7EA"/>
<path fill-rule="evenodd" clip-rule="evenodd" d="M136.758 40.5237C136.758 40.4745 136.738 40.4273 136.703 40.3927C136.669 40.3578 136.622 40.3382 136.572 40.3382C136.569 40.3382 136.566 40.3382 136.562 40.3382C136.514 40.3382 136.468 40.3574 136.434 40.3913C136.4 40.4254 136.381 40.4716 136.381 40.5197C136.381 40.7003 136.381 40.9509 136.381 40.9509H136.758C136.758 40.9509 136.758 40.704 136.758 40.5237ZM135.391 42.3246V40.9509L135.862 40.9039V39.7256L136.145 39.5842V38.2177L136.475 38.1704L136.479 37.0498L136.333 36.9971V36.8507L136.616 36.8036L136.758 36.5681L136.852 33.7403L137.001 33.5529L136.946 33.269L136.913 33.1398L137.135 33.0806L137.229 31.4311H137.323L137.417 33.0806L137.639 33.1398L137.606 33.269L137.551 33.5529L137.7 33.7403L137.795 36.5681L137.936 36.8036L138.219 36.8507V36.9971L138.073 37.0498L138.077 38.1704L138.407 38.2177V39.5842L138.69 39.7256V40.311C138.513 40.4456 138.335 40.5772 138.153 40.7056V40.5237C138.153 40.4745 138.134 40.4273 138.099 40.3927C138.064 40.3578 138.017 40.3382 137.968 40.3382C137.965 40.3382 137.961 40.3382 137.958 40.3382C137.909 40.3382 137.863 40.3574 137.829 40.3913C137.795 40.4254 137.776 40.4716 137.776 40.5197C137.776 40.7003 137.776 40.9509 137.776 40.9509H137.799C137.034 41.4662 136.23 41.926 135.391 42.3246H135.391ZM137.394 38.9903C137.394 38.9279 137.343 38.8774 137.281 38.8774C137.273 38.8774 137.264 38.8774 137.255 38.8774C137.23 38.8774 137.205 38.8876 137.187 38.9058C137.169 38.924 137.158 38.9487 137.158 38.9745C137.158 39.0862 137.158 39.2543 137.158 39.2543H137.394C137.394 39.2543 137.394 39.1014 137.394 38.9903V38.9903ZM137.394 37.1921C137.394 37.1338 137.347 37.0865 137.288 37.0865C137.275 37.0865 137.262 37.0865 137.249 37.0865C137.225 37.0865 137.202 37.096 137.185 37.113C137.168 37.13 137.158 37.1529 137.158 37.1768C137.158 37.3771 137.158 37.8405 137.158 37.8405H137.394C137.394 37.8405 137.394 37.3997 137.394 37.1921ZM137.37 34.123C137.37 34.0678 137.326 34.0232 137.271 34.0232C137.221 34.0232 137.182 34.0628 137.182 34.1118C137.182 34.2599 137.182 34.5416 137.182 34.5416H137.37C137.37 34.5416 137.37 34.2736 137.37 34.123V34.123Z" fill="#D0D7EA"/>
<path fill-rule="evenodd" clip-rule="evenodd" d="M131.16 20.3052C129.979 19.7641 129.942 19.0394 128.878 18.6306C127.913 18.2601 126.219 18.4956 125.555 18.1647C125.044 17.9105 123.926 17.4907 122.605 17.115L122.714 16.2088H130.348L131.16 20.3052ZM132.162 14.7479C131.367 15.6442 130.347 16.0203 130.347 16.0203H122.666C122.666 16.0203 121.646 15.6442 120.852 14.7479H132.162ZM132.425 14.418H120.589C120.193 13.8628 119.907 13.1479 119.933 12.2499C119.946 11.8037 120.162 11.0984 120.263 10.8361C120.384 10.5213 119.98 10.5063 119.98 10.5063V10.3649C119.98 10.3649 122.981 10.3649 123.934 10.3649C124.114 10.3649 124.291 10.3327 124.459 10.2697C124.843 10.1274 125.65 9.87993 126.578 9.89361C127.503 9.90729 128.235 10.1415 128.578 10.2745C128.729 10.3337 128.89 10.3644 129.053 10.3644C129.976 10.3649 133.033 10.3649 133.033 10.3649V10.5063C133.033 10.5063 132.63 10.5213 132.75 10.8361C132.851 11.0984 133.067 11.8037 133.08 12.2499C133.106 13.1479 132.821 13.8628 132.425 14.418V14.418ZM126.507 10.6476C126.845 10.6476 127.119 10.8377 127.119 11.0719C127.119 11.3059 126.845 11.4961 126.507 11.4961C126.168 11.4961 125.894 11.3059 125.894 11.0719C125.894 10.8377 126.168 10.6476 126.507 10.6476ZM128.653 10.9043C128.653 10.8146 128.725 10.742 128.815 10.742C128.908 10.742 128.983 10.817 128.983 10.9094C128.983 11.0232 128.983 11.1732 128.983 11.2861C128.983 11.3292 128.965 11.3706 128.935 11.4012C128.904 11.4317 128.863 11.449 128.82 11.449C128.775 11.449 128.733 11.4311 128.702 11.4C128.67 11.3687 128.653 11.3263 128.653 11.2819C128.653 11.1679 128.653 11.0174 128.653 10.9043ZM124.316 10.9043C124.316 10.8146 124.243 10.742 124.154 10.742C124.061 10.742 123.986 10.817 123.986 10.9094C123.986 11.0232 123.986 11.1732 123.986 11.2861C123.986 11.3292 124.003 11.3706 124.034 11.4012C124.064 11.4317 124.106 11.449 124.149 11.449C124.193 11.449 124.236 11.4311 124.267 11.4C124.298 11.3687 124.316 11.3263 124.316 11.2819C124.316 11.1679 124.316 11.0174 124.316 10.9043V10.9043ZM130.539 10.6927C130.37 10.7028 130.243 10.8798 130.256 11.0874C130.268 11.2951 130.415 11.4555 130.584 11.4454C130.753 11.4351 130.88 11.2583 130.867 11.0506C130.854 10.8429 130.707 10.6826 130.539 10.6927ZM122.43 10.6927C122.599 10.7028 122.726 10.8798 122.713 11.0874C122.701 11.2951 122.553 11.4555 122.385 11.4454C122.216 11.4351 122.089 11.2583 122.102 11.0506C122.114 10.8429 122.261 10.6826 122.43 10.6927V10.6927ZM131.805 10.6935C131.714 10.7023 131.656 10.8776 131.675 11.0847C131.695 11.2919 131.785 11.4529 131.876 11.4442C131.968 11.4357 132.026 11.2604 132.006 11.0532C131.986 10.8461 131.896 10.685 131.805 10.6935V10.6935ZM121.164 10.6935C121.255 10.7023 121.313 10.8776 121.293 11.0847C121.274 11.2919 121.183 11.4529 121.092 11.4442C121.001 11.4357 120.943 11.2604 120.963 11.0532C120.982 10.8461 121.072 10.685 121.164 10.6935V10.6935ZM132.469 10.7862C132.412 10.7958 132.39 10.9477 132.42 11.1256C132.45 11.3034 132.52 11.4401 132.577 11.4305C132.634 11.4211 132.655 11.2689 132.626 11.0912C132.596 10.9133 132.526 10.7767 132.469 10.7862V10.7862ZM120.5 10.7862C120.557 10.7958 120.578 10.9477 120.549 11.1256C120.519 11.3034 120.449 11.4401 120.392 11.4305C120.335 11.4211 120.313 11.2689 120.343 11.0912C120.373 10.9133 120.443 10.7767 120.5 10.7862V10.7862Z" fill="#E1E9CC"/>
<path fill-rule="evenodd" clip-rule="evenodd" d="M131.16 20.3052C129.979 19.7641 129.942 19.0394 128.878 18.6306C127.913 18.2601 126.219 18.4956 125.555 18.1647C125.044 17.9105 123.926 17.4907 122.605 17.115L122.714 16.2088H130.348L131.16 20.3052ZM132.162 14.7479C131.367 15.6442 130.347 16.0203 130.347 16.0203H122.666C122.666 16.0203 121.646 15.6442 120.852 14.7479H132.162ZM132.425 14.418H120.589C120.193 13.8628 119.907 13.1479 119.933 12.2499C119.946 11.8037 120.162 11.0984 120.263 10.8361C120.384 10.5213 119.98 10.5063 119.98 10.5063V10.3649C119.98 10.3649 122.981 10.3649 123.934 10.3649C124.114 10.3649 124.291 10.3327 124.459 10.2697C124.843 10.1274 125.65 9.87993 126.578 9.89361C127.503 9.90729 128.235 10.1415 128.578 10.2745C128.729 10.3337 128.89 10.3644 129.053 10.3644C129.976 10.3649 133.033 10.3649 133.033 10.3649V10.5063C133.033 10.5063 132.63 10.5213 132.75 10.8361C132.851 11.0984 133.067 11.8037 133.08 12.2499C133.106 13.1479 132.821 13.8628 132.425 14.418V14.418ZM126.507 10.6476C126.845 10.6476 127.119 10.8377 127.119 11.0719C127.119 11.3059 126.845 11.4961 126.507 11.4961C126.168 11.4961 125.894 11.3059 125.894 11.0719C125.894 10.8377 126.168 10.6476 126.507 10.6476ZM128.653 10.9043C128.653 10.8146 128.725 10.742 128.815 10.742C128.908 10.742 128.983 10.817 128.983 10.9094C128.983 11.0232 128.983 11.1732 128.983 11.2861C128.983 11.3292 128.965 11.3706 128.935 11.4012C128.904 11.4317 128.863 11.449 128.82 11.449C128.775 11.449 128.733 11.4311 128.702 11.4C128.67 11.3687 128.653 11.3263 128.653 11.2819C128.653 11.1679 128.653 11.0174 128.653 10.9043ZM124.316 10.9043C124.316 10.8146 124.243 10.742 124.154 10.742C124.061 10.742 123.986 10.817 123.986 10.9094C123.986 11.0232 123.986 11.1732 123.986 11.2861C123.986 11.3292 124.003 11.3706 124.034 11.4012C124.064 11.4317 124.106 11.449 124.149 11.449C124.193 11.449 124.236 11.4311 124.267 11.4C124.298 11.3687 124.316 11.3263 124.316 11.2819C124.316 11.1679 124.316 11.0174 124.316 10.9043V10.9043ZM130.539 10.6927C130.37 10.7028 130.243 10.8798 130.256 11.0874C130.268 11.2951 130.415 11.4555 130.584 11.4454C130.753 11.4351 130.88 11.2583 130.867 11.0506C130.854 10.8429 130.707 10.6826 130.539 10.6927ZM122.43 10.6927C122.599 10.7028 122.726 10.8798 122.713 11.0874C122.701 11.2951 122.553 11.4555 122.385 11.4454C122.216 11.4351 122.089 11.2583 122.102 11.0506C122.114 10.8429 122.261 10.6826 122.43 10.6927V10.6927ZM131.805 10.6935C131.714 10.7023 131.656 10.8776 131.675 11.0847C131.695 11.2919 131.785 11.4529 131.876 11.4442C131.968 11.4357 132.026 11.2604 132.006 11.0532C131.986 10.8461 131.896 10.685 131.805 10.6935V10.6935ZM121.164 10.6935C121.255 10.7023 121.313 10.8776 121.293 11.0847C121.274 11.2919 121.183 11.4529 121.092 11.4442C121.001 11.4357 120.943 11.2604 120.963 11.0532C120.982 10.8461 121.072 10.685 121.164 10.6935V10.6935ZM132.469 10.7862C132.412 10.7958 132.39 10.9477 132.42 11.1256C132.45 11.3034 132.52 11.4401 132.577 11.4305C132.634 11.4211 132.655 11.2689 132.626 11.0912C132.596 10.9133 132.526 10.7767 132.469 10.7862V10.7862ZM120.5 10.7862C120.557 10.7958 120.578 10.9477 120.549 11.1256C120.519 11.3034 120.449 11.4401 120.392 11.4305C120.335 11.4211 120.313 11.2689 120.343 11.0912C120.373 10.9133 120.443 10.7767 120.5 10.7862V10.7862Z" fill="#DBF9E6"/>
<path d="M135.022 42.4947C132.71 43.5317 130.147 44.1086 127.45 44.1086C123.427 44.1086 119.702 42.8249 116.661 40.6451C116.568 39.9776 116.574 39.0616 116.774 38.2421C116.927 37.6141 117.324 36.2323 118.35 35.3022C119.145 34.5815 119.461 34.4182 120.231 33.6202C121.543 32.2599 121.366 31.1144 121.795 29.8107C122.427 27.8888 123.55 25.6345 124.399 24.431C124.399 24.431 125.433 22.9621 125.393 22.4729C125.367 22.1457 124.863 22.0586 124.595 22.0261C121.273 21.6235 120.603 19.9399 119.495 19.5176C119.014 19.3339 118.605 19.3736 117.949 19.4924C117.481 19.5772 117.033 19.7397 116.583 19.8904C115.319 20.3144 111.605 21.2487 110.36 22.0365C109.889 22.3342 109.417 23.0619 109.277 23.3093C109.277 23.3093 108.336 24.8864 107.823 24.9781C107.421 25.0499 107.004 25.1113 106.437 25.5637C106.154 25.7889 105.541 26.147 105.227 26.013C104.919 25.8818 104.258 25.2728 104.4 24.0668C104.542 22.8541 107.319 21.569 109.907 19.9392C110.631 19.4834 111.763 18.9494 112.688 18.5297C113.476 18.1723 114.831 17.3738 115.538 17.0039C116.215 16.6497 117.061 16.3156 117.854 16.3132C120.549 16.3051 124.457 17.6181 125.555 18.1647C126.219 18.4956 127.913 18.2601 128.878 18.6307C129.971 19.0506 129.98 19.8039 131.259 20.3492C131.534 20.4664 132.191 20.66 133.182 20.1433C133.692 19.8769 134.124 19.623 134.142 18.8753C134.148 18.6012 134.003 18.1817 133.942 17.5058C133.882 16.8426 133.883 16.475 134.216 15.7457C134.456 15.2215 135.539 13.5296 137.96 13.4184C139.105 13.3659 140.257 14.0027 140.841 14.6383C141.324 15.1633 141.47 15.6054 141.551 17.1504C141.56 17.318 141.67 17.8795 141.642 18.1516C141.598 18.5851 141.17 18.6519 141.107 18.9145C141.044 19.1769 141.129 19.3179 141.265 19.7266C141.38 20.0693 141.49 20.4854 141.423 20.5614C141.263 20.7461 141.017 20.5803 140.841 20.7001C140.631 20.8428 140.788 21.117 140.736 21.2739C140.668 21.478 140.455 21.3852 140.397 21.5181C140.321 21.6954 140.512 21.6666 140.464 21.8648C140.414 22.072 140.182 21.9448 140.02 22.2141C139.885 22.4397 139.985 22.6122 139.865 22.7492C139.702 22.9361 139.5 22.9303 139.208 22.8851C138.545 22.7831 138.204 22.4695 137.78 22.6439C137.253 22.8608 136.803 23.4508 136.707 23.8196C136.605 24.2081 137.118 24.4334 137.181 24.4712C137.435 24.6253 137.552 24.8402 137.974 25.2697C138.128 25.4272 138.426 25.9751 138.656 26.5869C138.814 27.0067 138.826 27.1816 139.016 27.6573C139.092 27.8457 139.182 28.1815 139.457 28.5227C139.806 28.9536 140.12 29.2549 140.755 29.7591C141.308 30.1989 141.694 30.8338 141.754 31.0902C141.813 31.3451 142.099 31.4867 142.325 31.353C142.495 31.2518 143.357 31.0391 143.822 30.5024C144.334 29.911 145.237 28.5036 145.539 27.9903C145.636 27.8246 145.636 27.5625 145.633 27.4216C145.619 26.7497 145.576 26.6573 145.591 26.2957C145.608 25.8925 145.695 25.5022 145.81 25.2476C145.874 25.1064 145.852 25.2199 146.428 24.4129C146.795 23.9005 146.906 23.6032 147.072 23.5589C147.358 23.4823 147.426 23.6466 147.657 23.8694C148.273 24.4653 149.236 25.4198 149.299 25.5304C149.299 25.5304 149.449 25.9036 149.523 26.0963C149.955 27.2171 145.277 32.7993 144.08 34.6757C143.951 34.8782 143.65 35.5338 142.996 35.7682C142.345 36.001 141.913 35.7914 141.787 35.7461C141.295 35.5693 140.984 35.1687 140.832 34.986C140.363 34.4206 139.845 33.8008 139.337 33.1941C138.056 31.6641 136.837 30.2177 136.608 29.9394C136.384 29.6672 136.24 29.3673 136.182 29.3517C136.033 29.3117 135.871 29.465 135.806 29.5292C134.641 30.6599 130.644 33.4271 127.165 37.5819C126.364 38.3548 127.077 38.4005 127.154 38.4248C128.052 38.7083 130.345 39.5938 130.889 39.778C131.736 40.0649 132.287 40.6723 133.698 41.7355C133.919 41.9022 134.609 42.1345 135.022 42.4947V42.4947Z" fill="url(#paint12_linear)"/>
<path d="M135.022 42.4947C132.71 43.5317 130.147 44.1086 127.45 44.1086C123.427 44.1086 119.702 42.8249 116.661 40.6451C116.568 39.9776 116.574 39.0616 116.774 38.2421C116.927 37.6141 117.324 36.2323 118.35 35.3022C119.145 34.5815 119.461 34.4182 120.231 33.6202C121.543 32.2599 121.366 31.1144 121.795 29.8107C122.427 27.8888 123.55 25.6345 124.399 24.431C124.399 24.431 125.433 22.9621 125.393 22.4729C125.367 22.1457 124.863 22.0586 124.595 22.0261C121.273 21.6235 120.603 19.9399 119.495 19.5176C119.014 19.3339 118.605 19.3736 117.949 19.4924C117.481 19.5772 117.033 19.7397 116.583 19.8904C115.319 20.3144 111.605 21.2487 110.36 22.0365C109.889 22.3342 109.417 23.0619 109.277 23.3093C109.277 23.3093 108.336 24.8864 107.823 24.9781C107.421 25.0499 107.004 25.1113 106.437 25.5637C106.154 25.7889 105.541 26.147 105.227 26.013C104.919 25.8818 104.258 25.2728 104.4 24.0668C104.542 22.8541 107.319 21.569 109.907 19.9392C110.631 19.4834 111.763 18.9494 112.688 18.5297C113.476 18.1723 114.831 17.3738 115.538 17.0039C116.215 16.6497 117.061 16.3156 117.854 16.3132C120.549 16.3051 124.457 17.6181 125.555 18.1647C126.219 18.4956 127.913 18.2601 128.878 18.6307C129.971 19.0506 129.98 19.8039 131.259 20.3492C131.534 20.4664 132.191 20.66 133.182 20.1433C133.692 19.8769 134.124 19.623 134.142 18.8753C134.148 18.6012 134.003 18.1817 133.942 17.5058C133.882 16.8426 133.883 16.475 134.216 15.7457C134.456 15.2215 135.539 13.5296 137.96 13.4184C139.105 13.3659 140.257 14.0027 140.841 14.6383C141.324 15.1633 141.47 15.6054 141.551 17.1504C141.56 17.318 141.67 17.8795 141.642 18.1516C141.598 18.5851 141.17 18.6519 141.107 18.9145C141.044 19.1769 141.129 19.3179 141.265 19.7266C141.38 20.0693 141.49 20.4854 141.423 20.5614C141.263 20.7461 141.017 20.5803 140.841 20.7001C140.631 20.8428 140.788 21.117 140.736 21.2739C140.668 21.478 140.455 21.3852 140.397 21.5181C140.321 21.6954 140.512 21.6666 140.464 21.8648C140.414 22.072 140.182 21.9448 140.02 22.2141C139.885 22.4397 139.985 22.6122 139.865 22.7492C139.702 22.9361 139.5 22.9303 139.208 22.8851C138.545 22.7831 138.204 22.4695 137.78 22.6439C137.253 22.8608 136.803 23.4508 136.707 23.8196C136.605 24.2081 137.118 24.4334 137.181 24.4712C137.435 24.6253 137.552 24.8402 137.974 25.2697C138.128 25.4272 138.426 25.9751 138.656 26.5869C138.814 27.0067 138.826 27.1816 139.016 27.6573C139.092 27.8457 139.182 28.1815 139.457 28.5227C139.806 28.9536 140.12 29.2549 140.755 29.7591C141.308 30.1989 141.694 30.8338 141.754 31.0902C141.813 31.3451 142.099 31.4867 142.325 31.353C142.495 31.2518 143.357 31.0391 143.822 30.5024C144.334 29.911 145.237 28.5036 145.539 27.9903C145.636 27.8246 145.636 27.5625 145.633 27.4216C145.619 26.7497 145.576 26.6573 145.591 26.2957C145.608 25.8925 145.695 25.5022 145.81 25.2476C145.874 25.1064 145.852 25.2199 146.428 24.4129C146.795 23.9005 146.906 23.6032 147.072 23.5589C147.358 23.4823 147.426 23.6466 147.657 23.8694C148.273 24.4653 149.236 25.4198 149.299 25.5304C149.299 25.5304 149.449 25.9036 149.523 26.0963C149.955 27.2171 145.277 32.7993 144.08 34.6757C143.951 34.8782 143.65 35.5338 142.996 35.7682C142.345 36.001 141.913 35.7914 141.787 35.7461C141.295 35.5693 140.984 35.1687 140.832 34.986C140.363 34.4206 139.845 33.8008 139.337 33.1941C138.056 31.6641 136.837 30.2177 136.608 29.9394C136.384 29.6672 136.24 29.3673 136.182 29.3517C136.033 29.3117 135.871 29.465 135.806 29.5292C134.641 30.6599 130.644 33.4271 127.165 37.5819C126.364 38.3548 127.077 38.4005 127.154 38.4248C128.052 38.7083 130.345 39.5938 130.889 39.778C131.736 40.0649 132.287 40.6723 133.698 41.7355C133.919 41.9022 134.609 42.1345 135.022 42.4947V42.4947Z" fill="url(#paint13_linear)"/>
<path d="M135.681 44.8912C135.806 44.788 135.888 44.6713 135.917 44.5391C136.001 44.1509 135.554 43.1291 135.184 42.662C134.822 42.2042 133.952 41.9269 133.698 41.7355C132.287 40.6723 131.736 40.0649 130.889 39.778C130.345 39.5938 128.052 38.7083 127.154 38.4248C127.077 38.4005 126.364 38.3548 127.165 37.5819C129.394 34.9197 131.836 32.8271 133.609 31.3699C131.963 32.8882 129.845 34.9602 127.93 37.5006C127.17 38.3135 127.884 38.3226 127.962 38.343C128.874 38.5803 131.209 39.3474 131.761 39.5035C132.622 39.7467 133.203 40.3251 134.667 41.3147C134.93 41.4928 135.813 41.7254 136.199 42.164C136.592 42.6118 137.091 43.6094 137.026 44.0013C136.96 44.3998 136.409 44.686 135.681 44.8912V44.8912Z" fill="url(#paint14_linear)"/>
<path d="M135.681 44.8912C135.806 44.788 135.888 44.6713 135.917 44.5391C136.001 44.1509 135.554 43.1291 135.184 42.662C134.822 42.2042 133.952 41.9269 133.698 41.7355C132.287 40.6723 131.736 40.0649 130.889 39.778C130.345 39.5938 128.052 38.7083 127.154 38.4248C127.077 38.4005 126.364 38.3548 127.165 37.5819C129.394 34.9197 131.836 32.8271 133.609 31.3699C131.963 32.8882 129.845 34.9602 127.93 37.5006C127.17 38.3135 127.884 38.3226 127.962 38.343C128.874 38.5803 131.209 39.3474 131.761 39.5035C132.622 39.7467 133.203 40.3251 134.667 41.3147C134.93 41.4928 135.813 41.7254 136.199 42.164C136.592 42.6118 137.091 43.6094 137.026 44.0013C136.96 44.3998 136.409 44.686 135.681 44.8912V44.8912Z" fill="url(#paint15_linear)"/>
<defs>
<linearGradient id="paint0_linear" x1="-689.508" y1="-275.942" x2="-696.293" y2="-287.234" gradientUnits="userSpaceOnUse">
<stop stop-color="#282D68"/>
<stop offset="1" stop-color="white"/>
</linearGradient>
<linearGradient id="paint1_linear" x1="-689.508" y1="-275.942" x2="-696.293" y2="-287.234" gradientUnits="userSpaceOnUse">
<stop stop-color="#282D68"/>
<stop offset="1" stop-color="white"/>
</linearGradient>
<linearGradient id="paint2_linear" x1="-294.144" y1="191.874" x2="-312.752" y2="202.189" gradientUnits="userSpaceOnUse">
<stop stop-color="#ED9A39"/>
<stop offset="1" stop-color="white"/>
</linearGradient>
<linearGradient id="paint3_linear" x1="-294.144" y1="191.874" x2="-312.752" y2="202.189" gradientUnits="userSpaceOnUse">
<stop stop-color="#ED9A39"/>
<stop offset="1" stop-color="white"/>
</linearGradient>
<linearGradient id="paint4_linear" x1="23.3084" y1="98.3493" x2="16.1787" y2="121.669" gradientUnits="userSpaceOnUse">
<stop stop-color="#4D7632"/>
<stop offset="1" stop-color="white"/>
</linearGradient>
<linearGradient id="paint5_linear" x1="23.3084" y1="98.3493" x2="16.1787" y2="121.669" gradientUnits="userSpaceOnUse">
<stop stop-color="#006749"/>
<stop offset="1" stop-color="white"/>
</linearGradient>
<linearGradient id="paint6_linear" x1="136.694" y1="22.4522" x2="149.709" y2="22.4522" gradientUnits="userSpaceOnUse">
<stop stop-color="#4D7532"/>
<stop offset="1" stop-color="white"/>
</linearGradient>
<linearGradient id="paint7_linear" x1="136.694" y1="22.4522" x2="149.709" y2="22.4522" gradientUnits="userSpaceOnUse">
<stop stop-color="#016D4F"/>
<stop offset="1" stop-color="white"/>
</linearGradient>
<linearGradient id="paint8_linear" x1="-428.944" y1="-620.435" x2="-425.449" y2="-627.295" gradientUnits="userSpaceOnUse">
<stop stop-color="#ED9A39"/>
<stop offset="1" stop-color="white"/>
</linearGradient>
<linearGradient id="paint9_linear" x1="-428.944" y1="-620.435" x2="-425.449" y2="-627.295" gradientUnits="userSpaceOnUse">
<stop stop-color="#ED9A39"/>
<stop offset="1" stop-color="white"/>
</linearGradient>
<linearGradient id="paint10_linear" x1="126.239" y1="12.8031" x2="140.991" y2="12.8031" gradientUnits="userSpaceOnUse">
<stop stop-color="#3A5E2A"/>
<stop offset="1" stop-color="white"/>
</linearGradient>
<linearGradient id="paint11_linear" x1="126.239" y1="12.8031" x2="140.991" y2="12.8031" gradientUnits="userSpaceOnUse">
<stop stop-color="#0A664A"/>
<stop offset="1" stop-color="white"/>
</linearGradient>
<linearGradient id="paint12_linear" x1="-101.063" y1="165.192" x2="-118.668" y2="190.334" gradientUnits="userSpaceOnUse">
<stop stop-color="#FEFEFE"/>
<stop offset="1" stop-color="white"/>
</linearGradient>
<linearGradient id="paint13_linear" x1="-101.063" y1="165.192" x2="-118.668" y2="190.334" gradientUnits="userSpaceOnUse">
<stop stop-color="#FEFEFE"/>
<stop offset="1" stop-color="white"/>
</linearGradient>
<linearGradient id="paint14_linear" x1="178.98" y1="-412.096" x2="190.57" y2="-405.132" gradientUnits="userSpaceOnUse">
<stop stop-color="#282D68"/>
<stop offset="1" stop-color="white"/>
</linearGradient>
<linearGradient id="paint15_linear" x1="178.98" y1="-412.096" x2="190.57" y2="-405.132" gradientUnits="userSpaceOnUse">
<stop stop-color="#282D68"/>
<stop offset="1" stop-color="white"/>
</linearGradient>
</defs>
</svg>
