<svg xmlns="http://www.w3.org/2000/svg" width="160" height="60" fill="none" viewBox="0 0 160 60"><path fill="#fff" fill-rule="evenodd" d="M127.045 3a22.954 22.954 0 1 1 0 45.908 22.954 22.954 0 0 1 0-45.908z" clip-rule="evenodd"/><path fill="#fff" fill-rule="evenodd" d="M35.298 43.943H10l1.355-3.905c1.128-3.25 2.26-6.5 3.388-9.75l.686-1.977H36.74l-.028.595c1.258-.533 2.681-.686 4.031-.686 1.5 0 3.182.165 4.452 1.036.269.185.506.388.712.607l.129-.2.867-1.352h22.032l-.006.016a15.77 15.77 0 0 1 1.917-.107c1.057 0 2.168.107 3.16.492l.138-.401H96.94c.057-.245.128-.49.212-.73l.686-1.974h10.724l-.94 2.704h2.427l-1.356 3.905c-1.074 3.095-2.151 6.189-3.225 9.284.647.088 1.286.24 1.878.493l.176-.509h14.718l-1.355 3.905c-1.128 3.25-2.26 6.5-3.388 9.75l-.686 1.977H102.2c-.649.093-1.306.13-1.954.13-1.701 0-3.583-.24-4.913-1.403a4.678 4.678 0 0 1-.399-.392c-.84.365-1.749.555-2.673.622l-.347 1.043H36.71l1.355-3.905c1.073-3.09 2.148-6.178 3.22-9.268h-1.753c-.753.1-1.514.13-2.227.13a13.35 13.35 0 0 1-2.008-.13z" clip-rule="evenodd"/><path fill="#1A1E47" fill-rule="evenodd" d="M20.09 31.252l-1.273 3.666h.77l3.754-3.666h3.11l-5.055 4.784 1.95 4.966h-3.187l-1.357-3.822h-.771l-1.328 3.822h-2.57l3.388-9.75h2.57zm24.14 13.173h4.074l-.29 6.123h.09l3.874-6.123h4.176l-3.388 9.75h-2.57l2.855-7.475-.107-.026-5.022 7.502H45.7l.177-7.502-.124.026-2.34 7.476h-2.57l3.388-9.751zm67.954 0l-1.274 3.666h3.354l1.273-3.666h2.57l-3.388 9.75h-2.569l1.328-3.822h-3.353l-1.328 3.823h-2.57l3.387-9.751h2.57zm-11.938 9.88c-1.473 0-2.466-.225-2.977-.675-.638-.555-.712-1.539-.221-2.952l.957-2.756c.482-1.387 1.235-2.358 2.258-2.912.833-.45 1.982-.676 3.447-.676 1.474 0 2.467.22 2.982.663.641.546.718 1.521.23 2.925l-.958 2.756c-.485 1.396-1.24 2.375-2.267 2.939-.845.459-1.995.689-3.451.689zm.786-2.261c.702 0 1.201-.091 1.495-.274.349-.217.646-.676.89-1.377l.763-2.198c.238-.684.26-1.13.067-1.339-.162-.174-.604-.26-1.323-.26s-1.215.082-1.486.247c-.346.208-.64.659-.881 1.352l-.763 2.198c-.241.693-.267 1.148-.076 1.364.165.191.603.287 1.314.287zm-11.238 2.132h-2.57l.353-1.015h-1.323c-1.294 0-2.101-.264-2.423-.793-.335-.563-.246-1.586.27-3.068.508-1.465 1.125-2.48 1.849-3.048.724-.568 1.728-.852 3.013-.852h1.31l.34-.975h2.569l-.339.975h1.298c1.293 0 2.104.284 2.434.852.33.567.24 1.583-.269 3.048-.512 1.474-1.122 2.486-1.832 3.036-.71.55-1.72.825-3.03.825h-1.298l-.352 1.015zm2.308-6.644l-1.215 3.497h.874c.488 0 .868-.121 1.141-.364.273-.242.525-.697.757-1.365.223-.641.287-1.096.192-1.365-.095-.269-.387-.403-.876-.403h-.873zm-3.784 3.497l1.215-3.497h-.887c-.48 0-.86.134-1.142.403-.282.269-.534.724-.757 1.365-.232.668-.3 1.123-.204 1.365.095.243.382.364.863.364h.912zm-8.516 1.47h-3.456l-1.057 1.677h-2.673l6.279-9.751H82.8l-.458 9.75h-2.62l.08-1.676zm.129-1.886l.29-4.238-2.667 4.238h2.377zm-12.002.858l-.94 2.705h-2.57l3.388-9.751h4.844c1.199 0 1.958.256 2.277.767.32.511.257 1.404-.185 2.678-.488 1.404-1.025 2.345-1.61 2.822-.634.52-1.611.779-2.93.779h-2.274zm1.707-4.914l-.967 2.782h1.76c.489 0 .833-.084 1.033-.254.2-.168.408-.565.625-1.189.183-.529.24-.875.169-1.04-.086-.2-.372-.299-.86-.299h-1.76zm-8.72 5.942H57.46l-1.057 1.677H53.73l6.278-9.751h3.906l-.458 9.75h-2.622l.082-1.676zm.128-1.886l.29-4.238-2.667 4.238h2.377zM99.44 31.252l-2.231 6.422h.09l5.237-6.422h3.379l-3.387 9.75h-2.442l2.232-6.422h-.09l-5.122 6.422H93.61l3.388-9.75h2.44zm1.569-2.705c-.118.338-.112.568.018.69.129.12.412.181.848.181.437 0 .762-.058.974-.175.211-.117.378-.349.498-.696h1.079c-.283.815-.675 1.366-1.177 1.651-.395.226-.982.339-1.762.339-.797 0-1.307-.11-1.532-.325-.303-.287-.312-.842-.025-1.665h1.079zm-12.22 2.704l-2.232 6.423h.09l5.238-6.422h3.38l-3.388 9.75h-2.441l2.23-6.422h-.09l-5.121 6.422H82.96l3.388-9.75h2.441zm-9.983 0l-1.274 3.667h.771l3.753-3.666h3.11l-5.054 4.784 1.949 4.966h-3.186l-1.358-3.822h-.77l-1.329 3.822h-2.57l3.389-9.75h2.57zm-5.262 3.498h-2.647l.131-.377c.124-.356.058-.611-.196-.767-.206-.122-.557-.182-1.054-.182-.694 0-1.19.134-1.49.402-.249.226-.504.711-.763 1.457l-.528 1.52c-.283.815-.392 1.34-.328 1.574.091.33.497.494 1.216.494.591 0 1.006-.06 1.245-.182.323-.165.576-.512.76-1.04l.1-.286h2.646l-.1.286c-.472 1.36-1.069 2.282-1.788 2.763-.72.48-1.842.721-3.366.721-1.08 0-1.84-.056-2.28-.169-.66-.173-1.077-.511-1.254-1.014-.194-.572-.095-1.425.3-2.561l.876-2.522c.52-1.5 1.276-2.518 2.269-3.056.792-.433 1.977-.65 3.553-.65 1.354 0 2.253.221 2.7.663.504.495.547 1.344.129 2.549l-.131.377zM58.879 31.25l-1.274 3.667h3.353l1.274-3.666h2.57l-3.388 9.75h-2.57l1.328-3.822H56.82l-1.328 3.822h-2.57l3.388-9.75h2.57zm-9.46 8.074h-3.457l-1.058 1.677h-2.672l6.278-9.75h3.906l-.458 9.75h-2.621l.081-1.677zm.128-1.885l.29-4.238-2.667 4.238h2.377zm-11.679-.481l.628-1.807h1.22c.334 0 .574-.026.721-.079.322-.112.563-.398.722-.858.112-.32.104-.546-.022-.675-.165-.165-.556-.248-1.173-.248-.54 0-.94.068-1.2.202-.262.134-.461.4-.6.8H35.71l.14-.403c.356-1.023.95-1.747 1.782-2.172.73-.372 1.767-.558 3.111-.558 1.354 0 2.283.173 2.787.52.581.398.702 1.087.361 2.067-.24.693-.505 1.196-.793 1.508-.362.399-.863.645-1.504.74l-.036.105c.581.052.94.251 1.077.598.137.346.096.832-.12 1.456-.407 1.17-.935 1.95-1.584 2.34-.705.425-1.913.637-3.627.637-1.473 0-2.426-.19-2.858-.572-.523-.468-.556-1.36-.098-2.678h2.467c-.169.485-.17.793-.006.923.165.13.577.195 1.236.195.617 0 1.064-.072 1.34-.215.277-.143.486-.418.627-.825.127-.364.133-.622.019-.773-.115-.152-.381-.228-.801-.228h-1.362zm-7.208 2.366h-3.456l-1.058 1.677h-2.672l6.278-9.75h3.906l-.458 9.75h-2.621l.081-1.677zm.129-1.885l.29-4.238-2.667 4.238h2.377z" clip-rule="evenodd"/><path fill="url(#paint0_linear)" d="M135.04 42.519l-.018-.024c-.413-.36-1.103-.593-1.324-.76-1.411-1.063-1.962-1.67-2.809-1.957-.544-.184-2.837-1.07-3.735-1.353-.077-.024-.79-.07.011-.843 3.479-4.155 7.476-6.922 8.641-8.053.065-.064.227-.217.376-.177.058.015.202.315.426.587.229.279 1.448 1.725 2.729 3.255a520.22 520.22 0 0 1 1.495 1.792c.152.183.463.583.955.76.121.044.523.238 1.129.049-1.945 2.932-4.63 5.28-7.876 6.724z"/><path fill="url(#paint1_linear)" d="M135.04 42.519l-.018-.024c-.413-.36-1.103-.593-1.324-.76-1.411-1.063-1.962-1.67-2.809-1.957-.544-.184-2.837-1.07-3.735-1.353-.077-.024-.79-.07.011-.843 3.479-4.155 7.476-6.922 8.641-8.053.065-.064.227-.217.376-.177.058.015.202.315.426.587.229.279 1.448 1.725 2.729 3.255a520.22 520.22 0 0 1 1.495 1.792c.152.183.463.583.955.76.121.044.523.238 1.129.049-1.945 2.932-4.63 5.28-7.876 6.724z"/><path fill="url(#paint2_linear)" d="M116.693 40.668c-4.713-3.364-7.788-8.878-7.788-15.104 0-.61.03-1.215.088-1.81.17-.254.284-.445.284-.445.14-.247.612-.975 1.083-1.273 1.245-.787 4.959-1.722 6.223-2.146.45-.15.898-.313 1.366-.398.656-.118 1.065-.158 1.547.026 1.107.422 1.777 2.105 5.099 2.508.268.033.772.12.798.447.04.49-.994 1.958-.994 1.958-.849 1.203-1.972 3.458-2.604 5.38-.429 1.303-.252 2.449-1.564 3.81-.77.797-1.086.96-1.881 1.681-1.026.93-1.423 2.312-1.576 2.94-.2.82-.206 1.736-.113 2.403l.032.023z"/><path fill="url(#paint3_linear)" d="M116.693 40.668c-4.713-3.364-7.788-8.878-7.788-15.104 0-.61.03-1.215.088-1.81.17-.254.284-.445.284-.445.14-.247.612-.975 1.083-1.273 1.245-.787 4.959-1.722 6.223-2.146.45-.15.898-.313 1.366-.398.656-.118 1.065-.158 1.547.026 1.107.422 1.777 2.105 5.099 2.508.268.033.772.12.798.447.04.49-.994 1.958-.994 1.958-.849 1.203-1.972 3.458-2.604 5.38-.429 1.303-.252 2.449-1.564 3.81-.77.797-1.086.96-1.881 1.681-1.026.93-1.423 2.312-1.576 2.94-.2.82-.206 1.736-.113 2.403l.032.023z"/><path fill="url(#paint4_linear)" d="M145.987 25.007c-.131.163-.138.154-.177.24-.115.255-.202.645-.219 1.049-.015.361.028.454.042 1.126.003.14.003.403-.095.568-.301.514-1.204 1.921-1.716 2.512-.465.537-1.327.75-1.497.851-.226.134-.512-.008-.571-.263-.06-.256-.446-.891-.999-1.33-.635-.505-.949-.806-1.298-1.237-.275-.341-.365-.677-.441-.866-.19-.475-.202-.65-.36-1.07-.23-.612-.528-1.16-.682-1.317-.422-.43-.539-.645-.793-.799-.063-.038-.576-.263-.474-.651.096-.37.546-.96 1.073-1.176.424-.174.765.14 1.428.241.292.045.494.051.657-.136.12-.137.02-.31.155-.535.162-.27.394-.142.444-.35.048-.197-.143-.169-.067-.346.058-.133.271-.04.339-.244.052-.157-.105-.431.105-.574.176-.12.422.046.582-.139.067-.076-.043-.492-.158-.834-.136-.409-.221-.55-.158-.813.063-.262.491-.329.535-.762.028-.272-.082-.834-.091-1.002-.081-1.545-.227-1.987-.71-2.512-.584-.635-1.736-1.272-2.881-1.22-2.421.112-3.504 1.804-3.744 2.328-.333.729-.334 1.097-.274 1.76.061.676.206 1.095.2 1.37-.018.747-.45 1-.96 1.267-.991.517-1.648.323-1.923.206-1.279-.545-1.288-1.298-2.381-1.718-.965-.37-2.659-.135-3.323-.466-1.098-.547-5.006-1.86-7.701-1.852-.793.003-1.639.337-2.316.691-.707.37-2.062 1.168-2.85 1.526-.925.42-2.057.953-2.781 1.41l-.165.102C112.095 12.5 119.138 7.02 127.45 7.02c10.049 0 18.242 8.01 18.537 17.988z"/><path fill="url(#paint5_linear)" d="M145.987 25.007c-.131.163-.138.154-.177.24-.115.255-.202.645-.219 1.049-.015.361.028.454.042 1.126.003.14.003.403-.095.568-.301.514-1.204 1.921-1.716 2.512-.465.537-1.327.75-1.497.851-.226.134-.512-.008-.571-.263-.06-.256-.446-.891-.999-1.33-.635-.505-.949-.806-1.298-1.237-.275-.341-.365-.677-.441-.866-.19-.475-.202-.65-.36-1.07-.23-.612-.528-1.16-.682-1.317-.422-.43-.539-.645-.793-.799-.063-.038-.576-.263-.474-.651.096-.37.546-.96 1.073-1.176.424-.174.765.14 1.428.241.292.045.494.051.657-.136.12-.137.02-.31.155-.535.162-.27.394-.142.444-.35.048-.197-.143-.169-.067-.346.058-.133.271-.04.339-.244.052-.157-.105-.431.105-.574.176-.12.422.046.582-.139.067-.076-.043-.492-.158-.834-.136-.409-.221-.55-.158-.813.063-.262.491-.329.535-.762.028-.272-.082-.834-.091-1.002-.081-1.545-.227-1.987-.71-2.512-.584-.635-1.736-1.272-2.881-1.22-2.421.112-3.504 1.804-3.744 2.328-.333.729-.334 1.097-.274 1.76.061.676.206 1.095.2 1.37-.018.747-.45 1-.96 1.267-.991.517-1.648.323-1.923.206-1.279-.545-1.288-1.298-2.381-1.718-.965-.37-2.659-.135-3.323-.466-1.098-.547-5.006-1.86-7.701-1.852-.793.003-1.639.337-2.316.691-.707.37-2.062 1.168-2.85 1.526-.925.42-2.057.953-2.781 1.41l-.165.102C112.095 12.5 119.138 7.02 127.45 7.02c10.049 0 18.242 8.01 18.537 17.988z"/><path fill="url(#paint6_linear)" d="M145.629 27.28l.004.142c.003.14.003.403-.094.568-.302.514-1.205 1.921-1.717 2.512-.464.537-1.326.75-1.497.851-.225.134-.512-.008-.571-.263-.06-.256-.445-.891-.999-1.33-.634-.505-.949-.806-1.298-1.237-.275-.341-.365-.677-.44-.866-.19-.475-.203-.65-.361-1.07-.23-.612-.528-1.16-.682-1.317-.422-.43-.539-.645-.793-.799-.063-.038-.576-.263-.474-.651.02-.078.056-.165.105-.257.128.2.405.308.451.332.262.141.39.35.833.757.162.15.487.681.749 1.28.179.412.2.586.414 1.051.085.184.192.515.485.842.369.412.699.697 1.359 1.168.575.411.992 1.026 1.065 1.279.073.251.366.378.584.233.165-.11 1.015-.366 1.452-.926.408-.523 1.067-1.648 1.425-2.3zm3.846-1.308l-.176-.442c-.063-.11-1.026-1.065-1.642-1.66-.231-.223-.299-.388-.585-.311-.166.044-.277.341-.644.854-.576.807-.554.693-.618.835-.018.04-.036.085-.053.132a2.653 2.653 0 0 1-.002-.093c-.004-.403.063-.798.165-1.058.057-.144.04-.03.575-.865.34-.53.436-.833.599-.886.282-.09.358.07.6.28.645.564 1.657 1.468 1.725 1.575 0 0 .169.365.253.554.093.21.008.591-.197 1.085z"/><path fill="url(#paint7_linear)" d="M145.629 27.28l.004.142c.003.14.003.403-.094.568-.302.514-1.205 1.921-1.717 2.512-.464.537-1.326.75-1.497.851-.225.134-.512-.008-.571-.263-.06-.256-.445-.891-.999-1.33-.634-.505-.949-.806-1.298-1.237-.275-.341-.365-.677-.44-.866-.19-.475-.203-.65-.361-1.07-.23-.612-.528-1.16-.682-1.317-.422-.43-.539-.645-.793-.799-.063-.038-.576-.263-.474-.651.02-.078.056-.165.105-.257.128.2.405.308.451.332.262.141.39.35.833.757.162.15.487.681.749 1.28.179.412.2.586.414 1.051.085.184.192.515.485.842.369.412.699.697 1.359 1.168.575.411.992 1.026 1.065 1.279.073.251.366.378.584.233.165-.11 1.015-.366 1.452-.926.408-.523 1.067-1.648 1.425-2.3zm3.846-1.308l-.176-.442c-.063-.11-1.026-1.065-1.642-1.66-.231-.223-.299-.388-.585-.311-.166.044-.277.341-.644.854-.576.807-.554.693-.618.835-.018.04-.036.085-.053.132a2.653 2.653 0 0 1-.002-.093c-.004-.403.063-.798.165-1.058.057-.144.04-.03.575-.865.34-.53.436-.833.599-.886.282-.09.358.07.6.28.645.564 1.657 1.468 1.725 1.575 0 0 .169.365.253.554.093.21.008.591-.197 1.085z"/><path fill="url(#paint8_linear)" d="M125.391 22.552c0-.017 0-.034-.003-.05-.043-.325-.55-.387-.82-.405-3.338-.233-4.093-1.88-5.221-2.245-.491-.159-.897-.098-1.546.054-.463.108-.902.294-1.343.467-1.242.488-4.902 1.611-6.106 2.462-.455.321-.889 1.072-1.016 1.326 0 0-.859 1.623-1.367 1.741-.398.092-.811.175-1.355.656-.27.24-.864.628-1.185.51-.314-.115-1.006-.69-.926-1.901a.166.166 0 0 0 .002-.022c.183.505.525.784.721.868.315.134.927-.224 1.21-.45.568-.452.984-.513 1.387-.585.513-.091 1.453-1.669 1.453-1.669.14-.247.612-.975 1.083-1.273 1.246-.787 4.959-1.722 6.224-2.146.449-.15.898-.313 1.365-.398.656-.118 1.065-.158 1.547.026 1.108.422 1.778 2.105 5.1 2.508.268.033.772.12.798.447a.43.43 0 0 1-.002.08z"/><path fill="url(#paint9_linear)" d="M125.391 22.552c0-.017 0-.034-.003-.05-.043-.325-.55-.387-.82-.405-3.338-.233-4.093-1.88-5.221-2.245-.491-.159-.897-.098-1.546.054-.463.108-.902.294-1.343.467-1.242.488-4.902 1.611-6.106 2.462-.455.321-.889 1.072-1.016 1.326 0 0-.859 1.623-1.367 1.741-.398.092-.811.175-1.355.656-.27.24-.864.628-1.185.51-.314-.115-1.006-.69-.926-1.901a.166.166 0 0 0 .002-.022c.183.505.525.784.721.868.315.134.927-.224 1.21-.45.568-.452.984-.513 1.387-.585.513-.091 1.453-1.669 1.453-1.669.14-.247.612-.975 1.083-1.273 1.246-.787 4.959-1.722 6.224-2.146.449-.15.898-.313 1.365-.398.656-.118 1.065-.158 1.547.026 1.108.422 1.778 2.105 5.1 2.508.268.033.772.12.798.447a.43.43 0 0 1-.002.08z"/><path fill="url(#paint10_linear)" d="M140.991 14.813a3.111 3.111 0 0 0-.15-.175c-.584-.635-1.736-1.272-2.881-1.22-2.421.112-3.504 1.804-3.744 2.328-.333.729-.334 1.097-.274 1.76.061.676.206 1.095.2 1.37-.018.747-.45 1-.96 1.267-.991.517-1.648.323-1.923.206-1.279-.545-1.288-1.298-2.381-1.718-.717-.276-1.838-.216-2.639-.304.779.02 1.767-.058 2.434.16 1.113.363 1.159 1.115 2.465 1.594.28.103.946.263 1.91-.304.496-.292.914-.567.894-1.315-.008-.274-.174-.686-.27-1.358-.094-.659-.112-1.026.184-1.772.213-.535 1.207-2.28 3.62-2.515 1.14-.111 2.324.466 2.94 1.07.272.268.447.517.575.926z"/><path fill="url(#paint11_linear)" d="M140.991 14.813a3.111 3.111 0 0 0-.15-.175c-.584-.635-1.736-1.272-2.881-1.22-2.421.112-3.504 1.804-3.744 2.328-.333.729-.334 1.097-.274 1.76.061.676.206 1.095.2 1.37-.018.747-.45 1-.96 1.267-.991.517-1.648.323-1.923.206-1.279-.545-1.288-1.298-2.381-1.718-.717-.276-1.838-.216-2.639-.304.779.02 1.767-.058 2.434.16 1.113.363 1.159 1.115 2.465 1.594.28.103.946.263 1.91-.304.496-.292.914-.567.894-1.315-.008-.274-.174-.686-.27-1.358-.094-.659-.112-1.026.184-1.772.213-.535 1.207-2.28 3.62-2.515 1.14-.111 2.324.466 2.94 1.07.272.268.447.517.575.926z"/><path fill="#F3CCB6" fill-rule="evenodd" d="M111.985 32.1v.556h.203v-.304c0-.097-.07-.182-.203-.253zm8.018.556h.166v-1.342a.413.413 0 0 0-.166.223v1.12zm-8.018-2.014v1.298h.203v-1.28h.132l.004-.018h-.339zm8.184-.815h-.285l.003.019h.116v1.279h.166v-1.298zm-3.768.013v-2.76c-.002-.184-.135-.332-.389-.448h-.191l.003.022h.114v1.487h.336v.096l-.002.001c-.165.098-.297.215-.334.383v1.216a2.57 2.57 0 0 1 .463.001zm.26 10.805a18.666 18.666 0 0 1-5.466-6.153v-1.836h.007v-4.854c0-.172-.126-.31-.365-.418v-.104h.365v-1.617h.124l.003-.024h-.331c0-.056.113-.127.283-.17a.539.539 0 0 0 .034-.028 2.894 2.894 0 0 1 .009-.256c.031-.464.195-1.194.215-1.48.008-.278.014-.545.016-.652a.311.311 0 0 1-.286-.118.26.26 0 1 0 .164-.495.313.313 0 0 1 .198.593c.002.091.008.375.017.672.015.219.115.697.174 1.117a3.849 3.849 0 0 1 .05.617c.009.01.018.02.028.028.173.043.289.115.289.172h-.331l.003.024h.123v1.617h.366v.104l-.002.002c-.18.107-.324.233-.363.416v2.812c.036-.038.142-.08.287-.107a.262.262 0 0 0 .036-.022c0-.051.003-.117.01-.203.033-.367.207-.944.229-1.17.009-.22.015-.432.017-.516l-.043.001a.383.383 0 0 1-.262-.095c.03.008.062.013.096.013.153 0 .277-.093.277-.207 0-.093-.083-.172-.198-.197a.435.435 0 0 1 .087-.009c.184 0 .333.111.333.248 0 .104-.087.193-.209.23.001.071.008.296.018.531.016.173.122.551.185.884a2.491 2.491 0 0 1 .053.488.235.235 0 0 0 .03.022c.184.034.307.091.307.137h-.352l.003.018h.131v1.28h.389v.082h-.003c-.191.086-.344.185-.386.33v.304h.613a2.546 2.546 0 0 1 1.585-2.646v-1.388c-.001-.158-.116-.285-.336-.384v-.096h.336v-1.487h.114l.003-.022h-.305c.001-.052.105-.118.26-.157a.292.292 0 0 0 .032-.025c-.001-.06.001-.137.008-.236.029-.427.179-1.098.198-1.36.008-.257.013-.502.015-.6a.288.288 0 0 1-.264-.108.24.24 0 0 0 .323-.226.24.24 0 0 0-.171-.23.288.288 0 0 1 .181.545l.016.619c.014.2.105.64.16 1.026a3.84 3.84 0 0 1 .046.567c.008.01.017.019.026.027a.835.835 0 0 1 .146.05v-.007h.395v-1.747h.133l.003-.025h-.358c.001-.061.123-.139.306-.185a.428.428 0 0 0 .037-.03c-.001-.07.002-.16.01-.277.033-.5.21-1.289.232-1.598.009-.3.015-.589.018-.704a.337.337 0 0 1-.31-.127.282.282 0 1 0 .178-.534.338.338 0 0 1 .213.64c.002.097.009.404.019.725.016.236.124.752.188 1.206a4.635 4.635 0 0 1 .054.666.22.22 0 0 0 .03.031c.187.046.312.125.312.186h-.358l.003.026h.134v1.747h.394v.113l-.002.001c-.194.116-.349.252-.392.45v2.989a2.547 2.547 0 0 1 1.446 2.586h.576v-1.12c-.002-.135-.119-.245-.343-.33v-.082h.343v-1.28h.116l.003-.018h-.311c.001-.045.107-.101.266-.135l.032-.022c0-.051.002-.117.009-.203.028-.367.183-.944.201-1.17.008-.22.014-.431.016-.516l-.038.001a.314.314 0 0 1-.231-.095.278.278 0 0 0 .084.013c.135 0 .245-.093.245-.207 0-.093-.074-.172-.175-.197a.341.341 0 0 1 .077-.009c.162 0 .294.111.294.248 0 .104-.077.193-.185.23.001.072.007.296.016.531.014.173.107.551.164.884a3.134 3.134 0 0 1 .046.488.182.182 0 0 0 .027.022c.115.024.203.06.245.095v-1.983c-.001-.155-.115-.28-.33-.377v-.094h.33V25.87h.112l.003-.022h-.3c.001-.05.103-.115.256-.154a.228.228 0 0 0 .031-.025 3.127 3.127 0 0 1 .008-.232c.028-.419.176-1.078.194-1.337.008-.25.013-.492.015-.589a.284.284 0 0 1-.259-.106.235.235 0 1 0 .149-.447.283.283 0 0 1 .179.536c.001.082.007.338.015.607.014.197.103.629.158 1.009.016.117.03.229.036.328.006.096.009.17.008.229.008.01.017.018.026.025.156.04.261.105.261.156h-.3l.004.022h.111v1.46h.33v.095h-.001c-.162.098-.293.212-.328.377v4.854h.08a4.604 4.604 0 0 1-.725.964c-.77.798-1.086.961-1.881 1.682-1.026.93-1.423 2.312-1.576 2.94a6.79 6.79 0 0 0-.113 2.403z" clip-rule="evenodd"/><path fill="#F3CCB6" fill-rule="evenodd" d="M111.985 32.1v.556h.203v-.304c0-.097-.07-.182-.203-.253zm8.018.556h.166v-1.342a.413.413 0 0 0-.166.223v1.12zm-8.018-2.014v1.298h.203v-1.28h.132l.004-.018h-.339zm8.184-.815h-.285l.003.019h.116v1.279h.166v-1.298zm-3.768.013v-2.76c-.002-.184-.135-.332-.389-.448h-.191l.003.022h.114v1.487h.336v.096l-.002.001c-.165.098-.297.215-.334.383v1.216a2.57 2.57 0 0 1 .463.001zm.26 10.805a18.666 18.666 0 0 1-5.466-6.153v-1.836h.007v-4.854c0-.172-.126-.31-.365-.418v-.104h.365v-1.617h.124l.003-.024h-.331c0-.056.113-.127.283-.17a.539.539 0 0 0 .034-.028 2.894 2.894 0 0 1 .009-.256c.031-.464.195-1.194.215-1.48.008-.278.014-.545.016-.652a.311.311 0 0 1-.286-.118.26.26 0 1 0 .164-.495.313.313 0 0 1 .198.593c.002.091.008.375.017.672.015.219.115.697.174 1.117a3.849 3.849 0 0 1 .05.617c.009.01.018.02.028.028.173.043.289.115.289.172h-.331l.003.024h.123v1.617h.366v.104l-.002.002c-.18.107-.324.233-.363.416v2.812c.036-.038.142-.08.287-.107a.262.262 0 0 0 .036-.022c0-.051.003-.117.01-.203.033-.367.207-.944.229-1.17.009-.22.015-.432.017-.516l-.043.001a.383.383 0 0 1-.262-.095c.03.008.062.013.096.013.153 0 .277-.093.277-.207 0-.093-.083-.172-.198-.197a.435.435 0 0 1 .087-.009c.184 0 .333.111.333.248 0 .104-.087.193-.209.23.001.071.008.296.018.531.016.173.122.551.185.884a2.491 2.491 0 0 1 .053.488.235.235 0 0 0 .03.022c.184.034.307.091.307.137h-.352l.003.018h.131v1.28h.389v.082h-.003c-.191.086-.344.185-.386.33v.304h.613a2.546 2.546 0 0 1 1.585-2.646v-1.388c-.001-.158-.116-.285-.336-.384v-.096h.336v-1.487h.114l.003-.022h-.305c.001-.052.105-.118.26-.157a.292.292 0 0 0 .032-.025c-.001-.06.001-.137.008-.236.029-.427.179-1.098.198-1.36.008-.257.013-.502.015-.6a.288.288 0 0 1-.264-.108.24.24 0 0 0 .323-.226.24.24 0 0 0-.171-.23.288.288 0 0 1 .181.545l.016.619c.014.2.105.64.16 1.026a3.84 3.84 0 0 1 .046.567c.008.01.017.019.026.027a.835.835 0 0 1 .146.05v-.007h.395v-1.747h.133l.003-.025h-.358c.001-.061.123-.139.306-.185a.428.428 0 0 0 .037-.03c-.001-.07.002-.16.01-.277.033-.5.21-1.289.232-1.598.009-.3.015-.589.018-.704a.337.337 0 0 1-.31-.127.282.282 0 1 0 .178-.534.338.338 0 0 1 .213.64c.002.097.009.404.019.725.016.236.124.752.188 1.206a4.635 4.635 0 0 1 .054.666.22.22 0 0 0 .03.031c.187.046.312.125.312.186h-.358l.003.026h.134v1.747h.394v.113l-.002.001c-.194.116-.349.252-.392.45v2.989a2.547 2.547 0 0 1 1.446 2.586h.576v-1.12c-.002-.135-.119-.245-.343-.33v-.082h.343v-1.28h.116l.003-.018h-.311c.001-.045.107-.101.266-.135l.032-.022c0-.051.002-.117.009-.203.028-.367.183-.944.201-1.17.008-.22.014-.431.016-.516l-.038.001a.314.314 0 0 1-.231-.095.278.278 0 0 0 .084.013c.135 0 .245-.093.245-.207 0-.093-.074-.172-.175-.197a.341.341 0 0 1 .077-.009c.162 0 .294.111.294.248 0 .104-.077.193-.185.23.001.072.007.296.016.531.014.173.107.551.164.884a3.134 3.134 0 0 1 .046.488.182.182 0 0 0 .027.022c.115.024.203.06.245.095v-1.983c-.001-.155-.115-.28-.33-.377v-.094h.33V25.87h.112l.003-.022h-.3c.001-.05.103-.115.256-.154a.228.228 0 0 0 .031-.025 3.127 3.127 0 0 1 .008-.232c.028-.419.176-1.078.194-1.337.008-.25.013-.492.015-.589a.284.284 0 0 1-.259-.106.235.235 0 1 0 .149-.447.283.283 0 0 1 .179.536c.001.082.007.338.015.607.014.197.103.629.158 1.009.016.117.03.229.036.328.006.096.009.17.008.229.008.01.017.018.026.025.156.04.261.105.261.156h-.3l.004.022h.111v1.46h.33v.095h-.001c-.162.098-.293.212-.328.377v4.854h.08a4.604 4.604 0 0 1-.725.964c-.77.798-1.086.961-1.881 1.682-1.026.93-1.423 2.312-1.576 2.94a6.79 6.79 0 0 0-.113 2.403z" clip-rule="evenodd"/><path fill="#D0D7EA" fill-rule="evenodd" d="M136.758 40.524c0-.05-.02-.097-.055-.131a.182.182 0 0 0-.131-.055h-.01a.181.181 0 0 0-.181.182v.43h.377v-.426zm-1.367 1.8v-1.373l.471-.047v-1.178l.283-.142v-1.366l.33-.048.004-1.12-.146-.053v-.146l.283-.047.142-.236.094-2.828.149-.187-.055-.284-.033-.13.222-.058.094-1.65h.094l.094 1.65.222.059-.033.129-.055.284.149.187.095 2.828.141.236.283.047v.146l-.146.053.004 1.12.33.048v1.366l.283.142v.585c-.177.135-.355.266-.537.395v-.182a.186.186 0 0 0-.185-.185h-.01a.182.182 0 0 0-.182.18v.432h.023a18.67 18.67 0 0 1-2.408 1.374zm2.003-3.334a.113.113 0 0 0-.113-.113h-.026c-.025 0-.05.01-.068.029a.099.099 0 0 0-.029.069v.28h.236v-.265zm0-1.798a.106.106 0 0 0-.106-.105h-.039a.09.09 0 0 0-.091.09v.663h.236v-.648zm-.024-3.069a.1.1 0 0 0-.099-.1c-.05 0-.089.04-.089.089v.43h.188v-.419z" clip-rule="evenodd"/><path fill="#D0D7EA" fill-rule="evenodd" d="M136.758 40.524c0-.05-.02-.097-.055-.131a.182.182 0 0 0-.131-.055h-.01a.181.181 0 0 0-.181.182v.43h.377v-.426zm-1.367 1.8v-1.373l.471-.047v-1.178l.283-.142v-1.366l.33-.048.004-1.12-.146-.053v-.146l.283-.047.142-.236.094-2.828.149-.187-.055-.284-.033-.13.222-.058.094-1.65h.094l.094 1.65.222.059-.033.129-.055.284.149.187.095 2.828.141.236.283.047v.146l-.146.053.004 1.12.33.048v1.366l.283.142v.585c-.177.135-.355.266-.537.395v-.182a.186.186 0 0 0-.185-.185h-.01a.182.182 0 0 0-.182.18v.432h.023a18.67 18.67 0 0 1-2.408 1.374zm2.003-3.334a.113.113 0 0 0-.113-.113h-.026c-.025 0-.05.01-.068.029a.099.099 0 0 0-.029.069v.28h.236v-.265zm0-1.798a.106.106 0 0 0-.106-.105h-.039a.09.09 0 0 0-.091.09v.663h.236v-.648zm-.024-3.069a.1.1 0 0 0-.099-.1c-.05 0-.089.04-.089.089v.43h.188v-.419z" clip-rule="evenodd"/><path fill="#E1E9CC" fill-rule="evenodd" d="M131.16 20.305c-1.181-.54-1.218-1.266-2.282-1.674-.965-.37-2.659-.135-3.323-.466-.511-.255-1.629-.674-2.95-1.05l.109-.906h7.634l.812 4.096zm1.002-5.557a5.054 5.054 0 0 1-1.815 1.272h-7.681s-1.02-.376-1.814-1.272h11.31zm.263-.33h-11.836a3.478 3.478 0 0 1-.656-2.168c.013-.446.229-1.152.33-1.414.121-.315-.283-.33-.283-.33v-.141h3.954c.18 0 .357-.032.525-.095a6.064 6.064 0 0 1 2.119-.376 5.907 5.907 0 0 1 2 .38c.151.06.312.09.475.09h3.98v.142s-.403.015-.283.33c.101.262.317.968.33 1.414a3.478 3.478 0 0 1-.655 2.168zm-5.918-3.77c.338 0 .612.19.612.424 0 .234-.274.424-.612.424-.339 0-.613-.19-.613-.424 0-.234.274-.424.613-.424zm2.146.256c0-.09.072-.162.162-.162.093 0 .168.075.168.167v.377a.164.164 0 0 1-.281.114.164.164 0 0 1-.049-.118v-.378zm-4.337 0a.162.162 0 0 0-.162-.162.168.168 0 0 0-.168.167v.377a.164.164 0 0 0 .163.163.168.168 0 0 0 .167-.167v-.378zm6.223-.211c-.169.01-.296.187-.283.394.012.208.159.369.328.358.169-.01.296-.187.283-.394-.013-.208-.16-.368-.328-.358zm-8.109 0c.169.01.296.187.283.394-.012.208-.16.369-.328.358-.169-.01-.296-.187-.283-.394.012-.208.159-.368.328-.358zm9.375 0c-.091.01-.149.185-.13.392.02.207.11.368.201.36.092-.01.15-.185.13-.392-.02-.207-.11-.368-.201-.36zm-10.641 0c.091.01.149.185.129.392-.019.207-.11.368-.201.36-.091-.01-.149-.185-.129-.392.019-.207.109-.368.201-.36zm11.305.093c-.057.01-.079.162-.049.34.03.177.1.314.157.305.057-.01.078-.162.049-.34-.03-.178-.1-.314-.157-.305zm-11.969 0c.057.01.078.162.049.34-.03.177-.1.314-.157.305-.057-.01-.079-.162-.049-.34.03-.178.1-.314.157-.305z" clip-rule="evenodd"/><path fill="#DBF9E6" fill-rule="evenodd" d="M131.16 20.305c-1.181-.54-1.218-1.266-2.282-1.674-.965-.37-2.659-.135-3.323-.466-.511-.255-1.629-.674-2.95-1.05l.109-.906h7.634l.812 4.096zm1.002-5.557a5.054 5.054 0 0 1-1.815 1.272h-7.681s-1.02-.376-1.814-1.272h11.31zm.263-.33h-11.836a3.478 3.478 0 0 1-.656-2.168c.013-.446.229-1.152.33-1.414.121-.315-.283-.33-.283-.33v-.141h3.954c.18 0 .357-.032.525-.095a6.064 6.064 0 0 1 2.119-.376 5.907 5.907 0 0 1 2 .38c.151.06.312.09.475.09h3.98v.142s-.403.015-.283.33c.101.262.317.968.33 1.414a3.478 3.478 0 0 1-.655 2.168zm-5.918-3.77c.338 0 .612.19.612.424 0 .234-.274.424-.612.424-.339 0-.613-.19-.613-.424 0-.234.274-.424.613-.424zm2.146.256c0-.09.072-.162.162-.162.093 0 .168.075.168.167v.377a.164.164 0 0 1-.281.114.164.164 0 0 1-.049-.118v-.378zm-4.337 0a.162.162 0 0 0-.162-.162.168.168 0 0 0-.168.167v.377a.164.164 0 0 0 .163.163.168.168 0 0 0 .167-.167v-.378zm6.223-.211c-.169.01-.296.187-.283.394.012.208.159.369.328.358.169-.01.296-.187.283-.394-.013-.208-.16-.368-.328-.358zm-8.109 0c.169.01.296.187.283.394-.012.208-.16.369-.328.358-.169-.01-.296-.187-.283-.394.012-.208.159-.368.328-.358zm9.375 0c-.091.01-.149.185-.13.392.02.207.11.368.201.36.092-.01.15-.185.13-.392-.02-.207-.11-.368-.201-.36zm-10.641 0c.091.01.149.185.129.392-.019.207-.11.368-.201.36-.091-.01-.149-.185-.129-.392.019-.207.109-.368.201-.36zm11.305.093c-.057.01-.079.162-.049.34.03.177.1.314.157.305.057-.01.078-.162.049-.34-.03-.178-.1-.314-.157-.305zm-11.969 0c.057.01.078.162.049.34-.03.177-.1.314-.157.305-.057-.01-.079-.162-.049-.34.03-.178.1-.314.157-.305z" clip-rule="evenodd"/><path fill="url(#paint12_linear)" d="M135.022 42.495a18.456 18.456 0 0 1-7.572 1.614 18.456 18.456 0 0 1-10.789-3.464 6.792 6.792 0 0 1 .113-2.403c.153-.628.55-2.01 1.576-2.94.795-.72 1.111-.884 1.881-1.682 1.312-1.36 1.135-2.506 1.564-3.81.632-1.921 1.755-4.175 2.604-5.379 0 0 1.034-1.469.994-1.958-.026-.327-.53-.414-.798-.447-3.322-.402-3.992-2.086-5.1-2.508-.481-.184-.89-.144-1.546-.026-.468.085-.916.248-1.366.398-1.264.424-4.978 1.359-6.223 2.146-.471.298-.943 1.026-1.083 1.273 0 0-.941 1.577-1.454 1.67-.402.07-.819.132-1.386.585-.283.225-.896.583-1.21.449-.308-.131-.969-.74-.827-1.946.142-1.213 2.919-2.498 5.507-4.128.724-.456 1.856-.99 2.781-1.41.788-.357 2.143-1.155 2.85-1.525.677-.354 1.523-.688 2.316-.69 2.695-.009 6.603 1.304 7.701 1.85.664.332 2.358.096 3.323.467 1.093.42 1.102 1.173 2.381 1.718.275.117.932.311 1.923-.206.51-.266.942-.52.96-1.268.006-.274-.139-.693-.2-1.37-.06-.662-.059-1.03.274-1.76.24-.523 1.323-2.215 3.744-2.327 1.145-.052 2.297.585 2.881 1.22.483.525.629.967.71 2.512.009.168.119.73.091 1.002-.044.433-.472.5-.535.762-.063.263.022.404.158.813.115.342.225.758.158.834-.16.185-.406.02-.582.14-.21.142-.053.416-.105.573-.068.204-.281.111-.339.244-.076.177.115.149.067.347-.05.207-.282.08-.444.35-.135.225-.035.397-.155.534-.163.187-.365.181-.657.136-.663-.102-1.004-.416-1.428-.241-.527.217-.977.807-1.073 1.176-.102.388.411.613.474.651.254.154.371.37.793.799.154.157.452.705.682 1.317.158.42.17.595.36 1.07.076.189.166.524.441.866.349.43.663.732 1.298 1.236.553.44.939 1.075.999 1.331.059.255.345.397.571.263.17-.101 1.032-.314 1.497-.85.512-.592 1.415-2 1.717-2.513.097-.165.097-.427.094-.568-.014-.672-.057-.765-.042-1.126.017-.404.104-.794.219-1.048.064-.142.042-.028.618-.835.367-.512.478-.81.644-.854.286-.077.354.088.585.31.616.596 1.579 1.55 1.642 1.661 0 0 .15.374.224.566.432 1.121-4.246 6.703-5.443 8.58-.129.202-.43.858-1.084 1.092-.651.233-1.083.023-1.209-.022-.492-.177-.803-.577-.955-.76a520.22 520.22 0 0 0-1.495-1.792c-1.281-1.53-2.5-2.976-2.729-3.255-.224-.272-.368-.572-.426-.587-.149-.04-.311.113-.376.177-1.165 1.13-5.162 3.898-8.641 8.053-.801.773-.088.819-.011.843.898.283 3.191 1.169 3.735 1.353.847.287 1.398.894 2.809 1.958.221.166.911.399 1.324.759z"/><path fill="url(#paint13_linear)" d="M135.022 42.495a18.456 18.456 0 0 1-7.572 1.614 18.456 18.456 0 0 1-10.789-3.464 6.792 6.792 0 0 1 .113-2.403c.153-.628.55-2.01 1.576-2.94.795-.72 1.111-.884 1.881-1.682 1.312-1.36 1.135-2.506 1.564-3.81.632-1.921 1.755-4.175 2.604-5.379 0 0 1.034-1.469.994-1.958-.026-.327-.53-.414-.798-.447-3.322-.402-3.992-2.086-5.1-2.508-.481-.184-.89-.144-1.546-.026-.468.085-.916.248-1.366.398-1.264.424-4.978 1.359-6.223 2.146-.471.298-.943 1.026-1.083 1.273 0 0-.941 1.577-1.454 1.67-.402.07-.819.132-1.386.585-.283.225-.896.583-1.21.449-.308-.131-.969-.74-.827-1.946.142-1.213 2.919-2.498 5.507-4.128.724-.456 1.856-.99 2.781-1.41.788-.357 2.143-1.155 2.85-1.525.677-.354 1.523-.688 2.316-.69 2.695-.009 6.603 1.304 7.701 1.85.664.332 2.358.096 3.323.467 1.093.42 1.102 1.173 2.381 1.718.275.117.932.311 1.923-.206.51-.266.942-.52.96-1.268.006-.274-.139-.693-.2-1.37-.06-.662-.059-1.03.274-1.76.24-.523 1.323-2.215 3.744-2.327 1.145-.052 2.297.585 2.881 1.22.483.525.629.967.71 2.512.009.168.119.73.091 1.002-.044.433-.472.5-.535.762-.063.263.022.404.158.813.115.342.225.758.158.834-.16.185-.406.02-.582.14-.21.142-.053.416-.105.573-.068.204-.281.111-.339.244-.076.177.115.149.067.347-.05.207-.282.08-.444.35-.135.225-.035.397-.155.534-.163.187-.365.181-.657.136-.663-.102-1.004-.416-1.428-.241-.527.217-.977.807-1.073 1.176-.102.388.411.613.474.651.254.154.371.37.793.799.154.157.452.705.682 1.317.158.42.17.595.36 1.07.076.189.166.524.441.866.349.43.663.732 1.298 1.236.553.44.939 1.075.999 1.331.059.255.345.397.571.263.17-.101 1.032-.314 1.497-.85.512-.592 1.415-2 1.717-2.513.097-.165.097-.427.094-.568-.014-.672-.057-.765-.042-1.126.017-.404.104-.794.219-1.048.064-.142.042-.028.618-.835.367-.512.478-.81.644-.854.286-.077.354.088.585.31.616.596 1.579 1.55 1.642 1.661 0 0 .15.374.224.566.432 1.121-4.246 6.703-5.443 8.58-.129.202-.43.858-1.084 1.092-.651.233-1.083.023-1.209-.022-.492-.177-.803-.577-.955-.76a520.22 520.22 0 0 0-1.495-1.792c-1.281-1.53-2.5-2.976-2.729-3.255-.224-.272-.368-.572-.426-.587-.149-.04-.311.113-.376.177-1.165 1.13-5.162 3.898-8.641 8.053-.801.773-.088.819-.011.843.898.283 3.191 1.169 3.735 1.353.847.287 1.398.894 2.809 1.958.221.166.911.399 1.324.759z"/><path fill="url(#paint14_linear)" d="M135.681 44.891a.641.641 0 0 0 .236-.352c.084-.388-.363-1.41-.733-1.877-.362-.458-1.232-.735-1.486-.926-1.411-1.064-1.962-1.671-2.809-1.958-.544-.184-2.837-1.07-3.735-1.353-.077-.024-.79-.07.011-.843 2.229-2.662 4.671-4.755 6.444-6.212-1.646 1.518-3.764 3.59-5.679 6.13-.76.813-.046.823.032.843.912.237 3.247 1.004 3.799 1.16.861.244 1.442.822 2.906 1.812.263.178 1.146.41 1.532.849.393.448.892 1.445.827 1.837-.066.399-.617.685-1.345.89z"/><path fill="url(#paint15_linear)" d="M135.681 44.891a.641.641 0 0 0 .236-.352c.084-.388-.363-1.41-.733-1.877-.362-.458-1.232-.735-1.486-.926-1.411-1.064-1.962-1.671-2.809-1.958-.544-.184-2.837-1.07-3.735-1.353-.077-.024-.79-.07.011-.843 2.229-2.662 4.671-4.755 6.444-6.212-1.646 1.518-3.764 3.59-5.679 6.13-.76.813-.046.823.032.843.912.237 3.247 1.004 3.799 1.16.861.244 1.442.822 2.906 1.812.263.178 1.146.41 1.532.849.393.448.892 1.445.827 1.837-.066.399-.617.685-1.345.89z"/><defs><linearGradient id="paint0_linear" x1="-689.508" x2="-696.293" y1="-275.942" y2="-287.234" gradientUnits="userSpaceOnUse"><stop stop-color="#282D68"/><stop offset="1" stop-color="#fff"/></linearGradient><linearGradient id="paint1_linear" x1="-689.508" x2="-696.293" y1="-275.942" y2="-287.234" gradientUnits="userSpaceOnUse"><stop stop-color="#282D68"/><stop offset="1" stop-color="#fff"/></linearGradient><linearGradient id="paint2_linear" x1="-294.144" x2="-312.752" y1="191.874" y2="202.189" gradientUnits="userSpaceOnUse"><stop stop-color="#ED9A39"/><stop offset="1" stop-color="#fff"/></linearGradient><linearGradient id="paint3_linear" x1="-294.144" x2="-312.752" y1="191.874" y2="202.189" gradientUnits="userSpaceOnUse"><stop stop-color="#ED9A39"/><stop offset="1" stop-color="#fff"/></linearGradient><linearGradient id="paint4_linear" x1="23.308" x2="16.179" y1="98.349" y2="121.669" gradientUnits="userSpaceOnUse"><stop stop-color="#4D7632"/><stop offset="1" stop-color="#fff"/></linearGradient><linearGradient id="paint5_linear" x1="23.308" x2="16.179" y1="98.349" y2="121.669" gradientUnits="userSpaceOnUse"><stop stop-color="#006749"/><stop offset="1" stop-color="#fff"/></linearGradient><linearGradient id="paint6_linear" x1="136.694" x2="149.709" y1="22.452" y2="22.452" gradientUnits="userSpaceOnUse"><stop stop-color="#4D7532"/><stop offset="1" stop-color="#fff"/></linearGradient><linearGradient id="paint7_linear" x1="136.694" x2="149.709" y1="22.452" y2="22.452" gradientUnits="userSpaceOnUse"><stop stop-color="#016D4F"/><stop offset="1" stop-color="#fff"/></linearGradient><linearGradient id="paint8_linear" x1="-428.944" x2="-425.449" y1="-620.435" y2="-627.295" gradientUnits="userSpaceOnUse"><stop stop-color="#ED9A39"/><stop offset="1" stop-color="#fff"/></linearGradient><linearGradient id="paint9_linear" x1="-428.944" x2="-425.449" y1="-620.435" y2="-627.295" gradientUnits="userSpaceOnUse"><stop stop-color="#ED9A39"/><stop offset="1" stop-color="#fff"/></linearGradient><linearGradient id="paint10_linear" x1="126.239" x2="140.991" y1="12.803" y2="12.803" gradientUnits="userSpaceOnUse"><stop stop-color="#3A5E2A"/><stop offset="1" stop-color="#fff"/></linearGradient><linearGradient id="paint11_linear" x1="126.239" x2="140.991" y1="12.803" y2="12.803" gradientUnits="userSpaceOnUse"><stop stop-color="#0A664A"/><stop offset="1" stop-color="#fff"/></linearGradient><linearGradient id="paint12_linear" x1="-101.063" x2="-118.668" y1="165.192" y2="190.334" gradientUnits="userSpaceOnUse"><stop stop-color="#FEFEFE"/><stop offset="1" stop-color="#fff"/></linearGradient><linearGradient id="paint13_linear" x1="-101.063" x2="-118.668" y1="165.192" y2="190.334" gradientUnits="userSpaceOnUse"><stop stop-color="#FEFEFE"/><stop offset="1" stop-color="#fff"/></linearGradient><linearGradient id="paint14_linear" x1="178.98" x2="190.57" y1="-412.096" y2="-405.132" gradientUnits="userSpaceOnUse"><stop stop-color="#282D68"/><stop offset="1" stop-color="#fff"/></linearGradient><linearGradient id="paint15_linear" x1="178.98" x2="190.57" y1="-412.096" y2="-405.132" gradientUnits="userSpaceOnUse"><stop stop-color="#282D68"/><stop offset="1" stop-color="#fff"/></linearGradient></defs></svg>