<svg width="160" height="60" viewBox="0 0 160 60" fill="none" xmlns="http://www.w3.org/2000/svg">
<path d="M150 21.0223V38.0191H145.505L138.55 26.5239C138.572 26.8818 138.55 27.4409 138.55 27.8434V38.0191H134.546V21.0223H139.623L145.952 30.9521L145.93 21.0223H150V21.0223ZM121.486 31.1086H125.623L123.565 24.9137L121.486 31.1086ZM126.54 21.0223L132.444 38.0191H127.882L126.674 34.4856H120.435L119.249 38.0191H114.709L120.479 21.0223H126.54V21.0223ZM39.6773 37.9968L36.0767 24.1533V38.0191H31.8946V21.0223H38.738L42.2939 31.1981L45.7604 21.0223H52.7157V38.0191H48.5559V24.1533L44.8882 38.0191L39.6773 37.9968ZM68.0799 24.377H59.6486V27.754H66.2684V30.9297H59.6486V34.4185H68.0799V38.0191H55.3994V21.0223H68.0799V24.377ZM28.9649 21.0223V38.0191H24.8051V21.0223H28.9649V21.0223ZM23.016 21.0223V24.377H18.6326V37.9968H14.4281V24.3993H10V21.0447H23.016V21.0223ZM99.1214 37.9968L95.5208 24.1533V38.0191H91.3387V21.0223H98.1821L101.738 31.1981L105.204 21.0223H112.16V38.0191H108V24.1533L104.332 38.0191L99.1214 37.9968Z" fill="#000003"/>
<path fill-rule="evenodd" clip-rule="evenodd" d="M73.4697 23.4601V28.9617H77.115C79.1278 28.9617 80.0671 27.7093 80.0671 26.1214C80.0671 24.4217 78.9936 23.4601 77.115 23.4601H73.4697V23.4601ZM73.4697 38.0192H77.8083L74.4761 33.8371H73.4697V38.0192ZM88.163 21H84.9201C85.77 22.23 86.2396 23.7955 86.2844 25.6294C86.2844 30.3482 84.0703 32.2492 81.2971 33.2109L85.3674 38.0192H88.163V21Z" fill="#C81426"/>
</svg>
