<?xml version="1.0" encoding="utf-8"?>
<!-- Generator: Adobe Illustrator 21.1.0, SVG Export Plug-In . SVG Version: 6.00 Build 0)  -->
<svg version="1.1" id="Layer_1" xmlns="http://www.w3.org/2000/svg" xmlns:xlink="http://www.w3.org/1999/xlink" x="0px" y="0px"
	 viewBox="0 0 626 78" style="enable-background:new 0 0 626 78;" xml:space="preserve">
<style type="text/css">
	.st0{fill:#000003;}
	.st1{fill-rule:evenodd;clip-rule:evenodd;fill:#C81426;}
</style>
<path class="st0" d="M626,1.1v76h-20.1l-31.1-51.4c0.1,1.6,0,4.1,0,5.9v45.5h-17.9v-76h22.7l28.3,44.4l-0.1-44.4H626z M498.5,46.2
	h18.5l-9.2-27.7L498.5,46.2z M521.1,1.1l26.4,76h-20.4l-5.4-15.8h-27.9l-5.3,15.8h-20.3l25.8-76H521.1z M132.7,77l-16.1-61.9v62
	H97.9v-76h30.6l15.9,45.5l15.5-45.5h31.1v76h-18.6l0-62l-16.4,62L132.7,77z M259.7,16.1H222v15.1h29.6v14.2H222V61h37.7v16.1H203
	v-76h56.7V16.1z M84.8,1.1v76H66.2v-76H84.8z M58.2,1.1v15H38.6v60.9H19.8V16.2H0v-15H58.2z M398.5,77l-16.1-61.9v62h-18.7v-76h30.6
	l15.9,45.5l15.5-45.5h31.1v76h-18.6v-62l-16.4,62L398.5,77z"/>
<path class="st1" d="M283.8,12v24.6h16.3c9,0,13.2-5.6,13.2-12.7c0-7.6-4.8-11.9-13.2-11.9H283.8z M283.8,77.1h19.4l-14.9-18.7h-4.5
	V77.1z M349.5,1H335c3.8,5.5,5.9,12.5,6.1,20.7c0,21.1-9.9,29.6-22.3,33.9L337,77.1h12.5V1z"/>
</svg>
