<svg xmlns="http://www.w3.org/2000/svg" width="41" height="100" fill="none" viewBox="0 0 41 100"><g clip-path="url(#clip0)" opacity=".34"><path fill="#F7C24D" fill-rule="evenodd" d="M.776 44.633c-.598 1.548-.249 3.25.984 4.794l.968 1.212-.962 1.107c-1.693 1.948-1.885 4.14-.534 6.09 1.413 2.04 4.695 2.159 6.08.223.985-1.379.576-3.122-.896-3.815-.343-.162-.406-.051-.423.737-.022 1.093-.596 1.74-1.488 1.676-2.13-.152-1.664-3.28.538-3.619 1.762-.272 2.97.712 5.1 4.148 1.425 2.298 4.56 5.903 5.742 6.601.815.482 2.857.659 3.934.34 1.144-.337 2.61-1.814 2.936-2.956.591-2.076-.637-4.435-2.44-4.69-.984-.139-1.939.345-2.187 1.106-.177.544-.172.549.549.564.937.02 1.811.936 1.792 1.877-.023 1.092-.873 1.757-2.174 1.7-1.012-.043-1.212-.16-2.397-1.396-2.1-2.19-2.226-4.238-.371-6.017 1.779-1.705 3.919-1.733 6.292-.08 2.045 1.424 5.393 6.107 7.244 10.133l.622 1.352-1.083 1.675c-.596.922-1.323 2.242-1.616 2.935-.293.692-.547 1.273-.564 1.289-.018.016-.592-.554-1.276-1.267-1.121-1.17-1.369-1.313-2.516-1.461-3.566-.46-6.516 2.167-5.581 4.971.488 1.467 1.285 2.15 2.538 2.177 1.209.026 2.195-.7 2.214-1.627.007-.312-.208-.998-.478-1.524-.27-.525-.433-1.01-.364-1.076.069-.066.513-.1.988-.074 1.675.088 2.789 2.092 2.144 3.857-.283.773-1.752 1.968-2.26 1.837-.506-.132-.624.267-.207.702.739.77 2.577.66 3.483-.208.583-.559.749-.497.793.293.05.884.793 3.262 1.524 4.874.87 1.918 3.691 5.235 5.463 6.422 1.763 1.181 4.214 1.924 6.148 1.862l1.654-.052-.59.974c-1.234 2.035-.58 5.626 1.396 7.678 1.108 1.152 3.214 1.964 4.785 1.846 1.428-.107 3.497-1.062 4.608-2.127.43-.412.818-.71.864-.661.046.048.208.7.36 1.451.152.75.537 1.852.856 2.448.55 1.028.548 1.072-.044.86-.892-.32-1.992.092-2.368.886-.893 1.883 3.33 4.096 6.764 3.545 1.342-.215 1.733-.106 1.026.288-.734.409-2.021 2.508-2.261 3.686-.304 1.494.036 2.703 1.142 4.062 1.035 1.271 2.183 1.745 3.588 1.484 1.988-.37 2.946-1.892 2.342-3.717-.3-.905-.37-.973-1.308-1.276-.85-.275-.977-.383-.886-.753.165-.667.573-.958 1.92-1.371.908-.278 1.573-.264 2.468.053 2.979 1.052 3.98 3.818 3.216 8.894l-.17 1.135.877-.822c.483-.452 1.112-1.287 1.399-1.856.385-.765.554-.95.646-.71 1.124 2.922 3.407 5.339 5.914 6.258 2.29.84 4.846.468 7.453-1.086l1.117-.666-.626 1.643c-.848 2.224-1.391 5.265-1.248 6.983.24 2.864 1.026 4.401 2.582 5.048.322.134.329.372.026.966-1.283 2.522-3.757 3.005-5.477 1.07-.407-.458-.818-.757-.914-.665-.096.092-.139.797-.095 1.567.139 2.44 1.997 4.393 4.093 4.302 1.931-.085 3.38-1.331 4.242-3.647.238-.64.482-1.162.542-1.161.06.002.39.97.733 2.152.85 2.933 2.24 5.324 4.397 7.561.952.988 2.18 2.096 2.729 2.461 1.757 1.171 4.607 2.325 6.738 2.729.608.116.594.148-.459 1.037-.597.505-1.012.985-.923 1.066.089.082 1.169.035 2.399-.104 1.811-.204 2.572-.13 3.991.386 1.61.586 1.867.768 3.123 2.202 1.188 1.357 1.396 1.742 1.582 2.918.236 1.493-.241 3.178-1.125 3.979-.789.714-.976.651-1.275-.427-.329-1.186-1.141-1.721-2.483-1.634-1.271.082-2.161.906-2.464 2.281-.744 3.376 2.928 6.062 6.435 4.707 1.263-.487 3.198-2.353 3.953-3.811.866-1.672.975-4.593.255-6.819-.538-1.664-.747-1.992-2.298-3.618-1.383-1.451-1.945-1.883-2.972-2.286-.697-.273-1.234-.529-1.193-.568.041-.039.682-.411 1.425-.825 2.611-1.46 4.134-3.64 4.183-5.99.025-1.208-.08-1.502-.809-2.261-1.11-1.159-2.323-1.654-3.64-1.489-1.689.212-2.171.599-1.702 1.367.216.352.383 1.082.372 1.621-.035 1.662-.449 2.497-1.816 3.649-1.608 1.358-3.476 1.781-5.763 1.305-4.8-.997-8.457-4.626-9.993-9.915-1.016-3.495-1.721-11.348-1.895-21.07-.058-3.313-.274-7.122-.477-8.462-.408-2.688-.205-3.182 1.227-2.98.708.1 1.021.302 1.47.951 1.134 1.635 1.21 3.588.35 9.028-1.033 6.539-.385 9.459 2.392 10.772 1.322.625 2.364.426 3.51-.674 1.917-1.838 1.841-5.326-.134-6.112l-.659-.263-.271.971c-.15.533-.534 1.169-.855 1.413-.503.383-.678.359-1.288-.179-.633-.559-.692-.813-.58-2.507.081-1.23.651-3.439 1.643-6.361.948-2.796 1.573-5.188 1.666-6.374.183-2.337-.412-4.426-1.617-5.683l-.866-.903 1.294-.179c3.213-.443 6.569-2.872 7.898-5.716 1.229-2.628.684-5.215-1.601-7.597-1.024-1.067-2.68-1.668-4.486-1.627-2.884.065-5.386 2.656-5.512 5.708-.072 1.762.543 2.925 1.977 3.737 1.16.657 2.295.466 3.374-.568.667-.64.811-.968.769-1.75-.057-1.038-.915-2.172-1.656-2.188-.718-.015-.483-.427.393-.685 1.195-.353 1.73-.219 2.583.647 2.315 2.348-.273 6.928-4.308 7.625-3.365.582-6.01-2.445-5.756-6.586.146-2.38 1.016-3.691 4.413-6.652 3.15-2.746 3.6-3.515 3.1-5.308-.325-1.16-.809-1.704-1.961-2.206-.851-.371-2.9-.318-3.321.085-.375.36-.509-.05-.454-1.387.03-.71-.07-2.29-.22-3.51l-.274-2.217.66.456c2.319 1.603 6.808.94 9.743-1.436 2.52-2.04 3.451-4.679 2.671-7.563-.347-1.28-.619-1.739-1.703-2.873l-1.291-1.35 1.612-.019c2.95-.036 6.336-1.582 7.919-3.615 1.093-1.403 1.074-1.477-.887-3.522-1.6-1.669-1.922-1.898-3.515-2.498-.965-.363-2.457-.717-3.315-.785l-1.562-.125 1.332-1.283c1.123-1.082 1.407-1.524 1.812-2.819.857-2.74-.082-5.687-2.455-7.707-2.518-2.143-7.327-3.09-9.425-1.854l-.831.49.271-1.465c.15-.805.327-2.403.395-3.551l.123-2.087.78.263c1.497.505 2.885.317 3.965-.536.897-.708 1.012-.919 1.106-2.011.166-1.943-.202-2.594-2.602-4.595-4.056-3.383-5.187-6.08-4.125-9.842.515-1.823 2.15-3.416 3.784-3.687 1.767-.292 3.588.409 5.064 1.947 2.075 2.164 2.396 4.398.846 5.885-.622.597-.969.715-1.89.643-1.335-.104-1.984-.572-1.125-.812a2.43 2.43 0 0 0 1.452-3.58c-.504-.877-2.052-1.459-3.204-1.205-1.835.404-2.801 1.89-2.7 4.153.07 1.612.683 2.8 2.128 4.127 1.016.932 1.435 1.142 2.662 1.33 2.492.38 3.377.096 5.221-1.681 2.397-2.31 2.812-3.977 1.752-7.02-.434-1.245-.819-1.854-1.843-2.917-.712-.738-1.625-1.496-2.03-1.685-.405-.19-.733-.474-.729-.632.018-.702 2.922-5.014 4.549-6.754l1.748-1.87 1.927.03 1.926.029-.043 2.118c-.034 1.622.112 2.421.621 3.41.901 1.747 1.378 2.191 2.964 2.76 3.416 1.225 6.809-1.028 10.899-7.237 1.943-2.95 4.216-5.338 5.472-5.75.639-.209.941-.145 1.355.286.601.627.416 1.575-.476 2.44-.458.444-.458.548.007.809 1.463.822 3.316.202 4.435-1.486 1.296-1.954 1.12-3.687-.506-4.991-.692-.555-1.181-.687-2.427-.655-2.375.061-2.941.417-8.023 5.044-4.435 4.04-4.547 4.124-6.074 4.61-1.682.533-2.818.287-3.404-.738-.479-.84-.132-1.249 1.578-1.864 1.975-.71 5.245-2.754 6.832-4.27 1.347-1.287 7.33-8.224 9.114-10.567 1.565-2.056 3.594-5.335 5.148-8.32.728-1.398 1.398-2.613 1.488-2.7.09-.086.223.232.296.707.543 3.52 4.698 6.96 8.505 7.042 3.339.07 6.36-2.37 6.798-5.492.491-3.496-3.747-6.54-6.79-4.879-1.634.893-2.34 3.046-1.521 4.644.447.872.623 1.027 1.432 1.258 1.309.374 2.237-.1 2.419-1.236.116-.725.005-1.02-.616-1.642-.882-.882-.797-1.078.393-.91 1.776.25 2.596 1.993 1.691 3.591-1.722 3.043-6.531 2.572-8.918-.873-.852-1.23-1.036-2.634-.533-4.065.986-2.804 4.231-4.5 9.211-4.816 3.589-.228 4.348-.383 5.566-1.134 1.318-.814 2.631-2.559 2.569-3.414-.057-.79-1.182-1.26-3.026-1.267l-1.739-.007 1.176-.939c3.331-2.66 5.47-8.303 4.92-12.976l-.186-1.585.961.58c2.808 1.697 6.254 1.132 8.443-1.384 1.979-2.276 2.125-4.486.415-6.27-.77-.802-1.156-1.012-2.035-1.107-2.756-.296-5.175 2.252-4.233 4.459.397.927.291 1.042-.816.886-1.754-.248-2.561-1.2-2.646-3.126-.125-2.833 2.047-5.739 4.863-6.505 1.783-.486 2.718-.359 6.032.818 1.476.525 2.617.784 2.707.615.313-.587-.752-1.97-2.24-2.907-.776-.488-1.623-.98-1.883-1.092-.358-.155-.077-.284 1.155-.53 2.743-.55 4.339-1.377 6.297-3.264 3.662-3.528 4.712-7.838 3.066-12.585-.369-1.064-.774-1.622-2.442-3.365l-2-2.089 2.012.455c3.762.85 6.3.647 8.878-.71 3.491-1.836 4.969-5.654 3.671-9.48-.708-2.084-3.112-4.622-5.074-5.355-2.353-.879-5.232-.031-6.313 1.859-1.312 2.293-.382 4.998 1.928 5.61 1.305.346 2.381.087 3.301-.795.657-.63.77-.931.704-1.874-.042-.618-.009-1.117.074-1.11 1.127.095 2.71 1.504 3.067 2.73.522 1.796-.091 4.127-1.42 5.395-1.048 1-3.449 1.712-5.406 1.605-.941-.052-3.7-.599-6.131-1.215-2.432-.617-4.735-1.183-5.119-1.258-.57-.112-.664-.194-.509-.45 1.576-2.594 1.954-4.435 1.301-6.347-.87-2.55-2.993-4.022-5.835-4.045-2.405-.021-3.959.499-5.544 1.856-1.781 1.525-2.431 3.073-1.954 4.654.405 1.342.819 1.821 1.886 2.186 2.109.721 4.189-.567 4.232-2.618.019-.945-.091-1.206-.704-1.668-.623-.469-.674-.598-.358-.902 1.214-1.164 3.464-1.234 4.767-.149 1.793 1.492 1.623 3.88-.416 5.863-.977.95-1.171 1.02-3.606 1.31-5.035.601-8.333 2.055-11.458 5.052l-1.88 1.802-1.283-.48c-.706-.265-2.205-.502-3.33-.529-2.392-.055-4.56.796-6.315 2.48-2.586 2.48-2.505 6.959.156 8.63 1.395.876 4.211.492 5.528-.754.888-.84 1.52-2.414 1.474-3.67-.032-.867-.243-1.341-1.004-2.258-1.17-1.412-.99-1.713.995-1.67 3.678.078 7.349 4.368 6.597 7.71-.895 3.973-5.862 5.617-16.766 5.546-6.648-.043-8.676.485-11.214 2.918-1.085 1.04-1.453 1.579-1.846 2.702-.863 2.464-.071 4.417 1.78 4.387l.898-.015-1.073 1.657c-2.18 3.366-3.143 7.054-3.224 12.344-.051 3.375.705 8.976 1.562 11.564.186.56.281 1.074.212 1.14-.069.066-.723-.401-1.453-1.04-1.496-1.306-3.382-2.51-5.551-3.543-2.594-1.236-7.053-.678-8.925 1.117-.305.293-.576.512-.6.486-.025-.026-.554-.83-1.175-1.789-3.127-4.819-6.31-6.473-8.864-4.607-1.072.783-2.018 2.628-1.838 3.585.4 2.136 2.758 3.573 5.209 3.173 2.716-.442 4.324.386 4.286 2.208-.04 1.943-2.232 2.636-4.283 1.355-3.766-2.353-6.044-2.37-7.353-.057-.606 1.07-.602 1.637.014 2.28.251.261.377.499.28.526-4.674 1.348-6.685 2.508-8.425 4.864-1.16 1.57-2.06 3.443-2.527 5.257-.157.607-.308 1.127-.337 1.155-.03.028-.683-.603-1.452-1.401-1.024-1.063-1.69-1.558-2.486-1.846-2.798-1.013-5.493 1.131-5.295 4.213l.074 1.15 1.053-.822c1.717-1.339 3.496-1.203 5.098.39.964.958.999 1.293.19 1.85-1.882 1.297-1.282 5.407 1.244 8.529l1.185 1.464-1.12-.728c-4.492-2.923-8.738-2.193-11.048 1.899-2.37 4.201.735 9.761 5.392 9.653.893-.021 1.046-.082.672-.268-3.34-1.663-4.426-6.044-2.06-8.312 1.182-1.134 3.8-1.272 5.458-.289 1.476.877 3.23 2.886 3.923 4.495 1.257 2.92.573 8.716-1.435 12.161-.45.771-.88 1.532-.955 1.69-.084.174-.493.025-1.035-.378-2.079-1.545-6.311-3.317-8.62-3.61-.698-.088-.987-.328-2.504-2.08-3.302-3.815-8.183-6.236-12.597-6.249-2.476-.007-4.633.912-5.264 2.243-.612 1.292.754 2.64 2.137 2.11l.81-.31-.638 1.017c-.35.56-.787 1.707-.97 2.548l-.331 1.53-1.26-1.088c-2.946-2.551-5.98-2.801-8.662-.713-1.298 1.01-2.27 2.714-2.605 4.572-.241 1.33.156 3.206.826 3.904.326.34.102.392-1.4.324-3.64-.162-6.3 1.056-9.322 4.27-1.18 1.255-2.153 2.531-2.631 3.452-.802 1.542-1.83 4.5-1.73 4.973.106.492-.28.63-.66.235-.66-.689-2.453-1.14-3.185-.8-1.122.518-1.095.819.112 1.256 1.85.669 2.495 2.34 1.619 4.184-.425.893-1.753 1.603-2.528 1.35-.73-.238-.734-.255-.193-1.03 1.176-1.688.381-3.406-1.596-3.449-1.004-.021-1.2.072-1.884.895-1.458 1.752-1.305 3.376.476 5.033 1.365 1.27 2.783 1.683 4.611 1.341 1.052-.196 1.384-.396 2.345-1.413.94-.994 1.144-1.12 1.27-.787.67 1.776 1.33 3.154 2.063 4.308l.862 1.356-1.078 2.025c-1.596 2.998-3.45 5.508-5.65 7.645-1.732 1.684-2.115 1.95-3.335 2.323-1.859.568-2.842.35-4.276-.944-.992-.895-1.195-1.216-1.353-2.137-.619-3.61 4.257-7.228 5.967-4.428.676 1.106-.26 2.675-1.618 2.714-.572.016-.65.08-.573.46.158.776.715 1.13 1.817 1.154 1.976.042 3.471-2.167 3.001-4.435-.27-1.303-2.153-3.123-3.462-3.346-3.073-.525-5.521 1.234-9.34 6.711-2.075 2.976-3.239 3.951-4.713 3.952-1.904 0-3.181-2.16-1.966-3.325 1.065-1.021 2.692.09 2.456 1.676l-.106.708.677-.287c1.604-.68 1.823-2.73.446-4.166-1.912-1.994-5.371-1.121-6.433 1.623zm46.165-40.64c1.206-.266 2.416.146 3.747 1.275 1.364 1.158 1.92 2.368 1.789 3.9-.15 1.747-.817 3.158-2.802 5.928-.951 1.328-1.845 2.612-1.986 2.855-.202.347-.28.163-.371-.867-.083-.939-.346-1.613-.932-2.39-.45-.595-.745-1.152-.656-1.237.09-.085.247-.066.351.043.104.108.627.028 1.162-.178 1.695-.655 2.624-2.43 2.135-4.082-.219-.741-.35-.882-1.154-1.232-1.188-.517-2.17-.188-2.711.907-.22.446-.47.876-.552.955-.21.201-1.042-1.156-1.088-1.774-.132-1.758 1.336-3.723 3.068-4.103zm-9.57 10.605c2.835-.842 6.103.203 7.244 2.317.605 1.119.324 2.124-.84 3.013-.777.593-.881.764-.628 1.028.505.526 1.451.555 2.374.071l.873-.457-.454 1.226-.455 1.226-.75-.256c-1.323-.453-4.681-.253-6.582.39-3.28 1.11-6.203 4.189-7.173 7.553-.432 1.499-.667 1.332-1.215-.86-.81-3.24-.224-6.916 1.592-9.998 1.118-1.897 4.416-4.778 6.014-5.252zm54.7-47.973c3.757-2.069 7.204-1.846 10.611.687 1.257.934 1.64 1.36 2.518 2.81.57.94 1.256 2.35 1.524 3.134.317.923.567 1.348.713 1.206.347-.338 1.132-3.215.933-3.422-.448-.468.228-.438.859.038 1.228.925 3.015 1.477 4.676 1.444.882-.017 1.69-.113 1.795-.215a.264.264 0 0 1 .372.004c.099.103-.008.372-.238.597-.833.815-1.302 2.604-1.103 4.208l.197 1.59-1.686-.093c-3.071-.168-6.055 1.57-6.902 4.018-.476 1.377-.447 2.132.129 3.312.595 1.219 1.891 2.16 3.162 2.297 1.276.138 1.996-.06 3.147-.867 1.036-.725.97-.978-.303-1.16-.876-.127-1.929-1.035-2.162-1.866-.079-.28.01-.86.198-1.289.967-2.203 4.26-2.339 6.256-.258.544.568.733 1.036.764 1.892.041 1.128.024 1.155-1.84 3.058-1.881 1.921-7.487 6.173-8.112 6.153-.946-.03-3.991-1.084-5.574-1.93-6.603-3.527-10.006-7.776-10.221-12.762-.123-2.853 1.07-5.59 2.864-6.572 1.249-.685 2.811-.591 3.84.23 1.026.817.94 1.212-.328 1.491-1.344.296-1.963.96-1.987 2.133-.065 3.16 4.274 4.675 6.707 2.342 1.022-.98 1.372-2.193 1.201-4.157-.1-1.14-.256-1.442-1.457-2.814-1.152-1.315-1.551-1.617-2.768-2.09-1.772-.687-2.68-.73-4.41-.204-3.598 1.095-5.64 3.653-6.15 7.707-.162 1.3-.19 1.344-.748 1.202-.32-.08-.895-.016-1.28.143l-.701.29.145-2.362c.287-4.654 2.191-8.182 5.358-9.925zM60.707-.828c1.82-.413 5.032 1.026 7.095 3.178l.99 1.031-1.354-.003c-3.119-.006-8.463 1.15-10.385 2.246-.673.384-.854.256-.773-.548.297-2.942 2.126-5.381 4.427-5.904zm98.809-94.229c3.191-1.733 7.969-2.443 12.092-1.796 2.665.418 2.667.423.494 1.073-1.97.588-2.031.628-4.279 2.769-2.095 1.994-2.407 2.211-3.817 2.66-2.107.67-4.011 1.948-4.999 3.359-.427.61-.796 1.09-.818 1.067-.023-.024-.245-.604-.494-1.289-.249-.685-.963-1.877-1.588-2.648l-1.137-1.403.615-.714c.925-1.074 2.474-2.286 3.931-3.078zM12.203 46.903c.028.029.189.377.357.774.325.766 1.908 2.533 2.614 2.918.38.207.268.378-1.123 1.712-.85.816-1.703 1.769-1.895 2.119l-.35.636-.591-.995c-.326-.548-1.162-1.503-1.859-2.124L8.09 50.815l2.031-1.982c1.117-1.091 2.054-1.96 2.082-1.93zM139.74-74.263c1.117-.327 3.121-.75 4.455-.938 5.459-.772 7.204-1.118 8.569-1.697 1.889-.802 3.685-2.29 4.462-3.698l.61-1.105.438 1.245c.337.96.79 1.61 1.973 2.835 1.713 1.774 3.376 2.73 5.888 3.384.808.21 1.502.416 1.54.456.039.04-.535.33-1.275.642-2.769 1.17-5.281 4.3-5.942 7.406l-.237 1.111-1.19-1.49c-2.474-3.095-6.746-5.886-10.744-7.017-2.55-.722-6.698-.939-9.259-.484-2.172.386-1.866.107.712-.65zm-4.518 4.578c9.23-4.323 20.607.249 24.518 9.851 1.199 2.946 1.287 6.018.256 8.932-2.363 6.679-8.034 8.803-14.12 5.288-1.816-1.048-4.06-3.625-4.895-5.62-2.12-5.068 1.751-9.684 6.533-7.79 2.677 1.062 4.641 4.16 3.868 6.103-.407 1.026-1.095 1.503-1.898 1.318-1.136-.262-1.388-.872-.613-1.484.705-.556.85-1.723.328-2.638-.403-.705-2.008-1.263-2.819-.979-2.659.93-2.539 5.117.211 7.382 2.577 2.122 5.697 2.016 8.104-.276 2.731-2.6 3.227-6.077 1.415-9.927-1.013-2.154-4.083-5.353-6.21-6.472-6.271-3.3-13.297-2.216-17.643 2.721-2.799 3.18-4.026 7.032-4.772 14.988l-.159 1.698-.315-2.003c-.627-3.995-.403-8.495.598-12.031 1.073-3.79 4.132-7.431 7.613-9.062zM39.168 25.486c1.581-.467 4.397-.502 5.386-.067.673.296.811.49 1.121 1.581l.354 1.244-1.717.055c-4.961.158-8.624 5.354-7.102 10.074l.348 1.077-.645-.44c-1.827-1.25-3.664-2.86-3.795-3.328-.36-1.283.256-4.503 1.2-6.28.178-.332 1.064-1.267 1.97-2.078 1.255-1.123 1.94-1.561 2.88-1.838zM57.87 8.144c3.047-1.504 7.096-2.318 10.843-2.182l1.645.06.135 1.193c.179 1.569-.547 3.342-1.742 4.254-1.16.885-1.769.916-2.524.129-.636-.664-.64-.652.542-1.876.467-.484.474-.649.049-1.189-1.033-1.311-3.433-.865-4.309.801-.88 1.676-.44 3.43 1.207 4.8 2.083 1.734 5.353 1.08 7.55-1.512 1.167-1.378 1.705-2.813 1.795-4.793l.067-1.47 1.106.255c1.436.33 4.668 1.822 5.809 2.682l.894.674-1.152 1.105c-1.306 1.252-3.87 2.862-5.585 3.506-1.392.522-1.38.512-1.037.869.483.504 2.613.882 3.938.699 1.475-.204 3.917-1.572 5.477-3.068l1.042-.999 1.451 1.514 1.451 1.514-1.011.729c-1.409 1.015-4.257 2.342-6.905 3.216-1.761.582-2.653.698-4.178.546-3.395-.34-6.83 1.338-8.731 4.263-1.378 2.12-1.9 3.988-1.958 7.004l-.053 2.841-.92-.521c-.808-.458-.97-.674-1.325-1.766-.315-.971-.297-1.544.082-2.602l.486-1.358-.876.418c-1.193.57-2.05 1.802-2.315 3.328-.345 1.988.7 4.313 2.675 5.958l.942.784-1.552-.072c-1.527-.07-1.715.03-2.222 1.184-.162.37-.263.3-.844-.586-.932-1.424-1.1-2.162-1.306-5.754-.34-5.91-1.354-8.661-4.427-12.007l-1.84-2.003 1.498-2.05c1.611-2.202 2.9-4.517 3.402-6.106.4-1.27.39-1.26 2.726-2.412zM113.164-43.4c1.223-.471 3.531-.486 4.584-.027 1.174.511 2.78 2.21 3.61 3.82.366.71 1.068 2.665 1.559 4.342.81 2.765 1.011 3.186 2.166 4.518 1.135 1.31 1.416 1.51 2.587 1.842l1.313.373.296 2.028c.605 4.142-.082 8.053-2.036 11.59-1.417 2.564-4.884 5.89-7.505 7.197-2.006 1.001-4.643 1.757-6.498 1.863-1.334.075-1.272-.052.67-1.368.72-.488 2.139-1.678 3.154-2.643 3.29-3.13 3.836-5.164 2.255-8.397-1.196-2.443-1.507-3.577-1.382-5.032.085-1 .27-1.397.953-2.051 1.131-1.085 2.34-1.405 3.462-.916 1.618.704 2.643 3.296 2.118 5.354l-.284 1.115.897-.745c1.985-1.65 2.528-3.536 1.629-5.662-1.136-2.688-4.148-4.106-7.345-3.457-.529.108-.537.084-.114-.35.683-.698 1.404-2.695 1.462-4.048.147-3.438-2.256-6.368-5.409-6.596-4.692-.338-7.495 5.206-3.96 7.833 1.825 1.355 4.729.142 4.856-2.03.071-1.201-.666-1.88-1.877-1.728-.807.102-.877.16-1.036.849-.094.407-.272.738-.396.735-.789-.016-.684-1.607.158-2.415 1.608-1.542 4.577-.312 4.979 2.064.283 1.666-.11 2.997-1.187 4.03-.507.487-1.198.967-1.534 1.068-1.03.306-2.575.234-3.494-.164-1.154-.5-2.907-2.353-3.38-3.574-1.294-3.34 1.042-7.994 4.729-9.418zM88.039-17.024c.326.083.715.035.863-.107.476-.456.746-.166 1.61 1.73.971 2.133 3.37 5.073 5.234 6.415 1.018.732 1.093.836.704.975-.984.351-2.077 1.463-2.378 2.42-.435 1.387-.013 2.73 1.19 3.783.807.706 1.183.845 2.233.821.694-.015 1.53-.18 1.857-.367.975-.556 1.715-1.833 1.739-3 .012-.601.063-1.084.113-1.074.051.01 1.026.38 2.167.821l2.076.803-.627.601c-.883.848-2.857 3.674-4.028 5.77L99.8 4.341l-2.043-.058c-1.591-.045-2.354.098-3.455.648-2.73 1.363-4.286 4.276-4.393 8.223l-.058 2.143-1.034-1.315a43.76 43.76 0 0 0-2.321-2.657l-1.288-1.343 1.05-1.815c.579-.998 1.52-3.1 2.092-4.673.897-2.462 1.053-3.322 1.127-6.202.085-3.314-.442-6.934-1.747-12.01-.31-1.205-.501-2.25-.425-2.324.076-.074.407-.066.734.017zm48.983-46.844c1.842-1.013 3.808-1.497 5.828-1.435 3.622.111 6.213 1.294 8.812 4.024 2.096 2.2 2.956 4.1 2.876 6.344-.067 1.848-.496 2.566-.506.845-.01-1.79-.483-2.977-1.818-4.563-1.87-2.221-3.964-3.285-6.741-3.425-3.983-.2-7.578 3.427-7.649 7.717-.097 5.807 5.367 11.827 11.678 12.865l1.008.166-1.226.52c-1.743.74-4.691 2.709-6.148 4.108-1.546 1.484-3.62 4.223-5.934 7.836-1.71 2.67-4.256 6.26-4.829 6.81-.161.154-.294-.597-.316-1.787-.022-1.13-.163-2.774-.314-3.655-.244-1.42-.2-1.674.387-2.245 1.625-1.582 1.534-4.247-.385-11.174-2.884-10.418-.767-19.627 5.277-22.951zM50.023 22.118c1.36 1.417 2.375 3.121 3.013 5.057.568 1.724 1.16 6.636.838 6.946-.272.26-4.308-4.524-5.08-6.02-.412-.8-.633-1.817-.647-2.981-.02-1.541.353-3.442.762-3.883.073-.078.575.318 1.114.88zm-16.41 17.647c.638.527 2.027 1.449 3.086 2.048 2.613 1.481 3.037 1.967 2.893 3.311-.105.987-.229 1.18-1.337 2.08-.73.593-1.849 1.199-2.784 1.508-1.76.583-5.506.87-8.619.662l-2.081-.139 1.91-2.26c1.86-2.202 4.618-6.073 5.118-7.183.45-1 .628-1.003 1.813-.027zM172.538-92.847c3.151-1.048 7.004 1.288 8.094 4.908.772 2.566.195 5.295-1.662 7.853-2.951 4.065-9.049 4.651-13.404 1.288-3.201-2.472-2.572-7.978.938-8.205 1.581-.102 2.619.354 3.961 1.739.93.96 1.272 1.526 1.614 2.674.261.872.555 1.43.732 1.392.534-.114 1.225-2.927 1.01-4.108-.28-1.536-1.871-3.511-3.551-4.408-.663-.354-1.235-.675-1.271-.712-.179-.188 2.656-2.127 3.539-2.421zM42.885 31.093c.467-.178 1.2-.295 1.63-.26l.78.062-1.095.258c-1.71.404-3.332 2.243-3.45 3.915-.053.751.682 1.91 1.606 2.528.712.477 2.266.347 2.881-.24.593-.566.531-1.763-.129-2.5-.884-.989-.771-1.257.351-.832 1.383.523 2.07 1.906 1.706 3.44-.403 1.702-1.044 2.477-2.416 2.922-3.361 1.089-6.337-2.636-4.927-6.169.508-1.273 1.882-2.674 3.063-3.124zm-12.05 22.031c3.318.305 5.685 1.117 7.266 2.493 1.053.916 1.167 1.11 1.232 2.1.087 1.324-.57 2.051-2.8 3.1-.82.386-2.2 1.197-3.069 1.803-1.44 1.004-1.602 1.057-1.842.61-1.229-2.285-3.457-5.718-5.01-7.717L24.737 53.1l1.69-.113c.93-.062 2.913 0 4.408.137zM57.68 42.222c-.002.062-.466.327-1.032.588-1.028.474-1.815 1.454-2.594 3.228-.187.427-.233.434-.267.037-.075-.868-1.482-3.55-2.321-4.426-.454-.473-1.204-.99-1.668-1.148-.464-.159-.829-.328-.811-.376 1.15-3.108 1.099-4.536-.236-6.66-.778-1.237-.413-.908 4.038 3.642 2.691 2.752 4.892 5.053 4.891 5.115zm-12.988 1.045c.927-.277.965-.264.69.241-.416.763.064 2.738 1.06 4.36.47.765.699 1.243.51 1.063-.19-.181-.848-.34-1.464-.353-.945-.02-1.206.09-1.668.703-.508.676-.57.69-.852.194-.231-.404-.56-.516-1.372-.463l-1.067.069.49-.471c1.272-1.22 1.398-3.92.222-4.754-.442-.314-.318-.356.982-.328.819.017 1.93-.1 2.469-.261zm26.144-20.573c2.496-1.12 4.716-.657 6.97 1.452 1.216 1.138 1.48 1.52 1.79 2.587.72 2.473-.224 4.876-2.307 5.87-1.559.745-3.819.218-4.666-1.087-.39-.6-.069-1.302.381-.833.87.907 3.204.189 3.657-1.124.807-2.34-1.794-4.672-4.184-3.749-3.277 1.265-3.92 5.13-1.305 7.836 1.34 1.388 2.79 1.966 4.66 1.861 2.456-.138 4.933-1.728 5.873-3.771.161-.35.275-.078.448 1.072.128.848.5 2.458.83 3.576.728 2.477.473 4.036-.997 6.096-.768 1.077-1.33 1.62-2.476 2.394-2.297 1.552-3.971 2.007-7.06 1.921-3.21-.09-5.817-.918-8.417-2.677-1.628-1.1-1.705-1.184-1.725-1.86-.033-1.121.98-1.904 2.283-1.763.926.1 1.169.242 1.689.993.334.483.912 1.297 1.285 1.81l.678.933.477-1.5c.658-2.067.394-4.016-1.037-7.66-1.038-2.645-1.216-3.417-1.188-5.158.053-3.23 1.755-6.06 4.34-7.22zM42.49 53.897c.31-.177.599-.46.642-.63.053-.201.23-.072.513.372.544.853 1.702 1.157 2.802.735l.798-.306-.675.893c-1.084 1.433-1.793 3.393-1.578 4.362l.194.875-.925-.327c-.508-.18-1.607-.354-2.44-.387-1.2-.048-1.41-.119-1.008-.343 1.282-.715 1.423-2.859.295-4.487l-.642-.927.73.245c.402.135.985.101 1.294-.075zm-6.704 10.298l1.155-.647-.375 1.327c-.465 1.642-.387 3.117.266 4.999.434 1.25.703 1.634 1.964 2.802 1.67 1.545 2.99 2.106 4.96 2.108l1.277.002-.336 1.367-.336 1.368-1.266.23c-3.147.574-5.494-.144-7.869-2.407-1.52-1.448-1.693-1.706-2.241-3.322-.327-.963-.609-2.478-.627-3.367-.032-1.583-.009-1.639 1.12-2.714.634-.604 1.672-1.39 2.308-1.746zm45.553-43.064c2.706-.894 4.05-.306 4.079 1.783.024 1.842-1.196 3.112-2.666 2.773-.642-.148-.843-.327-1.24-1.1-.26-.508-.848-1.315-1.307-1.793-.459-.479-.783-.92-.72-.98.062-.06.897-.367 1.854-.683zM53.328 48.434c2.349-.42 4.266 1.164 4.183 3.454-.117 3.25-4.1 4.535-6.103 1.971-.741-.95-.881-1.823-.517-3.233.307-1.19 1.17-1.966 2.437-2.192zm-23.27 23.032c.647 2.983 3.21 6.347 5.882 7.722 2.253 1.158 5.691 1.653 7.595 1.09l.805-.237.365 1.225.366 1.224-.916-.473c-.81-.417-1.902-.351-2.422.147-.083.08.278.515.803.966.808.696.962.973 1.008 1.816.048.88-.063 1.101-.973 1.936-1.329 1.22-2.678 1.708-4.598 1.666-1.993-.044-3.633-.912-5.599-2.961-2.7-2.815-4.045-6.146-3.954-9.791.044-1.785.746-4.647 1.26-5.14.092-.088.262.277.377.81zm58.324-53.258c.258-.028 1.2 2.056 1.798 3.98.833 2.677 1.042 6.014.563 8.98-.73 4.52-2.353 7.716-5.355 10.543l-1.801 1.696.715-1.131c1.459-2.306 1.6-3.995.603-7.237-.708-2.304-.618-4.135.245-4.963.337-.323.81-.583 1.054-.578.535.012 1.277.738 1.171 1.147-.129.5.243.67.638.29.206-.198.383-.71.391-1.138.014-.638-.155-.925-.935-1.597l-.95-.818.547-.766c.813-1.137 1.08-2.14.928-3.475-.118-1.03-.3-1.365-1.328-2.436l-1.192-1.243 1.388-.62c.762-.34 1.447-.625 1.52-.634zM41.117 62.97c2.642-1.44 5.556.32 5.495 3.317-.028 1.329-.764 2.463-1.815 2.794-.975.307-1.218-.06-.439-.664.433-.336.615-.742.628-1.402.023-1.088-.27-1.46-1.391-1.775-1.358-.38-2.715.348-3.275 1.758-.777 1.954 1.322 4.83 3.69 5.056l.854.082-.99.048c-2.802.138-5.343-2.781-5.024-5.77.062-.58.29-1.32.508-1.645.218-.325.454-.7.524-.834.209-.396.25-.428 1.235-.965zm42.005-35.632c.412.43.454.645.18.908-.198.19-.459.552-.579.805-.16.338-.243.135-.308-.76-.11-1.503.016-1.673.706-.953zm-17.93 20.167c2.764 1.278 5.023 1.826 7.708 1.871 3.056.052 5.477-.533 8.674-2.097 2.725-1.333 3.173-1.346 4.342-.127 1.21 1.263.67 3.512-1.129 4.688l-.793.518.743.685c1.435 1.324 1.709 1.79 1.687 2.873-.018.86-.186 1.231-.846 1.864-.452.433-1.062.816-1.355.85-.293.032-1.56-.496-2.815-1.176-3.653-1.978-6.723-2.708-10.49-2.49-1.826.104-5.661 1.21-6.87 1.98-.888.565-1.022.445-.719-.64.333-1.192-.396-2.847-1.608-3.65l-.918-.61 1.27-1.164c1.395-1.279 1.77-2.192 1.415-3.455-.11-.39-.184-.722-.166-.74.018-.016.86.352 1.87.82zM54.059 58c.39 1.28 1.226 2.338 2.267 2.873l.964.496-4.224 4.263c-2.324 2.344-4.67 4.559-5.215 4.92-.956.636-.968.636-.364-.003 1.538-1.624 2.105-3.938 1.471-6.001l-.443-1.448c-.016-.054.294-.149.689-.21.43-.066 1.1-.478 1.673-1.027.968-.928 2.41-3.183 2.436-3.81a.988.988 0 0 1 .264-.581c.203-.195.29-.1.482.528zm4.09 6.692c-.02.997 1.21 1.538 2.825 1.242l.848-.155-1.51 1.45c-1.252 1.203-1.598 1.696-2.025 2.89-.85 2.371.07 5.032 2.044 5.924l.767.347-.352-.745c-.468-.992-.484-2.57-.037-3.623.282-.665.572-.97 1.303-1.37l.94-.515-.095 2.707c-.074 2.11.064 3.187.624 4.882.684 2.07.807 2.267 2.52 4.053 1.6 1.67 1.97 1.94 3.328 2.436.925.337 2.35.543 3.609.52a11.203 11.203 0 0 1 4.069.666c2.3.814 5.812 2.63 7.06 3.651l.862.706-1.751 1.679-1.752 1.68-1.166-.954c-2.429-1.986-5.437-2.932-7.422-2.335-1.533.462-1.625.628-.595 1.077 2.273.99 6.642 3.928 6.311 4.245-.493.473-3.096 1.656-4.705 2.137-2.811.842-2.697.867-2.576-.55.059-.684-.118-1.95-.393-2.812-.413-1.298-.735-1.815-1.864-2.992-1.2-1.252-1.538-1.468-2.815-1.805-1.569-.413-3.507-.033-4.451.872-.826.793-1.464 2.476-1.316 3.477.212 1.44 1.455 2.624 2.815 2.682.871.037 1.205-.09 1.693-.642.58-.66.576-.72-.093-1.418-.805-.84-.765-1.514.123-2.02.76-.434 1.959.088 2.779 1.21 1.1 1.504 1.299 4.447.328 4.855-.62.261-5.82-.396-8.03-1.015-1.866-.522-5.356-2.165-5.978-2.814-.159-.166-.47-.894-.69-1.617-.534-1.751-1.462-3.555-3.105-6.042l-1.358-2.053 1.997-2.039c3.471-3.542 4.136-5.358 5.057-13.825.182-1.675.77-3.088 1.642-3.95.424-.419.543-.44.536-.097zm-4.956 5.985c-.173 2.14-1.023 5.663-1.68 6.968-.745 1.478-3.583 4.632-3.886 4.317-.349-.364-.657-2.395-.596-3.933.089-2.218.92-3.606 3.835-6.399l2.44-2.338-.113 1.385zm11.801-11.562c2.431-1.212 4.91-1.683 8.015-1.522 3.482.18 5.063.906 7.493 3.44 2.483 2.59 2.876 4.455 1.67 7.912-.356 1.019-.743 2.476-.861 3.238l-.215 1.385-.48-1.05c-.899-1.962-3.8-3.745-6.042-3.713-3.841.054-6.965 4.051-5.625 7.197.878 2.065 2.922 3.131 4.82 2.516 1.162-.376 1.291-.48 1.767-1.408 1.062-2.074-.694-4.373-2.806-3.675-1.315.434-1.595-.004-.606-.95 1.077-1.031 2.498-1.305 3.887-.749 1.429.571 2.233 1.403 2.626 2.715.633 2.113.116 3.93-1.58 5.556-1.683 1.614-2.89 2.14-4.81 2.1-3.875-.083-6.792-3.616-6.648-8.052.056-1.71.284-2.54 1.385-5.045 1.555-3.538 1.89-5.095 1.504-7.001-.403-1.993-.645-2.164-1.446-1.021a15.257 15.257 0 0 1-1.55 1.8c-.729.706-1.057.858-1.685.778-.964-.122-1.876-1.032-1.901-1.897-.022-.748.754-1.39 3.088-2.554zM94.95 35.412c2.79-.053 5.092 1.77 5.12 4.055.014 1.187-1.532 2.572-4.281 3.835-2.546 1.17-3.429 1.92-3.4 2.889.02.706.258.951 3.036 3.136.973.765.924.968-.319 1.324-1.164.333-5.622.139-5.24-.228.176-.169.525-.759.775-1.312.951-2.098-.832-4.386-3.462-4.442l-1.359-.03 1.06-.824c1.463-1.14 3.591-3.942 4.686-6.17 1.013-2.063 1.208-2.19 3.384-2.233zM46.705 85.88c.302.497 1.125 1.78 1.83 2.853 2.747 4.176 2.96 6.787.729 8.91-2.037 1.937-4.405 2.09-6.035.389-1.28-1.335-1.464-3.642-.374-4.688.323-.309.853.095.733.559-.139.539.947 1.377 1.904 1.47 1.875.181 2.927-1.852 1.98-3.83-.505-1.06-1.61-1.867-2.517-1.841-1.001.029-1.088-.212-.336-.933.822-.788 1.389-2.067 1.353-3.051-.036-.96.065-.938.733.162zm48.813-30.97c.216.225.39.494.388.599-.002.105-.75.666-1.661 1.247-2.025 1.292-2.472 1.933-2.026 2.907.368.804.84 1.142 3.74 2.68 3.24 1.72 4.173 3.247 3.157 5.165-.937 1.767-3.886 2.777-6.264 2.146l-1.044-.277-.703-1.64c-.975-2.278-3.162-5.46-4.526-6.587l-1.107-.914 1.188.004c1.979.006 3.483-.918 4.01-2.463.263-.768.06-1.573-.73-2.91l-.403-.683 2.795.16c1.695.096 2.95.32 3.186.566zm-8.025 11.495c2.68 4.714 3.261 10.885 1.535 16.29-.61 1.907-1.825 4.256-2.198 4.248-.118-.002-.428-.22-.687-.483-.26-.263-.795-.574-1.19-.69-.395-.118-.762-.253-.815-.3-.053-.049.48-.641 1.184-1.317 1.114-1.068 1.305-1.383 1.466-2.415.218-1.4-.07-2.539-.89-3.526-.418-.503-.492-.758-.25-.86 1.429-.603 2.231-1.947 1.748-2.93-.347-.704-.798-.754-.962-.105-.075.295-.413.694-.753.888-.537.306-.709.256-1.327-.389-.973-1.014-.997-2.472-.082-5.13.953-2.772.915-4.676-.134-6.638l-.802-1.499 1.561 1.518c1.093 1.062 1.872 2.064 2.596 3.338zM55.579 98.17c1.918 1.104 5.752 2.111 9.304 2.444.816.076 1.56.219 1.655.317.219.229-1.792 1.799-3.501 2.734-3.175 1.738-5.888 1.207-7.52-1.471-.642-1.055-1.403-4.151-1.092-4.45.086-.081.605.11 1.154.426zm26.578-21.95c.499.63.567.87.282.99-.208.088-.554.328-.769.534-.33.317-.374.165-.28-.978.063-.745.112-1.36.11-1.367 0-.007.294.362.657.82zm-.75 2.916c1.349-.38 2.298.194 2.728 1.647.318 1.075.096 2.077-.608 2.738-.805.756-1.336.75-3.557-.04l-1.949-.695 1.046-1.032c.575-.567 1.177-1.318 1.336-1.669.159-.35.31-.668.337-.705.026-.038.327-.147.667-.244zm-16.072 26.205c.575-.347 1.949-1.547 3.052-2.669 1.935-1.966 2.047-2.044 3.143-2.169 2.384-.273 7.585-2.287 8.724-3.38.353-.339.445-.274 1.462 1.03 2.298 2.947 4.164 6.606 4.835 9.482.574 2.463.529 5.847-.102 7.57-.455 1.242-.805 1.75-1.983 2.876-1.62 1.548-2.576 1.94-4.556 1.869-2.407-.087-4.325-1.808-4.868-4.368-.471-2.221.626-4.4 2.817-5.598l.669-.365-.816-.229c-1.798-.503-4.434.61-5.576 2.356-.341.521-.675 1.003-.74 1.071-.066.068-.278-.365-.473-.962-.724-2.224-4.308-5.114-6.497-5.238-.928-.052-1.138-.226-.566-.467.236-.099.9-.463 1.475-.809zm22.964-13.5c-.022 1.22.2 2.865.528 3.901.496 1.572.746 1.98 2.029 3.318l1.462 1.525-1.086.317c-.597.174-1.542.677-2.1 1.118-.837.662-1.041.726-1.173.371-.446-1.202-2.132-4.208-2.975-5.303-1.814-2.36-1.858-1.96.47-4.322 1.128-1.145 2.238-2.296 2.467-2.558.362-.414.411-.202.378 1.633z" clip-rule="evenodd"/></g><defs><clipPath id="clip0"><path fill="#fff" d="M0 0h41v100H0z"/></clipPath></defs></svg>