<svg xmlns="http://www.w3.org/2000/svg" width="40" height="40" fill="none" viewBox="0 0 40 40"><path fill="#010107" fill-rule="evenodd" d="M28.821 17.74a2.03 2.03 0 0 1 0 2.235c-.335.67-1.117 1.118-1.9 1.118h-9.275V7.235A2.242 2.242 0 0 1 19.88 5c.782 0 1.453.447 1.9 1.118l7.04 11.622zm-1.9 1.23L19.77 7.234V18.97h7.152zm-17.21 2.122h6.817v-8.716c0-.671-.335-1.341-.894-1.789-1.006-.782-2.459-.558-3.129.447l-4.582 6.594c-.447.67-.447 1.565-.112 2.347.336.67 1.118 1.117 1.9 1.117zm4.694-8.716l-.112 6.481H9.711l4.694-6.481zM7.7 24.446c-.671 0-1.23.446-1.23 1.117v2.347c-.782.335-1.564.67-2.123 1.229v-3.576c0-1.9 1.453-3.353 3.353-3.353h27.938c.559 0 1.006.224 1.453.447.894.782 1.006 2.235.224 3.13l-.224.223-2.794 2.458c-.67-.335-1.564-.558-2.458-.558h-.224l3.912-3.465H7.7zm21.121 6.928c1.006-.894 2.235-1.341 3.465-1.23 1.34 0 2.57.448 3.576 1.23.108.087.205.174.297.258.382.346.703.636 1.603.636v2.235c-1.23-.112-2.347-.559-3.353-1.34a3.053 3.053 0 0 0-2.123-.895c-.783 0-1.677.335-2.236.894a5.589 5.589 0 0 1-7.264 0c-.67-.559-1.452-.894-2.235-.894-.894 0-1.676.335-2.346.894-2.124 1.788-5.253 1.788-7.265 0-.67-.559-1.564-.894-2.346-.894-.894 0-1.9.335-2.57.894C4.905 34.168 3.452 34.615 2 34.503v-2.235c.894 0 1.9-.335 2.57-.894a6.07 6.07 0 0 1 3.8-1.341 6.07 6.07 0 0 1 3.8 1.341c.67.559 1.453.894 2.347.894.894 0 1.676-.335 2.346-.894a4.95 4.95 0 0 1 3.688-1.23c1.341 0 2.57.448 3.688 1.23 1.341 1.23 3.353 1.23 4.582 0z" clip-rule="evenodd"/></svg>