<svg xmlns="http://www.w3.org/2000/svg" width="40" height="40" fill="none" viewBox="0 0 40 40"><path fill="#010107" d="M28.62 3.32c1.724 0 3.289.694 4.43 1.817A6.305 6.305 0 0 1 34.936 9.4l.004.132v4.106c.189-.039.37-.034.52-.02.212.02.486.072.726.235a1.16 1.16 0 0 1 .482.902v.069l-.004 3.438a1.15 1.15 0 0 1-1.58 1.066l-.058-.024-.086 11.025a2.863 2.863 0 0 1-1.523 2.521l-.096.048-.111 2.594a1.15 1.15 0 0 1-1.019 1.154l-.065.005-1.788.002a1.149 1.149 0 0 1-1.142-1.02l-.006-.064-.002-2.364H10.803v2.299a1.15 1.15 0 0 1-1.019 1.142l-.064.005-1.79.002a1.149 1.149 0 0 1-1.14-1.02l-.006-.064-.002-2.621c-.952-.429-1.643-1.346-1.711-2.44l-.004-.088-.002-11.15c-.496.253-1.045.153-1.393-.195a1.15 1.15 0 0 1-.33-.683l-.005-.064-.002-3.514a1.151 1.151 0 0 1 1.42-1.119l.062.017.248-4.054A6.302 6.302 0 0 1 6.881 5.21a6.3 6.3 0 0 1 4.263-1.886l.132-.004H28.62zm4.024 17.817H7.364v9.77h25.282l-.002-9.77zM12.238 24.01a2 2 0 0 1 1.422.59c.364.363.589.866.589 1.422 0 .555-.225 1.058-.59 1.422a2.004 2.004 0 0 1-2.843 0 2.006 2.006 0 0 1-.588-1.422c0-.556.225-1.059.589-1.423a2.001 2.001 0 0 1 1.421-.589zm15.512 0a2 2 0 0 1 1.422.59 2.006 2.006 0 0 1 0 2.844c-.364.364-.866.59-1.422.59a2.004 2.004 0 0 1-1.421-.59 2.006 2.006 0 0 1-.59-1.422c0-.556.226-1.059.59-1.423a2.003 2.003 0 0 1 1.421-.589zm-8.896-13.218H7.364v8.046h11.49v-8.046zm13.789 0H21.152v8.046h11.49v-8.046zM28.62 5.619H11.385l-.095.001c-1.709.04-3.154 1.161-3.788 2.873h24.961l-.027-.087c-.532-1.61-2.034-2.787-3.815-2.787z"/></svg>