<svg xmlns="http://www.w3.org/2000/svg" width="32" height="32" fill="none" viewBox="0 0 32 32"><path fill="#565656" d="M9.236 4c-.481 0-.958.175-1.354.489l-.055.03-.03.028-2.877 2.97.027.027a2.897 2.897 0 0 0-.777 3.114c.002.004-.002.022 0 .027.78 2.24 2.779 6.557 6.677 10.462 3.914 3.92 8.286 5.838 10.448 6.686h.027a3.308 3.308 0 0 0 3.196-.634l.028-.028.03-.03 2.85-2.852c.765-.765.765-2.088 0-2.853l-3.74-3.746-.03-.059c-.764-.765-2.113-.765-2.878 0l-.027.03-1.815 1.817a14.89 14.89 0 0 1-3.77-2.594c-1.506-1.442-2.278-3.1-2.56-3.748l1.84-1.845c.776-.776.788-2.062-.027-2.824l.027-.03-.085-.085-3.684-3.805-.03-.028-.058-.03A2.181 2.181 0 0 0 9.236 4zm0 1.844c.068 0 .136.034.203.087l3.684 3.775.057.058.028.028c-.007-.005.055.09-.058.203L10.848 12.3l-.433.404.203.575s1.059 2.834 3.281 4.958l.2.173c2.14 1.957 4.664 3.025 4.664 3.025l.576.26.433-.432 2.302-2.305c.156-.157.129-.157.285 0l3.772 3.774c.156.157.156.102 0 .259l-2.821 2.824c-.424.366-.872.44-1.41.26-2.088-.82-6.142-2.607-9.757-6.225-3.643-3.649-5.546-7.79-6.244-9.797-.141-.376-.04-.932.287-1.211l.028-.028.03-.03L9.035 5.93a.33.33 0 0 1 .2-.087z"/></svg>