<svg xmlns="http://www.w3.org/2000/svg" width="48" height="49" fill="none" viewBox="0 0 48 49"><circle cx="24" cy="24.847" r="24" fill="#F7C24D"/><path fill="#010107" fill-rule="evenodd" d="M31.229 17.81a11.314 11.314 0 0 1 3.358 4.359c1.178.021 2.3.495 3.125 1.32A4.364 4.364 0 0 1 39 26.576a4.364 4.364 0 0 1-1.288 3.088 4.543 4.543 0 0 1-3.125 1.32 11.332 11.332 0 0 1-4.24 4.992A11.673 11.673 0 0 1 24 37.846a11.67 11.67 0 0 1-6.346-1.87 11.332 11.332 0 0 1-4.24-4.992 4.543 4.543 0 0 1-3.127-1.32A4.364 4.364 0 0 1 9 26.576c0-1.154.462-2.263 1.287-3.087a4.543 4.543 0 0 1 3.126-1.32 11.329 11.329 0 0 1 4.218-4.977 11.67 11.67 0 0 1 6.314-1.885l2.207-3.46 1.696 1.039-1.672 2.622a11.625 11.625 0 0 1 5.053 2.303zm3.32 11.215a2.51 2.51 0 0 0 1.735-.733 2.407 2.407 0 0 0 .531-2.641 2.459 2.459 0 0 0-.9-1.094 2.535 2.535 0 0 0-1.366-.429l-1.295-.024-.508-1.168a9.362 9.362 0 0 0-3.503-4.125A9.644 9.644 0 0 0 24 17.267a9.644 9.644 0 0 0-5.243 1.546 9.362 9.362 0 0 0-3.503 4.124l-.508 1.168-1.295.024a2.524 2.524 0 0 0-1.736.733 2.423 2.423 0 0 0-.716 1.715c0 .642.257 1.258.716 1.716a2.523 2.523 0 0 0 1.736.733l1.295.024.508 1.168a9.36 9.36 0 0 0 3.503 4.124A9.643 9.643 0 0 0 24 35.887a9.643 9.643 0 0 0 5.243-1.546 9.361 9.361 0 0 0 3.503-4.124l.508-1.168 1.295-.024zM21 24.126h-2.5v2.45H21v-2.45zm6 0h2.5v2.45H27v-2.45zm-1.087 8.938a5.088 5.088 0 0 1-1.913.373 5.052 5.052 0 0 1-3.535-1.435 4.895 4.895 0 0 1-1.084-1.59A4.815 4.815 0 0 1 19 28.537h10c0 .643-.13 1.28-.38 1.875a4.895 4.895 0 0 1-1.085 1.59 5.008 5.008 0 0 1-1.622 1.062z" clip-rule="evenodd"/></svg>