<svg xmlns="http://www.w3.org/2000/svg" width="56" height="56" fill="none" viewBox="0 0 56 56"><circle cx="28" cy="28" r="28" fill="#fff"/><path fill="#010107" fill-rule="evenodd" d="M37.637 25.555a10.109 10.109 0 0 0-3-3.893 10.385 10.385 0 0 0-4.515-2.058l1.494-2.342-1.515-.928-1.971 3.09a10.43 10.43 0 0 0-5.642 1.685 10.121 10.121 0 0 0-3.768 4.446 4.06 4.06 0 0 0-2.792 1.18 3.898 3.898 0 0 0-1.15 2.758 3.9 3.9 0 0 0 1.15 2.759 4.06 4.06 0 0 0 2.792 1.18 10.124 10.124 0 0 0 3.789 4.459 10.429 10.429 0 0 0 5.67 1.671c2.016 0 3.988-.581 5.67-1.671s2.999-2.641 3.788-4.46a4.06 4.06 0 0 0 2.792-1.18 3.898 3.898 0 0 0 1.15-2.758 3.898 3.898 0 0 0-1.15-2.758 4.06 4.06 0 0 0-2.792-1.18zm1.516 5.47c-.408.41-.965.646-1.55.655l-1.157.022-.453 1.044a8.363 8.363 0 0 1-3.13 3.684 8.615 8.615 0 0 1-4.684 1.381 8.616 8.616 0 0 1-4.685-1.38 8.363 8.363 0 0 1-3.13-3.685l-.453-1.044-1.157-.022a2.254 2.254 0 0 1-1.551-.654c-.41-.41-.64-.96-.64-1.533s.23-1.123.64-1.532c.41-.41.967-.644 1.551-.655l1.157-.022.454-1.043a8.364 8.364 0 0 1 3.13-3.685 8.616 8.616 0 0 1 4.684-1.381c1.666 0 3.295.48 4.684 1.38a8.364 8.364 0 0 1 3.13 3.686l.453 1.043 1.157.022c.436.008.86.141 1.22.383.36.241.64.581.804.977a2.15 2.15 0 0 1-.474 2.36zm-15.888-3.721h2.233v2.189h-2.233v-2.19zm9.828 0h-2.234v2.189h2.233v-2.19zm-4.914 8.318c.586 0 1.167-.113 1.71-.333a4.474 4.474 0 0 0 1.448-.95c.415-.406.744-.889.969-1.42.224-.53.34-1.1.34-1.675h-1.801a2.68 2.68 0 1 1-5.332 0h-1.801a4.346 4.346 0 0 0 1.308 3.095 4.513 4.513 0 0 0 3.159 1.283z" clip-rule="evenodd"/></svg>