<svg xmlns="http://www.w3.org/2000/svg" width="38" height="48" fill="none" viewBox="0 0 38 48"><path fill="#2F70B6" fill-rule="evenodd" d="M9.673 0C4.34 0 0 4.34 0 9.673a9.67 9.67 0 0 0 4.247 8.004v6.172a9.668 9.668 0 0 0-4.093 7.898 9.67 9.67 0 0 0 4.247 8.004v6.152a.707.707 0 0 0 .998.645l4.428-1.993 4.428 1.993a.708.708 0 0 0 .999-.645V39.75a9.733 9.733 0 0 0 3.482-4.235 9.725 9.725 0 0 0 3.665 4.698v6.152a.707.707 0 0 0 .998.645l4.428-1.992 4.428 1.992a.708.708 0 0 0 .999-.645v-6.152A9.671 9.671 0 0 0 37.5 32.21a9.672 9.672 0 0 0-4.325-8.057.707.707 0 0 0 .079-.324v-6.152A9.67 9.67 0 0 0 37.5 9.673C37.5 4.34 33.16 0 27.827 0c-4.159 0-7.713 2.638-9.077 6.328C17.386 2.638 13.832 0 9.673 0zm9.246 28.44a9.733 9.733 0 0 1 3.56-4.287.708.708 0 0 1-.078-.324v-6.152a9.725 9.725 0 0 1-3.65-4.66 9.725 9.725 0 0 1-3.651 4.66v5.963a9.725 9.725 0 0 1 3.819 4.8zm8.908-5.903h-.124l.124-.055.124.056-.124-.001zm-14.143.197l-3.72-1.674a.707.707 0 0 0-.581 0l-3.72 1.674v-4.257c.355.162.72.302 1.092.42l.019.005.045.014a8.076 8.076 0 0 0 .364.105 10.185 10.185 0 0 0 .643.148l.023.004.048.01.184.032.015.002.048.008c.064.01.128.02.192.028l.06.009.195.023.027.003.03.004c.066.007.131.013.197.018l.025.003.034.003.194.013.026.001.037.003.197.008h.025l.034.002a9.914 9.914 0 0 0 .512 0l.035-.001.025-.001a9.89 9.89 0 0 0 .197-.008l.062-.004.194-.013.06-.005.195-.019.036-.004.023-.003.195-.023.04-.006.02-.003c.063-.008.127-.018.191-.028l.04-.006.023-.004c.062-.01.123-.021.185-.033l.07-.013a9.98 9.98 0 0 0 .643-.148 9.243 9.243 0 0 0 .365-.105l.039-.012.024-.008a9.628 9.628 0 0 0 1.093-.419v4.257zm-1.316-5.255a8.449 8.449 0 0 1-.676.202l-.058.014-.018.004a8.45 8.45 0 0 1-.2.046l-.017.004-.032.007a8.035 8.035 0 0 1-.26.05l-.026.004a8.053 8.053 0 0 1-.234.037l-.054.008a8.132 8.132 0 0 1-.251.03l-.01.001c-.088.01-.176.017-.264.023l-.033.002-.025.002a8.891 8.891 0 0 1-.206.01h-.001l-.036.002-.034.001a8.665 8.665 0 0 1-.52 0l-.061-.002h-.01a8.347 8.347 0 0 1-.206-.011l-.03-.002-.027-.002a8.34 8.34 0 0 1-.265-.023l-.01-.001a8.12 8.12 0 0 1-.251-.03l-.053-.008a8.4 8.4 0 0 1-.235-.037l-.026-.004a8.054 8.054 0 0 1-.26-.05l-.026-.006-.023-.005a7.946 7.946 0 0 1-.2-.046l-.015-.004h-.001a5.666 5.666 0 0 1-.37-.1 9.159 9.159 0 0 1-.359-.114l-.007-.002c-3.234-1.12-5.562-4.196-5.562-7.806 0-4.553 3.704-8.257 8.257-8.257 4.553 0 8.258 3.704 8.258 8.257 0 3.61-2.33 6.686-5.563 7.806zm1.504-7.806l1.33-2.499a.707.707 0 0 0-.6-1.04l-2.83-.097-1.498-2.401a.708.708 0 0 0-1.201 0l-1.5 2.4-2.828.099a.708.708 0 0 0-.6 1.04l1.329 2.498-1.33 2.499a.708.708 0 0 0 .6 1.04l2.83.098 1.499 2.4a.708.708 0 0 0 1.2 0l1.5-2.4 2.828-.098a.708.708 0 0 0 .6-1.04l-1.329-2.499zm-2.525 2.235a.708.708 0 0 0-.575.333l-1.099 1.758-1.098-1.758a.708.708 0 0 0-.576-.333l-2.072-.072.974-1.83a.708.708 0 0 0 0-.665l-.974-1.83 2.072-.073a.708.708 0 0 0 .576-.332l1.098-1.759 1.098 1.759c.125.2.341.324.576.332l2.073.072-.974 1.83a.708.708 0 0 0 0 .666l.974 1.83-2.073.072zm20.491 10.826l-3.72-1.674a.707.707 0 0 0-.581 0l-3.72 1.674v-4.257c.355.162.72.302 1.092.42l.064.02a8.06 8.06 0 0 0 .364.104l.136.035.053.013.043.01a9.93 9.93 0 0 0 .411.09l.023.004.048.01.184.032.015.002.049.008c.063.01.127.02.191.028l.028.004.031.005.196.023.027.003.03.004c.066.007.131.013.197.018l.025.003.014.001.02.002.194.013.022.001.04.003.198.008h.025l.034.002a9.924 9.924 0 0 0 .512 0l.035-.001.025-.001a9.894 9.894 0 0 0 .215-.01h.017l.027-.002.194-.013.013-.001.02-.002.027-.002.196-.019.035-.004.023-.003.195-.023.06-.009c.063-.008.127-.018.191-.028l.04-.006.023-.004c.062-.01.123-.021.185-.033l.07-.013a9.98 9.98 0 0 0 .173-.035l.038-.009.044-.01a10.181 10.181 0 0 0 .388-.094 10.906 10.906 0 0 0 .365-.105l.039-.012.024-.008a9.628 9.628 0 0 0 1.093-.419v4.257zm-1.326-5.252a6.657 6.657 0 0 1-.464.145 8.355 8.355 0 0 1-.26.068l-.018.004a8.45 8.45 0 0 1-.2.046l-.017.004-.032.007a8.089 8.089 0 0 1-.26.05l-.026.004a8.053 8.053 0 0 1-.234.037l-.054.008a8.132 8.132 0 0 1-.251.03l-.01.001a5.75 5.75 0 0 1-.264.023l-.036.003h-.022a8.891 8.891 0 0 1-.206.012h-.001a7.915 7.915 0 0 1-.59.002l-.061-.002h-.01a8.37 8.37 0 0 1-.206-.011l-.03-.002-.027-.002a8.34 8.34 0 0 1-.265-.023l-.01-.001a8.132 8.132 0 0 1-.251-.03l-.053-.008a8.358 8.358 0 0 1-.235-.037l-.027-.004a8.035 8.035 0 0 1-.258-.05l-.027-.006-.023-.005a7.979 7.979 0 0 1-.2-.046l-.015-.004h-.001l-.06-.014a7.809 7.809 0 0 1-.202-.054l-.107-.031a9.133 9.133 0 0 1-.36-.115l-.007-.002c-3.234-1.12-5.562-4.196-5.562-7.806 0-4.553 3.704-8.257 8.257-8.257 4.553 0 8.258 3.704 8.258 8.257 0 3.61-2.33 6.686-5.563 7.806l-.01.003zm1.514-7.809l1.33-2.499a.707.707 0 0 0-.6-1.04l-2.83-.097-1.498-2.401a.708.708 0 0 0-1.201 0l-1.5 2.4-2.828.099a.708.708 0 0 0-.6 1.04l1.329 2.498-1.33 2.499a.708.708 0 0 0 .6 1.04l2.83.098 1.499 2.4a.708.708 0 0 0 1.2 0l1.5-2.4 2.828-.098a.708.708 0 0 0 .6-1.04l-1.329-2.499zm-2.525 2.235a.708.708 0 0 0-.576.333l-1.098 1.758-1.098-1.758a.708.708 0 0 0-.576-.333l-2.072-.072.974-1.83a.708.708 0 0 0 0-.665l-.974-1.83 2.072-.073a.708.708 0 0 0 .576-.332l1.098-1.759 1.098 1.759c.125.2.341.324.576.332l2.073.072-.974 1.83a.708.708 0 0 0 0 .666l.974 1.83-2.073.072zm-1.383 31.689l3.72 1.674v-4.257c-.356.162-.72.301-1.093.419l-.024.008-.04.012-.028.009-.04.012-.074.022-.047.013-.059.017-.116.032-.135.035-.052.012-.044.011-.157.037-.082.017a9.98 9.98 0 0 1-.173.035l-.037.008-.033.006-.185.032-.024.004-.039.007c-.064.01-.128.02-.192.028l-.017.003-.042.006-.195.023-.023.003-.035.004c-.066.007-.13.013-.196.018l-.06.005c-.064.006-.129.01-.194.014l-.026.001a9.894 9.894 0 0 1-.233.01l-.025.001-.035.002a9.912 9.912 0 0 1-.512 0l-.034-.002h-.025a9.167 9.167 0 0 1-.197-.008l-.037-.003c-.008 0-.017 0-.026-.002a9.53 9.53 0 0 1-.217-.014l-.011-.002-.025-.002a9.74 9.74 0 0 1-.196-.018l-.031-.004-.027-.003a9.627 9.627 0 0 1-.196-.023l-.059-.009a9.291 9.291 0 0 1-.191-.028l-.049-.008-.015-.003a5.429 5.429 0 0 1-.184-.032l-.048-.01-.023-.004a8.953 8.953 0 0 1-.643-.147l-.045-.012a9.313 9.313 0 0 1-.07-.02l-.043-.012-.064-.018a8.06 8.06 0 0 1-.142-.043l-.018-.006-.046-.014a9.635 9.635 0 0 1-1.093-.42v4.258l3.72-1.674a.707.707 0 0 1 .582 0zm2.394-3.578l.01-.003c3.234-1.12 5.563-4.196 5.563-7.806 0-4.553-3.705-8.258-8.258-8.258-4.553 0-8.257 3.705-8.257 8.258 0 3.61 2.328 6.686 5.562 7.806l.007.002.043.014.035.013a8.164 8.164 0 0 0 .282.088l.035.01a4.8 4.8 0 0 0 .274.074l.03.008.03.007.016.004.2.046.023.005.027.005c.086.018.172.035.258.05l.027.005c.078.013.156.026.235.037l.053.007c.084.012.167.022.251.03l.01.002c.088.009.176.017.265.023l.028.002.03.002c.068.004.137.008.206.01h.009c.02.002.04.002.061.003a8.048 8.048 0 0 0 .52 0l.056-.002h.014l.207-.011.025-.002.033-.002c.088-.006.177-.014.264-.023l.01-.001c.084-.009.168-.02.251-.03l.054-.008c.078-.011.156-.024.234-.037l.027-.005a8.089 8.089 0 0 0 .279-.054l.012-.002.018-.004a8.45 8.45 0 0 0 .2-.046l.017-.004a5.286 5.286 0 0 0 .26-.068l.04-.012.068-.02a8.581 8.581 0 0 0 .356-.113zm2.844-10.308l-1.33 2.499 1.33 2.499a.708.708 0 0 1-.6 1.04l-2.83.097-1.498 2.401a.708.708 0 0 1-1.201 0l-1.5-2.4-2.828-.099a.708.708 0 0 1-.6-1.04l1.329-2.498-1.33-2.499a.708.708 0 0 1 .6-1.04l2.83-.098 1.499-2.4a.708.708 0 0 1 1.2 0l1.5 2.4 2.828.099a.707.707 0 0 1 .6 1.04zm-4.43 5.066c.124-.2.34-.324.575-.332l2.073-.072-.974-1.83a.708.708 0 0 1 0-.665l.974-1.831-2.073-.072a.708.708 0 0 1-.576-.332l-1.098-1.76-1.098 1.76a.708.708 0 0 1-.576.332l-2.072.072.974 1.83c.11.208.11.458 0 .665l-.974 1.831 2.072.072a.708.708 0 0 1 .576.332l1.098 1.76 1.098-1.76zM13.838 44.808l-3.72-1.674a.707.707 0 0 0-.581 0l-3.72 1.674v-4.257c.355.162.72.301 1.092.419l.064.02a9.014 9.014 0 0 0 .596.163 10.108 10.108 0 0 0 .411.09l.023.004.048.009.184.032.063.01.192.03.06.007c.064.009.13.017.195.024l.027.003.03.004c.066.007.131.013.197.018l.025.002.034.003c.065.005.13.01.194.013l.026.002.037.002c.065.004.13.006.197.008l.025.001.034.002a9.915 9.915 0 0 0 .512 0l.035-.002h.025l.197-.009.036-.002.026-.002.194-.013.033-.003.027-.002.195-.018.036-.004.023-.003.195-.024.04-.005.02-.003.191-.028.04-.007.023-.004a10.292 10.292 0 0 0 .253-.045h.002a9.98 9.98 0 0 0 .643-.149l.116-.031a9.864 9.864 0 0 0 .249-.073l.039-.013.024-.007a9.628 9.628 0 0 0 1.093-.42v4.258zm-1.316-5.256a8.449 8.449 0 0 1-.676.202l-.058.015-.018.004a8.45 8.45 0 0 1-.2.045l-.017.004-.032.007a8.089 8.089 0 0 1-.26.05l-.026.005a8.053 8.053 0 0 1-.234.037l-.054.007a8.132 8.132 0 0 1-.251.03l-.01.002a8.031 8.031 0 0 1-.297.025c-.008 0-.017 0-.025.002a8.891 8.891 0 0 1-.206.01h-.001a8.092 8.092 0 0 1-.59.003l-.061-.002h-.01a8.347 8.347 0 0 1-.206-.012l-.03-.002-.027-.001a8.34 8.34 0 0 1-.265-.023l-.01-.001a8.124 8.124 0 0 1-.251-.031l-.053-.008a8.046 8.046 0 0 1-.235-.036l-.026-.005a8.048 8.048 0 0 1-.26-.05l-.026-.005-.023-.006a7.956 7.956 0 0 1-.2-.045l-.015-.004a7.826 7.826 0 0 1-.73-.214l-.007-.003c-3.234-1.12-5.562-4.195-5.562-7.805 0-4.553 3.704-8.258 8.257-8.258 4.553 0 8.258 3.704 8.258 8.258 0 3.61-2.33 6.686-5.563 7.805zm1.504-7.805l1.33-2.499a.707.707 0 0 0-.6-1.04l-2.83-.098-1.498-2.4a.708.708 0 0 0-1.201 0l-1.5 2.4-2.828.098a.708.708 0 0 0-.6 1.04l1.329 2.499-1.33 2.498a.708.708 0 0 0 .6 1.04l2.83.098 1.499 2.401a.708.708 0 0 0 1.2 0l1.5-2.4 2.828-.099a.708.708 0 0 0 .6-1.04l-1.329-2.498zm-2.525 2.235a.708.708 0 0 0-.575.332l-1.099 1.759-1.098-1.759a.708.708 0 0 0-.576-.332l-2.072-.072.974-1.83a.708.708 0 0 0 0-.666l-.974-1.83 2.072-.072a.708.708 0 0 0 .576-.333l1.098-1.758 1.098 1.759c.125.2.341.324.576.332l2.073.072-.974 1.83a.708.708 0 0 0 0 .665l.974 1.83-2.073.073z" clip-rule="evenodd"/></svg>