<svg xmlns="http://www.w3.org/2000/svg" width="47" height="47" fill="none" viewBox="0 0 47 47"><path fill="#2F70B6" fill-rule="evenodd" d="M17.129 9.66c.508 1.872 3.08 3.234 6.115 3.234 2.862 0 5.31-1.212 6.007-2.924a6.128 6.128 0 0 0-2.908-.663.775.775 0 1 1 0-1.55c6.127 0 6.198-6.687 6.198-6.972V.764a.775.775 0 0 1 1.55.021c0 .284.094 6.973 6.197 6.973a.775.775 0 0 1 0 1.55 5.78 5.78 0 0 0-3.688 1.161l2.061.735a2.29 2.29 0 0 1 1.222.99l6.265 10.315c.515.84.438 1.914-.19 2.672-1.118 1.36-5.6 2.745-9.544 3.384V42.62c0 2.462-4.659 3.873-12.783 3.873-6.554 0-13.558-1.017-13.558-3.873V28.683c-4.286-.55-8.313-2.01-9.545-3.505a2.3 2.3 0 0 1-.188-2.67L6.606 12.19c.28-.464.714-.814 1.226-.99l7.25-2.576a1.6 1.6 0 0 1 1.285.087c.378.194.655.54.762.95zm27.697 13.656l-6.269-10.322a.752.752 0 0 0-.402-.326l-2.702-.959a9.044 9.044 0 0 0-1.363 4.57v.022a.775.775 0 1 1-1.55-.021c0-.193-.047-3.379-2.024-5.377-1.06 2.11-3.905 3.54-7.272 3.54-3.782 0-6.915-1.802-7.612-4.383l-7.29 2.604a.752.752 0 0 0-.41.327L1.665 23.314a.755.755 0 0 0 .057.877c.74.897 3.995 2.348 8.352 2.93v-3.868a.775.775 0 0 1 1.55 0V42.62c0 .596 2.956 2.324 12.008 2.324 8.405 0 11.234-1.596 11.234-2.324V23.252a.775.775 0 0 1 1.55 0v3.745c4.365-.73 7.758-2.084 8.349-2.803a.755.755 0 0 0 .062-.878zM36.76 8.533a7.36 7.36 0 0 1-3.445-3.9 7.36 7.36 0 0 1-3.444 3.9 7.36 7.36 0 0 1 3.444 3.9 7.36 7.36 0 0 1 3.445-3.9zm-5.769 14.72c-4.57 0-4.648 5.201-4.648 5.423a.775.775 0 1 1-1.55.004v-.004c0-.22-.077-5.423-4.648-5.423a.775.775 0 0 1 0-1.55c4.57 0 4.648-5.201 4.648-5.423a.774.774 0 1 1 1.55-.005v.005c0 .22.077 5.423 4.648 5.423a.775.775 0 0 1 0 1.55zm-5.423-3.466a5.917 5.917 0 0 1-2.344 2.69 5.918 5.918 0 0 1 2.344 2.691 5.917 5.917 0 0 1 2.344-2.69 5.917 5.917 0 0 1-2.344-2.69zm3.099 10.438v1.55a.775.775 0 0 0 1.55 0v-1.55a.775.775 0 0 0-1.55 0zm0 4.648a.775.775 0 0 1 1.55 0v1.55a.775.775 0 0 1-1.55 0v-1.55zm3.874-2.324h-1.55a.775.775 0 0 0 0 1.55h1.55a.775.775 0 0 0 0-1.55zm-6.198 0h1.55a.775.775 0 0 1 0 1.55h-1.55a.775.775 0 1 1 0-1.55z" clip-rule="evenodd"/></svg>