<svg xmlns="http://www.w3.org/2000/svg" width="160" height="60" fill="none" viewBox="0 0 160 60"><path fill="#000003" d="M150 21.022V38.02h-4.495l-6.955-11.495c.022.358 0 .917 0 1.32V38.02h-4.004V21.022h5.077l6.329 9.93-.022-9.93H150zM121.486 31.11h4.137l-2.058-6.195-2.079 6.195zm5.054-10.087l5.904 16.997h-4.562l-1.208-3.533h-6.239l-1.186 3.533h-4.54l5.77-16.997h6.061zM39.677 37.997l-3.6-13.844V38.02h-4.182V21.022h6.843l3.556 10.176 3.466-10.176h6.956V38.02h-4.16V24.153L44.888 38.02l-5.21-.022zm28.403-13.62h-8.431v3.377h6.62v3.176h-6.62v3.489h8.43v3.6H55.4V21.022h12.68v3.355zm-39.115-3.355V38.02h-4.16V21.022h4.16zm-5.949 0v3.355h-4.383v13.62h-4.205V24.399H10v-3.354h13.016v-.023zm76.105 16.975l-3.6-13.844V38.02h-4.182V21.022h6.843l3.556 10.176 3.466-10.176h6.956V38.02H108V24.153l-3.668 13.866-5.21-.022z"/><path fill="#2F70B6" fill-rule="evenodd" d="M73.47 23.46v5.502h3.645c2.013 0 2.952-1.253 2.952-2.84 0-1.7-1.073-2.662-2.952-2.662H73.47zm0 14.56h4.338l-3.332-4.183H73.47v4.182zM88.163 21H84.92c.85 1.23 1.32 2.796 1.364 4.63 0 4.718-2.214 6.62-4.987 7.58l4.07 4.81h2.796V21z" clip-rule="evenodd"/></svg>