<svg xmlns="http://www.w3.org/2000/svg" width="32" height="32" fill="none" viewBox="0 0 32 32"><path fill="#565656" fill-rule="evenodd" d="M25.881 13.634a10.56 10.56 0 0 0-3.134-4.068 10.85 10.85 0 0 0-4.716-2.15l1.56-2.446L18.01 4l-2.06 3.23a10.88 10.88 0 0 0-5.894 1.759 10.574 10.574 0 0 0-3.936 4.645 4.24 4.24 0 0 0-2.917 1.232A4.073 4.073 0 0 0 2 17.748a4.07 4.07 0 0 0 1.202 2.882 4.24 4.24 0 0 0 2.917 1.232c.824 1.9 2.2 3.52 3.958 4.659A10.895 10.895 0 0 0 16 28.267a10.9 10.9 0 0 0 5.923-1.746 10.576 10.576 0 0 0 3.958-4.66 4.24 4.24 0 0 0 2.917-1.231A4.073 4.073 0 0 0 30 17.748a4.073 4.073 0 0 0-1.202-2.882 4.24 4.24 0 0 0-2.917-1.232zm1.584 5.715a2.343 2.343 0 0 1-1.62.684l-1.208.022-.474 1.09a8.737 8.737 0 0 1-3.27 3.85A9 9 0 0 1 16 26.438a9 9 0 0 1-4.894-1.443 8.737 8.737 0 0 1-3.27-3.85l-.473-1.09-1.209-.022a2.355 2.355 0 0 1-1.62-.684 2.262 2.262 0 0 1-.668-1.601c0-.599.24-1.174.668-1.601a2.355 2.355 0 0 1 1.62-.684l1.21-.023.473-1.09a8.738 8.738 0 0 1 3.27-3.85A9 9 0 0 1 16 9.059c1.74 0 3.442.502 4.894 1.443a8.738 8.738 0 0 1 3.27 3.849l.473 1.09 1.209.023c.455.008.898.147 1.274.4.376.252.668.607.84 1.02.173.414.217.868.13 1.306a2.27 2.27 0 0 1-.625 1.16zm-16.598-3.888H13.2v2.287h-2.333V15.46zm10.266 0H18.8v2.287h2.333V15.46zM16 24.15a4.75 4.75 0 0 0 1.786-.348 4.676 4.676 0 0 0 1.514-.992 4.569 4.569 0 0 0 1.011-1.483c.235-.555.356-1.15.356-1.75h-1.882a2.8 2.8 0 1 1-5.57 0h-1.882A4.505 4.505 0 0 0 12.7 22.81a4.715 4.715 0 0 0 3.3 1.34z" clip-rule="evenodd"/></svg>