<svg xmlns="http://www.w3.org/2000/svg" width="203" height="365" fill="none" viewBox="0 0 203 365"><mask id="a" fill="#fff"><path fill-rule="evenodd" d="M256.237 289.578l3.71.075c1.224.037 2.411.074 3.561.148l.148-42.837-3.635-5.123-3.635 5.123-.149 42.614zm148.222 41.984c.408-.334.853-.743 1.261-1.114a23.374 23.374 0 0 0 1.632-1.707c.89-.966 1.706-2.005 2.522-3.156l.556-.853-33.197-.038c1.298.78 2.596 1.597 3.894 2.45a301.78 301.78 0 0 1 6.714 4.418h16.618zm9.05-12.733l.445-1.225c.26-.742.519-1.522.742-2.338l.111-.371c.408-.891.816-1.745 1.224-2.599l.371-.668-62.834-.111v.408a268.702 268.702 0 0 1 6.565 3.229c2.337 1.188 4.637 2.376 6.862 3.601l46.514.074zm22.775 56.981c.185-.557.371-1.188.556-1.894.186-.668.334-1.336.519-2.078l.038-.186c2.299-6.719 3.968-15.182 5.6-23.609 1.818-9.28 3.636-18.597 6.417-25.798a6.815 6.815 0 0 1 1.299-2.265c.593-.705 1.298-1.225 2.077-1.633.779-.408 1.632-.705 2.522-.78.816-.111 1.706-.037 2.597.223a6.972 6.972 0 0 1 2.374 1.114c.704.556 1.298 1.187 1.743 1.967.482.742.816 1.559.964 2.45a7.606 7.606 0 0 1 0 2.598l-9.681 35.785 5.304 2.227 24.148-25.576 8.642.445c.742-4.046.779-8.092.186-11.953a37.514 37.514 0 0 0-4.303-12.732c-2.263-4.046-5.267-7.684-8.902-10.654-3.487-2.895-7.604-5.159-12.13-6.644a38.328 38.328 0 0 0-13.612-1.782c-4.711.26-9.236 1.411-13.428 3.267a37.189 37.189 0 0 0-11.35 7.758c-3.116 3.118-5.712 6.793-7.53 10.95-.779 2.933-1.929 5.68-3.338 8.316-1.484 2.672-3.227 5.159-5.267 7.387a29.472 29.472 0 0 1-1.818 1.893c-.408.408-.853.816-1.298 1.188v1.707h-2.077a41.56 41.56 0 0 1-3.747 2.561c-.667.409-1.335.743-2.003 1.114a232.316 232.316 0 0 1 18.732 16.482 234.851 234.851 0 0 1 16.766 18.152zM99.856 344.406c-2.225-.52-4.414-1.3-6.528-2.228a37.976 37.976 0 0 1-9.125-5.679 38.667 38.667 0 0 1-7.826-8.835c-2.078-3.229-3.672-6.83-4.748-10.654-1.78-4.157-4.377-7.832-7.493-10.95a37.186 37.186 0 0 0-11.35-7.758c-4.192-1.856-8.754-3.007-13.428-3.267a38.333 38.333 0 0 0-13.612 1.782 37.232 37.232 0 0 0-12.167 6.644 37.665 37.665 0 0 0-8.865 10.654c-2.188 3.935-3.672 8.241-4.303 12.732A35.999 35.999 0 0 0 .597 338.8l8.642-.445 24.148 25.576 5.267-2.227-9.644-35.785c-.186-.853-.149-1.744 0-2.598a6.988 6.988 0 0 1 .927-2.45 7.5 7.5 0 0 1 1.78-1.967 7.005 7.005 0 0 1 2.374-1.114c.89-.26 1.744-.334 2.597-.223.89.075 1.743.372 2.522.743a7.355 7.355 0 0 1 2.077 1.633 7.39 7.39 0 0 1 1.299 2.302c2.67 7.461 4.45 16.37 6.194 25.316 1.706 8.5 3.375 17.001 5.823 24.091l.038.186a39.82 39.82 0 0 0 1.372 4.863 33.215 33.215 0 0 0 1.818 4.343c.63 1.188 1.26 2.301 1.965 3.303l.89 1.225c5.861-7.832 12.167-15.293 18.918-22.309a249.46 249.46 0 0 1 20.252-18.857zm-43.88-51.153a43.266 43.266 0 0 1 7.159 4.232 36.38 36.38 0 0 1 3.709 3.007v-47.143l-10.868 39.904zm16.803 13.883c.816 1.114 1.558 2.302 2.262 3.49a35.004 35.004 0 0 1 2.115 4.269l.148.371a29.97 29.97 0 0 0 1.372 4.009l6.01-22.235-3.228-11.731h-.519v-1.967l-8.16-29.771v53.565zm10.052 19.415a28.12 28.12 0 0 0 2.151 2.561 31.405 31.405 0 0 0 3.005 2.858 33.123 33.123 0 0 0 6.49 4.232 30.438 30.438 0 0 0 5.12 2.004v-73.647L82.83 326.551zm22.7 12.843l.557.075a214.833 214.833 0 0 1 8.271-6.125c2.745-1.968 5.564-3.861 8.457-5.754l-17.285-63.291v75.095zm338.134 65.555c.668 1.225 1.521 2.339 2.448 3.378a18.927 18.927 0 0 0 3.042 2.673h4.673a253.024 253.024 0 0 0-3.264-5.382l-.296-.483-6.603-.186zm-8.271-7.535c-1.521-.52-2.968-1.225-4.34-2.042a24.58 24.58 0 0 1-4.785-3.712 25.094 25.094 0 0 1-3.672-4.714c-.26-.446-.52-.891-.742-1.337-.223.446-.482.891-.742 1.337a24.033 24.033 0 0 1-3.672 4.714 24.686 24.686 0 0 1-7.27 5.011c-.816.372-1.632.669-2.448.966l27.745.742c-.037-.334-.074-.631-.074-.965zm-30.342 6.496c.111.26.26.52.408.78a17.047 17.047 0 0 0 2.634 3.674 18.61 18.61 0 0 0 3.004 2.636h21.069c.519-.371 1.001-.78 1.483-1.188a18.595 18.595 0 0 0 1.744-1.67c.445-.52.853-1.04 1.261-1.634.222-.334.482-.668.667-1.002-.111-.223-.185-.482-.296-.742l-31.974-.854zm20.327-26.096c.259 1.559.779 3.044 1.409 4.418a18.527 18.527 0 0 0 3.672 5.234 18.61 18.61 0 0 0 5.972 4.009c1.744.705 3.598 1.187 5.564 1.336a248.233 248.233 0 0 0-12.574-15.999c-.631.223-1.224.408-1.855.557-.63.148-1.298.297-1.966.408l-.222.037zm-.371-5.939a229.543 229.543 0 0 0-16.766-16.704l-.185.074c-.446.148-.854.297-1.225.408-.816.26-1.706.446-2.596.631l-.853.149c.26 1.67.742 3.303 1.409 4.825a19.364 19.364 0 0 0 3.784 5.494 18.336 18.336 0 0 0 6.009 4.009 18.36 18.36 0 0 0 7.047 1.411c.52 0 1.039-.037 1.521-.074a19.46 19.46 0 0 0 1.521-.186l.334-.037zm-324.373-6.608c-.223.409-.445.854-.705 1.262a24.048 24.048 0 0 1-3.486 4.418 25.455 25.455 0 0 1-6.862 4.825 25.054 25.054 0 0 1-6.64 2.042l-.148 1.002.074.334a17.778 17.778 0 0 0 2.485 5.457 18.115 18.115 0 0 0 4.117 4.455 16.934 16.934 0 0 0 5.305 2.821 18.436 18.436 0 0 0 5.934 1.002c2.485 0 4.896-.52 7.048-1.41 2.262-.928 4.265-2.302 5.972-4.009a18.91 18.91 0 0 0 3.672-5.197 19.5 19.5 0 0 0 1.409-4.381c-2.337-.334-4.562-1.002-6.676-1.93a24.686 24.686 0 0 1-7.27-5.011 23.999 23.999 0 0 1-3.487-4.418c-.26-.408-.482-.853-.742-1.262zm-23.74 12.844c-.37 0-.74-.074-1.112-.111a71.139 71.139 0 0 0-1.187-.223l-.111-.037a289.071 289.071 0 0 0-6.75 8.352c-1.633 2.079-3.19 4.195-4.749 6.311a21.255 21.255 0 0 0 3.079-1.003 17.79 17.79 0 0 0 5.786-3.934c1.484-1.485 2.745-3.23 3.635-5.16a18.02 18.02 0 0 0 1.41-4.195zm2.523-5.939c2.411-.037 4.748-.52 6.825-1.411 2.263-.928 4.266-2.301 5.972-4.009a18.437 18.437 0 0 0 3.82-5.531 18.634 18.634 0 0 0 1.41-4.825l-2.04-.26a230.603 230.603 0 0 0-9.199 8.834 210.07 210.07 0 0 0-6.788 7.202zm.334 14.7a15.57 15.57 0 0 1-.63 1.039 24.72 24.72 0 0 1-3.08 3.749c-2.225 2.227-4.933 4.046-7.9 5.308a23.604 23.604 0 0 1-4.45 1.337l29.117-.817a124.06 124.06 0 0 1-.557-.223 23.955 23.955 0 0 1-6.417-3.526c-1.706-1.299-3.227-2.858-4.525-4.566a25.024 25.024 0 0 1-1.558-2.301zM54.53 404.949l-.482.78a249.03 249.03 0 0 0-3.19 5.271h38.984c1.15-.817 2.226-1.745 3.153-2.821a16.918 16.918 0 0 0 2.597-3.675c.148-.26.26-.483.37-.743l-41.432 1.188zm327.155-70.38l-.074.631c.296 1.893.89 3.712 1.743 5.382.89 1.745 2.04 3.378 3.45 4.752 1.706 1.707 3.709 3.081 5.971 4.009 2.152.928 4.563 1.41 7.048 1.41.927 0 1.855-.074 2.708-.185l.334-.075a218.818 218.818 0 0 0-10.349-8.24 203.516 203.516 0 0 0-10.831-7.684zm-6.046.519h-.631l-.037-.037a25.166 25.166 0 0 1-6.714-1.113c-2.373-.743-4.562-1.857-6.602-3.23a25.29 25.29 0 0 1-4.117-3.601 17.46 17.46 0 0 1-1.707-2.004c-.445.594-.89 1.151-1.372 1.707a24.09 24.09 0 0 1-3.598 3.415 24.347 24.347 0 0 1-6.38 3.527 22.797 22.797 0 0 1-5.267 1.299c.26 1.708.742 3.304 1.41 4.789.927 2.078 2.188 3.935 3.783 5.494a18.588 18.588 0 0 0 5.972 4.009 17.96 17.96 0 0 0 7.047 1.41c2.523 0 4.897-.482 7.048-1.41a18.847 18.847 0 0 0 6.009-3.972 19.943 19.943 0 0 0 3.45-4.789 19.007 19.007 0 0 0 1.706-5.382v-.112zm-23.072-15.962l-.556-1.373a209.414 209.414 0 0 0-10.238-4.529 228.968 228.968 0 0 0-12.017-4.64 22.21 22.21 0 0 1-2.449 1.708 26.826 26.826 0 0 1-3.56 1.819 25.414 25.414 0 0 1-3.821 1.15c-.705.186-1.409.297-2.114.372a19.071 19.071 0 0 0 1.409 4.825 19.364 19.364 0 0 0 3.784 5.494c1.706 1.708 3.746 3.044 5.972 4.009a18.67 18.67 0 0 0 7.084 1.374c2.077 0 4.043-.335 5.898-.966a19.646 19.646 0 0 0 5.304-2.821 17.516 17.516 0 0 0 3.227-3.192c.816-1.002 1.484-2.079 2.077-3.23zm8.643 3.23l.111.148a18.309 18.309 0 0 0 3.672 3.304h.037c1.521 1.077 3.19 1.893 5.008 2.487.927.26 1.854.483 2.819.631l-2.448-1.447c-2.263-1.3-4.525-2.599-6.862-3.861l-2.337-1.262zm35.831 34.151a22.816 22.816 0 0 1-6.936-1.856 23.812 23.812 0 0 1-7.493-5.123 25.199 25.199 0 0 1-3.301-4.083l-.668-1.114a18.2 18.2 0 0 1-.704 1.114 23.223 23.223 0 0 1-3.265 4.083c-3.709 3.712-8.605 6.236-14.058 6.942.223 1.67.705 3.303 1.41 4.788a17.104 17.104 0 0 0 3.783 5.494c1.707 1.708 3.71 3.081 5.972 4.009a18.511 18.511 0 0 0 7.048 1.411c2.522 0 4.896-.52 7.047-1.411a17.804 17.804 0 0 0 5.972-4.009 17.835 17.835 0 0 0 3.821-5.494 17.111 17.111 0 0 0 1.372-4.751zm-274.928 29.585c-.26.408-.483.817-.742 1.225a24.353 24.353 0 0 1-3.45 4.343 24.384 24.384 0 0 1-7.307 5.011c-.223.112-.445.223-.705.335l22.886-.669a24.699 24.699 0 0 1-6.528-4.677c-1.298-1.336-2.485-2.784-3.45-4.343a20.746 20.746 0 0 1-.704-1.225zm-16.803 17.41c.148.297.296.556.408.816a21.204 21.204 0 0 0 2.485 3.675 19.042 19.042 0 0 0 3.301 2.933l.074.074h20.957c.112-.074.557-.334.631-.408 1.113-.854 2.189-1.819 3.116-2.933.89-1.113 1.706-2.301 2.337-3.563.222-.52.482-1.04.667-1.56l-33.976.966zm59.57-17.41c-.223.408-.445.817-.705 1.225-1.001 1.559-2.151 3.044-3.449 4.343a25.938 25.938 0 0 1-5.342 4.046l18.101-.519a25.305 25.305 0 0 1-4.414-3.527c-1.335-1.299-2.485-2.784-3.449-4.343-.26-.408-.519-.817-.742-1.225zm-17.285 16.185c.334.853.705 1.67 1.113 2.413.742 1.336 1.632 2.598 2.633 3.674a22.478 22.478 0 0 0 3.005 2.636h21.068c1.113-.78 2.152-1.67 3.042-2.673a18.81 18.81 0 0 0 2.67-3.712 16.59 16.59 0 0 0 1.373-3.341l-34.904 1.003zm-22.218-24.389a19.5 19.5 0 0 0 1.409 4.381c.927 1.93 2.152 3.712 3.672 5.197 1.707 1.707 3.71 3.081 5.972 4.009 2.189.89 4.563 1.41 7.048 1.41 2.522 0 4.896-.52 7.047-1.41a18.351 18.351 0 0 0 9.644-9.206 17.872 17.872 0 0 0 1.447-4.381 25.167 25.167 0 0 1-6.677-1.93 24.7 24.7 0 0 1-7.27-5.011c-1.298-1.299-2.485-2.747-3.449-4.343-.26-.409-.483-.817-.742-1.225-.223.408-.445.816-.705 1.225a24.652 24.652 0 0 1-3.45 4.343 24.215 24.215 0 0 1-7.27 5.011 25.171 25.171 0 0 1-6.676 1.93zm82.308 8.204c-.223.408-.483.817-.705 1.225a25.972 25.972 0 0 1-3.487 4.343 23.265 23.265 0 0 1-3.264 2.747l8.16-.223a43.848 43.848 0 0 1 .334-6.347 6.106 6.106 0 0 0-.334-.52 20.746 20.746 0 0 1-.704-1.225zm-17.693 14.997c.37 1.188.853 2.376 1.446 3.452a16.432 16.432 0 0 0 2.634 3.712c.927 1.039 1.966 1.93 3.078 2.747h21.069c1.113-.817 2.151-1.708 3.078-2.747a17.302 17.302 0 0 0 2.634-3.712 17.714 17.714 0 0 0 1.484-3.675c.222-.742.371-1.485.482-2.264-2.374-.334-4.637-.965-6.751-1.931a23.858 23.858 0 0 1-4.34-2.487c.037.891.075 1.782.186 2.71l.408 3.452-25.408.743zm-21.811-23.201a16.36 16.36 0 0 0 1.41 4.381c.89 1.93 2.151 3.675 3.672 5.197a17.819 17.819 0 0 0 5.972 4.009 18.52 18.52 0 0 0 7.047 1.41c2.523 0 4.896-.52 7.048-1.41a17.829 17.829 0 0 0 5.972-4.009 17.626 17.626 0 0 0 3.672-5.197 16.322 16.322 0 0 0 1.409-4.381 24.91 24.91 0 0 1-6.639-1.93 24.215 24.215 0 0 1-7.27-5.011 23.248 23.248 0 0 1-3.487-4.343c-.222-.409-.482-.817-.705-1.225-.222.408-.482.816-.704 1.225a24.698 24.698 0 0 1-3.45 4.343 24.384 24.384 0 0 1-7.307 5.011 24.907 24.907 0 0 1-6.64 1.93zm223.333 19.303a11.282 11.282 0 0 1-1.187-.52 24.397 24.397 0 0 1-7.307-5.011c-1.335-1.299-2.485-2.784-3.487-4.343-.222-.408-.482-.817-.704-1.225-.223.408-.445.817-.705 1.225-1.002 1.559-2.151 3.044-3.45 4.343-2.04 2.005-4.377 3.675-7.01 4.9l23.85.631zm-29.785 5.568c.26.631.557 1.262.89 1.856a17.253 17.253 0 0 0 2.634 3.712 19.142 19.142 0 0 0 3.079 2.673h21.031a18.61 18.61 0 0 0 3.004-2.636c1.039-1.113 1.929-2.375 2.671-3.674.148-.335.334-.669.482-1.003l-33.791-.928zm20.401-24.871c.26 1.522.742 3.007 1.409 4.381.891 1.93 2.152 3.675 3.673 5.197a17.825 17.825 0 0 0 5.971 4.009c2.152.89 4.526 1.41 7.048 1.41 2.485 0 4.896-.52 7.048-1.41 2.262-.928 4.265-2.302 5.971-4.009a17.647 17.647 0 0 0 3.673-5.197 16.393 16.393 0 0 0 1.409-4.381 24.9 24.9 0 0 1-6.639-1.93 24.401 24.401 0 0 1-7.308-5.011 24.647 24.647 0 0 1-3.449-4.343c-.223-.409-.482-.817-.705-1.225-.223.408-.482.816-.705 1.225a24.647 24.647 0 0 1-3.449 4.343 24.389 24.389 0 0 1-7.308 5.011 24.9 24.9 0 0 1-6.639 1.93zm-36.091 18.078a24.673 24.673 0 0 1-5.823-4.306c-1.299-1.299-2.449-2.784-3.45-4.343-.26-.408-.482-.817-.705-1.225a21.04 21.04 0 0 1-.742 1.225c-.964 1.596-2.151 3.044-3.449 4.343-1.447 1.485-3.116 2.747-4.896 3.786l19.065.52zm-27.522 5.642c.333 1.003.741 1.968 1.261 2.859a17.378 17.378 0 0 0 2.559 3.712c.964 1.039 2.003 2.004 3.19 2.821h21.106a19.621 19.621 0 0 0 2.93-2.598c1.038-1.114 1.892-2.339 2.633-3.638.371-.743.742-1.485 1.039-2.228l-34.718-.928zm20.808-23.72a19.502 19.502 0 0 0 1.41 4.381 18.867 18.867 0 0 0 3.672 5.197 18.588 18.588 0 0 0 5.972 4.009c2.188.89 4.562 1.41 7.047 1.41 2.523 0 4.897-.52 7.048-1.41a18.351 18.351 0 0 0 9.644-9.206 17.872 17.872 0 0 0 1.447-4.381 25.167 25.167 0 0 1-6.677-1.93 24.215 24.215 0 0 1-7.27-5.011c-1.335-1.299-2.485-2.784-3.45-4.343-.259-.409-.482-.817-.742-1.225-.222.408-.445.816-.704 1.225a24.698 24.698 0 0 1-3.45 4.343 24.215 24.215 0 0 1-7.27 5.011 25.167 25.167 0 0 1-6.677 1.93zm-38.093 16.89a27.975 27.975 0 0 1-3.821-3.118c-1.298-1.299-2.448-2.784-3.45-4.343-.222-.408-.482-.817-.704-1.225-.223.408-.483.817-.705 1.225a28.056 28.056 0 0 1-1.521 2.153c.148 1.596.223 3.304.186 5.048l10.015.26zm-16.469.297a17.534 17.534 0 0 1-2.968 1.596c-2.114.966-4.377 1.597-6.788 1.931.149.779.297 1.522.52 2.301.37 1.299.89 2.524 1.52 3.712a20.275 20.275 0 0 0 2.634 3.712 18.92 18.92 0 0 0 3.041 2.673h21.069a18.878 18.878 0 0 0 3.041-2.673c1.002-1.113 1.929-2.338 2.634-3.675a20.54 20.54 0 0 0 1.372-3.229l-26.632-.743.408-3.452c.074-.705.111-1.447.149-2.153zm11.758-17.187a17.912 17.912 0 0 0 1.446 4.381c.891 1.93 2.152 3.675 3.635 5.197a18.372 18.372 0 0 0 6.009 4.009c2.152.89 4.526 1.41 7.048 1.41 2.485 0 4.896-.52 7.048-1.41 2.262-.928 4.265-2.302 5.971-4.009 1.521-1.485 2.745-3.267 3.673-5.197a19.551 19.551 0 0 0 1.409-4.381c-2.337-.334-4.562-1.002-6.677-1.93a24.7 24.7 0 0 1-7.27-5.011 24.647 24.647 0 0 1-3.449-4.343c-.26-.409-.483-.817-.705-1.225-.223.408-.482.816-.742 1.225-.964 1.596-2.151 3.044-3.449 4.343a24.232 24.232 0 0 1-7.271 5.011 24.766 24.766 0 0 1-6.676 1.93zm-27.819 20.714c-2.374-.334-4.637-.965-6.751-1.931a24.384 24.384 0 0 1-7.307-5.011c-1.299-1.299-2.486-2.747-3.45-4.343-.26-.408-.482-.817-.742-1.225-.222.408-.445.817-.705 1.225a24.647 24.647 0 0 1-3.449 4.343c-3.71 3.712-8.606 6.236-14.058 6.942.111.742.259 1.447.445 2.153a18.28 18.28 0 0 0 1.409 3.563 19.314 19.314 0 0 0 2.486 3.675c.964 1.114 2.077 2.079 3.301 2.933l.074.074h21.031a19.113 19.113 0 0 0 3.19-2.821c1.002-1.114 1.892-2.339 2.597-3.675a19.983 19.983 0 0 0 1.446-3.675c.223-.705.371-1.485.483-2.227zm-14.949-20.714a19.502 19.502 0 0 0 1.41 4.381 18.867 18.867 0 0 0 3.672 5.197 18.588 18.588 0 0 0 5.972 4.009 18.52 18.52 0 0 0 7.047 1.41c2.523 0 4.897-.52 7.048-1.41a17.957 17.957 0 0 0 5.415-3.453c-1.557-8.315-6.528-15.219-12.945-21.827l-.222.409a24.698 24.698 0 0 1-3.45 4.343c-2.114 2.079-4.562 3.786-7.307 5.011a24.907 24.907 0 0 1-6.64 1.93zm35.349 3.081c.371-1.002.668-2.041.891-3.081a24.161 24.161 0 0 1-2.374-.445 41.968 41.968 0 0 1 1.483 3.526zm-78.153-3.081c.074.334.148.706.222 1.04.186-.409.371-.78.52-1.188-.223.074-.483.111-.742.148zm4.488 8.984c.222.185.408.408.593.594a18.61 18.61 0 0 0 5.972 4.009c2.189.89 4.563 1.41 7.085 1.41 2.485 0 4.859-.52 7.047-1.41a18.588 18.588 0 0 0 5.972-4.009 18.867 18.867 0 0 0 3.672-5.197 19.502 19.502 0 0 0 1.41-4.381 25.167 25.167 0 0 1-6.677-1.93 24.215 24.215 0 0 1-7.27-5.011 24.647 24.647 0 0 1-3.449-4.343c-.26-.409-.483-.817-.705-1.225-.26.408-.482.816-.742 1.225-.964 1.596-2.151 3.044-3.45 4.343a23.265 23.265 0 0 1-3.264 2.747c-2.93 4.046-5.156 8.352-6.194 13.178zm-93.324-42.912c-.26.408-.483.817-.742 1.225a24.353 24.353 0 0 1-3.45 4.343 24.497 24.497 0 0 1-7.307 5.049c-2.114.928-4.377 1.596-6.751 1.893a18.8 18.8 0 0 0 1.41 4.788 18.837 18.837 0 0 0 3.783 5.494 18.336 18.336 0 0 0 6.009 4.009 18.362 18.362 0 0 0 7.048 1.411c2.485 0 4.859-.52 7.047-1.411a18.572 18.572 0 0 0 5.972-4.009c1.595-1.559 2.856-3.452 3.783-5.494a18.8 18.8 0 0 0 1.41-4.788c-2.374-.297-4.637-.965-6.751-1.893a23.839 23.839 0 0 1-7.307-5.049 24.698 24.698 0 0 1-3.45-4.343 20.746 20.746 0 0 1-.704-1.225zm-20.55 6.756a17.336 17.336 0 0 0 6.195-1.373 18.61 18.61 0 0 0 5.972-4.009 18.472 18.472 0 0 0 3.709-5.309c.334-.705.63-1.485.853-2.227-2.893 2.005-5.712 4.12-8.494 6.236-2.782 2.19-5.564 4.418-8.235 6.682zm63.317-6.756c-.223.408-.445.817-.705 1.225-1.001 1.559-2.151 3.044-3.449 4.343-2.115 2.079-4.563 3.824-7.308 5.049-2.114.928-4.376 1.596-6.75 1.893.222 1.67.704 3.303 1.372 4.788a17.818 17.818 0 0 0 3.821 5.494c1.706 1.708 3.709 3.081 5.971 4.009a18.511 18.511 0 0 0 7.048 1.411c2.522 0 4.896-.52 7.048-1.411a18.357 18.357 0 0 0 6.009-4.009 18.856 18.856 0 0 0 3.783-5.494 18.758 18.758 0 0 0 1.409-4.788 24.556 24.556 0 0 1-6.787-1.893 23.691 23.691 0 0 1-7.271-5.049c-1.335-1.299-2.485-2.784-3.486-4.343-.223-.408-.482-.817-.705-1.225zm-39.503-8.315c.259 1.559.742 3.007 1.372 4.417a18.814 18.814 0 0 0 3.709 5.272 18.61 18.61 0 0 0 5.972 4.009 17.969 17.969 0 0 0 7.048 1.41c2.522 0 4.896-.482 7.047-1.41a18.847 18.847 0 0 0 6.009-3.972v-.037a18.392 18.392 0 0 0 3.784-5.494 18.363 18.363 0 0 0 1.409-4.789 25.433 25.433 0 0 1-4.822-1.113c-2.188-.78-4.228-1.819-6.046-3.119a24.514 24.514 0 0 1-4.674-4.306 19.075 19.075 0 0 1-1.743-2.412 24.78 24.78 0 0 1-1.817 2.561c-1.373 1.67-2.931 3.192-4.711 4.454a23.587 23.587 0 0 1-6.751 3.415c-1.855.594-3.783 1.003-5.786 1.114zm82.308 8.315c-.223.408-.483.817-.705 1.225a24.889 24.889 0 0 1-3.487 4.343 23.839 23.839 0 0 1-7.307 5.049 23.951 23.951 0 0 1-6.751 1.893 18.8 18.8 0 0 0 1.41 4.788 18.359 18.359 0 0 0 3.783 5.494 18.336 18.336 0 0 0 6.009 4.009 18.362 18.362 0 0 0 7.048 1.411c2.485 0 4.896-.52 7.047-1.411a20.815 20.815 0 0 0 1.595-.742c2.485-3.378 5.378-6.533 8.568-9.652.446-1.262.816-2.561 1.002-3.897-2.374-.297-4.637-.965-6.751-1.893a23.675 23.675 0 0 1-7.27-5.049h-.037c-1.298-1.299-2.448-2.784-3.45-4.343a20.746 20.746 0 0 1-.704-1.225zm-39.652-8.909c.26 1.708.742 3.304 1.409 4.789a18.392 18.392 0 0 0 3.784 5.494 18.351 18.351 0 0 0 6.009 4.009c2.151.928 4.525 1.41 7.047 1.41 2.523 0 4.896-.482 7.048-1.41a18.298 18.298 0 0 0 5.972-3.972 18.442 18.442 0 0 0 3.82-5.531 17 17 0 0 0 1.373-4.789c-2.374-.297-4.637-.965-6.751-1.893a24.705 24.705 0 0 1-7.27-5.011v-.037a23.255 23.255 0 0 1-3.487-4.344c-.222-.408-.482-.816-.705-1.225-.222.409-.482.817-.704 1.225a23.295 23.295 0 0 1-3.487 4.344 23.69 23.69 0 0 1-7.27 5.048c-2.115.928-4.377 1.596-6.788 1.893zm186.241 21.419c-2.374-.297-4.637-.965-6.751-1.893a23.839 23.839 0 0 1-7.307-5.049 24.263 24.263 0 0 1-3.45-4.343c-.26-.408-.482-.817-.705-1.225-.259.408-.482.817-.742 1.225-.964 1.596-2.151 3.044-3.449 4.343a23.85 23.85 0 0 1-7.307 5.049c-2.115.928-4.377 1.596-6.751 1.893.259 1.67.742 3.303 1.409 4.788a18.86 18.86 0 0 0 3.784 5.494 18.336 18.336 0 0 0 6.009 4.009 18.36 18.36 0 0 0 7.047 1.411c2.485 0 4.859-.52 7.048-1.411a18.594 18.594 0 0 0 5.972-4.009c1.595-1.559 2.856-3.452 3.783-5.494a18.8 18.8 0 0 0 1.41-4.788zm-42.805 0c-2.374-.297-4.637-.965-6.751-1.893a23.675 23.675 0 0 1-7.27-5.049 23.288 23.288 0 0 1-3.487-4.343c-.222-.408-.482-.817-.704-1.225-.223.408-.483.817-.705 1.225a24.652 24.652 0 0 1-3.45 4.343h-.037a24.125 24.125 0 0 1-7.27 5.049c-2.114.928-4.377 1.596-6.788 1.893a18.8 18.8 0 0 0 1.41 4.788c.334.743.704 1.448 1.113 2.116a78.576 78.576 0 0 1 4.043 4.603 17.688 17.688 0 0 0 4.636 2.784 18.504 18.504 0 0 0 7.048 1.411c2.485 0 4.896-.52 7.047-1.411 2.263-.928 4.266-2.301 5.972-4.009 1.595-1.559 2.893-3.452 3.821-5.494a17.396 17.396 0 0 0 1.372-4.788zm-15.059-21.419a18.325 18.325 0 0 0 1.409 4.789 19.044 19.044 0 0 0 3.783 5.531 18.87 18.87 0 0 0 6.009 3.972c2.152.928 4.526 1.41 7.048 1.41 2.485 0 4.896-.482 7.048-1.41 2.262-.928 4.265-2.302 5.971-3.972 1.595-1.596 2.894-3.453 3.784-5.531.705-1.485 1.15-3.081 1.409-4.789-2.374-.297-4.636-.965-6.751-1.893a24.415 24.415 0 0 1-7.307-5.011 26.363 26.363 0 0 1-3.449-4.381 19.92 19.92 0 0 1-.705-1.225 21.26 21.26 0 0 1-.742 1.225c-.964 1.597-2.151 3.044-3.449 4.344a24.157 24.157 0 0 1-7.271 5.048 24.556 24.556 0 0 1-6.787 1.893zm-50.038 14.403l-.074.074a35.151 35.151 0 0 1-1.744 1.596c-1.706 1.559-3.449 3.081-5.155 4.603a273.888 273.888 0 0 0-5.898 5.271l.148.26c.928 2.042 2.189 3.935 3.784 5.494a18.572 18.572 0 0 0 5.972 4.009c2.188.891 4.562 1.411 7.047 1.411 2.522 0 4.896-.52 7.085-1.411a18.594 18.594 0 0 0 5.972-4.009 18.621 18.621 0 0 0 3.486-4.826c-2.262-2.115-4.636-4.231-7.047-6.384-3.376-2.97-6.788-6.014-10.164-9.318a91.318 91.318 0 0 1-3.412 3.23zm7.27-14.403a17.031 17.031 0 0 0 1.372 4.789 17.847 17.847 0 0 0 3.821 5.494 17.819 17.819 0 0 0 5.972 4.009 17.96 17.96 0 0 0 7.047 1.41c2.523 0 4.897-.482 7.048-1.41a18.351 18.351 0 0 0 6.009-4.009 18.371 18.371 0 0 0 3.783-5.494 18.365 18.365 0 0 0 1.41-4.789 23.951 23.951 0 0 1-6.751-1.893 23.946 23.946 0 0 1-7.307-5.011 24.771 24.771 0 0 1-3.487-4.381c-.222-.408-.482-.816-.705-1.225-.222.409-.445.854-.704 1.225a26.42 26.42 0 0 1-3.45 4.381c-2.114 2.078-4.562 3.786-7.307 5.011-2.114.928-4.377 1.596-6.751 1.893zm-42.805 0c.26 1.708.742 3.304 1.41 4.789a18.371 18.371 0 0 0 3.783 5.494 18.372 18.372 0 0 0 6.009 4.009c2.152.928 4.526 1.41 7.048 1.41a17.96 17.96 0 0 0 7.047-1.41c.631-.26 1.224-.557 1.818-.854a318.667 318.667 0 0 0 6.417-5.902 15.283 15.283 0 0 0 1.521-2.747 18.363 18.363 0 0 0 1.409-4.789c-2.374-.297-4.636-.965-6.751-1.893a24.318 24.318 0 0 1-7.307-5.048c-1.298-1.3-2.485-2.747-3.449-4.344a19.92 19.92 0 0 1-.705-1.225c-.26.409-.482.817-.742 1.225-.964 1.597-2.151 3.044-3.45 4.344a23.853 23.853 0 0 1-7.307 5.048c-2.114.928-4.377 1.596-6.751 1.893zm-3.152-33.928c-.668 1.262-1.484 2.413-2.337 3.526a24.531 24.531 0 0 1-5.045 4.752c-1.817 1.299-3.857 2.338-6.009 3.118-1.558.52-3.19.928-4.859 1.114.26 1.707.742 3.303 1.41 4.825a19.34 19.34 0 0 0 3.783 5.494 19.588 19.588 0 0 0 6.009 4.009c2.151.891 4.525 1.374 7.048 1.374a18.62 18.62 0 0 0 7.047-1.374 19.87 19.87 0 0 0 5.972-4.009c1.595-1.596 2.893-3.452 3.783-5.494.705-1.522 1.15-3.118 1.41-4.825a25.322 25.322 0 0 1-5.008-1.188 24.565 24.565 0 0 1-6.157-3.267c-1.854-1.373-3.524-2.97-4.896-4.751a23.978 23.978 0 0 1-2.151-3.304zm-24.556 12.51a29.202 29.202 0 0 1-1.743-.26c-1.15-.26-2.3-.594-3.412-.965a26.675 26.675 0 0 1-3.302-1.522 22.984 22.984 0 0 1-2.262-1.374c-4.117 1.485-8.272 3.155-12.389 4.9-3.858 1.67-7.641 3.452-11.35 5.271.556 1.002 1.187 1.968 1.891 2.821a17.248 17.248 0 0 0 3.71 3.453 18.908 18.908 0 0 0 5.044 2.524 18.36 18.36 0 0 0 5.564.854c2.522 0 4.896-.483 7.048-1.374a19.612 19.612 0 0 0 6.009-4.009 19.361 19.361 0 0 0 3.783-5.494 19.03 19.03 0 0 0 1.409-4.825zm-3.041-6.756c.927.334 1.929.593 3.004.779 1.002.186 2.078.26 3.19.26 1.966 0 3.821-.297 5.564-.854a16.698 16.698 0 0 0 5.082-2.524 16.915 16.915 0 0 0 3.301-3.007l.26-.297c-3.45.78-6.9 1.634-10.275 2.599-3.412.928-6.788 1.93-10.126 3.044zM100.71 407.474c-.667 1.225-1.41 2.375-2.262 3.415l-.075.111h4.637l-.111-.186a23.536 23.536 0 0 1-2.189-3.34zM402.53 411a24.067 24.067 0 0 1-2.263-3.452l-.037-.074-.037.037a24.66 24.66 0 0 1-2.3 3.489h4.637zm-42.768 0l-.037-.037a22.76 22.76 0 0 1-2.3-3.489l-.037.148c-.667 1.151-1.409 2.302-2.262 3.378h4.636zm-42.804 0l-.075-.111a20.806 20.806 0 0 1-2.225-3.415 29.115 29.115 0 0 1-2.337 3.526h4.637zm-42.768 0l-.037-.037a24.718 24.718 0 0 1-2.3-3.489c-.667 1.225-1.409 2.375-2.262 3.415l-.037.111h4.636zm-130.713-3.526a22.221 22.221 0 0 1-2.04 3.192l-.26.334h4.637a24.119 24.119 0 0 1-2.3-3.452l-.037-.074zm42.804 0a22.681 22.681 0 0 1-2.299 3.489V411h4.636l-.037-.074c-.89-1.077-1.632-2.227-2.3-3.452zm42.805 0a24.345 24.345 0 0 1-2.3 3.452l-.037.074h4.637l-.149-.186a22.287 22.287 0 0 1-2.151-3.34zm46.069-93.025a18.877 18.877 0 0 0 1.409 4.306 18.867 18.867 0 0 0 3.672 5.197 18.988 18.988 0 0 0 5.972 4.009c2.151.891 4.525 1.374 7.048 1.374 2.522 0 4.896-.483 7.047-1.374 2.263-.928 4.266-2.301 5.972-4.009a18.758 18.758 0 0 0 3.821-5.494c.667-1.522 1.149-3.118 1.372-4.788a26.951 26.951 0 0 1-5.23-1.3 23.74 23.74 0 0 1-6.38-3.526 25.723 25.723 0 0 1-4.414-4.343 45.018 45.018 0 0 1-1.484-2.153c-.519.965-1.149 1.856-1.78 2.71-1.41 1.819-3.079 3.415-4.896 4.788-2.04 1.485-4.266 2.673-6.677 3.452-1.743.594-3.561.966-5.452 1.151zm21.736-21.381h11.424l-6.194 1.67c1.15.223 2.337.483 3.486.742 2.56.594 5.119 1.225 7.679 1.894v-63.922c-1.558.26-3.042.668-4.414 1.262a19.135 19.135 0 0 0-6.306 4.195 19.842 19.842 0 0 0-4.229 6.31 19.478 19.478 0 0 0-1.446 7.424v40.425zm22.329-59.616v65.555c2.894.854 5.861 1.782 8.828 2.747 2.597.891 5.119 1.782 7.604 2.673v-51.784c0-2.635-.519-5.16-1.483-7.424a19.15 19.15 0 0 0-4.192-6.31c-1.817-1.782-3.932-3.23-6.306-4.195-1.409-.594-2.893-1.002-4.451-1.262zm-19.547 66.817l.519.668a18.97 18.97 0 0 0 3.264 3.193 17.593 17.593 0 0 0 5.267 2.821c1.855.631 3.858.965 5.935.965a18.28 18.28 0 0 0 3.524-.334 19.334 19.334 0 0 0 3.338-.965c.334-.149.668-.297.964-.446-3.709-1.15-7.492-2.264-11.313-3.229a192.486 192.486 0 0 0-11.498-2.673zm-158.348 16.556l.445-1.299 1.262.408a264.484 264.484 0 0 1 5.638-2.821c1.15-.557 2.299-1.114 3.486-1.633-.296-.26-.593-.483-.853-.706-1.187-1.002-2.3-2.153-3.301-3.341-1.335-1.67-2.485-3.489-3.338-5.419-.779-1.819-1.299-3.675-1.373-5.531-.185-3.304.149-6.199.853-8.649.779-2.784 2.04-5.049 3.635-6.868a15.016 15.016 0 0 1 3.561-2.969 15.618 15.618 0 0 1 4.303-1.819 17.7 17.7 0 0 1 4.377-.557 16.214 16.214 0 0 1 4.451.52c2.3.556 4.525 1.559 6.417 2.932 1.855 1.337 3.412 3.044 4.525 5.049.705 1.262 1.15 2.709 1.373 4.231a14.514 14.514 0 0 1-.075 4.566 13.986 13.986 0 0 1-.89 3.007c-.371.891-.89 1.782-1.483 2.561a9.95 9.95 0 0 1-2.449 2.228c-.89.593-1.891 1.002-3.041 1.225-1.15.259-2.411.296-3.784.074a16.58 16.58 0 0 1-3.931-1.262l-1.595-.743 2.522-5.382 1.595.779c.816.371 1.558.631 2.263.743.667.111 1.261.111 1.743 0a3.42 3.42 0 0 0 1.076-.409c.333-.26.667-.556.927-.891.297-.371.556-.816.742-1.262a7.923 7.923 0 0 0 .482-1.67c.148-.891.185-1.819.037-2.71-.111-.817-.334-1.559-.668-2.19-.704-1.262-1.706-2.339-2.856-3.192a12.574 12.574 0 0 0-4.302-1.931 12.177 12.177 0 0 0-3.042-.371c-.964 0-1.966.111-2.93.371-.928.223-1.855.631-2.708 1.151a9.39 9.39 0 0 0-2.188 1.856c-1.076 1.188-1.929 2.747-2.449 4.677-.519 1.819-.741 4.009-.593 6.571.037 1.15.408 2.375.927 3.563.631 1.374 1.484 2.71 2.485 3.935 1.039 1.262 2.189 2.413 3.376 3.267.89.705 1.854 1.262 2.745 1.633a225.993 225.993 0 0 1 14.948-5.754 215.547 215.547 0 0 1 14.874-4.64l.111-1.188c.037-.519.074-.965.111-1.336v-1.336c0-4.195-.816-8.167-2.336-11.805-1.558-3.786-3.821-7.201-6.677-10.022a31.07 31.07 0 0 0-10.015-6.719c-3.635-1.485-7.604-2.339-11.795-2.339-4.192 0-8.161.854-11.796 2.339-3.783 1.559-7.158 3.86-10.015 6.719-2.856 2.858-5.155 6.236-6.713 10.022a31.01 31.01 0 0 0-2.337 11.805c0 2.524.297 5.011.89 7.35.594 2.449 1.484 4.751 2.597 6.941 1.075 2.005 2.336 3.935 3.857 5.68a30.428 30.428 0 0 0 4.117 4.046l2.782-1.485zm127.264-2.636c-1.929-.334-3.783-.928-5.527-1.67a25.036 25.036 0 0 1-6.379-4.121 23.324 23.324 0 0 1-4.711-5.716c-.445-.705-.816-1.448-1.187-2.19a21.607 21.607 0 0 1-1.002 1.782 24.048 24.048 0 0 1-4.488 5.382 24.012 24.012 0 0 1-6.936 4.343 22.573 22.573 0 0 1-6.12 1.634 18.368 18.368 0 0 0 1.409 4.788 18.34 18.34 0 0 0 3.784 5.531 19.419 19.419 0 0 0 5.972 4.009 18.62 18.62 0 0 0 7.047 1.374c2.522 0 4.896-.483 7.085-1.374 2.225-.965 4.265-2.301 5.972-4.009a19.513 19.513 0 0 0 3.672-5.271 16.282 16.282 0 0 0 1.409-4.492zm-13.39-18.709c.408 1.3.927 2.525 1.558 3.675a17.982 17.982 0 0 0 3.857 4.826 19.405 19.405 0 0 0 5.713 3.452c2.003.78 4.228 1.188 6.528 1.188 2.04 0 3.969-.297 5.749-.891a18.408 18.408 0 0 0 5.156-2.672 19.028 19.028 0 0 0 3.895-3.824 17.355 17.355 0 0 0 1.743-2.858c-3.338-.52-6.751-1.002-10.163-1.374-3.821-.445-7.641-.816-11.499-1.039l-1.224 1.522-2.188-1.745c-1.818-.074-3.635-.148-5.379-.185-1.261-.037-2.485-.075-3.746-.075zm-42.1 3.267c.482.78.964 1.522 1.558 2.227 1.001 1.3 2.225 2.45 3.561 3.415a17.172 17.172 0 0 0 5.119 2.636c1.817.594 3.709.891 5.749.891 2.3 0 4.525-.408 6.565-1.188 2.114-.817 4.08-2.004 5.712-3.489a19.46 19.46 0 0 0 3.673-4.492 17.962 17.962 0 0 0 1.446-3.229c-5.638.148-11.239.482-16.766 1.002-5.6.557-11.127 1.299-16.617 2.227zm168.066-53.12l-27.968-.037v.78c.111.817.222 1.707.26 2.561.074.928.111 1.819.111 2.71v1.225c21.18 0 42.396.074 63.576.111l.037-7.275-36.016-.075zm-8.643-5.939l8.531.037.037-7.275-32.715-.038a59.48 59.48 0 0 1 1.409 2.636 38.4 38.4 0 0 1 1.855 4.603l20.883.037zm-90.728-6.273l.037-14.292h-.074l.074-13.178h-.074l.111-19.117h4.043l13.947-13.957c-.668-.854-1.447-1.633-2.225-2.339a17.678 17.678 0 0 0-3.524-2.45 20.94 20.94 0 0 0-4.451-1.744 20.002 20.002 0 0 0-4.748-.594c-1.632 0-3.227.222-4.748.594a20.92 20.92 0 0 0-4.451 1.744c-1.372.743-2.708 1.671-3.858 2.784a17.373 17.373 0 0 0-3.115 3.638l-2.486 3.787-2.448-3.787a18.377 18.377 0 0 0-3.078-3.638 18.775 18.775 0 0 0-3.895-2.784 20.94 20.94 0 0 0-4.451-1.744 20.002 20.002 0 0 0-4.748-.594c-1.632 0-3.227.222-4.748.594a20.94 20.94 0 0 0-4.451 1.744 18.522 18.522 0 0 0-3.857 2.784 17.377 17.377 0 0 0-3.116 3.638l-2.448 3.787-2.485-3.787a18.415 18.415 0 0 0-3.079-3.638 17.82 17.82 0 0 0-3.895-2.784c-1.409-.779-2.893-1.336-4.451-1.744a20.002 20.002 0 0 0-4.748-.594c-1.595 0-3.19.222-4.748.594a20.96 20.96 0 0 0-4.451 1.744c-1.112.594-2.188 1.337-3.19 2.153a22.405 22.405 0 0 0-2.299 2.302v51.783h-.037l4.228 5.939-4.414 3.156 5.267 7.461 6.009-8.426v-42.541c0-.891.186-1.781.519-2.561.334-.854.854-1.559 1.484-2.19a6.21 6.21 0 0 1 2.152-1.485 6.754 6.754 0 0 1 2.596-.52c.89 0 1.78.186 2.559.52.816.334 1.558.854 2.189 1.448v.037c.63.594 1.113 1.336 1.484 2.19.333.78.519 1.67.519 2.561v42.132l.297-.445 6.565 9.28 6.602-9.28 6.566 9.28.445-.631v-50.336c0-.891.185-1.781.519-2.561.334-.854.853-1.559 1.447-2.19h.037a6.206 6.206 0 0 1 2.151-1.485 6.755 6.755 0 0 1 2.597-.52c.89 0 1.78.186 2.559.52a6.022 6.022 0 0 1 2.188 1.485c.631.594 1.113 1.336 1.484 2.19.297.78.482 1.67.482 2.561v49.928l5.898-8.241 6.528 9.28 6.64-9.28 5.786 8.241c.186-.483.334-.966.519-1.448a33.916 33.916 0 0 1 1.818-4.12c.111-.26.297-.594.445-.854zm-87.946-1.374L164.434 190.8l-21.885 30.662v39.385c1.929-.891 3.969-1.596 6.084-2.153a36.556 36.556 0 0 1 9.31-1.225l.259.037.037-12.472 9.162-12.844-9.866-.037v-21.976c0-.891.185-1.744.519-2.561.371-.817.853-1.596 1.484-2.19.593-.631 1.335-1.114 2.188-1.448a6.57 6.57 0 0 1 5.119 0 6.408 6.408 0 0 1 2.225 1.448 6.82 6.82 0 0 1 1.447 2.19c.334.817.519 1.67.519 2.561v22.013h-2.819l6.158 8.686 6.639-9.28 6.528 9.28 6.306-8.835zm93.844-18.82l35.905.037h1.781l55.675.074.037-7.275-93.361-.112-.037 7.276zm56.417 13.252l36.944.037.037-7.275-45.512-.037.408.259a38.634 38.634 0 0 1 6.38 5.123c.334.334.705.742 1.187 1.262l.556.631zm-48.887-7.35h-7.456l-.037 6.125a26.238 26.238 0 0 1 1.78-1.744c1.744-1.634 3.672-3.081 5.713-4.381zm-7.53-19.08l93.361.112.037-7.276-93.361-.111-.037 7.275zm6.565-13.178l80.379.112-40.245-40.276-40.134 40.164zm53.005 122.239l.037-10.802h-.074l.074-13.178h-.074l.074-13.178h-.074l.074-13.178h-.074l.074-11.878a32.059 32.059 0 0 0-3.078-9.726 32.225 32.225 0 0 0-6.047-8.389 32.397 32.397 0 0 0-10.46-7.016 32.55 32.55 0 0 0-12.351-2.413c-3.042 0-5.972.408-8.754 1.188a32.2 32.2 0 0 0-8.086 3.526 31.436 31.436 0 0 0-6.862 5.643 30.872 30.872 0 0 0-5.045 7.238c-.593 1.114-1.076 2.265-1.521 3.49a31.418 31.418 0 0 0-1.112 3.637 28.536 28.536 0 0 0-.668 3.712 32.832 32.832 0 0 0-.223 3.861v1.745h-.371l-.111 38.048c1.484.186 2.968.372 4.451.594 1.298.186 2.597.409 3.895.594v-39.979a25.464 25.464 0 0 1 7.418-17.929 26.282 26.282 0 0 1 8.198-5.494c3.004-1.225 6.268-1.93 9.681-1.93 3.412 0 6.714.705 9.681 1.93a25.551 25.551 0 0 1 13.724 13.735c1.224 2.969 1.892 6.236 1.892 9.688v54.085c1.187.483 2.374.965 3.561 1.485l2.151.891zm6.306-3.527c21.18.075 42.396.075 63.576.149l.037-7.276c-21.217 0-42.396-.074-63.613-.148v7.275zm0-13.178c21.18.075 42.396.075 63.576.112l.037-7.276-63.613-.111v7.275zm0-13.177l63.576.111.037-7.276c-21.217 0-42.396-.074-63.613-.111v7.276zm0-13.178c21.18.037 42.396.037 63.576.111l.037-7.275c-21.217 0-42.396-.075-63.613-.112v7.276zm-176.263-17.595L177.268 263a32.79 32.79 0 0 1 3.004 2.042 37.822 37.822 0 0 1 3.672 3.229l.594.594.037-21.901-3.598-5.123-3.672 5.123v1.485zm-5.898-1.485l-3.635-5.123-3.635 5.123-.037 11.062c1.447.222 2.893.557 4.266.965 1.038.297 2.04.631 3.004 1.039l.037-13.066zm19.103 0l-.111 30.068a34.894 34.894 0 0 1 3.115 8.018 36.277 36.277 0 0 1 1.187 9.243c0 .445 0 .965-.037 1.596l-.037.668 3.005-.742.148-48.851-3.635-5.123-3.635 5.123zm13.168 2.635l-.112 44.916 3.264-.668c1.336-.26 2.634-.482 3.969-.742l.149-46.141-3.635-5.123-3.635 5.123v2.635zm8.976-10.468l1.261 1.745.371-.52v-50.447c0-.111-.037-.222-.074-.334a1.126 1.126 0 0 0-.186-.26.596.596 0 0 0-.259-.148.702.702 0 0 0-.297-.074.702.702 0 0 0-.297.074.649.649 0 0 0-.296.186.588.588 0 0 0-.149.259.706.706 0 0 0-.074.297v49.222zm17.359 7.833l-.111 43.617c1.224-.112 2.374-.223 3.487-.297 1.224-.112 2.485-.186 3.783-.297l.111-43.023-3.598-5.123-3.672 5.123zm-5.897 0l-3.636-5.123-.259.408v1.931h-1.41l-1.966 2.784-.111 45.213 3.376-.483c1.298-.185 2.596-.334 3.894-.52l.112-44.21zm19.065 3.563l-.111 39.163c1.187-.037 2.374-.075 3.598-.112l3.672-.037.111-42.577-3.598-5.123-3.672 5.123v3.563zm33.531 40.239l.112-43.802-3.635-5.123-3.635 5.086v12.769c-.037 10.171-.037 20.305-.075 30.439 1.299.074 2.56.186 3.747.297a64.78 64.78 0 0 1 3.486.334zm-30.081-58.836l.259-.334 1.373 1.93v-43.617a.691.691 0 0 0-.075-.297.664.664 0 0 0-.185-.259.425.425 0 0 0-.26-.186.697.697 0 0 0-.296-.074 1.08 1.08 0 0 0-.334.074c-.074.037-.149.074-.26.186a.596.596 0 0 0-.148.259.706.706 0 0 0-.074.297v42.021zm-130.603-49.519h47.108l1.298-1.819 1.298 1.819h1.818v2.561l9.347 13.067v-21.085h-60.869v5.457zm0-11.396h60.869v-6.088h-60.869v6.088zm66.804 35.339l6.899 9.725v-42.391l-1.447-.966c.482-.705.965-1.484 1.447-2.19v-14.477l-1.447-.928.965-1.485a23.819 23.819 0 0 1 4.043-4.751c1.521-1.448 3.227-2.636 5.081-3.638.408-.223.816-.445 1.224-.631l-22.366-37.121-18.25 30.254 21.736 22.124h2.115v46.475zm12.834-51.412v9.614c.853-.631 1.78-1.188 2.707-1.708a26.374 26.374 0 0 1 5.824-2.264c2.003-.483 4.08-.78 6.157-.78 2.115 0 4.192.297 6.195.78 2.04.52 3.969 1.299 5.823 2.264a26.914 26.914 0 0 1 4.377 3.007c.779.705 1.558 1.411 2.263 2.19a25.233 25.233 0 0 1 2.262-2.19 25.44 25.44 0 0 1 4.377-3.007 26.805 26.805 0 0 1 5.787-2.264c2.003-.483 4.08-.78 6.194-.78s4.192.297 6.194.78a26.805 26.805 0 0 1 5.787 2.264 27.263 27.263 0 0 1 4.414 3.007 41.908 41.908 0 0 1 2.263 2.19c.704-.779 1.446-1.485 2.225-2.19a27.219 27.219 0 0 1 4.414-3.007 26.797 26.797 0 0 1 5.786-2.264c2.003-.483 4.081-.78 6.195-.78s4.191.297 6.194.78a26.805 26.805 0 0 1 5.787 2.264 24.677 24.677 0 0 1 3.264 2.116v-9.354a19.38 19.38 0 0 0-2.522-2.71 21.323 21.323 0 0 0-3.524-2.45c-1.41-.742-2.893-1.336-4.451-1.707-1.521-.409-3.116-.594-4.748-.594-1.632 0-3.227.185-4.748.594-1.558.371-3.042.965-4.451 1.707-1.372.78-2.708 1.708-3.858 2.784a19.478 19.478 0 0 0-3.115 3.638l-2.486 3.823-2.448-3.823a20.763 20.763 0 0 0-3.078-3.638 20.725 20.725 0 0 0-3.895-2.784c-1.41-.742-2.893-1.336-4.451-1.707-1.521-.409-3.116-.594-4.748-.594-1.632 0-3.227.185-4.748.594-1.558.371-3.041.965-4.451 1.707a21.685 21.685 0 0 0-3.857 2.784 19.483 19.483 0 0 0-3.116 3.638l-2.448 3.786-2.485-3.786a20.811 20.811 0 0 0-3.079-3.638 20.693 20.693 0 0 0-3.895-2.784c-1.409-.742-2.893-1.336-4.451-1.707-1.521-.409-3.116-.594-4.748-.594-1.595 0-3.19.185-4.748.594-1.557.371-3.041.965-4.451 1.707-1.112.631-2.188 1.336-3.19 2.19-.816.705-1.595 1.448-2.299 2.302zm-67.62 169.381l.594-.371c.705-.408 1.558-.928 2.633-1.559l1.781-1.039c-1.261-1.151-2.448-2.376-3.487-3.675a36.676 36.676 0 0 1-4.228-6.385 33.345 33.345 0 0 1-2.449-5.939l5.156 18.968zm-5.934-21.715a36.638 36.638 0 0 1-.965-8.315c0-4.975 1.002-9.726 2.819-14.069a36.518 36.518 0 0 1 7.975-11.953 32.969 32.969 0 0 1 2.634-2.376c.667-.556 1.335-1.113 2.04-1.596v-34.522l-2.819 3.935-1.929-1.411-.816 1.114v-1.337h-15.987l-1.15 1.634-2.263-1.634h-8.79l19.251 70.53zm-19.882-70.53h-4.154l-1.15 1.634-2.263-1.634h-7.79v50.559l.854 3.118 14.503-53.677zm-18.324-5.902h11.128L122 188.35h-11.127l-26.967 37.826zm18.398 0h9.756l26.966-37.826h-9.756l-26.966 37.826zm16.989 0h12.648l26.966-37.826h-12.611l-27.003 37.826zm155.528-92.653v-2.747c-1.336-2.227-2.968-4.269-4.785-6.088a31.505 31.505 0 0 0-6.528-5.011 31.657 31.657 0 0 0-7.753-3.229 30.913 30.913 0 0 0-8.308-1.114c-2.857 0-5.638.371-8.346 1.114a31.998 31.998 0 0 0-7.715 3.229c-2.374 1.373-4.6 3.044-6.529 5.011a33.544 33.544 0 0 0-4.822 6.088v6.496a52.184 52.184 0 0 1 2.078-1.967 37.482 37.482 0 0 1 6.305-4.603 36.801 36.801 0 0 1 9.162-3.824 38.111 38.111 0 0 1 9.867-1.299c3.338 0 6.676.446 9.829 1.299 3.227.854 6.306 2.153 9.199 3.824a37.489 37.489 0 0 1 6.306 4.603 34.64 34.64 0 0 1 2.04 1.967v-3.749zm0-12.398l.037-66.743c-.037-9.726-4.748-15.071-10.201-21.307-3.301-3.787-6.862-7.833-9.977-13.253-2.968-5.16-5.453-11.47-6.9-19.822h-.704c-1.41 8.315-3.932 14.626-6.9 19.822-3.115 5.42-6.713 9.578-10.052 13.401l-.074.074c-5.452 6.236-10.126 11.656-10.015 21.122v66.706a34.902 34.902 0 0 1 2.078-2.005 39.541 39.541 0 0 1 6.305-4.566 36.836 36.836 0 0 1 9.162-3.823c3.19-.854 6.491-1.336 9.867-1.336 3.338 0 6.676.482 9.829 1.336 3.227.854 6.306 2.153 9.199 3.823a39.549 39.549 0 0 1 6.306 4.566 34.655 34.655 0 0 1 2.04 2.005zm22.329 24.24v-45.213a7.937 7.937 0 0 0-.63-3.119c-.408-1.002-1.002-1.93-1.781-2.672a8.225 8.225 0 0 0-2.67-1.782 7.79 7.79 0 0 0-3.116-.631 8.101 8.101 0 0 0-3.153.63 7.521 7.521 0 0 0-2.633 1.783c-.779.742-1.373 1.67-1.781 2.635a8.258 8.258 0 0 0-.63 3.156v42.391l.964-.111a23.522 23.522 0 0 1 3.19-.223c2.114 0 4.191.26 6.194.78 2.003.519 3.969 1.262 5.787 2.264l.259.112zm-83.049-45.213c0-1.114-.186-2.153-.594-3.119a8.224 8.224 0 0 0-1.78-2.672c-.779-.743-1.67-1.374-2.671-1.782a7.919 7.919 0 0 0-3.116-.631 8.105 8.105 0 0 0-3.153.63c-1.001.41-1.891 1.04-2.67 1.783a8.292 8.292 0 0 0-2.374 5.791v29.882l7.641 12.695c.593-.149 1.224-.223 1.817-.334a31.264 31.264 0 0 1 3.153-.186c1.002 0 2.003.075 3.005.186l.742.111v-42.354zm-91.581 58.836h48.22l-24.073-24.092-1.929 1.819-22.218 22.273zm18.026-26.43l3.71-3.749v-3.49h-7.901v11.211l4.191-3.972zm193.845 28.509a9.13 9.13 0 0 1 3.487.705 8.313 8.313 0 0 1 2.93 1.967c.816.817 1.521 1.819 1.966 2.933a9.112 9.112 0 0 1 .705 3.452c0 1.225-.26 2.413-.705 3.489a9.467 9.467 0 0 1-1.966 2.933c-.853.817-1.817 1.522-2.93 1.967a9.105 9.105 0 0 1-3.487.668 9.054 9.054 0 0 1-3.45-.668c-1.112-.445-2.114-1.15-2.93-1.967a9.06 9.06 0 0 1-1.966-2.933 9.154 9.154 0 0 1-.704-3.489c0-1.225.259-2.376.704-3.452a8.336 8.336 0 0 1 1.966-2.933 8.322 8.322 0 0 1 2.93-1.967 8.944 8.944 0 0 1 3.45-.705zm2.226 6.867a3.754 3.754 0 0 0-1.002-.705 3.255 3.255 0 0 0-1.224-.223c-.408 0-.816.074-1.187.223-.371.148-.705.408-1.001.705-.297.297-.557.631-.705 1.002-.148.371-.223.78-.223 1.188 0 .445.075.854.223 1.225.185.371.408.705.705 1.002.259.297.63.52 1.001.668.371.149.779.26 1.187.26.445 0 .853-.111 1.224-.26a2.96 2.96 0 0 0 1.002-.668 3.14 3.14 0 0 0 .927-2.227c0-.408-.111-.817-.26-1.188a2.972 2.972 0 0 0-.667-1.002zm-190.47-49.853c.149-.371.26-.78.371-1.225.074-.446.112-.891.112-1.336 0-2.265-2.745-5.16-5.342-7.907l-.519-.557h-1.558l-.148.148c-1.41 1.485-2.893 3.007-3.969 4.492-.965 1.336-1.632 2.636-1.632 3.824 0 .445.074.89.148 1.299.074.482.223.891.371 1.262.148.334.334.668.519.965l.223.334h10.683l.222-.334c.186-.297.371-.631.519-.965zm171.33-35.08v26.245l13.094-12.806V83.001h-13.094zm16.358-8.574c.259-.631.482-1.3.63-2.005.112-.705.186-1.41.186-2.153 0-1.781-.965-3.712-2.374-5.679-1.558-2.19-3.635-4.38-5.638-6.496l-.074-.074c-.891-.928-1.781-1.856-2.597-2.785l-2.262 2.302c-2.078 2.19-4.266 4.417-5.861 6.645-1.484 2.041-2.485 4.083-2.485 6.087 0 .743.074 1.448.222 2.116.112.706.334 1.374.594 2.042.259.557.556 1.114.89 1.67.223.334.482.669.705.966h16.469a9.21 9.21 0 0 0 .704-.966 9.167 9.167 0 0 0 .891-1.67zM163.469 226.25h1.633v-16.073a.702.702 0 0 0-.075-.297c-.037-.074-.074-.185-.148-.26-.111-.074-.185-.148-.297-.185-.074-.037-.185-.037-.296-.037-.112 0-.223 0-.297.037a.667.667 0 0 0-.26.185c-.074.075-.148.149-.185.26a.702.702 0 0 0-.075.297v16.073zm72.553-169.01c.89 0 1.781.186 2.56.52.816.334 1.557.854 2.188 1.448v.037a6.213 6.213 0 0 1 1.484 2.153c.333.816.519 1.67.519 2.598v36.527h-13.502V63.996c0-.928.186-1.782.52-2.561.371-.854.853-1.596 1.483-2.227a6.447 6.447 0 0 1 2.189-1.448 6.568 6.568 0 0 1 2.559-.52zm.557 6.162a.792.792 0 0 0-.223-.148 1.084 1.084 0 0 0-.334-.075.704.704 0 0 0-.297.075.596.596 0 0 0-.259.148.847.847 0 0 0-.186.26 1.088 1.088 0 0 0-.074.334v30.587h1.632V63.996c0-.111-.037-.223-.074-.334a1.128 1.128 0 0 0-.185-.26zm22.181-6.162c.89 0 1.78.186 2.559.52a6.447 6.447 0 0 1 2.189 1.448c.63.63 1.112 1.373 1.483 2.227.334.78.52 1.633.52 2.561v36.527h-13.502V63.996c0-.928.185-1.782.519-2.561.371-.854.853-1.596 1.484-2.227a6.433 6.433 0 0 1 2.188-1.448 6.573 6.573 0 0 1 2.56-.52zm.556 6.162a.596.596 0 0 0-.259-.148.704.704 0 0 0-.297-.075.696.696 0 0 0-.297.075.606.606 0 0 0-.26.148.808.808 0 0 0-.185.297.7.7 0 0 0-.074.297v30.587h1.632V63.996a.7.7 0 0 0-.074-.297c-.037-.111-.075-.223-.186-.297zm14.207 81.554c-1.15-1.596-2.411-3.081-3.821-4.417a31.78 31.78 0 0 0-6.194-4.714 31.66 31.66 0 0 0-7.753-3.23 32.487 32.487 0 0 0-8.308-1.076c-2.857 0-5.638.371-8.346 1.076a32.001 32.001 0 0 0-7.715 3.23 32.705 32.705 0 0 0-6.195 4.677 31.925 31.925 0 0 0-3.709 4.306l.89.445a26.914 26.914 0 0 1 4.377 3.007 25.215 25.215 0 0 1 2.263 2.19 20.989 20.989 0 0 1 2.262-2.19 25.44 25.44 0 0 1 4.377-3.007c1.818-1.002 3.784-1.745 5.787-2.264a24.62 24.62 0 0 1 6.194-.78c2.114 0 4.192.26 6.194.78 2.003.519 3.969 1.262 5.787 2.264a27.263 27.263 0 0 1 4.414 3.007 24.69 24.69 0 0 1 2.225 2.19c.742-.779 1.484-1.522 2.263-2.19a27.219 27.219 0 0 1 4.414-3.007l.594-.297zm32.567 8.798l.89 1.336-.89.594v10.951l28.301-28.323 27.374 27.358v-33.743H306.09v21.827zm4.191-27.766h48.22l-24.11-24.129-24.11 24.129z" clip-rule="evenodd"/></mask><path stroke="#FBFBFB" stroke-width="2" d="M256.237 289.578l3.71.075c1.224.037 2.411.074 3.561.148l.148-42.837-3.635-5.123-3.635 5.123-.149 42.614zm148.222 41.984c.408-.334.853-.743 1.261-1.114a23.374 23.374 0 0 0 1.632-1.707c.89-.966 1.706-2.005 2.522-3.156l.556-.853-33.197-.038c1.298.78 2.596 1.597 3.894 2.45a301.78 301.78 0 0 1 6.714 4.418h16.618zm9.05-12.733l.445-1.225c.26-.742.519-1.522.742-2.338l.111-.371c.408-.891.816-1.745 1.224-2.599l.371-.668-62.834-.111v.408a268.702 268.702 0 0 1 6.565 3.229c2.337 1.188 4.637 2.376 6.862 3.601l46.514.074zm22.775 56.981c.185-.557.371-1.188.556-1.894.186-.668.334-1.336.519-2.078l.038-.186c2.299-6.719 3.968-15.182 5.6-23.609 1.818-9.28 3.636-18.597 6.417-25.798a6.815 6.815 0 0 1 1.299-2.265c.593-.705 1.298-1.225 2.077-1.633.779-.408 1.632-.705 2.522-.78.816-.111 1.706-.037 2.597.223a6.972 6.972 0 0 1 2.374 1.114c.704.556 1.298 1.187 1.743 1.967.482.742.816 1.559.964 2.45a7.606 7.606 0 0 1 0 2.598l-9.681 35.785 5.304 2.227 24.148-25.576 8.642.445c.742-4.046.779-8.092.186-11.953a37.514 37.514 0 0 0-4.303-12.732c-2.263-4.046-5.267-7.684-8.902-10.654-3.487-2.895-7.604-5.159-12.13-6.644a38.328 38.328 0 0 0-13.612-1.782c-4.711.26-9.236 1.411-13.428 3.267a37.189 37.189 0 0 0-11.35 7.758c-3.116 3.118-5.712 6.793-7.53 10.95-.779 2.933-1.929 5.68-3.338 8.316-1.484 2.672-3.227 5.159-5.267 7.387a29.472 29.472 0 0 1-1.818 1.893c-.408.408-.853.816-1.298 1.188v1.707h-2.077a41.56 41.56 0 0 1-3.747 2.561c-.667.409-1.335.743-2.003 1.114a232.316 232.316 0 0 1 18.732 16.482 234.851 234.851 0 0 1 16.766 18.152zM99.856 344.406c-2.225-.52-4.414-1.3-6.528-2.228a37.976 37.976 0 0 1-9.125-5.679 38.667 38.667 0 0 1-7.826-8.835c-2.078-3.229-3.672-6.83-4.748-10.654-1.78-4.157-4.377-7.832-7.493-10.95a37.186 37.186 0 0 0-11.35-7.758c-4.192-1.856-8.754-3.007-13.428-3.267a38.333 38.333 0 0 0-13.612 1.782 37.232 37.232 0 0 0-12.167 6.644 37.665 37.665 0 0 0-8.865 10.654c-2.188 3.935-3.672 8.241-4.303 12.732A35.999 35.999 0 0 0 .597 338.8l8.642-.445 24.148 25.576 5.267-2.227-9.644-35.785c-.186-.853-.149-1.744 0-2.598a6.988 6.988 0 0 1 .927-2.45 7.5 7.5 0 0 1 1.78-1.967 7.005 7.005 0 0 1 2.374-1.114c.89-.26 1.744-.334 2.597-.223.89.075 1.743.372 2.522.743a7.355 7.355 0 0 1 2.077 1.633 7.39 7.39 0 0 1 1.299 2.302c2.67 7.461 4.45 16.37 6.194 25.316 1.706 8.5 3.375 17.001 5.823 24.091l.038.186a39.82 39.82 0 0 0 1.372 4.863 33.215 33.215 0 0 0 1.818 4.343c.63 1.188 1.26 2.301 1.965 3.303l.89 1.225c5.861-7.832 12.167-15.293 18.918-22.309a249.46 249.46 0 0 1 20.252-18.857zm-43.88-51.153a43.266 43.266 0 0 1 7.159 4.232 36.38 36.38 0 0 1 3.709 3.007v-47.143l-10.868 39.904zm16.803 13.883c.816 1.114 1.558 2.302 2.262 3.49a35.004 35.004 0 0 1 2.115 4.269l.148.371a29.97 29.97 0 0 0 1.372 4.009l6.01-22.235-3.228-11.731h-.519v-1.967l-8.16-29.771v53.565zm10.052 19.415a28.12 28.12 0 0 0 2.151 2.561 31.405 31.405 0 0 0 3.005 2.858 33.123 33.123 0 0 0 6.49 4.232 30.438 30.438 0 0 0 5.12 2.004v-73.647L82.83 326.551zm22.7 12.843l.557.075a214.833 214.833 0 0 1 8.271-6.125c2.745-1.968 5.564-3.861 8.457-5.754l-17.285-63.291v75.095zm338.134 65.555c.668 1.225 1.521 2.339 2.448 3.378a18.927 18.927 0 0 0 3.042 2.673h4.673a253.024 253.024 0 0 0-3.264-5.382l-.296-.483-6.603-.186zm-8.271-7.535c-1.521-.52-2.968-1.225-4.34-2.042a24.58 24.58 0 0 1-4.785-3.712 25.094 25.094 0 0 1-3.672-4.714c-.26-.446-.52-.891-.742-1.337-.223.446-.482.891-.742 1.337a24.033 24.033 0 0 1-3.672 4.714 24.686 24.686 0 0 1-7.27 5.011c-.816.372-1.632.669-2.448.966l27.745.742c-.037-.334-.074-.631-.074-.965zm-30.342 6.496c.111.26.26.52.408.78a17.047 17.047 0 0 0 2.634 3.674 18.61 18.61 0 0 0 3.004 2.636h21.069c.519-.371 1.001-.78 1.483-1.188a18.595 18.595 0 0 0 1.744-1.67c.445-.52.853-1.04 1.261-1.634.222-.334.482-.668.667-1.002-.111-.223-.185-.482-.296-.742l-31.974-.854zm20.327-26.096c.259 1.559.779 3.044 1.409 4.418a18.527 18.527 0 0 0 3.672 5.234 18.61 18.61 0 0 0 5.972 4.009c1.744.705 3.598 1.187 5.564 1.336a248.233 248.233 0 0 0-12.574-15.999c-.631.223-1.224.408-1.855.557-.63.148-1.298.297-1.966.408l-.222.037zm-.371-5.939a229.543 229.543 0 0 0-16.766-16.704l-.185.074c-.446.148-.854.297-1.225.408-.816.26-1.706.446-2.596.631l-.853.149c.26 1.67.742 3.303 1.409 4.825a19.364 19.364 0 0 0 3.784 5.494 18.336 18.336 0 0 0 6.009 4.009 18.36 18.36 0 0 0 7.047 1.411c.52 0 1.039-.037 1.521-.074a19.46 19.46 0 0 0 1.521-.186l.334-.037zm-324.373-6.608c-.223.409-.445.854-.705 1.262a24.048 24.048 0 0 1-3.486 4.418 25.455 25.455 0 0 1-6.862 4.825 25.054 25.054 0 0 1-6.64 2.042l-.148 1.002.074.334a17.778 17.778 0 0 0 2.485 5.457 18.115 18.115 0 0 0 4.117 4.455 16.934 16.934 0 0 0 5.305 2.821 18.436 18.436 0 0 0 5.934 1.002c2.485 0 4.896-.52 7.048-1.41 2.262-.928 4.265-2.302 5.972-4.009a18.91 18.91 0 0 0 3.672-5.197 19.5 19.5 0 0 0 1.409-4.381c-2.337-.334-4.562-1.002-6.676-1.93a24.686 24.686 0 0 1-7.27-5.011 23.999 23.999 0 0 1-3.487-4.418c-.26-.408-.482-.853-.742-1.262zm-23.74 12.844c-.37 0-.74-.074-1.112-.111a71.139 71.139 0 0 0-1.187-.223l-.111-.037a289.071 289.071 0 0 0-6.75 8.352c-1.633 2.079-3.19 4.195-4.749 6.311a21.255 21.255 0 0 0 3.079-1.003 17.79 17.79 0 0 0 5.786-3.934c1.484-1.485 2.745-3.23 3.635-5.16a18.02 18.02 0 0 0 1.41-4.195zm2.523-5.939c2.411-.037 4.748-.52 6.825-1.411 2.263-.928 4.266-2.301 5.972-4.009a18.437 18.437 0 0 0 3.82-5.531 18.634 18.634 0 0 0 1.41-4.825l-2.04-.26a230.603 230.603 0 0 0-9.199 8.834 210.07 210.07 0 0 0-6.788 7.202zm.334 14.7a15.57 15.57 0 0 1-.63 1.039 24.72 24.72 0 0 1-3.08 3.749c-2.225 2.227-4.933 4.046-7.9 5.308a23.604 23.604 0 0 1-4.45 1.337l29.117-.817a124.06 124.06 0 0 1-.557-.223 23.955 23.955 0 0 1-6.417-3.526c-1.706-1.299-3.227-2.858-4.525-4.566a25.024 25.024 0 0 1-1.558-2.301zM54.53 404.949l-.482.78a249.03 249.03 0 0 0-3.19 5.271h38.984c1.15-.817 2.226-1.745 3.153-2.821a16.918 16.918 0 0 0 2.597-3.675c.148-.26.26-.483.37-.743l-41.432 1.188zm327.155-70.38l-.074.631c.296 1.893.89 3.712 1.743 5.382.89 1.745 2.04 3.378 3.45 4.752 1.706 1.707 3.709 3.081 5.971 4.009 2.152.928 4.563 1.41 7.048 1.41.927 0 1.855-.074 2.708-.185l.334-.075a218.818 218.818 0 0 0-10.349-8.24 203.516 203.516 0 0 0-10.831-7.684zm-6.046.519h-.631l-.037-.037a25.166 25.166 0 0 1-6.714-1.113c-2.373-.743-4.562-1.857-6.602-3.23a25.29 25.29 0 0 1-4.117-3.601 17.46 17.46 0 0 1-1.707-2.004c-.445.594-.89 1.151-1.372 1.707a24.09 24.09 0 0 1-3.598 3.415 24.347 24.347 0 0 1-6.38 3.527 22.797 22.797 0 0 1-5.267 1.299c.26 1.708.742 3.304 1.41 4.789.927 2.078 2.188 3.935 3.783 5.494a18.588 18.588 0 0 0 5.972 4.009 17.96 17.96 0 0 0 7.047 1.41c2.523 0 4.897-.482 7.048-1.41a18.847 18.847 0 0 0 6.009-3.972 19.943 19.943 0 0 0 3.45-4.789 19.007 19.007 0 0 0 1.706-5.382v-.112zm-23.072-15.962l-.556-1.373a209.414 209.414 0 0 0-10.238-4.529 228.968 228.968 0 0 0-12.017-4.64 22.21 22.21 0 0 1-2.449 1.708 26.826 26.826 0 0 1-3.56 1.819 25.414 25.414 0 0 1-3.821 1.15c-.705.186-1.409.297-2.114.372a19.071 19.071 0 0 0 1.409 4.825 19.364 19.364 0 0 0 3.784 5.494c1.706 1.708 3.746 3.044 5.972 4.009a18.67 18.67 0 0 0 7.084 1.374c2.077 0 4.043-.335 5.898-.966a19.646 19.646 0 0 0 5.304-2.821 17.516 17.516 0 0 0 3.227-3.192c.816-1.002 1.484-2.079 2.077-3.23zm8.643 3.23l.111.148a18.309 18.309 0 0 0 3.672 3.304h.037c1.521 1.077 3.19 1.893 5.008 2.487.927.26 1.854.483 2.819.631l-2.448-1.447c-2.263-1.3-4.525-2.599-6.862-3.861l-2.337-1.262zm35.831 34.151a22.816 22.816 0 0 1-6.936-1.856 23.812 23.812 0 0 1-7.493-5.123 25.199 25.199 0 0 1-3.301-4.083l-.668-1.114a18.2 18.2 0 0 1-.704 1.114 23.223 23.223 0 0 1-3.265 4.083c-3.709 3.712-8.605 6.236-14.058 6.942.223 1.67.705 3.303 1.41 4.788a17.104 17.104 0 0 0 3.783 5.494c1.707 1.708 3.71 3.081 5.972 4.009a18.511 18.511 0 0 0 7.048 1.411c2.522 0 4.896-.52 7.047-1.411a17.804 17.804 0 0 0 5.972-4.009 17.835 17.835 0 0 0 3.821-5.494 17.111 17.111 0 0 0 1.372-4.751zm-274.928 29.585c-.26.408-.483.817-.742 1.225a24.353 24.353 0 0 1-3.45 4.343 24.384 24.384 0 0 1-7.307 5.011c-.223.112-.445.223-.705.335l22.886-.669a24.699 24.699 0 0 1-6.528-4.677c-1.298-1.336-2.485-2.784-3.45-4.343a20.746 20.746 0 0 1-.704-1.225zm-16.803 17.41c.148.297.296.556.408.816a21.204 21.204 0 0 0 2.485 3.675 19.042 19.042 0 0 0 3.301 2.933l.074.074h20.957c.112-.074.557-.334.631-.408 1.113-.854 2.189-1.819 3.116-2.933.89-1.113 1.706-2.301 2.337-3.563.222-.52.482-1.04.667-1.56l-33.976.966zm59.57-17.41c-.223.408-.445.817-.705 1.225-1.001 1.559-2.151 3.044-3.449 4.343a25.938 25.938 0 0 1-5.342 4.046l18.101-.519a25.305 25.305 0 0 1-4.414-3.527c-1.335-1.299-2.485-2.784-3.449-4.343-.26-.408-.519-.817-.742-1.225zm-17.285 16.185c.334.853.705 1.67 1.113 2.413.742 1.336 1.632 2.598 2.633 3.674a22.478 22.478 0 0 0 3.005 2.636h21.068c1.113-.78 2.152-1.67 3.042-2.673a18.81 18.81 0 0 0 2.67-3.712 16.59 16.59 0 0 0 1.373-3.341l-34.904 1.003zm-22.218-24.389a19.5 19.5 0 0 0 1.409 4.381c.927 1.93 2.152 3.712 3.672 5.197 1.707 1.707 3.71 3.081 5.972 4.009 2.189.89 4.563 1.41 7.048 1.41 2.522 0 4.896-.52 7.047-1.41a18.351 18.351 0 0 0 9.644-9.206 17.872 17.872 0 0 0 1.447-4.381 25.167 25.167 0 0 1-6.677-1.93 24.7 24.7 0 0 1-7.27-5.011c-1.298-1.299-2.485-2.747-3.449-4.343-.26-.409-.483-.817-.742-1.225-.223.408-.445.816-.705 1.225a24.652 24.652 0 0 1-3.45 4.343 24.215 24.215 0 0 1-7.27 5.011 25.171 25.171 0 0 1-6.676 1.93zm82.308 8.204c-.223.408-.483.817-.705 1.225a25.972 25.972 0 0 1-3.487 4.343 23.265 23.265 0 0 1-3.264 2.747l8.16-.223a43.848 43.848 0 0 1 .334-6.347 6.106 6.106 0 0 0-.334-.52 20.746 20.746 0 0 1-.704-1.225zm-17.693 14.997c.37 1.188.853 2.376 1.446 3.452a16.432 16.432 0 0 0 2.634 3.712c.927 1.039 1.966 1.93 3.078 2.747h21.069c1.113-.817 2.151-1.708 3.078-2.747a17.302 17.302 0 0 0 2.634-3.712 17.714 17.714 0 0 0 1.484-3.675c.222-.742.371-1.485.482-2.264-2.374-.334-4.637-.965-6.751-1.931a23.858 23.858 0 0 1-4.34-2.487c.037.891.075 1.782.186 2.71l.408 3.452-25.408.743zm-21.811-23.201a16.36 16.36 0 0 0 1.41 4.381c.89 1.93 2.151 3.675 3.672 5.197a17.819 17.819 0 0 0 5.972 4.009 18.52 18.52 0 0 0 7.047 1.41c2.523 0 4.896-.52 7.048-1.41a17.829 17.829 0 0 0 5.972-4.009 17.626 17.626 0 0 0 3.672-5.197 16.322 16.322 0 0 0 1.409-4.381 24.91 24.91 0 0 1-6.639-1.93 24.215 24.215 0 0 1-7.27-5.011 23.248 23.248 0 0 1-3.487-4.343c-.222-.409-.482-.817-.705-1.225-.222.408-.482.816-.704 1.225a24.698 24.698 0 0 1-3.45 4.343 24.384 24.384 0 0 1-7.307 5.011 24.907 24.907 0 0 1-6.64 1.93zm223.333 19.303a11.282 11.282 0 0 1-1.187-.52 24.397 24.397 0 0 1-7.307-5.011c-1.335-1.299-2.485-2.784-3.487-4.343-.222-.408-.482-.817-.704-1.225-.223.408-.445.817-.705 1.225-1.002 1.559-2.151 3.044-3.45 4.343-2.04 2.005-4.377 3.675-7.01 4.9l23.85.631zm-29.785 5.568c.26.631.557 1.262.89 1.856a17.253 17.253 0 0 0 2.634 3.712 19.142 19.142 0 0 0 3.079 2.673h21.031a18.61 18.61 0 0 0 3.004-2.636c1.039-1.113 1.929-2.375 2.671-3.674.148-.335.334-.669.482-1.003l-33.791-.928zm20.401-24.871c.26 1.522.742 3.007 1.409 4.381.891 1.93 2.152 3.675 3.673 5.197a17.825 17.825 0 0 0 5.971 4.009c2.152.89 4.526 1.41 7.048 1.41 2.485 0 4.896-.52 7.048-1.41 2.262-.928 4.265-2.302 5.971-4.009a17.647 17.647 0 0 0 3.673-5.197 16.393 16.393 0 0 0 1.409-4.381 24.9 24.9 0 0 1-6.639-1.93 24.401 24.401 0 0 1-7.308-5.011 24.647 24.647 0 0 1-3.449-4.343c-.223-.409-.482-.817-.705-1.225-.223.408-.482.816-.705 1.225a24.647 24.647 0 0 1-3.449 4.343 24.389 24.389 0 0 1-7.308 5.011 24.9 24.9 0 0 1-6.639 1.93zm-36.091 18.078a24.673 24.673 0 0 1-5.823-4.306c-1.299-1.299-2.449-2.784-3.45-4.343-.26-.408-.482-.817-.705-1.225a21.04 21.04 0 0 1-.742 1.225c-.964 1.596-2.151 3.044-3.449 4.343-1.447 1.485-3.116 2.747-4.896 3.786l19.065.52zm-27.522 5.642c.333 1.003.741 1.968 1.261 2.859a17.378 17.378 0 0 0 2.559 3.712c.964 1.039 2.003 2.004 3.19 2.821h21.106a19.621 19.621 0 0 0 2.93-2.598c1.038-1.114 1.892-2.339 2.633-3.638.371-.743.742-1.485 1.039-2.228l-34.718-.928zm20.808-23.72a19.502 19.502 0 0 0 1.41 4.381 18.867 18.867 0 0 0 3.672 5.197 18.588 18.588 0 0 0 5.972 4.009c2.188.89 4.562 1.41 7.047 1.41 2.523 0 4.897-.52 7.048-1.41a18.351 18.351 0 0 0 9.644-9.206 17.872 17.872 0 0 0 1.447-4.381 25.167 25.167 0 0 1-6.677-1.93 24.215 24.215 0 0 1-7.27-5.011c-1.335-1.299-2.485-2.784-3.45-4.343-.259-.409-.482-.817-.742-1.225-.222.408-.445.816-.704 1.225a24.698 24.698 0 0 1-3.45 4.343 24.215 24.215 0 0 1-7.27 5.011 25.167 25.167 0 0 1-6.677 1.93zm-38.093 16.89a27.975 27.975 0 0 1-3.821-3.118c-1.298-1.299-2.448-2.784-3.45-4.343-.222-.408-.482-.817-.704-1.225-.223.408-.483.817-.705 1.225a28.056 28.056 0 0 1-1.521 2.153c.148 1.596.223 3.304.186 5.048l10.015.26zm-16.469.297a17.534 17.534 0 0 1-2.968 1.596c-2.114.966-4.377 1.597-6.788 1.931.149.779.297 1.522.52 2.301.37 1.299.89 2.524 1.52 3.712a20.275 20.275 0 0 0 2.634 3.712 18.92 18.92 0 0 0 3.041 2.673h21.069a18.878 18.878 0 0 0 3.041-2.673c1.002-1.113 1.929-2.338 2.634-3.675a20.54 20.54 0 0 0 1.372-3.229l-26.632-.743.408-3.452c.074-.705.111-1.447.149-2.153zm11.758-17.187a17.912 17.912 0 0 0 1.446 4.381c.891 1.93 2.152 3.675 3.635 5.197a18.372 18.372 0 0 0 6.009 4.009c2.152.89 4.526 1.41 7.048 1.41 2.485 0 4.896-.52 7.048-1.41 2.262-.928 4.265-2.302 5.971-4.009 1.521-1.485 2.745-3.267 3.673-5.197a19.551 19.551 0 0 0 1.409-4.381c-2.337-.334-4.562-1.002-6.677-1.93a24.7 24.7 0 0 1-7.27-5.011 24.647 24.647 0 0 1-3.449-4.343c-.26-.409-.483-.817-.705-1.225-.223.408-.482.816-.742 1.225-.964 1.596-2.151 3.044-3.449 4.343a24.232 24.232 0 0 1-7.271 5.011 24.766 24.766 0 0 1-6.676 1.93zm-27.819 20.714c-2.374-.334-4.637-.965-6.751-1.931a24.384 24.384 0 0 1-7.307-5.011c-1.299-1.299-2.486-2.747-3.45-4.343-.26-.408-.482-.817-.742-1.225-.222.408-.445.817-.705 1.225a24.647 24.647 0 0 1-3.449 4.343c-3.71 3.712-8.606 6.236-14.058 6.942.111.742.259 1.447.445 2.153a18.28 18.28 0 0 0 1.409 3.563 19.314 19.314 0 0 0 2.486 3.675c.964 1.114 2.077 2.079 3.301 2.933l.074.074h21.031a19.113 19.113 0 0 0 3.19-2.821c1.002-1.114 1.892-2.339 2.597-3.675a19.983 19.983 0 0 0 1.446-3.675c.223-.705.371-1.485.483-2.227zm-14.949-20.714a19.502 19.502 0 0 0 1.41 4.381 18.867 18.867 0 0 0 3.672 5.197 18.588 18.588 0 0 0 5.972 4.009 18.52 18.52 0 0 0 7.047 1.41c2.523 0 4.897-.52 7.048-1.41a17.957 17.957 0 0 0 5.415-3.453c-1.557-8.315-6.528-15.219-12.945-21.827l-.222.409a24.698 24.698 0 0 1-3.45 4.343c-2.114 2.079-4.562 3.786-7.307 5.011a24.907 24.907 0 0 1-6.64 1.93zm35.349 3.081c.371-1.002.668-2.041.891-3.081a24.161 24.161 0 0 1-2.374-.445 41.968 41.968 0 0 1 1.483 3.526zm-78.153-3.081c.074.334.148.706.222 1.04.186-.409.371-.78.52-1.188-.223.074-.483.111-.742.148zm4.488 8.984c.222.185.408.408.593.594a18.61 18.61 0 0 0 5.972 4.009c2.189.89 4.563 1.41 7.085 1.41 2.485 0 4.859-.52 7.047-1.41a18.588 18.588 0 0 0 5.972-4.009 18.867 18.867 0 0 0 3.672-5.197 19.502 19.502 0 0 0 1.41-4.381 25.167 25.167 0 0 1-6.677-1.93 24.215 24.215 0 0 1-7.27-5.011 24.647 24.647 0 0 1-3.449-4.343c-.26-.409-.483-.817-.705-1.225-.26.408-.482.816-.742 1.225-.964 1.596-2.151 3.044-3.45 4.343a23.265 23.265 0 0 1-3.264 2.747c-2.93 4.046-5.156 8.352-6.194 13.178zm-93.324-42.912c-.26.408-.483.817-.742 1.225a24.353 24.353 0 0 1-3.45 4.343 24.497 24.497 0 0 1-7.307 5.049c-2.114.928-4.377 1.596-6.751 1.893a18.8 18.8 0 0 0 1.41 4.788 18.837 18.837 0 0 0 3.783 5.494 18.336 18.336 0 0 0 6.009 4.009 18.362 18.362 0 0 0 7.048 1.411c2.485 0 4.859-.52 7.047-1.411a18.572 18.572 0 0 0 5.972-4.009c1.595-1.559 2.856-3.452 3.783-5.494a18.8 18.8 0 0 0 1.41-4.788c-2.374-.297-4.637-.965-6.751-1.893a23.839 23.839 0 0 1-7.307-5.049 24.698 24.698 0 0 1-3.45-4.343 20.746 20.746 0 0 1-.704-1.225zm-20.55 6.756a17.336 17.336 0 0 0 6.195-1.373 18.61 18.61 0 0 0 5.972-4.009 18.472 18.472 0 0 0 3.709-5.309c.334-.705.63-1.485.853-2.227-2.893 2.005-5.712 4.12-8.494 6.236-2.782 2.19-5.564 4.418-8.235 6.682zm63.317-6.756c-.223.408-.445.817-.705 1.225-1.001 1.559-2.151 3.044-3.449 4.343-2.115 2.079-4.563 3.824-7.308 5.049-2.114.928-4.376 1.596-6.75 1.893.222 1.67.704 3.303 1.372 4.788a17.818 17.818 0 0 0 3.821 5.494c1.706 1.708 3.709 3.081 5.971 4.009a18.511 18.511 0 0 0 7.048 1.411c2.522 0 4.896-.52 7.048-1.411a18.357 18.357 0 0 0 6.009-4.009 18.856 18.856 0 0 0 3.783-5.494 18.758 18.758 0 0 0 1.409-4.788 24.556 24.556 0 0 1-6.787-1.893 23.691 23.691 0 0 1-7.271-5.049c-1.335-1.299-2.485-2.784-3.486-4.343-.223-.408-.482-.817-.705-1.225zm-39.503-8.315c.259 1.559.742 3.007 1.372 4.417a18.814 18.814 0 0 0 3.709 5.272 18.61 18.61 0 0 0 5.972 4.009 17.969 17.969 0 0 0 7.048 1.41c2.522 0 4.896-.482 7.047-1.41a18.847 18.847 0 0 0 6.009-3.972v-.037a18.392 18.392 0 0 0 3.784-5.494 18.363 18.363 0 0 0 1.409-4.789 25.433 25.433 0 0 1-4.822-1.113c-2.188-.78-4.228-1.819-6.046-3.119a24.514 24.514 0 0 1-4.674-4.306 19.075 19.075 0 0 1-1.743-2.412 24.78 24.78 0 0 1-1.817 2.561c-1.373 1.67-2.931 3.192-4.711 4.454a23.587 23.587 0 0 1-6.751 3.415c-1.855.594-3.783 1.003-5.786 1.114zm82.308 8.315c-.223.408-.483.817-.705 1.225a24.889 24.889 0 0 1-3.487 4.343 23.839 23.839 0 0 1-7.307 5.049 23.951 23.951 0 0 1-6.751 1.893 18.8 18.8 0 0 0 1.41 4.788 18.359 18.359 0 0 0 3.783 5.494 18.336 18.336 0 0 0 6.009 4.009 18.362 18.362 0 0 0 7.048 1.411c2.485 0 4.896-.52 7.047-1.411a20.815 20.815 0 0 0 1.595-.742c2.485-3.378 5.378-6.533 8.568-9.652.446-1.262.816-2.561 1.002-3.897-2.374-.297-4.637-.965-6.751-1.893a23.675 23.675 0 0 1-7.27-5.049h-.037c-1.298-1.299-2.448-2.784-3.45-4.343a20.746 20.746 0 0 1-.704-1.225zm-39.652-8.909c.26 1.708.742 3.304 1.409 4.789a18.392 18.392 0 0 0 3.784 5.494 18.351 18.351 0 0 0 6.009 4.009c2.151.928 4.525 1.41 7.047 1.41 2.523 0 4.896-.482 7.048-1.41a18.298 18.298 0 0 0 5.972-3.972 18.442 18.442 0 0 0 3.82-5.531 17 17 0 0 0 1.373-4.789c-2.374-.297-4.637-.965-6.751-1.893a24.705 24.705 0 0 1-7.27-5.011v-.037a23.255 23.255 0 0 1-3.487-4.344c-.222-.408-.482-.816-.705-1.225-.222.409-.482.817-.704 1.225a23.295 23.295 0 0 1-3.487 4.344 23.69 23.69 0 0 1-7.27 5.048c-2.115.928-4.377 1.596-6.788 1.893zm186.241 21.419c-2.374-.297-4.637-.965-6.751-1.893a23.839 23.839 0 0 1-7.307-5.049 24.263 24.263 0 0 1-3.45-4.343c-.26-.408-.482-.817-.705-1.225-.259.408-.482.817-.742 1.225-.964 1.596-2.151 3.044-3.449 4.343a23.85 23.85 0 0 1-7.307 5.049c-2.115.928-4.377 1.596-6.751 1.893.259 1.67.742 3.303 1.409 4.788a18.86 18.86 0 0 0 3.784 5.494 18.336 18.336 0 0 0 6.009 4.009 18.36 18.36 0 0 0 7.047 1.411c2.485 0 4.859-.52 7.048-1.411a18.594 18.594 0 0 0 5.972-4.009c1.595-1.559 2.856-3.452 3.783-5.494a18.8 18.8 0 0 0 1.41-4.788zm-42.805 0c-2.374-.297-4.637-.965-6.751-1.893a23.675 23.675 0 0 1-7.27-5.049 23.288 23.288 0 0 1-3.487-4.343c-.222-.408-.482-.817-.704-1.225-.223.408-.483.817-.705 1.225a24.652 24.652 0 0 1-3.45 4.343h-.037a24.125 24.125 0 0 1-7.27 5.049c-2.114.928-4.377 1.596-6.788 1.893a18.8 18.8 0 0 0 1.41 4.788c.334.743.704 1.448 1.113 2.116a78.576 78.576 0 0 1 4.043 4.603 17.688 17.688 0 0 0 4.636 2.784 18.504 18.504 0 0 0 7.048 1.411c2.485 0 4.896-.52 7.047-1.411 2.263-.928 4.266-2.301 5.972-4.009 1.595-1.559 2.893-3.452 3.821-5.494a17.396 17.396 0 0 0 1.372-4.788zm-15.059-21.419a18.325 18.325 0 0 0 1.409 4.789 19.044 19.044 0 0 0 3.783 5.531 18.87 18.87 0 0 0 6.009 3.972c2.152.928 4.526 1.41 7.048 1.41 2.485 0 4.896-.482 7.048-1.41 2.262-.928 4.265-2.302 5.971-3.972 1.595-1.596 2.894-3.453 3.784-5.531.705-1.485 1.15-3.081 1.409-4.789-2.374-.297-4.636-.965-6.751-1.893a24.415 24.415 0 0 1-7.307-5.011 26.363 26.363 0 0 1-3.449-4.381 19.92 19.92 0 0 1-.705-1.225 21.26 21.26 0 0 1-.742 1.225c-.964 1.597-2.151 3.044-3.449 4.344a24.157 24.157 0 0 1-7.271 5.048 24.556 24.556 0 0 1-6.787 1.893zm-50.038 14.403l-.074.074a35.151 35.151 0 0 1-1.744 1.596c-1.706 1.559-3.449 3.081-5.155 4.603a273.888 273.888 0 0 0-5.898 5.271l.148.26c.928 2.042 2.189 3.935 3.784 5.494a18.572 18.572 0 0 0 5.972 4.009c2.188.891 4.562 1.411 7.047 1.411 2.522 0 4.896-.52 7.085-1.411a18.594 18.594 0 0 0 5.972-4.009 18.621 18.621 0 0 0 3.486-4.826c-2.262-2.115-4.636-4.231-7.047-6.384-3.376-2.97-6.788-6.014-10.164-9.318a91.318 91.318 0 0 1-3.412 3.23zm7.27-14.403a17.031 17.031 0 0 0 1.372 4.789 17.847 17.847 0 0 0 3.821 5.494 17.819 17.819 0 0 0 5.972 4.009 17.96 17.96 0 0 0 7.047 1.41c2.523 0 4.897-.482 7.048-1.41a18.351 18.351 0 0 0 6.009-4.009 18.371 18.371 0 0 0 3.783-5.494 18.365 18.365 0 0 0 1.41-4.789 23.951 23.951 0 0 1-6.751-1.893 23.946 23.946 0 0 1-7.307-5.011 24.771 24.771 0 0 1-3.487-4.381c-.222-.408-.482-.816-.705-1.225-.222.409-.445.854-.704 1.225a26.42 26.42 0 0 1-3.45 4.381c-2.114 2.078-4.562 3.786-7.307 5.011-2.114.928-4.377 1.596-6.751 1.893zm-42.805 0c.26 1.708.742 3.304 1.41 4.789a18.371 18.371 0 0 0 3.783 5.494 18.372 18.372 0 0 0 6.009 4.009c2.152.928 4.526 1.41 7.048 1.41a17.96 17.96 0 0 0 7.047-1.41c.631-.26 1.224-.557 1.818-.854a318.667 318.667 0 0 0 6.417-5.902 15.283 15.283 0 0 0 1.521-2.747 18.363 18.363 0 0 0 1.409-4.789c-2.374-.297-4.636-.965-6.751-1.893a24.318 24.318 0 0 1-7.307-5.048c-1.298-1.3-2.485-2.747-3.449-4.344a19.92 19.92 0 0 1-.705-1.225c-.26.409-.482.817-.742 1.225-.964 1.597-2.151 3.044-3.45 4.344a23.853 23.853 0 0 1-7.307 5.048c-2.114.928-4.377 1.596-6.751 1.893zm-3.152-33.928c-.668 1.262-1.484 2.413-2.337 3.526a24.531 24.531 0 0 1-5.045 4.752c-1.817 1.299-3.857 2.338-6.009 3.118-1.558.52-3.19.928-4.859 1.114.26 1.707.742 3.303 1.41 4.825a19.34 19.34 0 0 0 3.783 5.494 19.588 19.588 0 0 0 6.009 4.009c2.151.891 4.525 1.374 7.048 1.374a18.62 18.62 0 0 0 7.047-1.374 19.87 19.87 0 0 0 5.972-4.009c1.595-1.596 2.893-3.452 3.783-5.494.705-1.522 1.15-3.118 1.41-4.825a25.322 25.322 0 0 1-5.008-1.188 24.565 24.565 0 0 1-6.157-3.267c-1.854-1.373-3.524-2.97-4.896-4.751a23.978 23.978 0 0 1-2.151-3.304zm-24.556 12.51a29.202 29.202 0 0 1-1.743-.26c-1.15-.26-2.3-.594-3.412-.965a26.675 26.675 0 0 1-3.302-1.522 22.984 22.984 0 0 1-2.262-1.374c-4.117 1.485-8.272 3.155-12.389 4.9-3.858 1.67-7.641 3.452-11.35 5.271.556 1.002 1.187 1.968 1.891 2.821a17.248 17.248 0 0 0 3.71 3.453 18.908 18.908 0 0 0 5.044 2.524 18.36 18.36 0 0 0 5.564.854c2.522 0 4.896-.483 7.048-1.374a19.612 19.612 0 0 0 6.009-4.009 19.361 19.361 0 0 0 3.783-5.494 19.03 19.03 0 0 0 1.409-4.825zm-3.041-6.756c.927.334 1.929.593 3.004.779 1.002.186 2.078.26 3.19.26 1.966 0 3.821-.297 5.564-.854a16.698 16.698 0 0 0 5.082-2.524 16.915 16.915 0 0 0 3.301-3.007l.26-.297c-3.45.78-6.9 1.634-10.275 2.599-3.412.928-6.788 1.93-10.126 3.044zM100.71 407.474c-.667 1.225-1.41 2.375-2.262 3.415l-.075.111h4.637l-.111-.186a23.536 23.536 0 0 1-2.189-3.34zM402.53 411a24.067 24.067 0 0 1-2.263-3.452l-.037-.074-.037.037a24.66 24.66 0 0 1-2.3 3.489h4.637zm-42.768 0l-.037-.037a22.76 22.76 0 0 1-2.3-3.489l-.037.148c-.667 1.151-1.409 2.302-2.262 3.378h4.636zm-42.804 0l-.075-.111a20.806 20.806 0 0 1-2.225-3.415 29.115 29.115 0 0 1-2.337 3.526h4.637zm-42.768 0l-.037-.037a24.718 24.718 0 0 1-2.3-3.489c-.667 1.225-1.409 2.375-2.262 3.415l-.037.111h4.636zm-130.713-3.526a22.221 22.221 0 0 1-2.04 3.192l-.26.334h4.637a24.119 24.119 0 0 1-2.3-3.452l-.037-.074zm42.804 0a22.681 22.681 0 0 1-2.299 3.489V411h4.636l-.037-.074c-.89-1.077-1.632-2.227-2.3-3.452zm42.805 0a24.345 24.345 0 0 1-2.3 3.452l-.037.074h4.637l-.149-.186a22.287 22.287 0 0 1-2.151-3.34zm46.069-93.025a18.877 18.877 0 0 0 1.409 4.306 18.867 18.867 0 0 0 3.672 5.197 18.988 18.988 0 0 0 5.972 4.009c2.151.891 4.525 1.374 7.048 1.374 2.522 0 4.896-.483 7.047-1.374 2.263-.928 4.266-2.301 5.972-4.009a18.758 18.758 0 0 0 3.821-5.494c.667-1.522 1.149-3.118 1.372-4.788a26.951 26.951 0 0 1-5.23-1.3 23.74 23.74 0 0 1-6.38-3.526 25.723 25.723 0 0 1-4.414-4.343 45.018 45.018 0 0 1-1.484-2.153c-.519.965-1.149 1.856-1.78 2.71-1.41 1.819-3.079 3.415-4.896 4.788-2.04 1.485-4.266 2.673-6.677 3.452-1.743.594-3.561.966-5.452 1.151zm21.736-21.381h11.424l-6.194 1.67c1.15.223 2.337.483 3.486.742 2.56.594 5.119 1.225 7.679 1.894v-63.922c-1.558.26-3.042.668-4.414 1.262a19.135 19.135 0 0 0-6.306 4.195 19.842 19.842 0 0 0-4.229 6.31 19.478 19.478 0 0 0-1.446 7.424v40.425zm22.329-59.616v65.555c2.894.854 5.861 1.782 8.828 2.747 2.597.891 5.119 1.782 7.604 2.673v-51.784c0-2.635-.519-5.16-1.483-7.424a19.15 19.15 0 0 0-4.192-6.31c-1.817-1.782-3.932-3.23-6.306-4.195-1.409-.594-2.893-1.002-4.451-1.262zm-19.547 66.817l.519.668a18.97 18.97 0 0 0 3.264 3.193 17.593 17.593 0 0 0 5.267 2.821c1.855.631 3.858.965 5.935.965a18.28 18.28 0 0 0 3.524-.334 19.334 19.334 0 0 0 3.338-.965c.334-.149.668-.297.964-.446-3.709-1.15-7.492-2.264-11.313-3.229a192.486 192.486 0 0 0-11.498-2.673zm-158.348 16.556l.445-1.299 1.262.408a264.484 264.484 0 0 1 5.638-2.821c1.15-.557 2.299-1.114 3.486-1.633-.296-.26-.593-.483-.853-.706-1.187-1.002-2.3-2.153-3.301-3.341-1.335-1.67-2.485-3.489-3.338-5.419-.779-1.819-1.299-3.675-1.373-5.531-.185-3.304.149-6.199.853-8.649.779-2.784 2.04-5.049 3.635-6.868a15.016 15.016 0 0 1 3.561-2.969 15.618 15.618 0 0 1 4.303-1.819 17.7 17.7 0 0 1 4.377-.557 16.214 16.214 0 0 1 4.451.52c2.3.556 4.525 1.559 6.417 2.932 1.855 1.337 3.412 3.044 4.525 5.049.705 1.262 1.15 2.709 1.373 4.231a14.514 14.514 0 0 1-.075 4.566 13.986 13.986 0 0 1-.89 3.007c-.371.891-.89 1.782-1.483 2.561a9.95 9.95 0 0 1-2.449 2.228c-.89.593-1.891 1.002-3.041 1.225-1.15.259-2.411.296-3.784.074a16.58 16.58 0 0 1-3.931-1.262l-1.595-.743 2.522-5.382 1.595.779c.816.371 1.558.631 2.263.743.667.111 1.261.111 1.743 0a3.42 3.42 0 0 0 1.076-.409c.333-.26.667-.556.927-.891.297-.371.556-.816.742-1.262a7.923 7.923 0 0 0 .482-1.67c.148-.891.185-1.819.037-2.71-.111-.817-.334-1.559-.668-2.19-.704-1.262-1.706-2.339-2.856-3.192a12.574 12.574 0 0 0-4.302-1.931 12.177 12.177 0 0 0-3.042-.371c-.964 0-1.966.111-2.93.371-.928.223-1.855.631-2.708 1.151a9.39 9.39 0 0 0-2.188 1.856c-1.076 1.188-1.929 2.747-2.449 4.677-.519 1.819-.741 4.009-.593 6.571.037 1.15.408 2.375.927 3.563.631 1.374 1.484 2.71 2.485 3.935 1.039 1.262 2.189 2.413 3.376 3.267.89.705 1.854 1.262 2.745 1.633a225.993 225.993 0 0 1 14.948-5.754 215.547 215.547 0 0 1 14.874-4.64l.111-1.188c.037-.519.074-.965.111-1.336v-1.336c0-4.195-.816-8.167-2.336-11.805-1.558-3.786-3.821-7.201-6.677-10.022a31.07 31.07 0 0 0-10.015-6.719c-3.635-1.485-7.604-2.339-11.795-2.339-4.192 0-8.161.854-11.796 2.339-3.783 1.559-7.158 3.86-10.015 6.719-2.856 2.858-5.155 6.236-6.713 10.022a31.01 31.01 0 0 0-2.337 11.805c0 2.524.297 5.011.89 7.35.594 2.449 1.484 4.751 2.597 6.941 1.075 2.005 2.336 3.935 3.857 5.68a30.428 30.428 0 0 0 4.117 4.046l2.782-1.485zm127.264-2.636c-1.929-.334-3.783-.928-5.527-1.67a25.036 25.036 0 0 1-6.379-4.121 23.324 23.324 0 0 1-4.711-5.716c-.445-.705-.816-1.448-1.187-2.19a21.607 21.607 0 0 1-1.002 1.782 24.048 24.048 0 0 1-4.488 5.382 24.012 24.012 0 0 1-6.936 4.343 22.573 22.573 0 0 1-6.12 1.634 18.368 18.368 0 0 0 1.409 4.788 18.34 18.34 0 0 0 3.784 5.531 19.419 19.419 0 0 0 5.972 4.009 18.62 18.62 0 0 0 7.047 1.374c2.522 0 4.896-.483 7.085-1.374 2.225-.965 4.265-2.301 5.972-4.009a19.513 19.513 0 0 0 3.672-5.271 16.282 16.282 0 0 0 1.409-4.492zm-13.39-18.709c.408 1.3.927 2.525 1.558 3.675a17.982 17.982 0 0 0 3.857 4.826 19.405 19.405 0 0 0 5.713 3.452c2.003.78 4.228 1.188 6.528 1.188 2.04 0 3.969-.297 5.749-.891a18.408 18.408 0 0 0 5.156-2.672 19.028 19.028 0 0 0 3.895-3.824 17.355 17.355 0 0 0 1.743-2.858c-3.338-.52-6.751-1.002-10.163-1.374-3.821-.445-7.641-.816-11.499-1.039l-1.224 1.522-2.188-1.745c-1.818-.074-3.635-.148-5.379-.185-1.261-.037-2.485-.075-3.746-.075zm-42.1 3.267c.482.78.964 1.522 1.558 2.227 1.001 1.3 2.225 2.45 3.561 3.415a17.172 17.172 0 0 0 5.119 2.636c1.817.594 3.709.891 5.749.891 2.3 0 4.525-.408 6.565-1.188 2.114-.817 4.08-2.004 5.712-3.489a19.46 19.46 0 0 0 3.673-4.492 17.962 17.962 0 0 0 1.446-3.229c-5.638.148-11.239.482-16.766 1.002-5.6.557-11.127 1.299-16.617 2.227zm168.066-53.12l-27.968-.037v.78c.111.817.222 1.707.26 2.561.074.928.111 1.819.111 2.71v1.225c21.18 0 42.396.074 63.576.111l.037-7.275-36.016-.075zm-8.643-5.939l8.531.037.037-7.275-32.715-.038a59.48 59.48 0 0 1 1.409 2.636 38.4 38.4 0 0 1 1.855 4.603l20.883.037zm-90.728-6.273l.037-14.292h-.074l.074-13.178h-.074l.111-19.117h4.043l13.947-13.957c-.668-.854-1.447-1.633-2.225-2.339a17.678 17.678 0 0 0-3.524-2.45 20.94 20.94 0 0 0-4.451-1.744 20.002 20.002 0 0 0-4.748-.594c-1.632 0-3.227.222-4.748.594a20.92 20.92 0 0 0-4.451 1.744c-1.372.743-2.708 1.671-3.858 2.784a17.373 17.373 0 0 0-3.115 3.638l-2.486 3.787-2.448-3.787a18.377 18.377 0 0 0-3.078-3.638 18.775 18.775 0 0 0-3.895-2.784 20.94 20.94 0 0 0-4.451-1.744 20.002 20.002 0 0 0-4.748-.594c-1.632 0-3.227.222-4.748.594a20.94 20.94 0 0 0-4.451 1.744 18.522 18.522 0 0 0-3.857 2.784 17.377 17.377 0 0 0-3.116 3.638l-2.448 3.787-2.485-3.787a18.415 18.415 0 0 0-3.079-3.638 17.82 17.82 0 0 0-3.895-2.784c-1.409-.779-2.893-1.336-4.451-1.744a20.002 20.002 0 0 0-4.748-.594c-1.595 0-3.19.222-4.748.594a20.96 20.96 0 0 0-4.451 1.744c-1.112.594-2.188 1.337-3.19 2.153a22.405 22.405 0 0 0-2.299 2.302v51.783h-.037l4.228 5.939-4.414 3.156 5.267 7.461 6.009-8.426v-42.541c0-.891.186-1.781.519-2.561.334-.854.854-1.559 1.484-2.19a6.21 6.21 0 0 1 2.152-1.485 6.754 6.754 0 0 1 2.596-.52c.89 0 1.78.186 2.559.52.816.334 1.558.854 2.189 1.448v.037c.63.594 1.113 1.336 1.484 2.19.333.78.519 1.67.519 2.561v42.132l.297-.445 6.565 9.28 6.602-9.28 6.566 9.28.445-.631v-50.336c0-.891.185-1.781.519-2.561.334-.854.853-1.559 1.447-2.19h.037a6.206 6.206 0 0 1 2.151-1.485 6.755 6.755 0 0 1 2.597-.52c.89 0 1.78.186 2.559.52a6.022 6.022 0 0 1 2.188 1.485c.631.594 1.113 1.336 1.484 2.19.297.78.482 1.67.482 2.561v49.928l5.898-8.241 6.528 9.28 6.64-9.28 5.786 8.241c.186-.483.334-.966.519-1.448a33.916 33.916 0 0 1 1.818-4.12c.111-.26.297-.594.445-.854zm-87.946-1.374L164.434 190.8l-21.885 30.662v39.385c1.929-.891 3.969-1.596 6.084-2.153a36.556 36.556 0 0 1 9.31-1.225l.259.037.037-12.472 9.162-12.844-9.866-.037v-21.976c0-.891.185-1.744.519-2.561.371-.817.853-1.596 1.484-2.19.593-.631 1.335-1.114 2.188-1.448a6.57 6.57 0 0 1 5.119 0 6.408 6.408 0 0 1 2.225 1.448 6.82 6.82 0 0 1 1.447 2.19c.334.817.519 1.67.519 2.561v22.013h-2.819l6.158 8.686 6.639-9.28 6.528 9.28 6.306-8.835zm93.844-18.82l35.905.037h1.781l55.675.074.037-7.275-93.361-.112-.037 7.276zm56.417 13.252l36.944.037.037-7.275-45.512-.037.408.259a38.634 38.634 0 0 1 6.38 5.123c.334.334.705.742 1.187 1.262l.556.631zm-48.887-7.35h-7.456l-.037 6.125a26.238 26.238 0 0 1 1.78-1.744c1.744-1.634 3.672-3.081 5.713-4.381zm-7.53-19.08l93.361.112.037-7.276-93.361-.111-.037 7.275zm6.565-13.178l80.379.112-40.245-40.276-40.134 40.164zm53.005 122.239l.037-10.802h-.074l.074-13.178h-.074l.074-13.178h-.074l.074-13.178h-.074l.074-11.878a32.059 32.059 0 0 0-3.078-9.726 32.225 32.225 0 0 0-6.047-8.389 32.397 32.397 0 0 0-10.46-7.016 32.55 32.55 0 0 0-12.351-2.413c-3.042 0-5.972.408-8.754 1.188a32.2 32.2 0 0 0-8.086 3.526 31.436 31.436 0 0 0-6.862 5.643 30.872 30.872 0 0 0-5.045 7.238c-.593 1.114-1.076 2.265-1.521 3.49a31.418 31.418 0 0 0-1.112 3.637 28.536 28.536 0 0 0-.668 3.712 32.832 32.832 0 0 0-.223 3.861v1.745h-.371l-.111 38.048c1.484.186 2.968.372 4.451.594 1.298.186 2.597.409 3.895.594v-39.979a25.464 25.464 0 0 1 7.418-17.929 26.282 26.282 0 0 1 8.198-5.494c3.004-1.225 6.268-1.93 9.681-1.93 3.412 0 6.714.705 9.681 1.93a25.551 25.551 0 0 1 13.724 13.735c1.224 2.969 1.892 6.236 1.892 9.688v54.085c1.187.483 2.374.965 3.561 1.485l2.151.891zm6.306-3.527c21.18.075 42.396.075 63.576.149l.037-7.276c-21.217 0-42.396-.074-63.613-.148v7.275zm0-13.178c21.18.075 42.396.075 63.576.112l.037-7.276-63.613-.111v7.275zm0-13.177l63.576.111.037-7.276c-21.217 0-42.396-.074-63.613-.111v7.276zm0-13.178c21.18.037 42.396.037 63.576.111l.037-7.275c-21.217 0-42.396-.075-63.613-.112v7.276zm-176.263-17.595L177.268 263a32.79 32.79 0 0 1 3.004 2.042 37.822 37.822 0 0 1 3.672 3.229l.594.594.037-21.901-3.598-5.123-3.672 5.123v1.485zm-5.898-1.485l-3.635-5.123-3.635 5.123-.037 11.062c1.447.222 2.893.557 4.266.965 1.038.297 2.04.631 3.004 1.039l.037-13.066zm19.103 0l-.111 30.068a34.894 34.894 0 0 1 3.115 8.018 36.277 36.277 0 0 1 1.187 9.243c0 .445 0 .965-.037 1.596l-.037.668 3.005-.742.148-48.851-3.635-5.123-3.635 5.123zm13.168 2.635l-.112 44.916 3.264-.668c1.336-.26 2.634-.482 3.969-.742l.149-46.141-3.635-5.123-3.635 5.123v2.635zm8.976-10.468l1.261 1.745.371-.52v-50.447c0-.111-.037-.222-.074-.334a1.126 1.126 0 0 0-.186-.26.596.596 0 0 0-.259-.148.702.702 0 0 0-.297-.074.702.702 0 0 0-.297.074.649.649 0 0 0-.296.186.588.588 0 0 0-.149.259.706.706 0 0 0-.074.297v49.222zm17.359 7.833l-.111 43.617c1.224-.112 2.374-.223 3.487-.297 1.224-.112 2.485-.186 3.783-.297l.111-43.023-3.598-5.123-3.672 5.123zm-5.897 0l-3.636-5.123-.259.408v1.931h-1.41l-1.966 2.784-.111 45.213 3.376-.483c1.298-.185 2.596-.334 3.894-.52l.112-44.21zm19.065 3.563l-.111 39.163c1.187-.037 2.374-.075 3.598-.112l3.672-.037.111-42.577-3.598-5.123-3.672 5.123v3.563zm33.531 40.239l.112-43.802-3.635-5.123-3.635 5.086v12.769c-.037 10.171-.037 20.305-.075 30.439 1.299.074 2.56.186 3.747.297a64.78 64.78 0 0 1 3.486.334zm-30.081-58.836l.259-.334 1.373 1.93v-43.617a.691.691 0 0 0-.075-.297.664.664 0 0 0-.185-.259.425.425 0 0 0-.26-.186.697.697 0 0 0-.296-.074 1.08 1.08 0 0 0-.334.074c-.074.037-.149.074-.26.186a.596.596 0 0 0-.148.259.706.706 0 0 0-.074.297v42.021zm-130.603-49.519h47.108l1.298-1.819 1.298 1.819h1.818v2.561l9.347 13.067v-21.085h-60.869v5.457zm0-11.396h60.869v-6.088h-60.869v6.088zm66.804 35.339l6.899 9.725v-42.391l-1.447-.966c.482-.705.965-1.484 1.447-2.19v-14.477l-1.447-.928.965-1.485a23.819 23.819 0 0 1 4.043-4.751c1.521-1.448 3.227-2.636 5.081-3.638.408-.223.816-.445 1.224-.631l-22.366-37.121-18.25 30.254 21.736 22.124h2.115v46.475zm12.834-51.412v9.614c.853-.631 1.78-1.188 2.707-1.708a26.374 26.374 0 0 1 5.824-2.264c2.003-.483 4.08-.78 6.157-.78 2.115 0 4.192.297 6.195.78 2.04.52 3.969 1.299 5.823 2.264a26.914 26.914 0 0 1 4.377 3.007c.779.705 1.558 1.411 2.263 2.19a25.233 25.233 0 0 1 2.262-2.19 25.44 25.44 0 0 1 4.377-3.007 26.805 26.805 0 0 1 5.787-2.264c2.003-.483 4.08-.78 6.194-.78s4.192.297 6.194.78a26.805 26.805 0 0 1 5.787 2.264 27.263 27.263 0 0 1 4.414 3.007 41.908 41.908 0 0 1 2.263 2.19c.704-.779 1.446-1.485 2.225-2.19a27.219 27.219 0 0 1 4.414-3.007 26.797 26.797 0 0 1 5.786-2.264c2.003-.483 4.081-.78 6.195-.78s4.191.297 6.194.78a26.805 26.805 0 0 1 5.787 2.264 24.677 24.677 0 0 1 3.264 2.116v-9.354a19.38 19.38 0 0 0-2.522-2.71 21.323 21.323 0 0 0-3.524-2.45c-1.41-.742-2.893-1.336-4.451-1.707-1.521-.409-3.116-.594-4.748-.594-1.632 0-3.227.185-4.748.594-1.558.371-3.042.965-4.451 1.707-1.372.78-2.708 1.708-3.858 2.784a19.478 19.478 0 0 0-3.115 3.638l-2.486 3.823-2.448-3.823a20.763 20.763 0 0 0-3.078-3.638 20.725 20.725 0 0 0-3.895-2.784c-1.41-.742-2.893-1.336-4.451-1.707-1.521-.409-3.116-.594-4.748-.594-1.632 0-3.227.185-4.748.594-1.558.371-3.041.965-4.451 1.707a21.685 21.685 0 0 0-3.857 2.784 19.483 19.483 0 0 0-3.116 3.638l-2.448 3.786-2.485-3.786a20.811 20.811 0 0 0-3.079-3.638 20.693 20.693 0 0 0-3.895-2.784c-1.409-.742-2.893-1.336-4.451-1.707-1.521-.409-3.116-.594-4.748-.594-1.595 0-3.19.185-4.748.594-1.557.371-3.041.965-4.451 1.707-1.112.631-2.188 1.336-3.19 2.19-.816.705-1.595 1.448-2.299 2.302zm-67.62 169.381l.594-.371c.705-.408 1.558-.928 2.633-1.559l1.781-1.039c-1.261-1.151-2.448-2.376-3.487-3.675a36.676 36.676 0 0 1-4.228-6.385 33.345 33.345 0 0 1-2.449-5.939l5.156 18.968zm-5.934-21.715a36.638 36.638 0 0 1-.965-8.315c0-4.975 1.002-9.726 2.819-14.069a36.518 36.518 0 0 1 7.975-11.953 32.969 32.969 0 0 1 2.634-2.376c.667-.556 1.335-1.113 2.04-1.596v-34.522l-2.819 3.935-1.929-1.411-.816 1.114v-1.337h-15.987l-1.15 1.634-2.263-1.634h-8.79l19.251 70.53zm-19.882-70.53h-4.154l-1.15 1.634-2.263-1.634h-7.79v50.559l.854 3.118 14.503-53.677zm-18.324-5.902h11.128L122 188.35h-11.127l-26.967 37.826zm18.398 0h9.756l26.966-37.826h-9.756l-26.966 37.826zm16.989 0h12.648l26.966-37.826h-12.611l-27.003 37.826zm155.528-92.653v-2.747c-1.336-2.227-2.968-4.269-4.785-6.088a31.505 31.505 0 0 0-6.528-5.011 31.657 31.657 0 0 0-7.753-3.229 30.913 30.913 0 0 0-8.308-1.114c-2.857 0-5.638.371-8.346 1.114a31.998 31.998 0 0 0-7.715 3.229c-2.374 1.373-4.6 3.044-6.529 5.011a33.544 33.544 0 0 0-4.822 6.088v6.496a52.184 52.184 0 0 1 2.078-1.967 37.482 37.482 0 0 1 6.305-4.603 36.801 36.801 0 0 1 9.162-3.824 38.111 38.111 0 0 1 9.867-1.299c3.338 0 6.676.446 9.829 1.299 3.227.854 6.306 2.153 9.199 3.824a37.489 37.489 0 0 1 6.306 4.603 34.64 34.64 0 0 1 2.04 1.967v-3.749zm0-12.398l.037-66.743c-.037-9.726-4.748-15.071-10.201-21.307-3.301-3.787-6.862-7.833-9.977-13.253-2.968-5.16-5.453-11.47-6.9-19.822h-.704c-1.41 8.315-3.932 14.626-6.9 19.822-3.115 5.42-6.713 9.578-10.052 13.401l-.074.074c-5.452 6.236-10.126 11.656-10.015 21.122v66.706a34.902 34.902 0 0 1 2.078-2.005 39.541 39.541 0 0 1 6.305-4.566 36.836 36.836 0 0 1 9.162-3.823c3.19-.854 6.491-1.336 9.867-1.336 3.338 0 6.676.482 9.829 1.336 3.227.854 6.306 2.153 9.199 3.823a39.549 39.549 0 0 1 6.306 4.566 34.655 34.655 0 0 1 2.04 2.005zm22.329 24.24v-45.213a7.937 7.937 0 0 0-.63-3.119c-.408-1.002-1.002-1.93-1.781-2.672a8.225 8.225 0 0 0-2.67-1.782 7.79 7.79 0 0 0-3.116-.631 8.101 8.101 0 0 0-3.153.63 7.521 7.521 0 0 0-2.633 1.783c-.779.742-1.373 1.67-1.781 2.635a8.258 8.258 0 0 0-.63 3.156v42.391l.964-.111a23.522 23.522 0 0 1 3.19-.223c2.114 0 4.191.26 6.194.78 2.003.519 3.969 1.262 5.787 2.264l.259.112zm-83.049-45.213c0-1.114-.186-2.153-.594-3.119a8.224 8.224 0 0 0-1.78-2.672c-.779-.743-1.67-1.374-2.671-1.782a7.919 7.919 0 0 0-3.116-.631 8.105 8.105 0 0 0-3.153.63c-1.001.41-1.891 1.04-2.67 1.783a8.292 8.292 0 0 0-2.374 5.791v29.882l7.641 12.695c.593-.149 1.224-.223 1.817-.334a31.264 31.264 0 0 1 3.153-.186c1.002 0 2.003.075 3.005.186l.742.111v-42.354zm-91.581 58.836h48.22l-24.073-24.092-1.929 1.819-22.218 22.273zm18.026-26.43l3.71-3.749v-3.49h-7.901v11.211l4.191-3.972zm193.845 28.509a9.13 9.13 0 0 1 3.487.705 8.313 8.313 0 0 1 2.93 1.967c.816.817 1.521 1.819 1.966 2.933a9.112 9.112 0 0 1 .705 3.452c0 1.225-.26 2.413-.705 3.489a9.467 9.467 0 0 1-1.966 2.933c-.853.817-1.817 1.522-2.93 1.967a9.105 9.105 0 0 1-3.487.668 9.054 9.054 0 0 1-3.45-.668c-1.112-.445-2.114-1.15-2.93-1.967a9.06 9.06 0 0 1-1.966-2.933 9.154 9.154 0 0 1-.704-3.489c0-1.225.259-2.376.704-3.452a8.336 8.336 0 0 1 1.966-2.933 8.322 8.322 0 0 1 2.93-1.967 8.944 8.944 0 0 1 3.45-.705zm2.226 6.867a3.754 3.754 0 0 0-1.002-.705 3.255 3.255 0 0 0-1.224-.223c-.408 0-.816.074-1.187.223-.371.148-.705.408-1.001.705-.297.297-.557.631-.705 1.002-.148.371-.223.78-.223 1.188 0 .445.075.854.223 1.225.185.371.408.705.705 1.002.259.297.63.52 1.001.668.371.149.779.26 1.187.26.445 0 .853-.111 1.224-.26a2.96 2.96 0 0 0 1.002-.668 3.14 3.14 0 0 0 .927-2.227c0-.408-.111-.817-.26-1.188a2.972 2.972 0 0 0-.667-1.002zm-190.47-49.853c.149-.371.26-.78.371-1.225.074-.446.112-.891.112-1.336 0-2.265-2.745-5.16-5.342-7.907l-.519-.557h-1.558l-.148.148c-1.41 1.485-2.893 3.007-3.969 4.492-.965 1.336-1.632 2.636-1.632 3.824 0 .445.074.89.148 1.299.074.482.223.891.371 1.262.148.334.334.668.519.965l.223.334h10.683l.222-.334c.186-.297.371-.631.519-.965zm171.33-35.08v26.245l13.094-12.806V83.001h-13.094zm16.358-8.574c.259-.631.482-1.3.63-2.005.112-.705.186-1.41.186-2.153 0-1.781-.965-3.712-2.374-5.679-1.558-2.19-3.635-4.38-5.638-6.496l-.074-.074c-.891-.928-1.781-1.856-2.597-2.785l-2.262 2.302c-2.078 2.19-4.266 4.417-5.861 6.645-1.484 2.041-2.485 4.083-2.485 6.087 0 .743.074 1.448.222 2.116.112.706.334 1.374.594 2.042.259.557.556 1.114.89 1.67.223.334.482.669.705.966h16.469a9.21 9.21 0 0 0 .704-.966 9.167 9.167 0 0 0 .891-1.67zM163.469 226.25h1.633v-16.073a.702.702 0 0 0-.075-.297c-.037-.074-.074-.185-.148-.26-.111-.074-.185-.148-.297-.185-.074-.037-.185-.037-.296-.037-.112 0-.223 0-.297.037a.667.667 0 0 0-.26.185c-.074.075-.148.149-.185.26a.702.702 0 0 0-.075.297v16.073zm72.553-169.01c.89 0 1.781.186 2.56.52.816.334 1.557.854 2.188 1.448v.037a6.213 6.213 0 0 1 1.484 2.153c.333.816.519 1.67.519 2.598v36.527h-13.502V63.996c0-.928.186-1.782.52-2.561.371-.854.853-1.596 1.483-2.227a6.447 6.447 0 0 1 2.189-1.448 6.568 6.568 0 0 1 2.559-.52zm.557 6.162a.792.792 0 0 0-.223-.148 1.084 1.084 0 0 0-.334-.075.704.704 0 0 0-.297.075.596.596 0 0 0-.259.148.847.847 0 0 0-.186.26 1.088 1.088 0 0 0-.074.334v30.587h1.632V63.996c0-.111-.037-.223-.074-.334a1.128 1.128 0 0 0-.185-.26zm22.181-6.162c.89 0 1.78.186 2.559.52a6.447 6.447 0 0 1 2.189 1.448c.63.63 1.112 1.373 1.483 2.227.334.78.52 1.633.52 2.561v36.527h-13.502V63.996c0-.928.185-1.782.519-2.561.371-.854.853-1.596 1.484-2.227a6.433 6.433 0 0 1 2.188-1.448 6.573 6.573 0 0 1 2.56-.52zm.556 6.162a.596.596 0 0 0-.259-.148.704.704 0 0 0-.297-.075.696.696 0 0 0-.297.075.606.606 0 0 0-.26.148.808.808 0 0 0-.185.297.7.7 0 0 0-.074.297v30.587h1.632V63.996a.7.7 0 0 0-.074-.297c-.037-.111-.075-.223-.186-.297zm14.207 81.554c-1.15-1.596-2.411-3.081-3.821-4.417a31.78 31.78 0 0 0-6.194-4.714 31.66 31.66 0 0 0-7.753-3.23 32.487 32.487 0 0 0-8.308-1.076c-2.857 0-5.638.371-8.346 1.076a32.001 32.001 0 0 0-7.715 3.23 32.705 32.705 0 0 0-6.195 4.677 31.925 31.925 0 0 0-3.709 4.306l.89.445a26.914 26.914 0 0 1 4.377 3.007 25.215 25.215 0 0 1 2.263 2.19 20.989 20.989 0 0 1 2.262-2.19 25.44 25.44 0 0 1 4.377-3.007c1.818-1.002 3.784-1.745 5.787-2.264a24.62 24.62 0 0 1 6.194-.78c2.114 0 4.192.26 6.194.78 2.003.519 3.969 1.262 5.787 2.264a27.263 27.263 0 0 1 4.414 3.007 24.69 24.69 0 0 1 2.225 2.19c.742-.779 1.484-1.522 2.263-2.19a27.219 27.219 0 0 1 4.414-3.007l.594-.297zm32.567 8.798l.89 1.336-.89.594v10.951l28.301-28.323 27.374 27.358v-33.743H306.09v21.827zm4.191-27.766h48.22l-24.11-24.129-24.11 24.129z" clip-rule="evenodd" mask="url(#a)"/></svg>