<svg xmlns="http://www.w3.org/2000/svg" width="249" height="20" fill="none" viewBox="0 0 249 20"><path fill="#2F70B6" d="M247.817 8.17l.016-.025 1.167.782-.026.039c-2.612 3.925-5.464 8.21-10.45 10.202l-.062.025a11.6 11.6 0 0 1-8.825-.149 11.564 11.564 0 0 1-6.181-6.343l-.013-.062a9.343 9.343 0 0 1-.571-4.692l-.608.918-.037.038-.012.024c-2.607 3.935-5.462 8.243-10.464 10.241l-.062.025a11.935 11.935 0 0 1-3.525.782h-.149l-.136.013h-.149l-.137.012h-.285l-.137-.012h-.273l-.137-.013a11.7 11.7 0 0 1-3.909-.93 11.544 11.544 0 0 1-6.169-6.344l-.025-.062a9.478 9.478 0 0 1-.571-4.692l-.645.98-.026.039c-2.612 3.924-5.464 8.21-10.45 10.202l-.062.025a11.6 11.6 0 0 1-8.825-.149 11.503 11.503 0 0 1-6.169-6.343l-.025-.062a9.345 9.345 0 0 1-.496-5.151c-.323.471-.634.943-.956 1.44l-.026.038c-2.612 3.924-5.464 8.21-10.45 10.202l-.062.025a11.6 11.6 0 0 1-8.825-.149 11.564 11.564 0 0 1-6.181-6.343l-.013-.062a9.343 9.343 0 0 1-.571-4.692l-.658.98c-2.606 3.935-5.461 8.243-10.475 10.241l-.05.025a11.6 11.6 0 0 1-8.825-.149 11.564 11.564 0 0 1-6.181-6.343l-.025-.062a9.423 9.423 0 0 1-.584-4.53l-.546.818c-2.606 3.935-5.461 8.243-10.476 10.241l-.062.025a11.585 11.585 0 0 1-14.993-6.492l-.025-.062a9.48 9.48 0 0 1-.571-4.692l-.646.98-.042.065c-2.608 3.917-5.459 8.201-10.446 10.176l-.025.013a11.55 11.55 0 0 1-8.85-.137 11.573 11.573 0 0 1-6.18-6.368v-.012a9.33 9.33 0 0 1-.51-5.176c-.322.471-.633.943-.956 1.44l-.025.038c-2.612 3.924-5.465 8.21-10.45 10.202l-.063.025a11.6 11.6 0 0 1-8.825-.149 11.565 11.565 0 0 1-6.18-6.343l-.013-.062a9.342 9.342 0 0 1-.571-4.692l-.608.918-.025.025-.025.037c-2.606 3.935-5.461 8.243-10.476 10.241l-.05.025a11.88 11.88 0 0 1-3.81.795h-.149l-.136.012h-.287l-.136-.012h-.137a11.481 11.481 0 0 1-4.183-.944 11.505 11.505 0 0 1-6.169-6.343l-.025-.062a9.34 9.34 0 0 1-.57-4.692l-.658.98C5.549 12.043 3.326 15.395 0 17.642v-1.726c2.669-2.079 4.594-4.974 6.404-7.695l.05-.076C9.185 4.012 11.667.288 16.1.002a.723.723 0 0 1 .36.075h.161a8.506 8.506 0 0 1 3.152.645c1.9.782 3.377 2.198 3.886 3.712a5.687 5.687 0 0 1-.336 4.37 4.85 4.85 0 0 1-1.502 1.8c-.608.434-1.315.707-2.06.732h-.237c-.993-.025-2.035-.46-3.016-1.453a.704.704 0 0 1 0-.993.676.676 0 0 1 .484-.198h.025c.174 0 .348.062.484.198.72.72 1.415 1.03 2.06 1.055h.149a2.44 2.44 0 0 0 1.279-.471c.447-.31.807-.758 1.08-1.291.484-.956.645-2.173.248-3.302-.385-1.142-1.552-2.235-3.09-2.868a7.166 7.166 0 0 0-2.433-.533h-.447a6.602 6.602 0 0 0-1.738.285c-2.036.82-3.55 2.396-4.369 4.27a7.964 7.964 0 0 0-.1 6.095l.013.037a10.174 10.174 0 0 0 5.437 5.586 9.847 9.847 0 0 0 3.674.832l.124.012h.496a10.386 10.386 0 0 0 3.463-.707l.037-.013c4.605-1.837 7.336-5.946 9.83-9.72h.013v-.012C35.97 4.012 38.453.288 42.872.002a.743.743 0 0 1 .372.075 8.555 8.555 0 0 1 3.301.645c1.9.782 3.377 2.198 3.886 3.712a5.686 5.686 0 0 1-.323 4.37 5.001 5.001 0 0 1-1.514 1.8 3.68 3.68 0 0 1-2.197.732c-1.018 0-2.086-.435-3.103-1.453a.704.704 0 0 1 0-.993.704.704 0 0 1 .992 0c.733.733 1.453 1.043 2.11 1.055.497 0 .969-.173 1.378-.471.435-.31.807-.758 1.08-1.291.484-.956.633-2.173.248-3.302-.384-1.142-1.551-2.235-3.09-2.868-1.365-.558-3.004-.744-4.63-.248a7.988 7.988 0 0 0-4.357 4.27 8.02 8.02 0 0 0-.111 6.095l.024.037a10.133 10.133 0 0 0 5.437 5.586 10.162 10.162 0 0 0 7.758.137l.037-.013c4.595-1.833 7.323-5.94 9.826-9.707l.017-.025.002-.003C62.757 4.01 65.227.288 69.657.002a.638.638 0 0 1 .372.087 8.486 8.486 0 0 1 3.525.633c1.9.782 3.376 2.198 3.885 3.712.522 1.514.323 3.103-.322 4.37a5.001 5.001 0 0 1-1.515 1.8 3.68 3.68 0 0 1-2.197.732c-1.017 0-2.085-.435-3.103-1.453a.704.704 0 0 1 0-.993.704.704 0 0 1 .993 0c.733.733 1.453 1.043 2.11 1.055.497 0 .969-.173 1.378-.471.447-.31.807-.758 1.08-1.291.484-.956.645-2.173.248-3.302-.385-1.142-1.551-2.235-3.09-2.868-1.366-.558-3.004-.744-4.63-.248a7.988 7.988 0 0 0-4.357 4.27 7.945 7.945 0 0 0-.087 6.132 10.133 10.133 0 0 0 5.437 5.586 10.144 10.144 0 0 0 7.795.124c4.605-1.837 7.348-5.958 9.843-9.732l.002-.003C89.766 4.01 92.236.288 96.666.002a.743.743 0 0 1 .372.075 8.557 8.557 0 0 1 3.302.645c1.886.782 3.363 2.198 3.872 3.712.522 1.514.323 3.103-.322 4.37a5.006 5.006 0 0 1-1.515 1.8 3.652 3.652 0 0 1-2.197.732c-1.005 0-2.085-.435-3.103-1.453a.704.704 0 0 1 0-.993.704.704 0 0 1 .993 0c.733.733 1.465 1.043 2.123 1.055a2.34 2.34 0 0 0 1.378-.471c.434-.31.806-.758 1.079-1.291.484-.956.633-2.173.249-3.302-.385-1.142-1.564-2.235-3.091-2.868-1.378-.558-3.016-.744-4.63-.248a8.011 8.011 0 0 0-4.369 4.27 7.965 7.965 0 0 0-.1 6.095l.013.037a10.174 10.174 0 0 0 5.437 5.586 10.162 10.162 0 0 0 7.757.137l.05-.013c4.605-1.837 7.336-5.958 9.831-9.732l.002-.003c2.742-4.132 5.212-7.854 9.642-8.14a.744.744 0 0 1 .372.075c1.142 0 2.234.248 3.215.645 1.899.782 3.376 2.198 3.885 3.712a5.689 5.689 0 0 1-.335 4.37 4.858 4.858 0 0 1-1.502 1.8 3.718 3.718 0 0 1-2.209.732c-1.006 0-2.086-.435-3.104-1.453a.704.704 0 0 1 0-.993.704.704 0 0 1 .993 0c.733.733 1.465 1.043 2.123 1.055a2.34 2.34 0 0 0 1.378-.471c.434-.31.806-.758 1.08-1.291.484-.956.633-2.173.248-3.302-.385-1.142-1.564-2.235-3.091-2.868-1.365-.558-3.016-.744-4.63-.248-2.035.82-3.549 2.396-4.369 4.27a7.967 7.967 0 0 0-.099 6.095l.012.037a10.174 10.174 0 0 0 5.437 5.586 10.193 10.193 0 0 0 7.77.137l.037-.013c4.605-1.837 7.336-5.958 9.831-9.732 2.743-4.133 5.225-7.857 9.644-8.143a.741.741 0 0 1 .372.075 8.558 8.558 0 0 1 3.302.645c1.899.782 3.376 2.198 3.885 3.712.509 1.514.31 3.103-.323 4.37a5.004 5.004 0 0 1-1.514 1.8 3.68 3.68 0 0 1-2.197.732c-1.018 0-2.085-.435-3.103-1.453a.704.704 0 0 1 0-.993.704.704 0 0 1 .993 0c.732.733 1.452 1.043 2.11 1.055a2.34 2.34 0 0 0 1.378-.471c.434-.31.806-.758 1.08-1.291.484-.956.633-2.173.248-3.302-.385-1.142-1.552-2.235-3.091-2.868-1.365-.558-3.004-.744-4.63-.248a7.99 7.99 0 0 0-4.356 4.27 8.021 8.021 0 0 0-.112 6.095l.025.037a10.134 10.134 0 0 0 5.436 5.586 10.163 10.163 0 0 0 7.758.137l.037-.013c4.595-1.833 7.324-5.94 9.826-9.707l.017-.025.002-.003c2.743-4.132 5.212-7.854 9.642-8.14a.64.64 0 0 1 .373.087 8.489 8.489 0 0 1 3.525.633c1.899.782 3.376 2.198 3.885 3.712.521 1.514.322 3.103-.323 4.37a5.004 5.004 0 0 1-1.514 1.8 3.68 3.68 0 0 1-2.197.732c-1.018 0-2.085-.435-3.103-1.453a.704.704 0 0 1 0-.993.704.704 0 0 1 .993 0c.732.733 1.452 1.043 2.11 1.055.496 0 .968-.173 1.377-.471.447-.31.807-.758 1.08-1.291.484-.956.646-2.173.249-3.302-.385-1.142-1.552-2.235-3.091-2.868-1.365-.558-3.004-.744-4.63-.248a7.986 7.986 0 0 0-4.356 4.27 8.017 8.017 0 0 0-.112 6.095l.025.037a10.134 10.134 0 0 0 5.436 5.586 10.163 10.163 0 0 0 7.758.137l.037-.013c4.605-1.837 7.348-5.958 9.843-9.732l.002-.003c2.742-4.132 5.212-7.854 9.642-8.14a.74.74 0 0 1 .372.075h.211a8.746 8.746 0 0 1 3.091.645c1.899.782 3.376 2.198 3.885 3.712a5.689 5.689 0 0 1-.335 4.37 4.849 4.849 0 0 1-1.502 1.8 3.837 3.837 0 0 1-1.986.732h-.409c-.956-.062-1.962-.497-2.917-1.453a.704.704 0 0 1 0-.993.672.672 0 0 1 .459-.198h.087a.703.703 0 0 1 .447.198c.707.708 1.402 1.018 2.023 1.043l.037.012h.149l.025-.012c.447-.012.881-.186 1.266-.46.434-.31.807-.757 1.08-1.29.484-.956.633-2.173.248-3.302-.385-1.142-1.564-2.235-3.091-2.868a7.374 7.374 0 0 0-2.296-.521l-.074-.012h-.596l-.075.012a6.553 6.553 0 0 0-1.588.273 7.988 7.988 0 0 0-4.357 4.27 7.966 7.966 0 0 0-.112 6.095l.013.037a10.172 10.172 0 0 0 5.436 5.586 9.895 9.895 0 0 0 3.438.82l.112.012h.137l.111.012h.497l.124-.012h.124a10.19 10.19 0 0 0 3.215-.695l.049-.013c4.593-1.837 7.336-5.946 9.831-9.72v-.012c2.743-4.133 5.225-7.857 9.644-8.143a.74.74 0 0 1 .372.075 8.507 8.507 0 0 1 3.302.645c1.899.782 3.376 2.198 3.885 3.712.521 1.514.323 3.103-.323 4.37a4.994 4.994 0 0 1-1.514 1.8 3.678 3.678 0 0 1-2.197.732c-1.018 0-2.085-.435-3.103-1.453a.704.704 0 0 1 0-.993.704.704 0 0 1 .993 0c.732.733 1.452 1.043 2.11 1.055.497 0 .968-.173 1.378-.471.434-.31.807-.758 1.08-1.291.484-.956.633-2.173.248-3.302-.385-1.142-1.552-2.235-3.091-2.868-1.365-.558-3.003-.744-4.629-.248a7.988 7.988 0 0 0-4.357 4.27 8.021 8.021 0 0 0-.112 6.095l.025.037a10.132 10.132 0 0 0 5.437 5.586 10.16 10.16 0 0 0 7.757.137l.037-.013c4.595-1.833 7.324-5.94 9.827-9.707z"/></svg>