<svg xmlns="http://www.w3.org/2000/svg" width="40" height="40" fill="none" viewBox="0 0 40 40"><path fill="#010107" d="M27.861 6.665a4.59 4.59 0 0 1 4.278 2.919l.043.113 2.484 7.45a2.895 2.895 0 0 1 1.5 1.12c.282.41.46.899.495 1.426l.005.105v8.704a2.863 2.863 0 0 1-1.402 2.452l-.089.05-.392.215.11.433c.02.08.034.124.041.156l.004.015.005 3.578a1.15 1.15 0 0 1-1.02 1.142l-.064.005-1.79.002a1.15 1.15 0 0 1-1.142-1.02l-.005-.064-.003-4.088H9.081V35.4a1.15 1.15 0 0 1-1.02 1.142l-.064.005-1.79.002a1.15 1.15 0 0 1-1.142-1.02l-.006-.064-.001-3.62.126-.468-.338-.23c-.827-.564-1.44-1.433-1.507-2.459l-.004-.096-.002-8.709a2.879 2.879 0 0 1 1.802-2.665l.096-.037L7.779 9.81A4.589 4.589 0 0 1 11.9 6.67l.12-.005 15.84-.001zm6.507 12.644H5.632v9.77h28.74l-.004-9.77zm-23.85 2.873c.555 0 1.058.225 1.422.59.364.363.589.866.589 1.422 0 .555-.225 1.058-.59 1.422-.363.364-.866.59-1.422.59a2.005 2.005 0 0 1-1.422-.59 2.005 2.005 0 0 1-.59-1.422c0-.556.226-1.059.59-1.423a2.005 2.005 0 0 1 1.422-.589zm18.965 0c.555 0 1.058.225 1.422.59a2.006 2.006 0 0 1 0 2.844c-.364.364-.867.59-1.422.59a2.005 2.005 0 0 1-1.422-.59 2.005 2.005 0 0 1-.59-1.422c0-.556.226-1.059.59-1.423a2.002 2.002 0 0 1 1.422-.589zM27.859 8.964h-15.72l-.096.002a2.3 2.3 0 0 0-1.248.432c-.357.258-.638.61-.833 1.127l-2.16 6.485h24.397l-2.159-6.474-.03-.087a2.29 2.29 0 0 0-2.151-1.485z"/></svg>