<svg xmlns="http://www.w3.org/2000/svg" width="40" height="40" fill="none" viewBox="0 0 40 40"><path fill="#010107" d="M25.048 0c2.05 0 4.035.717 5.612 2.028a8.801 8.801 0 0 1 2.995 4.99l.031.159 2.826 15.086a8.752 8.752 0 0 1-3.567 8.798l-.137.094 3.142 3.15a1.258 1.258 0 0 1-.895 2.127 1.253 1.253 0 0 1-.823-.3l-.056-.05-3.777-3.78a8.788 8.788 0 0 1-2.329.378l-.196.003h-15.75a8.79 8.79 0 0 1-2.334-.328l-.19-.056-3.787 3.792a1.254 1.254 0 0 1-2.058-1.366c.055-.13.131-.248.226-.351l.058-.06 3.155-3.159a8.742 8.742 0 0 1-3.736-8.726l.03-.167L6.313 7.177A8.8 8.8 0 0 1 9.34 2.028 8.783 8.783 0 0 1 14.79.002L14.95 0h10.1zm7.454 14.476a18.112 18.112 0 0 1-25.004 0l-1.545 8.25-.028.16a6.292 6.292 0 0 0 3.53 6.687 6.272 6.272 0 0 0 2.67.597h15.75l.163-.002a6.257 6.257 0 0 0 4.666-2.27 6.272 6.272 0 0 0 1.34-5.173l-1.542-8.249zm-19.673 7.639c.344.066.662.229.915.47a2.2 2.2 0 0 1 .388.613 1.797 1.797 0 0 1-.807 2.3 1.827 1.827 0 0 1-2.374-.593 1.792 1.792 0 0 1-.155-1.701 1.544 1.544 0 0 1 .944-.965 1.881 1.881 0 0 1 1.089-.124zm14.706-.034c.475 0 .933.176 1.288.493.158.182.286.39.379.613.144.34.183.706.115 1.06a1.808 1.808 0 0 1-.476.92 2.25 2.25 0 0 1-.623.395 1.64 1.64 0 0 1-1.35.007 2.239 2.239 0 0 1-.64-.402 1.82 1.82 0 0 1-.364-1.972 2.25 2.25 0 0 1 .383-.621 1.933 1.933 0 0 1 1.288-.493zM25.052 2.513h-10.1l-.142.002A6.29 6.29 0 0 0 8.777 7.64l-.706 3.786.147.171a15.614 15.614 0 0 0 11.784 5.376 15.6 15.6 0 0 0 11.93-5.547l-.709-3.785-.028-.14a6.28 6.28 0 0 0-6.143-4.988z"/></svg>