<svg xmlns="http://www.w3.org/2000/svg" width="167" height="31" fill="none" viewBox="0 0 167 31"><path fill="#004585" fill-rule="evenodd" d="M120.608 5.45c-.206.133-.577.445-1.113.934-.124.111-.278.312-.464.6-.206.335-.361.557-.464.668-2.267 2.36-3.328 3.45-3.184 3.272-.206.267-.546.823-1.02 1.668l-1.175 2.037c-.083.155-.392.523-.928 1.101-.433.49-.649.801-.649.935 0 .645.567 1.58 1.701 2.804 1.236.979 2.442 2.358 3.617 4.139l2.69 4.005c-.413 0-1.103.045-2.072.134l-1.484.133c-.598 0-1.309-.5-2.133-1.502a27.65 27.65 0 0 1-1.051-1.368 22.566 22.566 0 0 0-1.082-1.436l-3.154-4.005c-1.319 1.424-1.958 2.314-1.917 2.67.186 1.38.124 3.293-.185 5.741h-3.092c-.247-.155-.33-.656-.247-1.502.144-1.446.216-2.091.216-1.936 0-.089-.062-.445-.186-1.068-.144-.623-.216-1.001-.216-1.135 0-.245.052-.912.155-2.002.082-1.002.113-1.78.092-2.337-.02-.423.031-1.157.155-2.203v-3.939c-.268-1.469-.402-2.737-.402-3.805 0-1.402.216-2.437.649-3.104l1.979.167c.804.089 1.35.322 1.639.7-.042.957-.145 2.46-.31 4.507l-.216 2.904c0 .957.093 1.836.278 2.637.639-.69 2.02-2.36 4.143-5.007 2.041-2.537 3.576-4.35 4.607-5.44.412-.402 1.082-.602 2.01-.602 1.896 0 2.834.011 2.813.034v.6z" clip-rule="evenodd"/><path fill="#F8A600" fill-rule="evenodd" d="M128.094 23.074a28.926 28.926 0 0 1-.216 4.806c-.392.09-.886.134-1.484.134-.866 0-1.525-.19-1.979-.568-.041-.289-.041-.734-.031-1.335.01-.623.004-1.059-.031-1.302l-.216-1.502c-.087-.604-.164-.946-.155-1.034l.371-3.539c.021-.2-.004-.533-.062-1.001-.065-.533-.089-.88-.092-1.035-.017-.712.032-1.656.123-2.837l.217-2.804c.053-.689.033-1.625-.031-2.804-.08-1.468-.124-2.436-.124-2.904 0-.2.083-.356.248-.467.577.09 1.628.09 3.153 0-.02.067-.031.512-.031 1.335 0 .134-.028.513-.092 1.135-.059.557-.076.968-.062 1.235.006.133.031.356.092.668.062.311.093.512.093.6v3.94l.309 9.279z" clip-rule="evenodd"/><path fill="#3DA627" fill-rule="evenodd" d="M144.758 14.762c.178-1.253-.147-2.101-.433-2.503-.744-1.044-1.905-1.876-3.494-2.47-.492-.184-1.196-.402-2.102-.668-.989-.29-1.68-.5-2.072-.634-.288 1.068-.433 1.825-.433 2.27 0 5.14.134 9.524.402 13.151 2.659-.2 4.701-1.012 6.122-2.437 1.175-1.178 1.762-2.748 1.762-4.706 0-.223.048-.6.124-1.135l.124-.868zm3.648 2.604c0 2.492-.36 4.363-1.082 5.608-1.008 1.736-2.961 3.015-5.844 3.871-1.981.59-3.071.902-3.277.902h-5.627v-1.202c0 .178.114-.522.309-2.103.196-1.578.42-3.4.279-5.44l-.681-9.78c-.06-.866.176-2.293.526-4.273.103-.156.237-.234.402-.234.227 0 1.896.24 5.009.701 3.482.517 6.081 1.936 7.791 4.273 1.464 2.001 2.195 4.561 2.195 7.677z" clip-rule="evenodd"/><path fill="#00A2BF" fill-rule="evenodd" d="M166.217 20.484c0 1.357-.343 2.797-1.051 4.306-.795 1.695-1.762 2.762-2.875 3.204-.06.024-.495.034-1.298.034-4.411 0-7.189-1.448-8.255-4.373-.54-1.48-.773-2.214-.773-2.17 0-.178.086-.451.216-.834.157-.462.299-.701.464-.701.927 0 1.989.5 3.184 1.502-.103 1.001.195 1.745.866 2.27.523.409 1.164.634 1.948.634.701 0 1.428-.306 2.164-.935.746-.638 1.113-1.29 1.113-1.936 0-1.602-.771-2.649-2.319-3.104-2.758-.812-4.132-1.19-4.112-1.168-.062-.045-.227-.08-.495-.1-.308-.023-.518-.036-.618-.067-.826-.257-1.435-1.172-1.855-2.704-.299-1.092-.464-2.136-.464-3.138 0-2.203 1.029-3.888 3.092-5.04a9.809 9.809 0 0 1 4.854-1.268c.99 0 2.211.774 3.648 2.336 1.448 1.574 2.165 2.904 2.165 3.972 0 .268-.067.544-.186.835-.127.309-.268.467-.433.467-.309 0-1.049-.197-2.226-.567-.162-.051-.653-.641-1.484-1.77-.528-.717-1.278-1.067-2.226-1.067-.804 0-1.467.407-2.009 1.201-.446.651-.681 1.313-.681 2.003 0 1.024.64 1.757 1.917 2.203.247.086.754.221 1.515.4.556.131.919.256 1.082.368.062.042.217.08.464.1.308.024.521.024.618.067l1.546.667c1.049.453 1.797 1.295 2.257 2.537.157.425.247 1.035.247 1.836z" clip-rule="evenodd"/><path fill="#050109" fill-rule="evenodd" d="M16.948 4.635v4.506h-5.407v18.11H6.293V9.142H.853V4.597h16.095v.038zm7.32 0v22.617h-5.182V4.597h5.182v.038zm13.927 22.59l-5.258-18.18v18.207h-4.363V4.597h8.035l3.783 13.425 4-13.425h8.045v22.655h-5.215V9.038l-5.424 18.214h-3.596l-.007-.027zM72.389 8.972H62.035v4.562h8.16v4.307h-8.16v4.867h10.39v4.544h-15.67V4.597h15.67v4.375h-.036z" clip-rule="evenodd"/><path fill="#E30016" fill-rule="evenodd" d="M97.245 4.428h-4.127c1.075 1.702 1.677 3.837 1.74 6.366 0 6.473-2.821 9.09-6.348 10.423l5.164 6.607h3.571V4.428zM78.458 27.824h5.62l-4.252-5.75h-1.368v5.75zm0-20.028v7.567h4.718c2.557 0 3.747-1.713 3.747-3.902 0-2.332-1.366-3.665-3.747-3.665h-4.718z" clip-rule="evenodd"/><path fill="#F8A600" fill-rule="evenodd" d="M130.242 0c.614 0 1.111.371 1.111 1.18 0 .807-.366 1.391-.98 1.391s-1.243-.371-1.243-1.18c0-.807.498-1.391 1.112-1.391z" clip-rule="evenodd"/><path fill="#31B7A6" fill-rule="evenodd" d="M151.4 27.959c.704.214 1.164.813.923 1.74-.241.926-.836 1.468-1.54 1.255-.704-.214-1.315-.859-1.074-1.786.242-.926.987-1.423 1.691-1.21z" clip-rule="evenodd"/><path fill="#004585" fill-rule="evenodd" d="M118.514 20.315c.503-.443 1.14-.498 1.64.163s.561 1.403.059 1.846c-.503.443-1.247.593-1.747-.068s-.454-1.498.048-1.941z" clip-rule="evenodd"/><path fill="#0EA42B" fill-rule="evenodd" d="M148.522 26.146c.302.092.5.35.396.747-.103.398-.359.631-.661.54-.303-.092-.565-.37-.461-.767.103-.398.423-.612.726-.52z" clip-rule="evenodd"/></svg>