<svg xmlns="http://www.w3.org/2000/svg" width="24" height="24" fill="none" viewBox="0 0 24 24"><path fill="#fff" d="M8.368 12.986a1.154 1.154 0 1 0 0-2.31 1.154 1.154 0 0 0 0 2.31zm1.154 2.309a1.155 1.155 0 1 1-2.309 0 1.155 1.155 0 0 1 2.31 0zm2.31-2.31a1.155 1.155 0 1 0 0-2.308 1.155 1.155 0 0 0 0 2.309zm1.154 2.31a1.155 1.155 0 1 1-2.31 0 1.155 1.155 0 0 1 2.31 0zm2.309-2.31a1.155 1.155 0 1 0 0-2.308 1.155 1.155 0 0 0 0 2.309zm4.618-6.349a2.886 2.886 0 0 0-2.887-2.886H6.636A2.886 2.886 0 0 0 3.75 6.636v10.39a2.886 2.886 0 0 0 2.886 2.887h10.39a2.887 2.887 0 0 0 2.887-2.887V6.636zM4.904 8.368h13.854v8.658a1.731 1.731 0 0 1-1.732 1.732H6.636a1.731 1.731 0 0 1-1.732-1.732V8.368zm1.732-3.464h10.39a1.732 1.732 0 0 1 1.732 1.732v.577H4.904v-.577a1.732 1.732 0 0 1 1.732-1.732z"/></svg>