<svg xmlns="http://www.w3.org/2000/svg" width="47" height="53" fill="none" viewBox="0 0 47 53"><path fill="#2F70B6" d="M29.29 7.434c.58.12 1.122.446 1.508.953l.896 1.169c1.525 1.987 3.102 4.042 4.502 6.189.976 1.498 1.752 2.855 2.371 4.148 1.639 3.42 2.347 6.454 2.174 9.273a32.88 32.88 0 0 1-.15 1.594l-.021.2-.008.067-.015.136-.015.136-.015.136-.015.136-.015.136-.02.207-.02.206-.013.137c-.14 1.583-.135 3.137.612 4.404l.034.056.033.053.033.05 5.024 7.424c.284.42.383.924.28 1.42a1.842 1.842 0 0 1-.712 1.115l-.036.026-8.875 5.642a1.856 1.856 0 0 1-2.646-.712l-.02-.038-1.395-3.208a15.735 15.735 0 0 0-.394-.838.97.97 0 0 1 .43-1.307.969.969 0 0 1 1.305.43c.11.216.21.426.306.633l.047.103.046.103.044.102 1.312 3.02 8.634-5.465-4.966-7.367c-1.18-1.8-1.202-3.905-1.025-5.895l.006-.067.013-.134.014-.142c.03-.31.065-.615.098-.915.067-.602.13-1.163.163-1.703.153-2.492-.5-5.21-1.986-8.314-.583-1.218-1.318-2.502-2.247-3.926-1.36-2.087-2.91-4.106-4.41-6.06l-.904-1.18a.608.608 0 0 0-.346-.224.51.51 0 0 0-.373.05.533.533 0 0 0-.241.63l.19.557c.238.698.642 1.877 1.066 3.132l.025.074.024.07.041.123.031.092.031.093.076.223.018.056.02.056.075.224.062.185.062.185.061.184.116.348a89.43 89.43 0 0 1 .868 2.706 13.6 13.6 0 0 1 .358 1.605 2.94 2.94 0 0 1 3.424.21c.51.415.883 1 1.022 1.678.451 2.187.74 6.061-.454 12.098a.964.964 0 0 1-.015.063c-.223.835-.453 2.45-.069 3.218a.97.97 0 0 1-.435 1.304.969.969 0 0 1-1.304-.434c-.364-.728-.488-1.737-.354-3.003a11.6 11.6 0 0 1 .277-1.562c1.18-5.982.79-9.642.45-11.292a.998.998 0 0 0-1.592-.573.994.994 0 0 0-.35.552s-.24 1.011-.518 2.139l-.01.042-.031.126-.021.084-.057.23-.032.128-.032.127-.025.102c-.247.99-.485 1.902-.576 2.146a20.18 20.18 0 0 0-1.279 7.202c.026 2.572.594 4.996 1.644 7.01.383.734.82 1.458 1.197 2.078a.97.97 0 0 1-.324 1.337.97.97 0 0 1-1.336-.325 38.228 38.228 0 0 1-1.26-2.19c-1.553-2.975-2.146-6.597-1.76-10.3.434-6.563-1.843-14.023-3.08-18.077-.229-.752-.418-1.374-.553-1.864a2.395 2.395 0 0 1 .156-1.685 2.397 2.397 0 0 1 2.3-1.35 2.473 2.473 0 0 1 2.872-1.721zm-2.81 3.71a.456.456 0 0 0-.643.53c.13.472.32 1.09.539 1.81.866 2.842 2.227 7.31 2.866 12.047.574-2.16.564-4.53-.052-6.66-.477-1.651-1.06-3.325-1.629-4.956l-.44-1.272-.024-.071-.027-.077-.02-.06-.041-.12-.022-.062-.02-.061c-.112-.326-.218-.636-.295-.869a.457.457 0 0 0-.192-.18zm-7.541-3.43c.568.332.96.853 1.133 1.442a2.4 2.4 0 0 1 .91.123l.056.02.053.02.05.02c.555.233.982.656 1.23 1.166.247.51.316 1.106.156 1.685-.136.496-.33 1.129-.553 1.861-1.237 4.059-3.516 11.524-3.079 18.089.384 3.698-.209 7.318-1.76 10.29-.46.88-.979 1.73-1.481 2.552-.638 1.043-1.24 2.028-1.734 3.074l-.07.15-.065.144-.062.14-1.359 3.129a1.856 1.856 0 0 1-2.573.903l-.045-.025-8.884-5.642a1.844 1.844 0 0 1-.822-1.19c-.094-.452-.02-.91.208-1.305l.023-.04 5.074-7.5c.885-1.356.857-3.065.69-4.79l-.013-.133a45.915 45.915 0 0 0-.028-.266l-.021-.199-.007-.066-.008-.066-.007-.067-.015-.134-.015-.134a36.652 36.652 0 0 1-.172-1.8c-.173-2.818.536-5.852 2.174-9.272a33.748 33.748 0 0 1 1.79-3.236.969.969 0 0 1 1.34-.313.97.97 0 0 1 .312 1.339 31.846 31.846 0 0 0-1.688 3.05c-1.487 3.103-2.14 5.822-1.987 8.314.033.537.096 1.096.162 1.688l.057.513.027.258.014.142.013.135c.194 2.013.22 4.152-.915 5.982l-.039.062-.042.066-4.978 7.355 8.616 5.494 1.335-3.027c.576-1.328 1.325-2.554 2.05-3.74.487-.797.989-1.617 1.42-2.444 1.051-2.014 1.619-4.438 1.645-7.01a20.185 20.185 0 0 0-1.279-7.203c-.401-1.072-.661-2.173-.901-3.281l-.031-.145-.031-.144-.067-.312c-.088-.415-.177-.831-.273-1.245a.987.987 0 0 0-.968-.762.998.998 0 0 0-.973.787c-.139.674-.223 1.36-.276 2.045a26.288 26.288 0 0 0-.037 3.228c.069 1.493.24 2.98.48 4.455.048.287.097.572.15.857l.031.173.033.172.034.172.062.31c.167.842.323 1.68.301 2.553-.016.644-.114 1.31-.405 1.891a.968.968 0 0 1-.87.538.968.968 0 0 1-.922-.665.97.97 0 0 1 .053-.742c.264-.528.223-1.198.174-1.767-.067-.78-.225-1.559-.383-2.337-.112-.553-.222-1.1-.302-1.646a42.25 42.25 0 0 1-.277-2.326 31.935 31.935 0 0 1-.13-3.828c.035-1.16.15-2.364.38-3.475a2.923 2.923 0 0 1 1.022-1.679 2.94 2.94 0 0 1 3.424-.21c.255-1.572.757-3.11 1.295-4.63l.052-.146.05-.142.097-.27.105-.291c.141-.395.283-.789.42-1.181.376-1.08.753-2.161 1.105-3.251a.536.536 0 0 0-.24-.632.51.51 0 0 0-.374-.05.609.609 0 0 0-.346.224l-.898 1.172c-.998 1.3-2.028 2.643-2.993 3.991a.97.97 0 0 1-1.356.226.969.969 0 0 1-.226-1.357c.983-1.373 2.024-2.73 3.032-4.043l.895-1.169a2.548 2.548 0 0 1 1.507-.952c.582-.121 1.2-.036 1.74.28zm1.45 3.418a.451.451 0 0 0-.57.191l-.2.588-.02.06-.024.071-.018.053-.018.053-.024.072-.019.053-.018.054-.037.107-.036.105-.011.034c-.197.573-.372 1.074-.38 1.096-.015.045-.39 1.118-.817 2.394l-.03.088-.022.067-.067.201-.045.137-.09.275-.027.08-.027.08c-.22.671-.427 1.323-.573 1.823l-.016.057-.025.086-.025.093c-.56 2.059-.56 4.327-.021 6.407l.02.075.013-.098c.643-4.7 1.992-9.127 2.852-11.95.22-.718.408-1.337.539-1.81a.454.454 0 0 0-.264-.542zM9.42 12.171a.969.969 0 0 1 .973.972.97.97 0 0 1-.91.97l-2.505.003a.969.969 0 0 1-.972-.973.97.97 0 0 1 .91-.97l2.504-.002zm30.092 0a.969.969 0 0 1 .973.972.97.97 0 0 1-.911.97l-2.504.002a.969.969 0 0 1-.973-.972.97.97 0 0 1 .911-.97l2.504-.002zM10.525 3.565a.97.97 0 0 1 .655.238l1.777 1.774a.97.97 0 0 1 0 1.375.97.97 0 0 1-1.32.051L9.855 5.225a.97.97 0 0 1 0-1.375.97.97 0 0 1 .67-.285zm25.423 0a.97.97 0 0 1 .972.955.97.97 0 0 1-.238.655l-1.774 1.777a.97.97 0 0 1-1.375 0 .97.97 0 0 1-.047-1.325L35.26 3.85a.97.97 0 0 1 .688-.285zM23.245 0a.969.969 0 0 1 .97.91l.002 2.505a.97.97 0 0 1-.972.972.97.97 0 0 1-.97-.91L22.273.972A.969.969 0 0 1 23.245 0z"/></svg>