<svg width="38" height="48" viewBox="0 0 38 48" fill="none" xmlns="http://www.w3.org/2000/svg">
<path fill-rule="evenodd" clip-rule="evenodd" d="M9.67316 0C4.33937 0 0 4.33932 0 9.67316C0 12.9973 1.68556 15.9349 4.24674 17.6769V23.829C4.24674 23.8358 4.24683 23.8426 4.24703 23.8494C1.77226 25.6031 0.153992 28.4895 0.153992 31.7468C0.153992 35.0709 1.83955 38.0085 4.40073 39.7505V45.9026C4.40073 46.1428 4.5225 46.3666 4.72421 46.4969C4.92582 46.6273 5.17991 46.6465 5.39897 46.548L9.82715 44.5554L14.2553 46.5481C14.3481 46.5898 14.447 46.6104 14.5457 46.6104C14.6801 46.6104 14.8138 46.5722 14.9301 46.497C15.1317 46.3666 15.2536 46.1428 15.2536 45.9026V39.7506C16.7852 38.7088 18.0037 37.2395 18.7358 35.5156C19.4376 37.4394 20.7337 39.0799 22.4007 40.2137V46.3658C22.4007 46.606 22.5225 46.8298 22.7242 46.9601C22.9258 47.0905 23.1799 47.1097 23.399 47.0112L27.8271 45.0186L32.2553 47.0113C32.3481 47.053 32.447 47.0736 32.5457 47.0736C32.6801 47.0736 32.8138 47.0354 32.9301 46.9602C33.1317 46.8298 33.2536 46.606 33.2536 46.3658V40.2138C35.8147 38.4718 37.5003 35.5341 37.5003 32.21C37.5003 28.8519 35.7803 25.888 33.175 24.153C33.2259 24.0543 33.2536 23.9435 33.2536 23.829V17.6769C35.8147 15.935 37.5003 12.9973 37.5003 9.6732C37.5003 4.33932 33.1609 0 27.8271 0C23.6685 0 20.1144 2.63786 18.7501 6.32826C17.3859 2.63785 13.8318 0 9.67316 0ZM18.9185 28.4409C19.6631 26.6876 20.9107 25.1976 22.4792 24.153C22.4284 24.0543 22.4007 23.9435 22.4007 23.829V17.6769C20.745 16.5507 19.4552 14.9249 18.7502 13.0179C18.0452 14.9249 16.7553 16.5508 15.0996 17.6769V23.6401C16.8408 24.7764 18.1953 26.4582 18.9185 28.4409ZM27.8271 22.5368C27.7858 22.5368 27.7444 22.5371 27.7032 22.5376L27.8271 22.4818L27.9511 22.5376C27.9099 22.5371 27.8685 22.5368 27.8271 22.5368ZM13.684 22.7344L9.96357 21.0602C9.87122 21.0186 9.77217 20.9978 9.67316 20.9978C9.57415 20.9978 9.47509 21.0186 9.38274 21.0602L5.66235 22.7344V18.4771C6.01808 18.6392 6.38321 18.7786 6.75524 18.8962L6.77395 18.9021L6.77408 18.9022L6.7742 18.9022C6.78896 18.907 6.80372 18.9117 6.81855 18.9162C6.86604 18.9309 6.91368 18.945 6.96136 18.9588C6.99668 18.9692 7.032 18.9794 7.06741 18.9894C7.1059 19.0001 7.14452 19.0105 7.18315 19.0208C7.2282 19.0328 7.27334 19.0445 7.31863 19.0559C7.35064 19.0639 7.3827 19.0718 7.41481 19.0794C7.4669 19.0919 7.51914 19.104 7.57157 19.1157C7.59874 19.1217 7.62596 19.1277 7.65318 19.1335C7.7106 19.1458 7.7682 19.1574 7.82604 19.1686L7.84911 19.1731L7.89668 19.1822C7.95793 19.1936 8.01941 19.2043 8.08104 19.2146L8.09633 19.2171C8.11237 19.2199 8.12842 19.2226 8.14449 19.2251C8.20809 19.2353 8.27197 19.2446 8.33604 19.2535C8.35588 19.2562 8.37568 19.2592 8.39552 19.2618C8.46036 19.2704 8.52548 19.2781 8.59066 19.2854L8.61764 19.2885L8.64894 19.2921C8.71397 19.299 8.77924 19.3049 8.84466 19.3105L8.86967 19.3127C8.88114 19.3138 8.89261 19.3148 8.90413 19.3157C8.96859 19.3208 9.03333 19.3249 9.09817 19.3287L9.12432 19.3304C9.13637 19.3312 9.14844 19.3321 9.16057 19.3327C9.22608 19.3362 9.29183 19.3385 9.35767 19.3406L9.38274 19.3416H9.3828H9.38285H9.38291C9.39428 19.3421 9.40564 19.3426 9.41705 19.3429C9.50216 19.3451 9.58756 19.3463 9.67325 19.3463C9.75889 19.3463 9.84429 19.3451 9.9294 19.3429C9.94083 19.3426 9.95221 19.3421 9.9636 19.3416H9.96366H9.96371L9.98878 19.3406C10.0546 19.3385 10.1204 19.3361 10.1859 19.3327C10.2067 19.3316 10.2274 19.33 10.2483 19.3287C10.3131 19.3249 10.3779 19.3209 10.4423 19.3157C10.4622 19.3142 10.482 19.3121 10.5018 19.3105C10.5672 19.3049 10.6325 19.299 10.6975 19.2921L10.7332 19.288L10.7558 19.2854C10.821 19.2781 10.8861 19.2704 10.9509 19.2618L10.9903 19.2563L11.0104 19.2535C11.0744 19.2446 11.1383 19.2353 11.202 19.2251L11.2412 19.2186L11.2654 19.2146C11.327 19.2043 11.3885 19.1936 11.4498 19.1822C11.4733 19.1778 11.4968 19.1732 11.5203 19.1686L11.5204 19.1686C11.5782 19.1574 11.6358 19.1457 11.6933 19.1335C11.7205 19.1277 11.7477 19.1217 11.7749 19.1157C11.8273 19.104 11.8796 19.0919 11.9316 19.0794C11.9637 19.0718 11.9958 19.0639 12.0278 19.0559C12.0731 19.0446 12.1182 19.0328 12.1633 19.0208C12.2019 19.0105 12.2406 19.0002 12.279 18.9894C12.3145 18.9794 12.3498 18.9692 12.3851 18.9588C12.4328 18.9449 12.4805 18.9309 12.5279 18.9162L12.567 18.9039L12.5912 18.8962C12.9632 18.7786 13.3284 18.6393 13.6841 18.4771V22.7344H13.684ZM12.3678 17.4788C12.3396 17.4886 12.3114 17.4983 12.2831 17.5078C12.24 17.5222 12.1968 17.5363 12.1534 17.5499C12.103 17.5658 12.0524 17.5811 12.0016 17.596C11.9658 17.6065 11.93 17.617 11.894 17.6271C11.8268 17.6458 11.7595 17.6637 11.6918 17.6807C11.6725 17.6856 11.6532 17.6903 11.6338 17.695L11.6161 17.6993C11.5499 17.7153 11.4834 17.7305 11.4168 17.7449L11.3993 17.7488C11.3884 17.7512 11.3775 17.7536 11.3666 17.7558C11.2807 17.7738 11.1944 17.7905 11.1078 17.8057L11.0812 17.8102C11.0032 17.8236 10.925 17.8359 10.8466 17.847L10.7934 17.8545C10.7098 17.8659 10.626 17.8763 10.542 17.8851L10.5325 17.8862C10.4445 17.8954 10.3562 17.9029 10.2677 17.9092L10.2348 17.9113L10.2101 17.9129C10.1413 17.9173 10.0725 17.9208 10.0036 17.9236L10.0029 17.9236L9.967 17.9251L9.93328 17.9263C9.84669 17.9289 9.75999 17.9307 9.67316 17.9307C9.58632 17.9307 9.49962 17.929 9.41303 17.9262C9.39264 17.9256 9.37229 17.9247 9.35198 17.9239L9.34272 17.9235C9.27376 17.9208 9.20499 17.9172 9.13622 17.9128L9.10663 17.9109L9.07857 17.9091C8.99015 17.9028 8.90188 17.8952 8.81384 17.8861L8.80435 17.885C8.72029 17.8762 8.63652 17.8658 8.5529 17.8544L8.4998 17.8469C8.42135 17.8357 8.34309 17.8235 8.26507 17.8101L8.23852 17.8056C8.15192 17.7904 8.06561 17.7737 7.97968 17.7557L7.95332 17.75L7.92951 17.7448C7.8629 17.7305 7.79642 17.7152 7.73024 17.6992L7.71473 17.6954L7.71393 17.6952C7.69407 17.6904 7.67423 17.6856 7.65448 17.6806C7.58686 17.6637 7.51948 17.6457 7.45233 17.627C7.41634 17.6169 7.3805 17.6064 7.3447 17.5959C7.294 17.581 7.24334 17.5657 7.19283 17.5499C7.14946 17.5361 7.10628 17.5221 7.0632 17.5077C7.03706 17.499 7.01105 17.49 6.98508 17.481L6.97842 17.4787C3.74435 16.3592 1.41556 13.2832 1.41556 9.67316C1.41556 5.11995 5.1199 1.41556 9.67316 1.41556C14.2264 1.41556 17.9307 5.1199 17.9307 9.67316C17.9307 13.2832 15.6019 16.3592 12.3678 17.4788ZM13.8723 9.67317L15.2017 7.17444C15.3165 6.95893 15.3119 6.69952 15.1898 6.48813C15.0678 6.27674 14.8454 6.14308 14.6014 6.13465L11.7727 6.03664L10.2735 3.63597C10.1441 3.42894 9.91726 3.30309 9.67314 3.30309C9.42902 3.30309 9.20215 3.42894 9.0728 3.63597L7.57361 6.03664L4.74493 6.13465C4.50095 6.14308 4.27854 6.27674 4.15648 6.48813C4.03442 6.69952 4.02987 6.95893 4.1446 7.17444L5.47404 9.67317L4.1446 12.1719C4.02987 12.3874 4.03442 12.6468 4.15648 12.8582C4.27854 13.0696 4.50095 13.2033 4.74493 13.2117L7.57361 13.3097L9.0728 15.7104C9.2021 15.9174 9.42902 16.0433 9.67314 16.0433C9.91726 16.0433 10.1441 15.9174 10.2735 15.7104L11.7727 13.3097L14.6013 13.2117C14.8453 13.2033 15.0677 13.0696 15.1898 12.8582C15.3119 12.6468 15.3164 12.3874 15.2017 12.1719L13.8723 9.67317ZM11.3473 11.908C11.1121 11.9161 10.8962 12.0408 10.7715 12.2405L9.67314 13.9993L8.57478 12.2405C8.45009 12.0408 8.23424 11.9162 7.99898 11.908L5.92668 11.8362L6.90063 10.0056C7.01123 9.79777 7.01123 9.54857 6.90063 9.34073L5.92668 7.51015L7.99898 7.43831C8.23424 7.43016 8.45013 7.30551 8.57478 7.10582L9.67314 5.34707L10.7715 7.10586C10.8962 7.30556 11.112 7.43016 11.3473 7.43836L13.4196 7.51019L12.4457 9.34077C12.3351 9.54862 12.3351 9.79787 12.4457 10.0057L13.4197 11.8362L11.3473 11.908ZM31.838 22.7344L28.1176 21.0602C28.0252 21.0186 27.9262 20.9978 27.8271 20.9978C27.7281 20.9978 27.6291 21.0186 27.5367 21.0602L23.8163 22.7344V18.4771C24.1721 18.6392 24.5372 18.7786 24.9092 18.8962C24.9303 18.9029 24.9514 18.9097 24.9725 18.9162C25.02 18.9309 25.0677 18.945 25.1154 18.9588C25.1507 18.9692 25.186 18.9794 25.2214 18.9894C25.2599 19.0001 25.2985 19.0105 25.3371 19.0208C25.3822 19.0328 25.4273 19.0445 25.4726 19.0559L25.526 19.0691L25.5688 19.0794C25.6209 19.0919 25.6731 19.104 25.7256 19.1157C25.7527 19.1217 25.78 19.1277 25.8072 19.1335C25.8646 19.1458 25.9222 19.1574 25.98 19.1686L26.0031 19.1731L26.0507 19.1822C26.1119 19.1936 26.1734 19.2043 26.235 19.2146L26.2503 19.2171L26.2505 19.2172L26.2507 19.2172C26.2666 19.2199 26.2825 19.2226 26.2985 19.2251C26.3621 19.2353 26.426 19.2446 26.49 19.2535L26.5177 19.2574L26.5495 19.2618C26.6143 19.2704 26.6795 19.2781 26.7447 19.2854L26.7716 19.2885L26.8029 19.2921C26.868 19.299 26.9332 19.3049 26.9986 19.3105L27.0237 19.3127L27.0384 19.3141L27.0581 19.3157C27.1226 19.3208 27.1873 19.3249 27.2522 19.3287L27.2736 19.3301C27.2872 19.331 27.3008 19.332 27.3146 19.3327C27.3801 19.3362 27.4458 19.3385 27.5117 19.3406L27.5367 19.3416C27.5482 19.3421 27.5596 19.3426 27.571 19.3429C27.6562 19.3451 27.7416 19.3463 27.8272 19.3463C27.9129 19.3463 27.9983 19.3451 28.0834 19.3429C28.0949 19.3426 28.1063 19.3421 28.1177 19.3416L28.1428 19.3406C28.2086 19.3385 28.2744 19.3361 28.3399 19.3327C28.3459 19.3324 28.352 19.332 28.358 19.3316C28.3637 19.3313 28.3694 19.3309 28.3751 19.3305L28.4023 19.3287C28.4671 19.3249 28.5319 19.3209 28.5963 19.3157L28.6093 19.3147L28.6292 19.3129L28.6558 19.3105C28.7212 19.3049 28.7865 19.299 28.8515 19.2921L28.8872 19.288L28.9098 19.2854C28.975 19.2781 29.0401 19.2704 29.1049 19.2618C29.1248 19.2592 29.1446 19.2563 29.1644 19.2535C29.2284 19.2446 29.2923 19.2353 29.356 19.2251L29.3952 19.2186L29.4194 19.2146C29.481 19.2043 29.5425 19.1936 29.6038 19.1822C29.6273 19.1778 29.6508 19.1732 29.6743 19.1686L29.6744 19.1686C29.7322 19.1574 29.7898 19.1457 29.8473 19.1335L29.8853 19.1253L29.9289 19.1157C29.9813 19.104 30.0335 19.0919 30.0856 19.0794C30.1177 19.0718 30.1498 19.0639 30.1818 19.0559C30.2271 19.0446 30.2722 19.0328 30.3173 19.0208L30.3174 19.0207C30.356 19.0104 30.3946 19.0001 30.433 18.9894C30.4684 18.9794 30.5038 18.9692 30.5391 18.9588C30.5868 18.9449 30.6345 18.9309 30.6819 18.9162L30.721 18.9039L30.7452 18.8962C31.1172 18.7786 31.4824 18.6393 31.8381 18.4771V22.7344H31.838ZM30.5123 17.4821C30.4873 17.4908 30.4622 17.4994 30.4371 17.5078C30.394 17.5222 30.3508 17.5363 30.3074 17.5499C30.257 17.5658 30.2064 17.5811 30.1556 17.596C30.1198 17.6065 30.084 17.617 30.048 17.6271C29.9808 17.6458 29.9134 17.6637 29.8458 17.6807C29.8265 17.6856 29.8072 17.6903 29.7878 17.695L29.7701 17.6993C29.7039 17.7153 29.6374 17.7305 29.5708 17.7449L29.5533 17.7488C29.5424 17.7512 29.5315 17.7536 29.5206 17.7558C29.4346 17.7738 29.3484 17.7905 29.2618 17.8057L29.2352 17.8102C29.1572 17.8236 29.079 17.8359 29.0006 17.847L28.9474 17.8545C28.8638 17.8659 28.78 17.8763 28.696 17.8851L28.6865 17.8862C28.5985 17.8954 28.5102 17.9029 28.4217 17.9092L28.3856 17.9115L28.3641 17.9129C28.2953 17.9173 28.2265 17.9208 28.1576 17.9236L28.1569 17.9236H28.1568C28.1337 17.9246 28.1105 17.9255 28.0873 17.9263C28.0007 17.9289 27.914 17.9307 27.8271 17.9307C27.7403 17.9307 27.6536 17.929 27.567 17.9262C27.5466 17.9256 27.5263 17.9247 27.506 17.9239L27.4967 17.9235C27.4278 17.9208 27.359 17.9172 27.2902 17.9128L27.2606 17.9109L27.2326 17.9091C27.1441 17.9028 27.0559 17.8952 26.9678 17.8861L26.9583 17.885C26.8743 17.8762 26.7905 17.8658 26.7069 17.8544L26.6538 17.8469C26.5753 17.8357 26.4971 17.8235 26.4191 17.8101L26.3925 17.8056C26.3059 17.7904 26.2196 17.7737 26.1337 17.7557L26.1073 17.75L26.0835 17.7448C26.0169 17.7305 25.9504 17.7152 25.8842 17.6992L25.8687 17.6954L25.868 17.6952C25.8481 17.6904 25.8282 17.6856 25.8085 17.6806C25.7408 17.6637 25.6735 17.6457 25.6063 17.627C25.5703 17.6169 25.5345 17.6064 25.4987 17.5959C25.448 17.581 25.3973 17.5657 25.3468 17.5499C25.3034 17.5361 25.2603 17.5221 25.2172 17.5077C25.1911 17.499 25.165 17.49 25.1391 17.481L25.1324 17.4787C21.8983 16.3592 19.5696 13.2832 19.5696 9.67316C19.5696 5.11995 23.2739 1.41556 27.8271 1.41556C32.3804 1.41556 36.0847 5.1199 36.0847 9.67316C36.0847 13.2832 33.7559 16.3592 30.5218 17.4788L30.5123 17.4821ZM32.0263 9.67317L33.3557 7.17444C33.4705 6.95893 33.4659 6.69952 33.3438 6.48813C33.2218 6.27674 32.9994 6.14308 32.7554 6.13465L29.9267 6.03664L28.4275 3.63597C28.2981 3.42894 28.0713 3.30309 27.8271 3.30309C27.583 3.30309 27.3561 3.42894 27.2268 3.63597L25.7276 6.03664L22.8989 6.13465C22.6549 6.14308 22.4325 6.27674 22.3105 6.48813C22.1884 6.69952 22.1839 6.95893 22.2986 7.17444L23.628 9.67317L22.2986 12.1719C22.1839 12.3874 22.1884 12.6468 22.3105 12.8582C22.4325 13.0696 22.6549 13.2033 22.8989 13.2117L25.7276 13.3097L27.2268 15.7104C27.3561 15.9174 27.583 16.0433 27.8271 16.0433C28.0713 16.0433 28.2981 15.9174 28.4275 15.7104L29.9267 13.3097L32.7553 13.2117C32.9993 13.2033 33.2217 13.0696 33.3438 12.8582C33.4659 12.6468 33.4704 12.3874 33.3557 12.1719L32.0263 9.67317ZM29.5013 11.908C29.2661 11.9161 29.0502 12.0408 28.9255 12.2405L27.8271 13.9993L26.7288 12.2405C26.6041 12.0408 26.3882 11.9162 26.153 11.908L24.0807 11.8362L25.0546 10.0056C25.1652 9.79777 25.1652 9.54857 25.0546 9.34073L24.0807 7.51015L26.153 7.43831C26.3882 7.43016 26.6041 7.30551 26.7288 7.10582L27.8271 5.34707L28.9255 7.10586C29.0502 7.30556 29.266 7.43016 29.5013 7.43836L31.5736 7.51019L30.5996 9.34077C30.4891 9.54862 30.4891 9.79787 30.5997 10.0057L31.5736 11.8362L29.5013 11.908ZM28.1176 43.597L31.838 45.2712H31.8381V41.0139C31.4824 41.1761 31.1172 41.3154 30.7452 41.433L30.721 41.4407L30.6819 41.453C30.6722 41.456 30.6626 41.459 30.6529 41.4619C30.6394 41.466 30.6259 41.47 30.6124 41.4741L30.5391 41.4956L30.4923 41.5093L30.433 41.5262C30.3946 41.537 30.3559 41.5473 30.3173 41.5576C30.2722 41.5696 30.2271 41.5814 30.1818 41.5927L30.1304 41.6054L30.0856 41.6162C30.0335 41.6287 29.9813 41.6408 29.9289 41.6525C29.9017 41.6585 29.8745 41.6645 29.8473 41.6703C29.7898 41.6825 29.7322 41.6942 29.6744 41.7054L29.6743 41.7054L29.6375 41.7126L29.6038 41.719C29.5425 41.7304 29.481 41.7411 29.4194 41.7514L29.3952 41.7554L29.356 41.7619C29.2923 41.7721 29.2284 41.7814 29.1644 41.7903L29.1473 41.7927L29.1049 41.7986C29.0401 41.8072 28.975 41.8149 28.9098 41.8222L28.8872 41.8248L28.8515 41.8289C28.7865 41.8358 28.7212 41.8417 28.6558 41.8473C28.636 41.8489 28.6162 41.851 28.5963 41.8525C28.5319 41.8577 28.4671 41.8617 28.4023 41.8655L28.3758 41.8672C28.3638 41.8681 28.3519 41.8689 28.3399 41.8695C28.2744 41.8729 28.2086 41.8753 28.1428 41.8774L28.1177 41.8784H28.1176H28.1176C28.1062 41.8789 28.0948 41.8794 28.0834 41.8797C27.9983 41.8819 27.9129 41.8831 27.8272 41.8831C27.7416 41.8831 27.6562 41.8819 27.571 41.8797C27.5596 41.8794 27.5482 41.8789 27.5367 41.8784L27.5117 41.8774C27.4458 41.8753 27.3801 41.873 27.3146 41.8695C27.3024 41.8689 27.2904 41.868 27.2783 41.8672C27.2696 41.8666 27.2609 41.8661 27.2522 41.8655C27.1873 41.8617 27.1226 41.8576 27.0581 41.8525C27.0503 41.8519 27.0426 41.8513 27.0348 41.8506C27.0311 41.8502 27.0274 41.8499 27.0237 41.8495L26.9986 41.8473C26.9332 41.8417 26.868 41.8358 26.8029 41.8289L26.7716 41.8253L26.7447 41.8222C26.6795 41.8149 26.6143 41.8072 26.5495 41.7986C26.5297 41.796 26.5099 41.793 26.49 41.7903C26.426 41.7814 26.3621 41.7721 26.2985 41.7619C26.2824 41.7594 26.2663 41.7566 26.2502 41.7539L26.235 41.7514C26.1734 41.7411 26.1119 41.7304 26.0507 41.719L26.0031 41.7099L25.98 41.7054C25.9222 41.6942 25.8646 41.6826 25.8072 41.6703C25.78 41.6645 25.7527 41.6585 25.7256 41.6525C25.6731 41.6408 25.6209 41.6287 25.5688 41.6162C25.5367 41.6086 25.5046 41.6007 25.4726 41.5927C25.4273 41.5813 25.3822 41.5696 25.3371 41.5576L25.2922 41.5456C25.2686 41.5392 25.245 41.5328 25.2214 41.5262C25.2071 41.5222 25.1929 41.5181 25.1786 41.514C25.1575 41.5079 25.1364 41.5018 25.1154 41.4956C25.0677 41.4818 25.02 41.4677 24.9725 41.453L24.9547 41.4475L24.9092 41.433C24.5372 41.3154 24.1721 41.1761 23.8163 41.0139V45.2712L27.5367 43.597C27.6291 43.5554 27.7281 43.5347 27.8271 43.5347C27.9262 43.5347 28.0252 43.5555 28.1176 43.597ZM30.5121 40.019L30.5124 40.0189L30.5218 40.0156C33.7559 38.896 36.0847 35.82 36.0847 32.21C36.0847 27.6567 32.3804 23.9524 27.8271 23.9524C23.2739 23.9524 19.5696 27.6568 19.5696 32.21C19.5696 35.82 21.8983 38.896 25.1324 40.0155L25.1391 40.0178C25.1532 40.0227 25.1674 40.0276 25.1815 40.0325C25.1934 40.0365 25.2053 40.0405 25.2172 40.0445C25.2603 40.0589 25.3034 40.073 25.3468 40.0867C25.3973 40.1025 25.448 40.1178 25.4987 40.1327L25.5344 40.1431C25.5463 40.1466 25.5582 40.1501 25.5701 40.1535C25.5821 40.157 25.5942 40.1604 25.6063 40.1638C25.6735 40.1825 25.7408 40.2005 25.8085 40.2174L25.8389 40.225L25.8687 40.2322L25.8842 40.236C25.9504 40.252 26.0169 40.2673 26.0835 40.2816L26.1073 40.2868L26.1337 40.2925C26.2196 40.3105 26.3059 40.3272 26.3925 40.3424L26.4191 40.3469C26.4971 40.3603 26.5753 40.3725 26.6538 40.3837L26.7069 40.3912C26.7905 40.4026 26.8743 40.413 26.9583 40.4218L26.9678 40.4229C27.0559 40.432 27.1441 40.4396 27.2326 40.4459L27.2606 40.4477L27.2902 40.4496C27.359 40.454 27.4278 40.4576 27.4967 40.4603L27.506 40.4607C27.5263 40.4615 27.5466 40.4624 27.567 40.463C27.6536 40.4658 27.7403 40.4676 27.8271 40.4676C27.914 40.4676 28.0007 40.4657 28.0873 40.4631L28.1432 40.461L28.1569 40.4604L28.1576 40.4604C28.2265 40.4576 28.2953 40.4541 28.3641 40.4497L28.3886 40.4481L28.4217 40.446C28.5102 40.4397 28.5985 40.4322 28.6865 40.423L28.696 40.4219C28.78 40.4131 28.8638 40.4027 28.9474 40.3913L29.0006 40.3838C29.079 40.3727 29.1572 40.3604 29.2352 40.347L29.2618 40.3425C29.3484 40.3273 29.4346 40.3106 29.5206 40.2926C29.5274 40.2912 29.5342 40.2898 29.541 40.2883C29.5451 40.2874 29.5492 40.2865 29.5533 40.2856L29.5708 40.2817C29.6374 40.2673 29.7039 40.2521 29.7701 40.2361L29.7878 40.2318L29.7883 40.2317L29.7887 40.2316C29.8078 40.227 29.8268 40.2223 29.8458 40.2175C29.9134 40.2005 29.9808 40.1826 30.048 40.1639L30.0882 40.1524L30.1556 40.1328C30.2064 40.1179 30.257 40.1026 30.3074 40.0868C30.3508 40.0731 30.394 40.059 30.4371 40.0446C30.4621 40.0362 30.4871 40.0276 30.5121 40.019ZM33.3557 29.7112L32.0263 32.21L33.3557 34.7087C33.4704 34.9242 33.4659 35.1836 33.3438 35.395C33.2217 35.6064 32.9993 35.7401 32.7553 35.7485L29.9267 35.8465L28.4275 38.2472C28.2981 38.4542 28.0713 38.5801 27.8271 38.5801C27.583 38.5801 27.3561 38.4542 27.2268 38.2472L25.7276 35.8465L22.8989 35.7485C22.6549 35.7401 22.4325 35.6064 22.3105 35.395C22.1884 35.1836 22.1839 34.9242 22.2986 34.7087L23.628 32.21L22.2986 29.7112C22.1839 29.4957 22.1884 29.2363 22.3105 29.0249C22.4325 28.8135 22.6549 28.6799 22.8989 28.6715L25.7276 28.5734L27.2268 26.1728C27.3561 25.9657 27.583 25.8399 27.8271 25.8399C28.0713 25.8399 28.2981 25.9657 28.4275 26.1728L29.9267 28.5734L32.7554 28.6715C32.9994 28.6799 33.2218 28.8135 33.3438 29.0249C33.4659 29.2363 33.4705 29.4957 33.3557 29.7112ZM28.9255 34.7773C29.0502 34.5776 29.2661 34.4529 29.5013 34.4448L31.5736 34.373L30.5997 32.5425C30.4891 32.3347 30.4891 32.0854 30.5996 31.8776L31.5736 30.047L29.5013 29.9752C29.266 29.967 29.0502 29.8424 28.9255 29.6427L27.8271 27.8839L26.7288 29.6426C26.6041 29.8423 26.3882 29.967 26.153 29.9751L24.0807 30.047L25.0546 31.8775C25.1652 32.0854 25.1652 32.3346 25.0546 32.5424L24.0807 34.373L26.153 34.4448C26.3882 34.453 26.6041 34.5776 26.7288 34.7773L27.8271 36.5361L28.9255 34.7773ZM13.838 44.808L10.1176 43.1339C10.0252 43.0923 9.92616 43.0715 9.82715 43.0715C9.72814 43.0715 9.62908 43.0922 9.53673 43.1338L5.81634 44.808V40.5507C6.17207 40.7129 6.5372 40.8522 6.90923 40.9698C6.93032 40.9765 6.95136 40.9833 6.97254 40.9899C7.02003 41.0045 7.06767 41.0186 7.11535 41.0324C7.15067 41.0428 7.18599 41.053 7.22141 41.063C7.25989 41.0737 7.29851 41.0841 7.33714 41.0944C7.38219 41.1064 7.42733 41.1181 7.47262 41.1296C7.50463 41.1376 7.53669 41.1454 7.5688 41.153C7.6209 41.1655 7.67313 41.1776 7.72556 41.1893C7.75273 41.1953 7.77995 41.2013 7.80717 41.2071C7.86459 41.2194 7.92219 41.231 7.98003 41.2422L8.0031 41.2467L8.05067 41.2558C8.11192 41.2672 8.1734 41.2779 8.23503 41.2882C8.25617 41.2917 8.2773 41.2954 8.29848 41.2987C8.36208 41.3089 8.42596 41.3182 8.49004 41.3271C8.50988 41.3298 8.52967 41.3328 8.54951 41.3354C8.61435 41.344 8.67948 41.3517 8.74465 41.359L8.77163 41.3621L8.80293 41.3657C8.86796 41.3726 8.93323 41.3785 8.99865 41.3841L9.02366 41.3863C9.03513 41.3874 9.0466 41.3885 9.05812 41.3893C9.12258 41.3944 9.18732 41.3985 9.25216 41.4023C9.26088 41.4029 9.26959 41.4034 9.2783 41.404C9.29036 41.4049 9.30243 41.4057 9.31456 41.4063C9.38007 41.4098 9.44582 41.4121 9.51167 41.4142L9.53674 41.4152C9.54816 41.4157 9.55958 41.4162 9.57104 41.4165C9.65616 41.4187 9.74156 41.4199 9.82724 41.4199C9.91288 41.4199 9.99828 41.4187 10.0834 41.4165C10.0949 41.4162 10.1063 41.4157 10.1177 41.4152L10.1428 41.4142C10.2086 41.4121 10.2744 41.4097 10.3399 41.4063C10.3519 41.4057 10.3638 41.4049 10.3758 41.4041C10.3846 41.4035 10.3934 41.4029 10.4023 41.4023C10.4671 41.3985 10.5319 41.3945 10.5963 41.3893C10.6074 41.3885 10.6183 41.3875 10.6293 41.3865C10.6381 41.3856 10.647 41.3848 10.6558 41.3841C10.7212 41.3785 10.7865 41.3726 10.8515 41.3657L10.8872 41.3616L10.9098 41.359C10.975 41.3517 11.0401 41.344 11.1049 41.3354C11.118 41.3337 11.1311 41.3318 11.1441 41.33C11.1509 41.329 11.1576 41.328 11.1644 41.3271C11.2284 41.3182 11.2923 41.3089 11.356 41.2987L11.3952 41.2922L11.4194 41.2882C11.481 41.2779 11.5425 41.2672 11.6038 41.2558C11.6265 41.2516 11.6491 41.2472 11.6718 41.2427L11.6743 41.2422L11.6744 41.2422C11.7322 41.231 11.7898 41.2193 11.8473 41.2071C11.8745 41.2013 11.9017 41.1953 11.9289 41.1893C11.9813 41.1776 12.0335 41.1655 12.0856 41.153C12.1177 41.1454 12.1498 41.1375 12.1818 41.1296C12.2271 41.1182 12.2722 41.1065 12.3173 41.0944C12.3559 41.0841 12.3946 41.0738 12.433 41.063C12.4684 41.053 12.5038 41.0428 12.5391 41.0324C12.5868 41.0185 12.6345 41.0045 12.6819 40.9899L12.721 40.9775L12.7452 40.9698C13.1172 40.8522 13.4824 40.7129 13.8381 40.5507V44.808H13.838ZM12.5218 39.5524C12.4936 39.5622 12.4654 39.5719 12.4371 39.5814C12.394 39.5958 12.3508 39.6099 12.3074 39.6236C12.257 39.6394 12.2064 39.6547 12.1556 39.6696C12.1198 39.6801 12.084 39.6906 12.048 39.7007C11.9808 39.7194 11.9134 39.7373 11.8458 39.7543C11.8267 39.7592 11.8075 39.7638 11.7883 39.7685L11.7878 39.7686L11.7701 39.7729C11.7039 39.7889 11.6374 39.8041 11.5708 39.8185L11.5533 39.8224C11.5424 39.8248 11.5315 39.8272 11.5206 39.8294C11.4346 39.8474 11.3484 39.8641 11.2618 39.8793L11.2352 39.8838C11.1572 39.8972 11.079 39.9095 11.0006 39.9206L10.9474 39.9281C10.8638 39.9395 10.78 39.9499 10.696 39.9587L10.6865 39.9598C10.5985 39.969 10.5102 39.9765 10.4217 39.9828C10.4107 39.9836 10.3997 39.9843 10.3886 39.9849C10.3805 39.9854 10.3723 39.9859 10.3641 39.9865C10.2953 39.9909 10.2265 39.9944 10.1576 39.9972L10.1569 39.9972C10.1337 39.9982 10.1105 39.9991 10.0873 39.9999C10.0007 40.0025 9.91398 40.0044 9.82715 40.0044C9.74031 40.0044 9.65362 40.0026 9.56702 39.9998C9.54663 39.9992 9.52628 39.9983 9.50597 39.9975L9.49671 39.9971C9.42775 39.9944 9.35898 39.9908 9.29021 39.9864L9.26062 39.9845L9.23256 39.9827C9.14414 39.9764 9.05587 39.9688 8.96783 39.9597L8.95834 39.9586C8.87429 39.9498 8.79051 39.9394 8.70689 39.928L8.65379 39.9205C8.57534 39.9093 8.49708 39.8972 8.41906 39.8837L8.39251 39.8792C8.30591 39.864 8.2196 39.8473 8.13368 39.8293L8.10731 39.8236L8.0835 39.8184C8.01689 39.8041 7.95042 39.7888 7.88423 39.7728L7.86872 39.769C7.84859 39.7642 7.82848 39.7593 7.80847 39.7542C7.74085 39.7373 7.67347 39.7193 7.60633 39.7006C7.57034 39.6905 7.53449 39.68 7.49869 39.6695C7.44799 39.6546 7.39733 39.6393 7.34682 39.6235C7.30345 39.6098 7.26027 39.5957 7.21719 39.5813C7.20571 39.5775 7.19425 39.5736 7.18281 39.5697C7.16821 39.5647 7.15363 39.5597 7.13908 39.5546L7.13241 39.5523C3.89835 38.4328 1.56955 35.3568 1.56955 31.7468C1.56955 27.1936 5.27389 23.4892 9.82715 23.4892C14.3804 23.4892 18.0847 27.1935 18.0847 31.7468C18.0847 35.3568 15.7559 38.4328 12.5218 39.5524ZM14.0263 31.7468L15.3557 29.2481C15.4705 29.0325 15.4659 28.7731 15.3438 28.5617C15.2218 28.3503 14.9994 28.2167 14.7554 28.2083L11.9267 28.1103L10.4275 25.7096C10.2981 25.5025 10.0713 25.3767 9.82713 25.3767C9.58301 25.3767 9.35614 25.5025 9.2268 25.7096L7.72761 28.1103L4.89892 28.2083C4.65495 28.2167 4.43253 28.3503 4.31047 28.5617C4.18841 28.7731 4.18386 29.0325 4.29859 29.2481L5.62803 31.7468L4.29859 34.2455C4.18386 34.461 4.18841 34.7204 4.31047 34.9318C4.43253 35.1432 4.65495 35.2769 4.89892 35.2853L7.72761 35.3833L9.2268 37.784C9.35609 37.991 9.58301 38.1169 9.82713 38.1169C10.0713 38.1169 10.2981 37.991 10.4275 37.784L11.9267 35.3833L14.7553 35.2853C14.9993 35.2769 15.2217 35.1432 15.3438 34.9318C15.4659 34.7204 15.4704 34.461 15.3557 34.2455L14.0263 31.7468ZM11.5013 33.9816C11.2661 33.9897 11.0502 34.1144 10.9255 34.3141L9.82713 36.0729L8.72877 34.3141C8.60408 34.1144 8.38823 33.9898 8.15297 33.9816L6.08067 33.9098L7.05462 32.0792C7.16522 31.8714 7.16522 31.6222 7.05462 31.4143L6.08067 29.5838L8.15297 29.5119C8.38823 29.5038 8.60413 29.3791 8.72877 29.1794L9.82713 27.4207L10.9255 29.1795C11.0502 29.3792 11.266 29.5038 11.5013 29.512L13.5736 29.5838L12.5996 31.4144C12.4891 31.6222 12.4891 31.8715 12.5997 32.0793L13.5736 33.9099L11.5013 33.9816Z" fill="#2F70B6"/>
</svg>
