<svg width="60" height="32" viewBox="0 0 60 32" fill="none" xmlns="http://www.w3.org/2000/svg">
<g opacity="0.34" clip-path="url(#clip0)">
<path fill-rule="evenodd" clip-rule="evenodd" d="M19.7765 9.63338C19.1779 11.1816 19.5273 12.8836 20.7603 14.427L21.7285 15.639L20.7658 16.7467C19.0731 18.694 18.8812 20.8867 20.2325 22.837C21.6453 24.8755 24.9266 24.9952 26.3115 23.0587C27.2968 21.6806 26.8876 19.9372 25.4164 19.2443C25.0729 19.0825 25.0095 19.193 24.9933 19.9809C24.9706 21.0742 24.3969 21.7206 23.5055 21.6571C21.3759 21.5055 21.8405 18.3781 24.0431 18.0384C25.8045 17.7664 27.014 18.7499 29.1434 22.1862C30.5677 24.4842 33.7026 28.089 34.8846 28.7875C35.7001 29.269 37.7418 29.4458 38.8193 29.128C39.9634 28.7902 41.4298 27.3132 41.7552 26.1709C42.3462 24.0954 41.1182 21.7359 39.3143 21.4814C38.3313 21.3428 37.376 21.826 37.1283 22.5873C36.9512 23.1313 36.956 23.136 37.6767 23.1513C38.6139 23.1712 39.4881 24.0874 39.4687 25.0286C39.4462 26.1199 38.5961 26.7849 37.2946 26.7287C36.283 26.6849 36.0831 26.5684 34.898 25.3326C32.7983 23.1431 32.6718 21.0947 34.5268 19.3158C36.3057 17.6099 38.4457 17.5824 40.8188 19.2349C42.8642 20.6591 46.2118 25.3419 48.0627 29.3681L48.6847 30.7204L47.6017 32.3955C47.0063 33.3168 46.2791 34.6373 45.986 35.3299C45.693 36.0226 45.439 36.6028 45.4215 36.6191C45.4039 36.6353 44.8301 36.0651 44.1461 35.3518C43.0249 34.1827 42.7775 34.039 41.6304 33.8909C38.064 33.4305 35.114 36.058 36.0486 38.8624C36.5374 40.3291 37.3342 41.0124 38.5872 41.0391C39.7958 41.0648 40.7823 40.34 40.8014 39.4124C40.8079 39.1002 40.5928 38.4144 40.3234 37.8885C40.0539 37.3631 39.8899 36.8788 39.9587 36.8128C40.0276 36.7467 40.4721 36.713 40.9466 36.738C42.6219 36.8261 43.7358 38.83 43.0909 40.5953C42.8085 41.3686 41.3389 42.5631 40.8316 42.4318C40.3252 42.3008 40.2072 42.6994 40.624 43.134C41.3629 43.9046 43.201 43.7951 44.1069 42.9264C44.6896 42.3676 44.8557 42.4288 44.8998 43.2188C44.9491 44.1032 45.6926 46.4815 46.4237 48.0931C47.2939 50.0115 50.1154 53.3282 51.8869 54.5152C53.6502 55.6967 56.1013 56.4393 58.0346 56.3776L59.6889 56.3251L59.0983 57.2994C57.8652 59.3344 58.5182 62.9253 60.4948 64.9778C61.6033 66.1288 63.7093 66.9413 65.2798 66.8235C66.7081 66.7167 68.7771 65.7615 69.8877 64.6966C70.3171 64.2847 70.7062 63.987 70.7523 64.035C70.7983 64.0831 70.9604 64.7361 71.1121 65.4863C71.2638 66.2364 71.6492 67.338 71.9684 67.934C72.5186 68.9619 72.5164 69.0065 71.9236 68.794C71.0318 68.4743 69.9323 68.8861 69.5555 69.6803C68.6628 71.5632 72.8859 73.7762 76.3201 73.2253C77.662 73.01 78.0526 73.1195 77.3461 73.5133C76.6122 73.9223 75.3246 76.0214 75.0849 77.1991C74.781 78.6935 75.1209 79.9023 76.2271 81.2609C77.2619 82.5319 78.4097 83.0066 79.8151 82.7448C81.8027 82.3748 82.7614 80.8532 82.1571 79.028C81.8573 78.1236 81.7878 78.0555 80.8487 77.7519C79.9997 77.4776 79.8723 77.3692 79.9634 76.9996C80.1279 76.3325 80.5365 76.0409 81.8837 75.6284C82.7914 75.3505 83.4561 75.3646 84.3515 75.6809C87.3297 76.7328 88.3301 79.4995 87.5673 84.575L87.3968 85.7106L88.2739 84.8886C88.7566 84.4365 89.3861 83.6011 89.6729 83.0319C90.0585 82.2671 90.2271 82.082 90.3193 82.3219C91.443 85.2446 93.7262 87.6611 96.2331 88.5807C98.5225 89.4207 101.079 89.0479 103.686 87.4941L104.803 86.8285L104.177 88.4715C103.329 90.6953 102.786 93.7362 102.929 95.4545C103.169 98.3182 103.955 99.8552 105.511 100.502C105.833 100.636 105.839 100.874 105.537 101.468C104.254 103.99 101.78 104.473 100.06 102.538C99.6533 102.081 99.242 101.781 99.1459 101.873C99.0498 101.966 99.0072 102.671 99.0511 103.441C99.1899 105.881 101.048 107.833 103.144 107.742C105.075 107.658 106.525 106.411 107.386 104.095C107.624 103.455 107.868 102.933 107.928 102.935C107.989 102.936 108.318 103.904 108.661 105.087C109.511 108.02 110.901 110.411 113.058 112.648C114.01 113.635 115.238 114.743 115.787 115.109C117.544 116.279 120.394 117.434 122.525 117.838C123.133 117.953 123.119 117.985 122.066 118.874C121.469 119.379 121.054 119.859 121.143 119.94C121.232 120.022 122.312 119.975 123.542 119.836C125.353 119.632 126.114 119.706 127.533 120.223C129.143 120.809 129.4 120.99 130.656 122.424C131.844 123.781 132.052 124.166 132.238 125.343C132.474 126.835 131.997 128.52 131.113 129.321C130.324 130.035 130.137 129.972 129.838 128.894C129.509 127.708 128.697 127.174 127.355 127.26C126.084 127.343 125.194 128.167 124.891 129.542C124.147 132.917 127.819 135.603 131.326 134.249C132.589 133.761 134.524 131.895 135.279 130.437C136.145 128.765 136.254 125.844 135.534 123.619C134.996 121.954 134.787 121.626 133.236 120C131.853 118.549 131.291 118.118 130.264 117.715C129.567 117.441 129.03 117.185 129.071 117.146C129.112 117.107 129.753 116.736 130.496 116.321C133.107 114.862 134.63 112.681 134.679 110.332C134.704 109.123 134.599 108.829 133.87 108.07C132.76 106.912 131.547 106.416 130.23 106.581C128.541 106.793 128.059 107.18 128.528 107.948C128.744 108.301 128.911 109.03 128.9 109.569C128.865 111.232 128.451 112.066 127.084 113.219C125.476 114.576 123.608 114.999 121.321 114.524C116.522 113.526 112.864 109.897 111.328 104.608C110.313 101.113 109.607 93.2599 109.433 83.5382C109.375 80.2247 109.159 76.4167 108.956 75.0759C108.548 72.388 108.751 71.894 110.183 72.096C110.892 72.1961 111.204 72.3984 111.654 73.0469C112.787 74.6827 112.863 76.635 112.003 82.075C110.97 88.6141 111.618 91.5338 114.395 92.8473C115.717 93.4726 116.759 93.2728 117.905 92.173C119.822 90.3348 119.746 86.8473 117.771 86.0608L117.112 85.7983L116.84 86.7688C116.691 87.3026 116.307 87.9387 115.986 88.1824C115.483 88.5652 115.308 88.5409 114.698 88.0032C114.065 87.4442 114.006 87.1903 114.118 85.4964C114.199 84.2662 114.769 82.0577 115.761 79.1356C116.709 76.3391 117.334 73.9469 117.427 72.7615C117.61 70.4247 117.015 68.335 115.81 67.0782L114.944 66.1751L116.238 65.9965C119.451 65.5529 122.807 63.1241 124.136 60.2803C125.365 57.6525 124.82 55.0657 122.535 52.6837C121.511 51.616 119.855 51.015 118.049 51.0558C115.165 51.121 112.663 53.7123 112.537 56.7647C112.465 58.526 113.08 59.6893 114.514 60.5017C115.673 61.1585 116.809 60.9669 117.888 59.9331C118.555 59.2927 118.699 58.9649 118.657 58.1838C118.6 57.1453 117.742 56.0112 117.001 55.9955C116.283 55.9802 116.518 55.5688 117.394 55.3104C118.589 54.9578 119.124 55.0916 119.977 55.9573C122.292 58.3052 119.704 62.885 115.669 63.5826C112.304 64.1641 109.659 61.1377 109.913 56.9963C110.059 54.6165 110.929 53.305 114.326 50.3441C117.477 47.5979 117.926 46.8288 117.425 45.0365C117.101 43.8759 116.617 43.3319 115.465 42.8299C114.614 42.459 112.564 42.512 112.144 42.9155C111.769 43.2747 111.635 42.8655 111.69 41.5285C111.72 40.8174 111.621 39.2376 111.47 38.0185L111.196 35.8016L111.856 36.2576C114.175 37.86 118.664 37.1982 121.599 34.8215C124.119 32.7803 125.05 30.1423 124.27 27.2586C123.923 25.9791 123.651 25.5194 122.567 24.3856L121.276 23.036L122.888 23.0162C125.838 22.98 129.224 21.4344 130.807 19.4012C131.9 17.9981 131.881 17.924 129.92 15.8792C128.32 14.2103 127.998 13.9816 126.405 13.3813C125.44 13.0179 123.948 12.6645 123.09 12.5958L121.528 12.471L122.86 11.1884C123.983 10.1065 124.267 9.66475 124.672 8.36957C125.529 5.62866 124.59 2.68181 122.217 0.662279C119.699 -1.48081 114.89 -2.42681 112.792 -1.19158L111.961 -0.702208L112.232 -2.16649C112.381 -2.972 112.559 -4.56997 112.627 -5.71783L112.75 -7.80507L113.531 -7.54182C115.027 -7.03693 116.415 -7.22478 117.495 -8.07797C118.392 -8.78611 118.507 -8.99645 118.601 -10.0889C118.767 -12.0316 118.399 -12.6825 115.999 -14.684C111.942 -18.0669 110.812 -20.7638 111.874 -24.5257C112.389 -26.3488 114.024 -27.9422 115.658 -28.2124C117.425 -28.5045 119.246 -27.8042 120.722 -26.2654C122.797 -24.1018 123.118 -21.8675 121.568 -20.3806C120.946 -19.784 120.599 -19.6663 119.678 -19.7379C118.343 -19.8416 117.694 -20.3093 118.553 -20.5494C120.105 -20.9835 120.811 -22.7264 120.005 -24.1303C119.501 -25.0063 117.953 -25.5883 116.801 -25.3346C114.966 -24.9307 114 -23.445 114.1 -21.1816C114.172 -19.5695 114.784 -18.3823 116.229 -17.0553C117.245 -16.1226 117.664 -15.9132 118.891 -15.7254C121.383 -15.3439 122.268 -15.629 124.112 -17.4062C126.509 -19.7161 126.924 -21.383 125.864 -24.4253C125.43 -25.6712 125.045 -26.2802 124.021 -27.3423C123.309 -28.0806 122.396 -28.8392 121.991 -29.0282C121.586 -29.2173 121.258 -29.5014 121.262 -29.6599C121.28 -30.3621 124.184 -34.6742 125.811 -36.4142L127.559 -38.2833L129.486 -38.2543L131.412 -38.2252L131.369 -36.1067C131.335 -34.4848 131.481 -33.6854 131.99 -32.6976C132.891 -30.9499 133.368 -30.5055 134.954 -29.9369C138.37 -28.712 141.763 -30.9649 145.853 -37.1739C147.796 -40.1238 150.069 -42.5118 151.325 -42.9233C151.964 -43.1328 152.266 -43.0692 152.68 -42.6375C153.281 -42.0106 153.096 -41.063 152.204 -40.1982C151.746 -39.7541 151.746 -39.65 152.211 -39.3889C153.674 -38.5663 155.527 -39.187 156.646 -40.8745C157.942 -42.8284 157.766 -44.5621 156.14 -45.8662C155.448 -46.4205 154.959 -46.5525 153.713 -46.5205C151.338 -46.4598 150.772 -46.1035 145.69 -41.4763C141.255 -37.4377 141.143 -37.3529 139.616 -36.8676C137.934 -36.3333 136.798 -36.5796 136.212 -37.6051C135.733 -38.4441 136.08 -38.8536 137.79 -39.4689C139.765 -40.1796 143.035 -42.2232 144.622 -43.7391C145.969 -45.026 151.952 -51.9628 153.736 -54.306C155.301 -56.3622 157.33 -59.6409 158.884 -62.6258C159.612 -64.0242 160.282 -65.2391 160.372 -65.3255C160.462 -65.4117 160.595 -65.0936 160.668 -64.6188C161.211 -61.0981 165.366 -57.6579 169.173 -57.5771C172.512 -57.5058 175.533 -59.946 175.971 -63.0691C176.462 -66.5643 172.224 -69.6092 169.181 -67.9473C167.547 -67.055 166.841 -64.9014 167.66 -63.3038C168.107 -62.4313 168.283 -62.2768 169.092 -62.0458C170.401 -61.672 171.329 -62.1459 171.511 -63.2816C171.627 -64.0063 171.516 -64.3024 170.895 -64.9235C170.013 -65.8056 170.098 -66.0018 171.288 -65.8338C173.064 -65.5834 173.884 -63.841 172.979 -62.2423C171.257 -59.1996 166.448 -59.6707 164.061 -63.1163C163.209 -64.3457 163.025 -65.7498 163.528 -67.1812C164.514 -69.985 167.759 -71.6815 172.739 -71.9971C176.328 -72.2247 177.087 -72.3794 178.305 -73.1311C179.623 -73.9447 180.936 -75.6893 180.874 -76.5444C180.817 -77.3339 179.692 -77.8051 177.848 -77.8122L176.109 -77.8188L177.285 -78.7577C180.616 -81.4186 182.755 -87.0605 182.205 -91.7342L182.019 -93.3188L182.98 -92.7379C185.788 -91.0414 189.234 -91.6066 191.423 -94.1224C193.402 -96.3982 193.548 -98.6087 191.838 -100.392C191.068 -101.195 190.682 -101.405 189.803 -101.499C187.047 -101.796 184.628 -99.2476 185.57 -97.0413C185.967 -96.1136 185.861 -95.9991 184.754 -96.155C183 -96.4028 182.193 -97.355 182.108 -99.281C181.983 -102.114 184.155 -105.019 186.971 -105.786C188.754 -106.271 189.689 -106.144 193.003 -104.967C194.479 -104.443 195.62 -104.184 195.71 -104.352C196.023 -104.94 194.958 -106.323 193.47 -107.26C192.694 -107.748 191.847 -108.24 191.587 -108.352C191.229 -108.507 191.51 -108.636 192.742 -108.882C195.485 -109.432 197.081 -110.259 199.039 -112.145C202.701 -115.674 203.751 -119.984 202.105 -124.731C201.736 -125.795 201.331 -126.353 199.663 -128.096L197.663 -130.185L199.675 -129.73C203.437 -128.879 205.975 -129.082 208.553 -130.439C212.044 -132.276 213.522 -136.094 212.224 -139.919C211.516 -142.004 209.112 -144.542 207.15 -145.275C204.797 -146.154 201.918 -145.305 200.837 -143.416C199.525 -141.123 200.455 -138.418 202.765 -137.806C204.07 -137.46 205.146 -137.719 206.066 -138.601C206.723 -139.231 206.836 -139.532 206.77 -140.475C206.728 -141.092 206.761 -141.592 206.844 -141.585C207.971 -141.489 209.554 -140.081 209.911 -138.854C210.433 -137.059 209.82 -134.728 208.491 -133.46C207.443 -132.46 205.042 -131.747 203.085 -131.855C202.144 -131.906 199.385 -132.453 196.954 -133.07C194.522 -133.687 192.219 -134.253 191.835 -134.328C191.265 -134.439 191.171 -134.522 191.327 -134.778C192.902 -137.372 193.28 -139.213 192.627 -141.125C191.757 -143.675 189.634 -145.146 186.792 -145.17C184.387 -145.191 182.833 -144.67 181.248 -143.314C179.467 -141.789 178.817 -140.241 179.294 -138.66C179.699 -137.318 180.113 -136.839 181.18 -136.474C183.289 -135.753 185.369 -137.041 185.412 -139.092C185.431 -140.037 185.321 -140.298 184.708 -140.76C184.085 -141.229 184.034 -141.358 184.35 -141.662C185.564 -142.825 187.814 -142.896 189.117 -141.81C190.91 -140.319 190.74 -137.93 188.701 -135.948C187.724 -134.998 187.53 -134.928 185.095 -134.637C180.06 -134.037 176.762 -132.583 173.637 -129.586L171.757 -127.783L170.474 -128.264C169.768 -128.529 168.269 -128.766 167.144 -128.792C164.752 -128.848 162.584 -127.997 160.829 -126.313C158.243 -123.833 158.324 -119.354 160.985 -117.683C162.38 -116.807 165.196 -117.191 166.513 -118.437C167.401 -119.277 168.033 -120.851 167.987 -122.107C167.955 -122.974 167.744 -123.448 166.983 -124.365C165.813 -125.776 165.993 -126.077 167.978 -126.035C171.656 -125.957 175.327 -121.667 174.575 -118.325C173.68 -114.351 168.713 -112.708 157.809 -112.779C151.161 -112.822 149.133 -112.294 146.595 -109.86C145.51 -108.82 145.142 -108.282 144.749 -107.159C143.886 -104.695 144.678 -102.741 146.529 -102.772L147.427 -102.787L146.354 -101.13C144.174 -97.7638 143.211 -94.0752 143.13 -88.7858C143.079 -85.4107 143.835 -79.8094 144.692 -77.2216C144.878 -76.6611 144.973 -76.1482 144.904 -76.082C144.835 -76.0156 144.181 -76.4832 143.451 -77.121C141.955 -78.4275 140.069 -79.6313 137.9 -80.6648C135.306 -81.9011 130.847 -81.3431 128.975 -79.548C128.67 -79.2549 128.399 -79.0361 128.375 -79.062C128.35 -79.0879 127.821 -79.8926 127.2 -80.8504C124.073 -85.6696 120.89 -87.3238 118.336 -85.4573C117.264 -84.6746 116.318 -82.8301 116.498 -81.8731C116.898 -79.7364 119.256 -78.3001 121.707 -78.6994C124.423 -79.1419 126.031 -78.3135 125.993 -76.4918C125.953 -74.5488 123.761 -73.8552 121.71 -75.137C117.944 -77.4901 115.666 -77.5076 114.356 -75.1933C113.751 -74.124 113.755 -73.5569 114.371 -72.9146C114.622 -72.6525 114.748 -72.4152 114.651 -72.3873C109.977 -71.04 107.966 -69.8795 106.226 -67.5236C105.066 -65.9544 104.165 -64.081 103.699 -62.2672C103.542 -61.6598 103.391 -61.1398 103.362 -61.1119C103.332 -61.0838 102.679 -61.7144 101.91 -62.5131C100.886 -63.5761 100.22 -64.071 99.424 -64.3593C96.6265 -65.3722 93.931 -63.2274 94.1289 -60.146L94.2027 -58.9964L95.256 -59.8177C96.973 -61.1564 98.7518 -61.0206 100.354 -59.4285C101.318 -58.4696 101.353 -58.1349 100.544 -57.577C98.6623 -56.2803 99.2618 -52.1706 101.788 -49.0491L102.973 -47.5843L101.854 -48.3127C97.3609 -51.2357 93.1149 -50.506 90.8054 -46.4139C88.4343 -42.2125 91.54 -36.6526 96.1969 -36.7611C97.0897 -36.7818 97.2425 -36.843 96.869 -37.0289C93.5286 -38.6922 92.4428 -43.0724 94.8085 -45.341C95.9907 -46.4747 98.609 -46.613 100.267 -45.6293C101.743 -44.7531 103.496 -42.744 104.19 -41.1347C105.447 -38.2156 104.763 -32.4186 102.755 -28.9735C102.305 -28.2025 101.876 -27.4421 101.8 -27.2835C101.716 -27.1093 101.307 -27.2589 100.765 -27.6616C98.6863 -29.2067 94.4539 -30.979 92.145 -31.2715C91.4474 -31.3597 91.1584 -31.5998 89.6415 -33.3525C86.3393 -37.167 81.4579 -39.5881 77.044 -39.6006C74.5679 -39.6076 72.4113 -38.6889 71.7803 -37.3582C71.1677 -36.0662 72.5338 -34.7175 73.9175 -35.2483L74.7265 -35.5584L74.0891 -34.5406C73.7384 -33.9808 73.3021 -32.834 73.1194 -31.9924L72.7875 -30.4621L71.5288 -31.5512C68.5809 -34.102 65.5465 -34.3518 62.8653 -32.2642C61.5666 -31.2531 60.5959 -29.5499 60.2595 -27.6916C60.019 -26.3627 60.4164 -24.4862 61.0862 -23.7878C61.4117 -23.4483 61.1876 -23.3962 59.6865 -23.4633C56.0454 -23.6258 53.3861 -22.408 50.3644 -19.1942C49.1847 -17.9392 48.2114 -16.6624 47.7326 -15.7416C46.931 -14.1994 45.9027 -11.2414 46.0039 -10.769C46.1094 -10.2762 45.7226 -10.1384 45.3434 -10.5339C44.6829 -11.2225 42.8902 -11.673 42.1577 -11.3342C41.0363 -10.8153 41.0631 -10.5148 42.2698 -10.0782C44.1191 -9.40914 44.7655 -7.7379 43.8885 -5.89384C43.4638 -5.0004 42.1355 -4.29061 41.3611 -4.54306C40.6301 -4.78171 40.6268 -4.7987 41.1679 -5.57453C42.3444 -7.26214 41.5494 -8.98012 39.5722 -9.02239C38.5678 -9.04377 38.3727 -8.95118 37.6876 -8.12801C36.2297 -6.37559 36.3833 -4.75218 38.1644 -3.09432C39.5287 -1.82457 40.9472 -1.41201 42.7755 -1.75325C43.8266 -1.94956 44.1588 -2.14995 45.1199 -3.16643C46.06 -4.16091 46.264 -4.28733 46.3897 -3.95416C47.0596 -2.17815 47.7194 -0.800163 48.4526 0.353898L49.3148 1.71044L48.2371 3.73506C46.6412 6.7328 44.7864 9.2428 42.5874 11.38C40.8548 13.0643 40.4719 13.3309 39.2517 13.7035C37.393 14.271 36.4104 14.0539 34.9756 12.7591C33.984 11.8643 33.7813 11.5437 33.6232 10.622C33.0042 7.01177 37.8796 3.39451 39.5903 6.19466C40.266 7.30078 39.3307 8.86919 37.9722 8.90796C37.4004 8.9243 37.3219 8.98737 37.3992 9.36733C37.5574 10.1444 38.1145 10.4986 39.2157 10.522C41.1919 10.5641 42.6871 8.35504 42.217 6.08762C41.9469 4.78451 40.0638 2.96428 38.7547 2.74092C35.6818 2.21627 33.2339 3.9752 29.4148 9.4523C27.34 12.4277 26.1763 13.4035 24.7021 13.4037C22.7982 13.404 21.5208 11.2447 22.7359 10.0795C23.8008 9.05821 25.4278 10.1686 25.1916 11.7554L25.0861 12.4634L25.763 12.1766C27.3667 11.4967 27.5865 9.44575 26.2094 8.00983C24.2971 6.01573 20.8379 6.88873 19.7765 9.63338ZM65.9407 -31.0071C67.1468 -31.2728 68.3571 -30.8606 69.6879 -29.7317C71.0524 -28.574 71.6079 -27.3634 71.4767 -25.8319C71.3269 -24.0851 70.66 -22.674 68.6749 -19.9035C67.7236 -18.576 66.83 -17.2916 66.6891 -17.0491C66.4872 -16.7016 66.4086 -16.8853 66.3176 -17.9157C66.235 -18.8544 65.9719 -19.5291 65.3856 -20.3057C64.9364 -20.9007 64.6415 -21.4573 64.7302 -21.5424C64.8192 -21.6276 64.9769 -21.6085 65.081 -21.4999C65.1851 -21.3914 65.7081 -21.4717 66.2433 -21.6782C67.938 -22.3324 68.8667 -24.1082 68.3782 -25.7601C68.1592 -26.5008 68.0273 -26.6414 67.2236 -26.9916C66.0362 -27.5086 65.054 -27.1801 64.5126 -26.085C64.2921 -25.6389 64.0438 -25.209 63.9608 -25.1295C63.7513 -24.9285 62.9191 -26.2854 62.8727 -26.9034C62.7409 -28.6622 64.209 -30.6263 65.9407 -31.0071ZM56.3706 -20.4012C59.2064 -21.2434 62.4737 -20.1987 63.6151 -18.0849C64.2196 -16.9663 63.939 -15.9605 62.7747 -15.0714C61.9982 -14.4785 61.8937 -14.3076 62.1468 -14.0436C62.6515 -13.5174 63.5983 -13.4889 64.521 -13.9727L65.3943 -14.4303L64.9396 -13.2042L64.4851 -11.9779L63.7352 -12.2341C62.412 -12.6866 59.0535 -12.4871 57.1527 -11.8436C53.8734 -10.733 50.9503 -7.65482 49.9802 -4.29026C49.5482 -2.79188 49.3128 -2.95856 48.765 -5.15075C47.9553 -8.39042 48.5407 -12.0668 50.3567 -15.1483C51.475 -17.0461 54.7732 -19.9269 56.3706 -20.4012ZM111.07 -68.3752C114.828 -70.4435 118.275 -70.2204 121.682 -67.6882C122.939 -66.7542 123.322 -66.3269 124.2 -64.8773C124.77 -63.9369 125.456 -62.5269 125.724 -61.7434C126.041 -60.8206 126.291 -60.3961 126.437 -60.5376C126.784 -60.8758 127.569 -63.7529 127.37 -63.9598C126.922 -64.4276 127.598 -64.398 128.229 -63.922C129.457 -62.9972 131.244 -62.4451 132.905 -62.4775C133.787 -62.4946 134.595 -62.5912 134.7 -62.6925C134.806 -62.7936 134.973 -62.7919 135.072 -62.6886C135.171 -62.5854 135.064 -62.3167 134.834 -62.0919C134.001 -61.2771 133.532 -59.4881 133.731 -57.8838L133.928 -56.294L132.242 -56.3864C129.171 -56.5546 126.187 -54.8174 125.34 -52.3683C124.864 -50.9919 124.893 -50.237 125.469 -49.057C126.064 -47.8382 127.36 -46.896 128.631 -46.7596C129.907 -46.622 130.627 -46.8206 131.778 -47.6267C132.814 -48.3519 132.748 -48.6044 131.475 -48.7874C130.599 -48.9135 129.546 -49.8214 129.313 -50.6526C129.234 -50.9332 129.323 -51.5133 129.511 -51.9415C130.478 -54.1448 133.771 -54.2804 135.767 -52.1993C136.311 -51.6316 136.5 -51.1639 136.531 -50.3075C136.572 -49.1797 136.555 -49.1525 134.691 -47.2494C132.81 -45.3285 127.204 -41.0769 126.579 -41.0964C125.633 -41.1263 122.588 -42.1808 121.005 -43.0259C114.402 -46.5533 110.999 -50.8027 110.784 -55.7891C110.661 -58.6419 111.853 -61.3779 113.648 -62.3611C114.897 -63.0454 116.459 -62.9518 117.488 -62.1314C118.514 -61.3133 118.427 -60.9183 117.16 -60.6392C115.816 -60.3436 115.197 -59.6794 115.173 -58.5067C115.108 -55.3465 119.447 -53.8314 121.88 -56.1645C122.902 -57.1449 123.252 -58.3573 123.081 -60.3217C122.981 -61.4608 122.825 -61.7638 121.624 -63.1356C120.472 -64.4511 120.073 -64.7526 118.856 -65.2248C117.084 -65.9129 116.176 -65.9552 114.447 -65.4296C110.848 -64.3352 108.806 -61.7764 108.297 -57.7232C108.134 -56.423 108.106 -56.3791 107.548 -56.5206C107.229 -56.6015 106.653 -56.5371 106.267 -56.3774L105.567 -56.0868L105.712 -58.4495C105.999 -63.104 107.903 -66.6313 111.07 -68.3752ZM79.7075 -35.8274C81.5272 -36.2404 84.7395 -34.802 86.8034 -32.6498L87.7924 -31.6185L86.439 -31.6214C83.3203 -31.6278 77.9758 -30.4722 76.0541 -29.3761C75.381 -28.9922 75.2003 -29.1202 75.2814 -29.9235C75.5785 -32.8658 77.4074 -35.3051 79.7075 -35.8274ZM178.517 -130.057C181.708 -131.79 186.486 -132.5 190.609 -131.853C193.274 -131.435 193.276 -131.429 191.103 -130.78C189.133 -130.191 189.072 -130.152 186.824 -128.011C184.729 -126.017 184.417 -125.8 183.007 -125.351C180.9 -124.682 178.996 -123.402 178.008 -121.992C177.581 -121.382 177.212 -120.901 177.19 -120.925C177.167 -120.949 176.945 -121.528 176.696 -122.214C176.447 -122.898 175.733 -124.09 175.108 -124.862L173.971 -126.265L174.586 -126.979C175.511 -128.052 177.06 -129.265 178.517 -130.057ZM31.2033 11.9028C31.231 11.9317 31.3916 12.2802 31.5598 12.6768C31.8848 13.4427 33.4678 15.2102 34.1738 15.5949C34.554 15.8024 34.4415 15.9736 33.0505 17.3076C32.2004 18.1228 31.3478 19.076 31.156 19.4261L30.8069 20.0622L30.2149 19.0671C29.8893 18.5195 29.053 17.564 28.3564 16.9436L27.0898 15.8155L29.1212 13.8329C30.2385 12.7423 31.1754 11.8737 31.2033 11.9028ZM158.74 -109.262C159.857 -109.59 161.861 -110.013 163.195 -110.201C168.654 -110.973 170.399 -111.318 171.764 -111.898C173.653 -112.7 175.449 -114.188 176.226 -115.596L176.836 -116.7L177.274 -115.456C177.611 -114.497 178.064 -113.846 179.247 -112.621C180.96 -110.847 182.623 -109.892 185.135 -109.237C185.943 -109.026 186.637 -108.82 186.675 -108.78C186.714 -108.74 186.14 -108.452 185.4 -108.139C182.631 -106.969 180.119 -103.838 179.458 -100.733L179.221 -99.6216L178.031 -101.111C175.557 -104.207 171.285 -106.998 167.287 -108.129C164.737 -108.851 160.589 -109.068 158.028 -108.612C155.856 -108.227 156.162 -108.505 158.74 -109.262ZM154.222 -104.685C163.452 -109.008 174.829 -104.436 178.74 -94.8336C179.939 -91.8882 180.027 -88.816 178.996 -85.902C176.633 -79.2231 170.962 -77.0993 164.876 -80.6133C163.06 -81.6617 160.816 -84.2383 159.981 -86.2334C157.861 -91.3013 161.732 -95.9177 166.514 -94.0229C169.191 -92.9622 171.155 -89.8633 170.382 -87.9203C169.975 -86.895 169.287 -86.4175 168.484 -86.6025C167.348 -86.8645 167.096 -87.4747 167.871 -88.0867C168.576 -88.6431 168.721 -89.8099 168.199 -90.7246C167.796 -91.4301 166.191 -91.9875 165.38 -91.7033C162.721 -90.773 162.841 -86.5865 165.591 -84.3217C168.168 -82.1996 171.288 -82.3059 173.695 -84.5978C176.426 -87.1978 176.922 -90.6743 175.11 -94.525C174.097 -96.6787 171.027 -99.878 168.9 -100.997C162.629 -104.296 155.603 -103.213 151.257 -98.2755C148.458 -95.0954 147.231 -91.2441 146.485 -83.2881L146.326 -81.5899L146.011 -83.5926C145.384 -87.5876 145.608 -92.0874 146.609 -95.624C147.682 -99.4147 150.741 -103.055 154.222 -104.685ZM58.1681 -9.5138C59.7495 -9.9804 62.5645 -10.0154 63.5537 -9.58107C64.2271 -9.28516 64.3653 -9.09039 64.6755 -7.99959L65.0291 -6.75539L63.3123 -6.7009C58.3508 -6.54295 54.6876 -1.34724 56.2104 3.37288L56.5577 4.44976L55.9133 4.00954C54.0855 2.76008 52.2486 1.15032 52.1175 0.682772C51.7576 -0.601099 52.3736 -3.82109 53.3189 -5.5973C53.4957 -5.92937 54.3816 -6.86468 55.2877 -7.67561C56.5427 -8.79912 57.2287 -9.23677 58.1681 -9.5138ZM76.87 -26.856C79.9175 -28.3595 83.9657 -29.1738 87.7129 -29.0378L89.3578 -28.9782L89.4934 -27.7851C89.6718 -26.2158 88.9458 -24.443 87.7511 -23.5308C86.5913 -22.6453 85.9824 -22.6143 85.2271 -23.4019C84.5905 -24.0658 84.5869 -24.0534 85.7691 -25.278C86.2359 -25.7613 86.2427 -25.9267 85.8177 -26.4663C84.7848 -27.7781 82.3849 -27.3317 81.5094 -25.6653C80.6292 -23.9894 81.0698 -22.2354 82.7156 -20.8655C84.7993 -19.1313 88.0694 -19.7865 90.2654 -22.3779C91.4333 -23.7559 91.971 -25.191 92.0612 -27.1704L92.1283 -28.64L93.2337 -28.386C94.6701 -28.0558 97.9022 -26.5633 99.0425 -25.7041L99.9368 -25.0299L98.7846 -23.925C97.4785 -22.6725 94.9145 -21.0628 93.2002 -20.419C91.8084 -19.8963 91.8206 -19.9066 92.1627 -19.5498C92.6458 -19.0461 94.7764 -18.668 96.1008 -18.8508C97.5756 -19.0545 100.018 -20.4223 101.578 -21.9182L102.62 -22.9173L104.071 -21.4039L105.523 -19.8902L104.511 -19.1612C103.102 -18.1456 100.254 -16.8188 97.6057 -15.9445C95.8449 -15.3631 94.9527 -15.2467 93.4275 -15.3991C90.0332 -15.7388 86.5977 -14.061 84.6966 -11.1354C83.3186 -9.0149 82.7969 -7.14783 82.7395 -4.13206L82.6858 -1.29056L81.7655 -1.81188C80.958 -2.26937 80.796 -2.4856 80.4413 -3.57808C80.1262 -4.54889 80.1441 -5.12142 80.5232 -6.18026L81.0091 -7.5379L80.1334 -7.11974C78.9401 -6.54997 78.0827 -5.31758 77.8179 -3.79136C77.4728 -1.80393 78.5172 0.521511 80.4933 2.16642L81.4354 2.95047L79.8833 2.87863C78.3561 2.80786 78.1682 2.90797 77.6613 4.06193C77.4988 4.43219 77.3977 4.36199 76.8173 3.47584C75.8849 2.05251 75.7171 1.31419 75.511 -2.27752C75.1714 -8.18816 74.1571 -10.9389 71.0838 -14.2845L69.2431 -16.2881L70.7419 -18.3371C72.3531 -20.5396 73.6428 -22.8547 74.1437 -24.4434C74.5442 -25.7129 74.5335 -25.7034 76.87 -26.856ZM132.164 -78.3992C133.387 -78.8713 135.695 -78.8854 136.748 -78.4271C137.922 -77.9153 139.528 -76.2161 140.358 -74.6068C140.724 -73.8959 141.426 -71.9421 141.917 -70.2651C142.727 -67.5 142.928 -67.0791 144.083 -65.7469C145.218 -64.4373 145.499 -64.2367 146.67 -63.9047L147.983 -63.5319L148.279 -61.5036C148.884 -57.3614 148.197 -53.4504 146.243 -49.9135C144.826 -47.3495 141.359 -44.0245 138.738 -42.7165C136.732 -41.7153 134.095 -40.9596 132.24 -40.8542C130.906 -40.7783 130.968 -40.9059 132.91 -42.2217C133.63 -42.7099 135.049 -43.8993 136.064 -44.865C139.354 -47.9953 139.9 -50.0285 138.319 -53.2616C137.123 -55.7052 136.812 -56.8383 136.937 -58.2939C137.022 -59.2928 137.207 -59.6904 137.89 -60.3451C139.021 -61.4297 140.23 -61.7497 141.352 -61.2611C142.97 -60.5567 143.995 -57.9642 143.47 -55.9065L143.186 -54.7914L144.083 -55.537C146.068 -57.1863 146.611 -59.0729 145.712 -61.1985C144.576 -63.8871 141.564 -65.3046 138.367 -64.6554C137.838 -64.548 137.83 -64.5721 138.253 -65.0051C138.936 -65.7038 139.657 -67.7007 139.715 -69.0536C139.862 -72.4922 137.459 -75.422 134.306 -75.6493C129.614 -75.9875 126.811 -70.4437 130.346 -67.8166C132.171 -66.4613 135.075 -67.6752 135.202 -69.8462C135.273 -71.0481 134.536 -71.7264 133.325 -71.5743C132.518 -71.4729 132.448 -71.4153 132.289 -70.7257C132.195 -70.3185 132.017 -69.9879 131.893 -69.9905C131.104 -70.0071 131.209 -71.598 132.051 -72.4057C133.659 -73.9479 136.628 -72.7173 137.03 -70.3419C137.313 -68.676 136.92 -67.3444 135.843 -66.3112C135.336 -65.8247 134.645 -65.3445 134.309 -65.2441C133.279 -64.9375 131.734 -65.0096 130.815 -65.4075C129.661 -65.9071 127.908 -67.7608 127.435 -68.9818C126.141 -72.3226 128.477 -76.976 132.164 -78.3992ZM107.039 -52.0236C107.366 -51.9407 107.754 -51.9889 107.902 -52.1305C108.378 -52.5872 108.649 -52.2963 109.512 -50.4003C110.483 -48.2677 112.882 -45.3277 114.746 -43.9862C115.764 -43.2537 115.839 -43.1493 115.45 -43.0104C114.466 -42.6597 113.373 -41.5473 113.072 -40.5899C112.637 -39.2042 113.059 -37.8601 114.262 -36.8077C115.069 -36.1014 115.445 -35.9632 116.495 -35.9864C117.189 -36.002 118.025 -36.1674 118.352 -36.3541C119.327 -36.9101 120.067 -38.1864 120.091 -39.3538C120.103 -39.9547 120.154 -40.4379 120.204 -40.4278C120.255 -40.4176 121.23 -40.0477 122.371 -39.6063L124.447 -38.8033L123.82 -38.2023C122.937 -37.3551 120.963 -34.5285 119.792 -32.4334L118.8 -30.6578L116.757 -30.7156C115.166 -30.7607 114.403 -30.6179 113.302 -30.0682C110.572 -28.7046 109.016 -25.7914 108.909 -21.8444L108.851 -19.7022L107.817 -21.0166C107.249 -21.7394 106.204 -22.9352 105.496 -23.6738L104.208 -25.0168L105.259 -26.8316C105.837 -27.8297 106.778 -29.9327 107.35 -31.505C108.247 -33.9671 108.403 -34.8266 108.477 -37.7072C108.562 -41.0207 108.035 -44.6409 106.73 -49.7169C106.42 -50.9219 106.229 -51.9677 106.305 -52.0411C106.381 -52.1143 106.712 -52.1066 107.039 -52.0236ZM156.022 -98.868C157.864 -99.8807 159.83 -100.365 161.85 -100.303C165.472 -100.191 168.063 -99.0083 170.662 -96.2784C172.758 -94.0783 173.618 -92.1796 173.538 -89.9351C173.471 -88.0872 173.042 -87.3688 173.032 -89.0899C173.022 -90.8795 172.549 -92.0666 171.214 -93.6523C169.344 -95.8741 167.25 -96.9379 164.473 -97.0778C160.49 -97.2782 156.895 -93.651 156.824 -89.361C156.727 -83.5536 162.191 -77.5341 168.502 -76.4952L169.51 -76.3294L168.284 -75.8096C166.541 -75.0702 163.593 -73.1009 162.136 -71.7014C160.59 -70.2173 158.516 -67.4784 156.202 -63.8655C154.492 -61.1955 151.946 -57.6061 151.373 -57.0561C151.212 -56.902 151.079 -57.6531 151.057 -58.8433C151.035 -59.9723 150.894 -61.6168 150.743 -62.4975C150.499 -63.9175 150.543 -64.1715 151.13 -64.7429C152.755 -66.3246 152.664 -68.9893 150.745 -75.9172C147.861 -86.335 149.978 -95.5433 156.022 -98.868ZM69.0232 -12.8822C70.3826 -11.4647 71.3977 -9.76062 72.0361 -7.82471C72.6042 -6.10108 73.1968 -1.18888 72.8737 -0.879049C72.6022 -0.618697 68.5659 -5.40262 67.7945 -6.89921C67.3824 -7.6981 67.1614 -8.71546 67.1467 -9.87997C67.1268 -11.4207 67.5001 -13.3213 67.909 -13.7624C67.9822 -13.8413 68.4835 -13.4451 69.0232 -12.8822ZM52.6122 4.76544C53.2514 5.29217 54.6402 6.21392 55.6985 6.81376C58.3118 8.29457 58.736 8.78013 58.5922 10.1243C58.487 11.1111 58.3631 11.3038 57.2548 12.2037C56.5241 12.7971 55.4063 13.403 54.4713 13.7125C52.7117 14.2949 48.9648 14.5828 45.8522 14.3747L43.7706 14.2355L45.6806 11.975C47.5412 9.773 50.2991 5.90211 50.7987 4.79194C51.2489 3.79145 51.4272 3.7888 52.6122 4.76544ZM191.539 -127.847C194.69 -128.895 198.543 -126.558 199.633 -122.939C200.405 -120.372 199.828 -117.643 197.971 -115.086C195.02 -111.021 188.922 -110.434 184.567 -113.797C181.366 -116.27 181.995 -121.776 185.505 -122.003C187.086 -122.105 188.124 -121.649 189.466 -120.264C190.396 -119.304 190.738 -118.738 191.08 -117.59C191.341 -116.718 191.635 -116.16 191.812 -116.198C192.346 -116.312 193.037 -119.124 192.822 -120.306C192.542 -121.842 190.951 -123.817 189.271 -124.714C188.608 -125.068 188.036 -125.388 188 -125.426C187.821 -125.613 190.656 -127.553 191.539 -127.847ZM61.8851 -3.90647C62.352 -4.08431 63.0852 -4.20168 63.5141 -4.16754L64.2943 -4.10514L63.2005 -3.84702C61.4895 -3.44314 59.8676 -1.60335 59.7496 0.067795C59.6967 0.819261 60.4324 1.97742 61.3558 2.59591C62.0678 3.07289 63.6218 2.94356 64.2373 2.3558C64.8298 1.79017 64.768 0.593758 64.1084 -0.143633C63.2239 -1.13244 63.3366 -1.40059 64.4592 -0.975938C65.8421 -0.452866 66.5281 0.930273 66.1651 2.46342C65.7621 4.16583 65.1206 4.94137 63.7488 5.38613C60.3876 6.47511 57.4122 2.75015 58.822 -0.782342C59.3299 -2.05547 60.7039 -3.45674 61.8851 -3.90647ZM49.8348 18.1243C53.1528 18.429 55.5203 19.2412 57.1014 20.6169C58.1544 21.5328 58.2683 21.727 58.3331 22.7177C58.4197 24.0414 57.7628 24.7686 55.5328 25.818C54.7139 26.2036 53.3329 27.0143 52.4643 27.6198C51.0244 28.6237 50.8618 28.6777 50.6216 28.2308C49.3931 25.945 47.1652 22.5124 45.6118 20.5132L43.7374 18.1001L45.4269 17.9874C46.3564 17.9253 48.3398 17.9869 49.8348 18.1243ZM76.68 7.22246C76.6785 7.28441 76.214 7.54893 75.6475 7.81036C74.6203 8.28434 73.8328 9.26478 73.0542 11.0387C72.8666 11.4654 72.8209 11.4718 72.7866 11.0754C72.7116 10.207 71.3052 7.52482 70.4659 6.64953C70.0121 6.1764 69.2616 5.65961 68.7977 5.50113C68.3342 5.34266 67.9691 5.17341 67.987 5.12524C69.1366 2.01776 69.086 0.589662 67.7506 -1.53451C66.9727 -2.77192 67.338 -2.44247 71.7889 2.1075C74.4801 4.859 76.6812 7.16069 76.68 7.22246ZM63.692 8.26692C64.619 7.98999 64.6566 8.00329 64.3812 8.50854C63.966 9.27106 64.4463 11.2465 65.4418 12.8681C65.9112 13.6333 66.1408 14.1116 65.9516 13.9308C65.7626 13.7498 65.1037 13.5912 64.4879 13.5781C63.5426 13.558 63.2821 13.668 62.82 14.2816C62.3117 14.9568 62.2506 14.9708 61.9682 14.4757C61.737 14.071 61.4072 13.9595 60.5963 14.0119L59.5289 14.0808L60.0197 13.6101C61.2911 12.3909 61.4167 9.69094 60.2411 8.85594C59.7988 8.54196 59.9234 8.50029 61.2231 8.52795C62.0419 8.54538 63.153 8.42778 63.692 8.26692ZM89.8358 -12.3061C92.3323 -13.4254 94.5522 -12.9629 96.8053 -10.8541C98.0215 -9.7159 98.2857 -9.33453 98.596 -8.26727C99.316 -5.79332 98.3718 -3.39066 96.2893 -2.39622C94.7303 -1.65198 92.4702 -2.17901 91.6233 -3.48391C91.2334 -4.08424 91.5545 -4.78567 92.0044 -4.31649C92.8737 -3.41003 95.2082 -4.12783 95.6606 -5.44075C96.4677 -7.78141 93.8665 -10.1122 91.4767 -9.1896C88.2001 -7.92483 87.5564 -4.05987 90.1717 -1.35339C91.5126 0.0343018 92.9611 0.612658 94.8315 0.507541C97.288 0.36947 99.7646 -1.22094 100.705 -3.26376C100.866 -3.61455 100.98 -3.34157 101.153 -2.19172C101.281 -1.34335 101.654 0.265789 101.983 1.38402C102.711 3.86127 102.456 5.42025 100.986 7.4803C100.218 8.5568 99.6552 9.10099 98.5102 9.87427C96.2132 11.4258 94.539 11.8813 91.4493 11.7955C88.2396 11.7062 85.6329 10.8771 83.0326 9.11833C81.4051 8.01733 81.3278 7.93402 81.308 7.25807C81.2752 6.13694 82.2878 5.35477 83.5909 5.49488C84.517 5.5946 84.76 5.73752 85.2797 6.48831C85.6135 6.97084 86.1919 7.78503 86.5648 8.29819L87.2428 9.23093L87.7199 7.73111C88.3777 5.66408 88.1138 3.715 86.6833 0.0712887C85.6449 -2.57349 85.467 -3.34605 85.4953 -5.08661C85.5482 -8.31619 87.2498 -11.1467 89.8358 -12.3061ZM61.49 18.8971C61.7996 18.7205 62.0889 18.4373 62.1325 18.2676C62.1846 18.0662 62.362 18.1948 62.6451 18.6391C63.1887 19.4921 64.3471 19.7965 65.447 19.3747L66.2454 19.0685L65.5697 19.9616C64.4864 21.3937 63.7773 23.3546 63.992 24.3237L64.1864 25.1987L63.2613 24.8713C62.7526 24.6912 61.6543 24.5169 60.8211 24.4841C59.6213 24.4366 59.4115 24.3654 59.8135 24.1413C61.0954 23.4267 61.2365 21.2824 60.1084 19.6546L59.4658 18.7273L60.1964 18.9727C60.5984 19.1076 61.1807 19.0737 61.49 18.8971ZM54.7856 29.1958L55.9415 28.5483L55.5656 29.8754C55.1007 31.5175 55.1794 32.9921 55.8322 34.8743C56.2658 36.1246 56.5351 36.5086 57.7964 37.676C59.4662 39.2211 60.7858 39.7822 62.7557 39.7846L64.033 39.7858L63.6971 41.1535L63.3612 42.5215L62.0946 42.7522C58.948 43.3251 56.6008 42.6069 54.2263 40.3438C52.7066 38.8959 52.5328 38.638 51.9847 37.0228C51.6581 36.0594 51.3761 34.544 51.3581 33.6551C51.3264 32.072 51.349 32.0168 52.4778 30.9411C53.1117 30.3372 54.1502 29.5517 54.7856 29.1958ZM100.339 -13.8693C103.045 -14.7626 104.389 -14.1745 104.418 -12.0858C104.442 -10.2437 103.222 -8.97382 101.752 -9.3128C101.11 -9.4609 100.909 -9.63954 100.513 -10.4127C100.252 -10.9207 99.6641 -11.7276 99.2051 -12.2062C98.7462 -12.6847 98.422 -13.1253 98.4847 -13.1854C98.5474 -13.2455 99.3817 -13.5533 100.339 -13.8693ZM72.3277 13.4351C74.6768 13.0161 76.5944 14.5996 76.5114 16.8897C76.3937 20.1388 72.4116 21.4246 70.4082 18.8605C69.6667 17.9111 69.5268 17.0369 69.8909 15.627C70.1981 14.4372 71.0606 13.6612 72.3277 13.4351ZM49.0574 36.467C49.7053 39.4502 52.2679 42.8138 54.94 44.1888C57.1926 45.3476 60.631 45.8418 62.5347 45.2801L63.3395 45.0425L63.7055 46.2669L64.0714 47.4914L63.1553 47.0187C62.3457 46.6011 61.2526 46.6672 60.7333 47.1652C60.65 47.2451 61.0114 47.6798 61.536 48.1315C62.3442 48.827 62.4985 49.1047 62.5442 49.9467C62.5923 50.8276 62.4812 51.0483 61.5711 51.8836C60.2422 53.1029 58.8931 53.5915 56.973 53.5493C54.9802 53.5055 53.3395 52.6378 51.3741 50.5883C48.6745 47.7731 47.3293 44.4426 47.4196 40.7969C47.4639 39.0125 48.166 36.1504 48.6807 35.6569C48.772 35.5693 48.9416 35.9339 49.0574 36.467ZM107.382 -16.7903C107.64 -16.8188 108.581 -14.735 109.18 -12.8101C110.013 -10.1338 110.222 -6.79711 109.743 -3.83041C109.012 0.690191 107.39 3.88472 104.388 6.71184L102.587 8.40877L103.302 7.27708C104.761 4.97162 104.901 3.28201 103.905 0.0403951C103.197 -2.26336 103.287 -4.0951 104.15 -4.92239C104.487 -5.24554 104.961 -5.50562 105.204 -5.50045C105.739 -5.48906 106.481 -4.76261 106.375 -4.35361C106.246 -3.85316 106.617 -3.6847 107.013 -4.06416C107.22 -4.26208 107.396 -4.77404 107.404 -5.20201C107.418 -5.84029 107.249 -6.12729 106.469 -6.79864L105.518 -7.61691L106.066 -8.38304C106.879 -9.51947 107.147 -10.5224 106.994 -11.8577C106.877 -12.888 106.694 -13.2227 105.666 -14.2942L104.474 -15.5364L105.861 -16.1559C106.624 -16.4969 107.309 -16.7823 107.382 -16.7903ZM60.1169 27.9692C62.7589 26.5298 65.6732 28.2889 65.6115 31.2858C65.5841 32.6149 64.8479 33.7488 63.7966 34.0801C62.8218 34.3874 62.5794 34.0201 63.3584 33.4158C63.7907 33.0802 63.9727 32.6743 63.9863 32.0143C64.0085 30.9265 63.7162 30.5534 62.5946 30.2393C61.2374 29.8591 59.8803 30.5874 59.3196 31.9973C58.5428 33.9508 60.6416 36.8263 63.0098 37.0529L63.8641 37.1347L62.8738 37.1834C60.0722 37.3209 57.5306 34.4021 57.8498 31.4141C57.9119 30.8341 58.1407 30.0935 58.3584 29.7684C58.576 29.4433 58.8116 29.0681 58.8817 28.9346C59.0905 28.5379 59.1312 28.5061 60.1169 27.9692ZM102.122 -7.66272C102.534 -7.23259 102.577 -7.01779 102.302 -6.75438C102.104 -6.56456 101.843 -6.20227 101.723 -5.94955C101.563 -5.61216 101.48 -5.81457 101.415 -6.70943C101.305 -8.21273 101.431 -8.38275 102.122 -7.66272ZM84.1929 12.5039C86.956 13.782 89.2151 14.3305 91.8996 14.3757C94.9565 14.4269 97.3769 13.8419 100.574 12.2781C103.299 10.9456 103.747 10.9327 104.916 12.1518C106.127 13.4146 105.585 15.6632 103.787 16.8388L102.994 17.3571L103.737 18.0428C105.172 19.3667 105.446 19.8325 105.424 20.9149C105.406 21.776 105.238 22.1465 104.579 22.7788C104.126 23.2127 103.516 23.5952 103.223 23.6285C102.93 23.6618 101.663 23.1329 100.408 22.4533C96.7553 20.4749 93.6849 19.7456 89.9181 19.9625C88.0924 20.0676 84.2569 21.1732 83.048 21.9429C82.1602 22.5081 82.0258 22.3887 82.3292 21.3034C82.6622 20.1111 81.9334 18.4558 80.7214 17.6524L79.8031 17.0434L81.0729 15.8794C82.468 14.6003 82.8421 13.6872 82.4881 12.4243C82.3788 12.035 82.3042 11.7021 82.322 11.685C82.3398 11.668 83.1816 12.0364 84.1929 12.5039ZM73.0583 23.0015C73.4487 24.2807 74.284 25.3395 75.325 25.8744L76.2891 26.3702L72.0645 30.633C69.7408 32.9775 67.3945 35.1919 66.85 35.5537C65.8939 36.1894 65.8816 36.1893 66.4864 35.5502C68.0243 33.9258 68.5912 31.6119 67.957 29.549C67.729 28.8075 67.5296 28.1564 67.5138 28.1016C67.498 28.0469 67.8082 27.9523 68.2029 27.8914C68.6331 27.8251 69.3031 27.4136 69.8765 26.8638C70.8441 25.9359 72.2857 23.6808 72.3124 23.0533C72.3203 22.8655 72.439 22.6043 72.5758 22.4732C72.7793 22.2779 72.8669 22.3742 73.0583 23.0015ZM77.1489 29.6929C77.1284 30.6904 78.3581 31.2314 79.9735 30.9355L80.8209 30.7802L79.3108 32.2305C78.059 33.4331 77.7132 33.9266 77.2858 35.1203C76.4369 37.4917 77.3551 40.1523 79.3303 41.0444L80.0968 41.3907L79.7454 40.6464C79.2769 39.6547 79.2607 38.0754 79.708 37.0234C79.9905 36.3585 80.2804 36.0538 81.0115 35.6533L81.9514 35.1383L81.8559 37.845C81.7816 39.9545 81.9196 41.0321 82.48 42.7274C83.1642 44.7974 83.2867 44.9942 84.9997 46.7805C86.6005 48.4498 86.9697 48.7199 88.3282 49.216C89.2532 49.5537 90.6774 49.7589 91.9368 49.7362C93.3581 49.7104 94.6478 49.9214 96.006 50.4022C98.3066 51.2163 101.818 53.0321 103.066 54.0537L103.928 54.759L102.177 56.4382L100.426 58.1175L99.2589 57.1638C96.83 55.1786 93.8217 54.2323 91.8374 54.8298C90.3036 55.2915 90.2119 55.4573 91.2418 55.9059C93.515 56.8961 97.8836 59.8343 97.5534 60.151C97.0595 60.6245 94.4571 61.8069 92.8484 62.2886C90.0366 63.1306 90.1507 63.155 90.2722 61.7384C90.3308 61.0544 90.1538 59.7886 89.8793 58.9259C89.4659 57.628 89.1441 57.1113 88.0153 55.9343C86.8142 54.6818 86.477 54.4657 85.1996 54.1294C83.6314 53.7162 81.6932 54.0961 80.7489 55.0017C79.9226 55.7941 79.2855 57.477 79.4329 58.4788C79.6446 59.9175 80.8881 61.1019 82.2481 61.1601C83.1194 61.1974 83.4533 61.0708 83.9405 60.5178C84.5214 59.8583 84.5175 59.7983 83.8481 59.1002C83.0425 58.2602 83.0833 57.5865 83.9708 57.0803C84.7314 56.6464 85.9299 57.168 86.7499 58.2897C87.8499 59.7947 88.049 62.7376 87.0784 63.1455C86.4573 63.4067 81.2573 62.7492 79.0476 62.1302C77.1823 61.6077 73.6921 59.9648 73.0702 59.3163C72.9112 59.1505 72.6005 58.4227 72.3798 57.6995C71.8457 55.9479 70.9184 54.1438 69.2745 51.6577L67.9168 49.6046L69.9144 47.5657C73.3855 44.0232 74.0497 42.207 74.971 33.74C75.1531 32.0653 75.7406 30.6521 76.6125 29.7907C77.0367 29.3716 77.156 29.3499 77.1489 29.6929ZM72.1922 35.6786C72.0186 37.8179 71.169 41.3408 70.5119 42.6461C69.7675 44.1248 66.9287 47.2785 66.6262 46.9631C66.2771 46.599 65.9693 44.5677 66.0304 43.0304C66.1186 40.8122 66.9499 39.4245 69.8646 36.6316L72.3046 34.2935L72.1922 35.6786ZM83.9932 24.1165C86.4244 22.9042 88.9035 22.4334 92.0078 22.5945C95.49 22.7749 97.0706 23.5007 99.5005 26.0345C101.984 28.624 102.377 30.489 101.171 33.9466C100.815 34.9651 100.428 36.4219 100.31 37.184L100.095 38.5693L99.6143 37.5195C98.7162 35.557 95.8156 33.7743 93.5727 33.806C89.732 33.8606 86.608 37.8575 87.9476 41.0035C88.8264 43.0679 90.8699 44.1345 92.7676 43.5196C93.9299 43.1431 94.0591 43.0401 94.5348 42.1111C95.5967 40.0374 93.841 37.7378 91.7289 38.4359C90.4139 38.8705 90.1344 38.4321 91.1231 37.4858C92.1998 36.455 93.6209 36.1814 95.0105 36.7374C96.439 37.3087 97.2434 38.1404 97.6361 39.4524C98.2685 41.5649 97.7518 43.3817 96.0557 45.0082C94.3727 46.6221 93.1668 47.1486 91.2461 47.1077C87.3706 47.025 84.4537 43.4924 84.5984 39.056C84.654 37.347 84.8822 36.5157 85.983 34.0116C87.5383 30.4733 87.8729 28.9162 87.4871 27.0098C87.0842 25.0175 86.842 24.8464 86.0407 25.989C85.685 26.4962 84.9875 27.3061 84.4903 27.7886C83.7624 28.4953 83.4343 28.647 82.806 28.5673C81.8419 28.4452 80.9298 27.5355 80.9046 26.6705C80.8826 25.9224 81.6589 25.2803 83.9932 24.1165ZM113.95 0.412381C116.74 0.359192 119.042 2.18264 119.07 4.46713C119.084 5.65389 117.538 7.03899 114.789 8.30212C112.242 9.4719 111.36 10.2219 111.388 11.191C111.409 11.8973 111.647 12.1428 114.425 14.3273C115.398 15.0923 115.349 15.2956 114.106 15.6511C112.942 15.9842 108.484 15.7902 108.866 15.423C109.042 15.2548 109.391 14.6645 109.641 14.1112C110.592 12.0129 108.809 9.72472 106.179 9.66875L104.82 9.63964L105.88 8.81488C107.343 7.6761 109.471 4.87307 110.566 2.64521C111.579 0.582614 111.774 0.454334 113.95 0.412381ZM65.7047 50.8789C66.0066 51.3763 66.8302 52.6599 67.5351 53.7319C70.2818 57.9082 70.4953 60.5195 68.2637 62.6418C66.2268 64.5789 63.8593 64.7316 62.2286 63.0311C60.949 61.6968 60.7649 59.3889 61.8548 58.3437C62.1775 58.0343 62.7079 58.4378 62.5882 58.9019C62.4491 59.4411 63.5349 60.2797 64.4916 60.3722C66.3671 60.5534 67.4187 58.5203 66.4729 56.5418C65.9669 55.483 64.862 54.6753 63.9551 54.7012C62.9539 54.7298 62.8674 54.4894 63.6194 53.7682C64.441 52.9804 65.008 51.7009 64.9717 50.7169C64.9361 49.7571 65.0371 49.7794 65.7047 50.8789ZM114.518 19.9117C114.734 20.1363 114.908 20.4054 114.906 20.51C114.904 20.6148 114.156 21.176 113.245 21.7576C111.22 23.0492 110.773 23.6906 111.219 24.6646C111.587 25.4678 112.059 25.8064 114.958 27.345C118.199 29.0642 119.132 30.5913 118.116 32.5095C117.179 34.2759 114.23 35.2865 111.852 34.6551L110.808 34.3781L110.106 32.7373C109.13 30.4603 106.943 27.2783 105.579 26.1511L104.472 25.237L105.66 25.2409C107.639 25.2474 109.143 24.3235 109.671 22.7779C109.933 22.0103 109.731 21.205 108.941 19.8682L108.537 19.1852L111.332 19.3446C113.027 19.4411 114.281 19.6645 114.518 19.9117ZM106.493 31.4061C109.173 36.1201 109.754 42.2912 108.027 47.6957C107.418 49.6032 106.203 51.9524 105.83 51.9445C105.712 51.942 105.402 51.7244 105.143 51.4611C104.883 51.1979 104.348 50.8871 103.953 50.7703C103.558 50.6536 103.191 50.5187 103.138 50.4707C103.085 50.4224 103.618 49.8302 104.322 49.1546C105.436 48.0862 105.627 47.7715 105.788 46.7391C106.006 45.339 105.719 44.2005 104.898 43.2136C104.48 42.7105 104.406 42.4551 104.648 42.353C106.077 41.7498 106.879 40.4059 106.396 39.4242C106.049 38.7194 105.598 38.6695 105.434 39.3184C105.359 39.6131 105.021 40.0123 104.681 40.2061C104.144 40.5127 103.972 40.4623 103.354 39.8174C102.381 38.8028 102.357 37.3453 103.272 34.6878C104.225 31.9155 104.187 30.0109 103.138 28.049L102.337 26.5507L103.897 28.0685C104.99 29.1307 105.769 30.1325 106.493 31.4061ZM74.5789 63.1711C76.4974 64.2752 80.331 65.2825 83.8829 65.6152C84.6992 65.6916 85.4437 65.8343 85.5377 65.9323C85.7568 66.1608 83.7463 67.731 82.0368 68.6664C78.862 70.4038 76.1491 69.8731 74.5178 67.1951C73.8747 66.1398 73.1143 63.0439 73.4248 62.7462C73.5105 62.6639 74.03 62.8552 74.5789 63.1711ZM101.157 41.2204C101.656 41.8507 101.724 42.0918 101.439 42.2119C101.231 42.2992 100.885 42.5394 100.67 42.7456C100.34 43.0623 100.296 42.9098 100.391 41.7669C100.453 41.0221 100.502 40.4072 100.501 40.4004C100.499 40.3933 100.795 40.7625 101.157 41.2204ZM100.407 44.1376C101.756 43.7575 102.705 44.3307 103.135 45.784C103.453 46.8595 103.23 47.8614 102.527 48.5221C101.722 49.2782 101.191 49.272 98.9696 48.4813L97.021 47.7875L98.0672 46.7554C98.6424 46.1879 99.2437 45.4369 99.4028 45.0864C99.5619 44.7363 99.7137 44.4188 99.7401 44.3809C99.7664 44.3434 100.067 44.2339 100.407 44.1376ZM84.3351 70.3419C84.9104 69.9957 86.2839 68.7949 87.3874 67.6733C89.3216 65.7074 89.4345 65.6294 90.5297 65.5043C92.9141 65.2317 98.1146 63.2169 99.2538 62.1244C99.6073 61.7854 99.6994 61.8503 100.716 63.1546C103.014 66.1011 104.88 69.7601 105.551 72.6362C106.125 75.0995 106.08 78.483 105.449 80.2057C104.994 81.4485 104.644 81.9561 103.466 83.0823C101.846 84.6303 100.89 85.0225 98.9103 84.9513C96.5031 84.8647 94.5848 83.1434 94.0417 80.5828C93.5708 78.3626 94.6679 76.1835 96.8594 74.9854L97.5279 74.62L96.7124 74.3915C94.9139 73.8877 92.2779 75.0014 91.1357 76.7469C90.7945 77.2684 90.4614 77.7507 90.396 77.8185C90.3303 77.8862 90.1178 77.4532 89.9233 76.8561C89.1994 74.6324 85.6148 71.7425 83.4262 71.6183C82.4985 71.5658 82.2879 71.3919 82.8604 71.1514C83.0962 71.0522 83.7597 70.688 84.3351 70.3419ZM107.299 56.8421C107.277 58.0613 107.499 59.7076 107.827 60.7435C108.323 62.3152 108.573 62.7237 109.855 64.0614L111.318 65.5867L110.232 65.9033C109.635 66.0776 108.69 66.5804 108.133 67.0209C107.295 67.6829 107.091 67.7473 106.959 67.3919C106.513 66.1901 104.827 63.1843 103.984 62.0888C102.17 59.7298 102.126 60.1295 104.454 57.7671C105.582 56.6222 106.692 55.4709 106.921 55.2091C107.283 54.7949 107.332 55.0073 107.299 56.8421Z" fill="#F7C24D"/>
</g>
<defs>
<clipPath id="clip0">
<rect width="60" height="32" fill="white"/>
</clipPath>
</defs>
</svg>
