<svg xmlns="http://www.w3.org/2000/svg" width="60" height="32" fill="none" viewBox="0 0 60 32"><g clip-path="url(#clip0)" opacity=".34"><path fill="#F7C24D" fill-rule="evenodd" d="M19.776 9.633c-.598 1.549-.249 3.25.984 4.794l.968 1.212-.962 1.108c-1.693 1.947-1.885 4.14-.533 6.09 1.412 2.038 4.694 2.158 6.078.222.986-1.378.577-3.122-.895-3.815-.343-.162-.407-.051-.423.737-.022 1.093-.596 1.74-1.487 1.676-2.13-.151-1.666-3.279.537-3.619 1.762-.272 2.971.712 5.1 4.148 1.425 2.298 4.56 5.903 5.742 6.602.815.481 2.857.658 3.934.34 1.144-.338 2.61-1.815 2.936-2.957.591-2.076-.637-4.435-2.44-4.69-.984-.138-1.939.345-2.187 1.106-.177.544-.172.549.549.564.937.02 1.811.936 1.792 1.878-.023 1.09-.873 1.756-2.174 1.7-1.012-.044-1.212-.16-2.397-1.396-2.1-2.19-2.226-4.238-.371-6.017 1.779-1.706 3.919-1.734 6.292-.081 2.045 1.424 5.393 6.107 7.244 10.133l.622 1.352-1.083 1.675c-.596.922-1.323 2.242-1.616 2.935a31.308 31.308 0 0 1-.564 1.29c-.018.015-.592-.555-1.276-1.268-1.121-1.17-1.368-1.313-2.516-1.461-3.566-.46-6.516 2.167-5.581 4.971.488 1.467 1.285 2.15 2.538 2.177 1.209.026 2.195-.699 2.214-1.627.007-.312-.208-.998-.478-1.523-.27-.526-.433-1.01-.364-1.076.069-.066.513-.1.988-.075 1.675.088 2.789 2.092 2.144 3.857-.282.774-1.752 1.968-2.26 1.837-.506-.131-.624.267-.207.702.739.77 2.577.661 3.483-.208.583-.558.749-.497.793.293.05.884.793 3.262 1.524 4.874.87 1.918 3.691 5.235 5.463 6.422 1.763 1.182 4.214 1.924 6.148 1.863l1.654-.053-.59.974c-1.234 2.035-.58 5.626 1.396 7.679 1.108 1.15 3.214 1.963 4.785 1.846 1.428-.107 3.497-1.063 4.608-2.127.43-.412.818-.71.864-.662.046.048.208.701.36 1.451.152.75.537 1.852.856 2.448.55 1.028.548 1.073-.044.86-.892-.32-1.992.092-2.369.886-.892 1.883 3.33 4.096 6.765 3.545 1.342-.215 1.733-.105 1.026.288-.734.41-2.021 2.508-2.261 3.686-.304 1.495.036 2.703 1.142 4.062 1.035 1.27 2.183 1.746 3.588 1.484 1.988-.37 2.946-1.892 2.342-3.717-.3-.904-.37-.973-1.308-1.276-.85-.274-.977-.383-.886-.752.165-.668.574-.96 1.92-1.372.908-.278 1.573-.263 2.469.053 2.978 1.052 3.978 3.819 3.215 8.894l-.17 1.136.877-.822c.483-.453 1.112-1.288 1.399-1.857.385-.765.554-.95.646-.71 1.124 2.923 3.407 5.34 5.914 6.259 2.29.84 4.846.467 7.453-1.087l1.117-.665-.626 1.643c-.848 2.223-1.391 5.264-1.248 6.983.24 2.863 1.026 4.4 2.582 5.047.322.134.328.372.026.966-1.283 2.522-3.757 3.005-5.477 1.07-.407-.457-.818-.757-.914-.665-.096.093-.139.798-.095 1.568.139 2.44 1.997 4.392 4.093 4.301 1.931-.084 3.381-1.331 4.242-3.647.238-.64.482-1.162.542-1.16.061.001.39.969.733 2.152.85 2.933 2.24 5.324 4.397 7.561.952.987 2.18 2.095 2.729 2.461 1.757 1.17 4.607 2.325 6.738 2.729.608.115.594.147-.459 1.036-.597.505-1.012.985-.923 1.066.089.082 1.169.035 2.399-.104 1.811-.204 2.572-.13 3.991.387 1.61.586 1.867.767 3.123 2.201 1.188 1.357 1.396 1.742 1.582 2.919.236 1.492-.241 3.177-1.125 3.978-.789.714-.976.651-1.275-.427-.329-1.186-1.141-1.72-2.483-1.634-1.271.083-2.161.907-2.464 2.282-.744 3.375 2.928 6.061 6.435 4.707 1.263-.488 3.198-2.354 3.953-3.812.866-1.672.975-4.593.255-6.818-.538-1.665-.747-1.993-2.298-3.619-1.383-1.451-1.945-1.882-2.972-2.285-.697-.274-1.234-.53-1.193-.569.041-.039.682-.41 1.425-.825 2.611-1.459 4.134-3.64 4.183-5.989.025-1.209-.08-1.503-.809-2.262-1.11-1.158-2.323-1.654-3.64-1.489-1.689.212-2.171.599-1.702 1.367.216.353.383 1.082.372 1.621-.035 1.663-.449 2.497-1.816 3.65-1.608 1.357-3.476 1.78-5.763 1.305-4.799-.998-8.457-4.627-9.993-9.916-1.015-3.495-1.721-11.348-1.895-21.07-.058-3.313-.274-7.121-.477-8.462-.408-2.688-.205-3.182 1.227-2.98.709.1 1.021.302 1.471.95 1.133 1.637 1.209 3.589.349 9.029-1.033 6.54-.385 9.459 2.392 10.772 1.322.626 2.364.426 3.51-.674 1.917-1.838 1.841-5.326-.134-6.112l-.659-.263-.272.97c-.149.535-.533 1.17-.854 1.414-.503.383-.678.359-1.288-.179-.633-.559-.692-.813-.58-2.507.081-1.23.651-3.438 1.643-6.36.948-2.797 1.573-5.19 1.666-6.374.183-2.337-.412-4.427-1.617-5.684l-.866-.903 1.294-.178c3.213-.444 6.569-2.873 7.898-5.717 1.229-2.627.684-5.214-1.601-7.596-1.024-1.068-2.68-1.669-4.486-1.628-2.884.065-5.386 2.656-5.512 5.709-.072 1.761.543 2.924 1.977 3.737 1.159.656 2.295.465 3.374-.569.667-.64.811-.968.769-1.75-.057-1.038-.915-2.172-1.656-2.188-.718-.015-.483-.426.393-.685 1.195-.352 1.73-.218 2.583.647 2.315 2.348-.273 6.928-4.308 7.626-3.365.581-6.01-2.445-5.756-6.587.146-2.38 1.016-3.691 4.413-6.652 3.151-2.746 3.6-3.515 3.099-5.308-.324-1.16-.808-1.704-1.96-2.206-.851-.371-2.901-.318-3.321.086-.375.359-.509-.05-.454-1.387.03-.712-.069-2.291-.22-3.51l-.274-2.217.66.456c2.319 1.602 6.808.94 9.743-1.437 2.52-2.04 3.451-4.679 2.671-7.562-.347-1.28-.619-1.74-1.703-2.873l-1.291-1.35 1.612-.02c2.95-.036 6.336-1.582 7.919-3.615 1.093-1.403 1.074-1.477-.887-3.522-1.6-1.669-1.922-1.897-3.515-2.498-.965-.363-2.457-.716-3.315-.785l-1.562-.125 1.332-1.283c1.123-1.082 1.407-1.523 1.812-2.818.857-2.741-.082-5.688-2.455-7.708-2.518-2.143-7.327-3.089-9.425-1.854l-.831.49.271-1.464c.149-.806.327-2.404.395-3.552l.123-2.087.781.263c1.496.505 2.884.317 3.964-.536.897-.708 1.012-.918 1.106-2.01.166-1.944-.202-2.595-2.602-4.596-4.057-3.383-5.187-6.08-4.125-9.842.515-1.823 2.15-3.416 3.784-3.686 1.767-.293 3.588.408 5.064 1.947 2.075 2.163 2.396 4.398.846 5.884-.622.597-.969.715-1.89.643-1.335-.104-1.984-.571-1.125-.811a2.43 2.43 0 0 0 1.452-3.581c-.504-.876-2.052-1.458-3.204-1.205-1.835.404-2.801 1.89-2.701 4.153.072 1.612.684 2.8 2.129 4.127 1.016.932 1.435 1.142 2.662 1.33 2.492.381 3.377.096 5.221-1.681 2.397-2.31 2.812-3.977 1.752-7.02-.434-1.245-.819-1.854-1.843-2.916-.712-.739-1.625-1.497-2.03-1.686-.405-.19-.733-.473-.729-.632.018-.702 2.922-5.014 4.549-6.754l1.748-1.87 1.927.03 1.926.029-.043 2.118c-.034 1.622.112 2.422.621 3.41.901 1.747 1.378 2.192 2.964 2.76 3.416 1.225 6.809-1.028 10.899-7.237 1.943-2.95 4.216-5.338 5.472-5.75.639-.209.941-.145 1.355.286.601.627.416 1.575-.476 2.44-.458.444-.458.548.007.81 1.463.822 3.316.201 4.435-1.486 1.296-1.954 1.12-3.688-.506-4.992-.692-.554-1.181-.687-2.427-.654-2.375.06-2.941.417-8.023 5.044-4.435 4.038-4.547 4.123-6.074 4.608-1.682.535-2.818.288-3.404-.737-.479-.84-.132-1.249 1.578-1.864 1.975-.71 5.245-2.754 6.832-4.27 1.347-1.287 7.33-8.224 9.114-10.567 1.565-2.056 3.594-5.335 5.148-8.32.728-1.398 1.398-2.613 1.488-2.7.09-.086.223.232.296.707.543 3.52 4.698 6.961 8.505 7.042 3.339.071 6.36-2.369 6.798-5.492.491-3.495-3.747-6.54-6.79-4.878-1.634.892-2.34 3.046-1.521 4.643.447.873.623 1.027 1.432 1.258 1.309.374 2.237-.1 2.419-1.236.116-.724.005-1.02-.616-1.642-.882-.882-.797-1.078.393-.91 1.776.25 2.596 1.993 1.691 3.592-1.722 3.042-6.531 2.571-8.918-.874-.852-1.23-1.036-2.634-.533-4.065.986-2.804 4.231-4.5 9.211-4.816 3.589-.228 4.348-.382 5.566-1.134 1.318-.814 2.631-2.558 2.569-3.413-.057-.79-1.182-1.261-3.026-1.268l-1.739-.007 1.176-.939c3.331-2.66 5.47-8.303 4.92-12.976l-.186-1.585.961.581c2.808 1.697 6.254 1.131 8.443-1.384 1.979-2.276 2.125-4.487.415-6.27-.77-.803-1.156-1.013-2.035-1.107-2.756-.297-5.175 2.251-4.233 4.458.397.927.291 1.042-.816.886-1.754-.248-2.561-1.2-2.646-3.126-.125-2.833 2.047-5.738 4.863-6.505 1.783-.485 2.718-.358 6.032.819 1.476.524 2.617.783 2.707.615.313-.588-.752-1.971-2.24-2.908-.776-.488-1.623-.98-1.883-1.092-.358-.155-.077-.284 1.155-.53 2.743-.55 4.339-1.377 6.297-3.263 3.662-3.529 4.712-7.839 3.066-12.586-.369-1.064-.774-1.622-2.442-3.365l-2-2.089 2.012.455c3.762.851 6.3.648 8.878-.709 3.491-1.837 4.969-5.655 3.671-9.48-.708-2.085-3.112-4.623-5.074-5.356-2.353-.879-5.232-.03-6.313 1.859-1.312 2.293-.382 4.998 1.928 5.61 1.305.346 2.381.087 3.301-.795.657-.63.77-.931.704-1.874-.042-.617-.009-1.117.074-1.11 1.127.096 2.71 1.504 3.067 2.731.522 1.795-.091 4.126-1.42 5.394-1.048 1-3.449 1.713-5.406 1.605-.941-.051-3.7-.598-6.131-1.215-2.432-.617-4.735-1.183-5.119-1.258-.57-.111-.664-.194-.508-.45 1.575-2.594 1.953-4.435 1.3-6.347-.87-2.55-2.993-4.021-5.835-4.045-2.405-.021-3.959.5-5.544 1.856-1.781 1.525-2.431 3.073-1.954 4.654.405 1.342.819 1.821 1.886 2.186 2.109.721 4.189-.567 4.232-2.618.019-.945-.091-1.206-.704-1.668-.623-.469-.674-.598-.358-.902 1.214-1.163 3.464-1.234 4.767-.148 1.793 1.491 1.623 3.88-.416 5.862-.977.95-1.171 1.02-3.606 1.311-5.035.6-8.333 2.054-11.458 5.051l-1.88 1.803-1.283-.481c-.706-.265-2.205-.502-3.33-.528-2.392-.056-4.56.795-6.315 2.479-2.586 2.48-2.505 6.959.156 8.63 1.395.876 4.211.492 5.528-.754.888-.84 1.52-2.414 1.474-3.67-.032-.867-.243-1.341-1.004-2.258-1.17-1.411-.99-1.712.995-1.67 3.678.078 7.349 4.368 6.597 7.71-.895 3.974-5.862 5.617-16.766 5.546-6.648-.043-8.676.485-11.214 2.919-1.085 1.04-1.453 1.578-1.846 2.701-.863 2.464-.071 4.418 1.78 4.387l.898-.015-1.073 1.657c-2.18 3.366-3.143 7.055-3.224 12.344-.051 3.375.705 8.977 1.562 11.564.186.56.281 1.074.212 1.14-.069.066-.723-.401-1.453-1.039-1.496-1.306-3.382-2.51-5.551-3.544-2.594-1.236-7.053-.678-8.925 1.117-.305.293-.576.512-.6.486-.025-.026-.554-.83-1.175-1.788-3.127-4.82-6.31-6.474-8.864-4.607-1.072.782-2.018 2.627-1.838 3.584.4 2.137 2.758 3.573 5.209 3.174 2.716-.443 4.324.385 4.286 2.207-.04 1.943-2.232 2.637-4.283 1.355-3.766-2.353-6.044-2.37-7.354-.056-.605 1.069-.601 1.636.015 2.278.251.263.377.5.28.528-4.674 1.347-6.685 2.508-8.425 4.863-1.16 1.57-2.061 3.443-2.527 5.257-.157.607-.308 1.127-.337 1.155-.03.028-.683-.602-1.452-1.401-1.024-1.063-1.69-1.558-2.486-1.846-2.798-1.013-5.493 1.132-5.295 4.213l.074 1.15 1.053-.822c1.717-1.338 3.496-1.203 5.098.39.964.958.999 1.293.19 1.851-1.882 1.297-1.282 5.406 1.244 8.528l1.185 1.465-1.119-.729c-4.493-2.923-8.74-2.193-11.049 1.9-2.37 4.2.735 9.76 5.392 9.652.893-.02 1.046-.082.672-.268-3.34-1.663-4.426-6.043-2.06-8.312 1.182-1.134 3.8-1.272 5.458-.288 1.476.876 3.229 2.885 3.923 4.494 1.257 2.92.573 8.716-1.435 12.161-.45.771-.879 1.532-.955 1.69-.084.175-.493.025-1.035-.378-2.079-1.545-6.311-3.317-8.62-3.61-.698-.088-.987-.328-2.504-2.08-3.302-3.815-8.183-6.236-12.597-6.249-2.476-.007-4.633.912-5.264 2.243-.612 1.292.754 2.64 2.138 2.11l.808-.31-.637 1.017c-.35.56-.787 1.707-.97 2.549l-.332 1.53-1.258-1.09c-2.948-2.55-5.983-2.8-8.664-.712-1.298 1.01-2.27 2.714-2.605 4.572-.241 1.33.156 3.206.826 3.904.326.34.102.392-1.4.325-3.64-.163-6.3 1.055-9.322 4.269-1.18 1.255-2.153 2.532-2.631 3.452-.802 1.543-1.83 4.5-1.73 4.973.106.493-.28.63-.66.235-.66-.688-2.453-1.139-3.185-.8-1.122.519-1.095.82.112 1.256 1.85.669 2.495 2.34 1.618 4.184-.424.894-1.752 1.603-2.527 1.35-.73-.238-.734-.255-.193-1.03 1.176-1.688.381-3.406-1.596-3.448-1.004-.022-1.2.07-1.884.894-1.458 1.752-1.305 3.376.476 5.034 1.365 1.27 2.783 1.682 4.611 1.34 1.052-.196 1.384-.396 2.345-1.412.94-.995 1.144-1.121 1.27-.788.67 1.776 1.33 3.154 2.063 4.308l.862 1.356-1.078 2.025c-1.596 2.998-3.45 5.508-5.65 7.645-1.732 1.684-2.115 1.95-3.335 2.323-1.859.568-2.842.35-4.276-.944-.992-.895-1.195-1.215-1.353-2.137-.619-3.61 4.257-7.227 5.967-4.427.676 1.106-.26 2.674-1.618 2.713-.572.016-.65.08-.573.46.158.776.715 1.13 1.817 1.154 1.976.042 3.471-2.167 3.001-4.434-.27-1.303-2.153-3.124-3.462-3.347-3.073-.525-5.521 1.234-9.34 6.711-2.075 2.976-3.239 3.951-4.713 3.952-1.904 0-3.181-2.16-1.966-3.325 1.065-1.02 2.692.09 2.456 1.676l-.106.708.677-.286c1.604-.68 1.823-2.731.446-4.167-1.912-1.994-5.371-1.121-6.433 1.623zm46.165-40.64c1.206-.266 2.416.146 3.747 1.275 1.364 1.158 1.92 2.369 1.789 3.9-.15 1.747-.817 3.158-2.802 5.928-.951 1.328-1.845 2.612-1.986 2.855-.202.347-.28.164-.371-.867-.083-.938-.346-1.613-.932-2.39-.45-.595-.745-1.151-.656-1.236.09-.086.247-.066.351.042.104.109.627.028 1.162-.178 1.695-.654 2.624-2.43 2.135-4.082-.219-.74-.35-.881-1.154-1.232-1.188-.517-2.17-.188-2.711.907-.22.446-.47.876-.552.956-.21.2-1.042-1.156-1.088-1.774-.132-1.76 1.336-3.723 3.068-4.104zm-9.57 10.606c2.835-.842 6.103.202 7.244 2.316.605 1.119.324 2.125-.84 3.014-.777.592-.881.763-.628 1.027.505.527 1.451.555 2.374.071l.873-.457-.454 1.226-.455 1.226-.75-.256c-1.323-.453-4.681-.253-6.582.39-3.28 1.111-6.203 4.19-7.173 7.554-.432 1.498-.667 1.331-1.215-.86-.81-3.24-.224-6.917 1.592-9.998 1.118-1.898 4.416-4.779 6.014-5.253zm54.699-47.974c3.758-2.069 7.205-1.845 10.612.687 1.257.934 1.64 1.361 2.518 2.81.57.941 1.256 2.351 1.524 3.135.317.922.567 1.347.713 1.205.347-.338 1.132-3.215.933-3.422-.448-.468.228-.438.859.038 1.228.925 3.015 1.477 4.676 1.444.882-.017 1.69-.113 1.795-.215a.264.264 0 0 1 .372.004c.099.104-.008.372-.238.597-.833.815-1.302 2.604-1.103 4.208l.197 1.59-1.686-.092c-3.071-.169-6.055 1.569-6.902 4.018-.476 1.376-.447 2.131.129 3.311.595 1.219 1.891 2.161 3.162 2.297 1.276.138 1.996-.06 3.147-.867 1.036-.725.97-.977-.303-1.16-.876-.127-1.929-1.034-2.162-1.866-.079-.28.01-.86.198-1.288.967-2.204 4.26-2.34 6.256-.258.544.567.733 1.035.764 1.892.041 1.127.024 1.154-1.84 3.058-1.881 1.92-7.487 6.172-8.112 6.153-.946-.03-3.991-1.085-5.574-1.93-6.603-3.527-10.006-7.777-10.221-12.763-.123-2.853 1.069-5.589 2.864-6.572 1.249-.684 2.811-.59 3.84.23 1.026.818.939 1.213-.328 1.492-1.344.295-1.963.96-1.987 2.132-.065 3.16 4.274 4.676 6.707 2.343 1.022-.98 1.372-2.193 1.201-4.158-.1-1.139-.256-1.442-1.457-2.814-1.152-1.315-1.551-1.617-2.768-2.089-1.772-.688-2.68-.73-4.409-.205-3.599 1.095-5.641 3.654-6.15 7.707-.163 1.3-.191 1.344-.749 1.202-.319-.08-.895-.016-1.281.144l-.7.29.145-2.362c.287-4.655 2.191-8.182 5.358-9.926zM79.708-35.827c1.82-.413 5.032 1.025 7.095 3.177l.99 1.031-1.354-.002c-3.119-.007-8.463 1.149-10.385 2.245-.673.384-.854.256-.773-.547.297-2.943 2.126-5.382 4.426-5.904zm98.809-94.23c3.191-1.733 7.969-2.443 12.092-1.796 2.665.418 2.667.424.494 1.073-1.97.589-2.031.628-4.279 2.769-2.095 1.994-2.407 2.211-3.817 2.66-2.107.669-4.011 1.949-4.999 3.359-.427.61-.796 1.091-.818 1.067-.023-.024-.245-.603-.494-1.289-.249-.684-.963-1.876-1.588-2.648l-1.137-1.403.615-.714c.925-1.073 2.474-2.286 3.931-3.078zM31.203 11.903c.028.029.189.377.357.774.325.766 1.908 2.533 2.614 2.918.38.207.267.379-1.123 1.713-.85.815-1.703 1.768-1.895 2.118l-.35.636-.591-.995c-.326-.547-1.162-1.503-1.859-2.123l-1.266-1.128 2.031-1.983c1.117-1.09 2.054-1.96 2.082-1.93zM158.74-109.262c1.117-.328 3.121-.751 4.455-.939 5.459-.772 7.204-1.117 8.569-1.697 1.889-.802 3.685-2.29 4.462-3.698l.61-1.104.438 1.244c.337.959.79 1.61 1.973 2.835 1.713 1.774 3.376 2.729 5.888 3.384.808.211 1.502.417 1.54.457.039.04-.535.328-1.275.641-2.769 1.17-5.281 4.301-5.942 7.406l-.237 1.111-1.19-1.489c-2.474-3.096-6.746-5.887-10.744-7.018-2.55-.722-6.698-.939-9.259-.483-2.172.385-1.866.107.712-.65zm-4.518 4.577c9.23-4.323 20.607.249 24.518 9.851 1.199 2.946 1.287 6.018.256 8.932-2.363 6.679-8.034 8.803-14.12 5.289-1.816-1.049-4.06-3.625-4.895-5.62-2.12-5.068 1.751-9.685 6.533-7.79 2.677 1.06 4.641 4.16 3.868 6.103-.407 1.025-1.095 1.502-1.898 1.317-1.136-.262-1.388-.872-.613-1.484.705-.556.85-1.723.328-2.638-.403-.705-2.008-1.263-2.819-.978-2.659.93-2.539 5.117.211 7.381 2.577 2.122 5.697 2.016 8.104-.276 2.731-2.6 3.227-6.076 1.415-9.927-1.013-2.154-4.083-5.353-6.21-6.472-6.271-3.299-13.297-2.216-17.643 2.722-2.799 3.18-4.026 7.03-4.772 14.987l-.159 1.698-.315-2.003c-.627-3.995-.403-8.494.598-12.031 1.073-3.79 4.132-7.431 7.613-9.061zM58.168-9.514c1.581-.466 4.397-.501 5.386-.067.673.296.811.49 1.121 1.581l.354 1.245-1.717.054c-4.961.158-8.624 5.354-7.102 10.074l.348 1.077-.645-.44C54.086 2.76 52.25 1.15 52.118.683c-.36-1.284.256-4.504 1.2-6.28.178-.332 1.064-1.268 1.97-2.079 1.255-1.123 1.94-1.56 2.88-1.838zM76.87-26.856c3.047-1.503 7.096-2.318 10.843-2.182l1.645.06.135 1.193c.179 1.57-.547 3.342-1.742 4.254-1.16.886-1.769.917-2.524.13-.636-.665-.64-.652.542-1.877.467-.483.474-.649.049-1.188-1.033-1.312-3.433-.866-4.309.8-.88 1.677-.44 3.43 1.207 4.8 2.083 1.735 5.353 1.08 7.55-1.512 1.167-1.378 1.705-2.813 1.795-4.792l.067-1.47 1.106.254c1.436.33 4.668 1.823 5.809 2.682l.894.674-1.152 1.105c-1.306 1.253-3.87 2.862-5.585 3.506-1.392.523-1.38.512-1.037.87.483.503 2.613.881 3.938.698 1.475-.204 3.917-1.571 5.477-3.067l1.042-1 1.451 1.514 1.452 1.514-1.012.729c-1.409 1.015-4.257 2.342-6.905 3.217-1.761.58-2.653.697-4.178.545-3.395-.34-6.83 1.338-8.731 4.264-1.378 2.12-1.9 3.987-1.957 7.003l-.054 2.841-.92-.52c-.808-.458-.97-.675-1.325-1.767-.315-.97-.297-1.543.082-2.602l.486-1.358-.876.418c-1.193.57-2.05 1.802-2.315 3.329-.345 1.987.7 4.313 2.675 5.957l.942.784-1.552-.071c-1.527-.071-1.715.029-2.222 1.183-.162.37-.263.3-.844-.586-.932-1.423-1.1-2.162-1.306-5.754-.34-5.91-1.354-8.66-4.427-12.006l-1.84-2.004 1.498-2.05c1.611-2.202 2.9-4.517 3.402-6.105.4-1.27.39-1.26 2.726-2.413zm55.294-51.543c1.223-.472 3.531-.486 4.584-.028 1.174.512 2.78 2.21 3.61 3.82.366.711 1.068 2.665 1.559 4.342.81 2.765 1.011 3.186 2.166 4.518 1.135 1.31 1.416 1.51 2.587 1.842l1.313.373.296 2.028c.605 4.143-.082 8.054-2.036 11.59-1.417 2.565-4.884 5.89-7.505 7.197-2.006 1.002-4.643 1.757-6.498 1.863-1.334.076-1.272-.052.67-1.368.72-.488 2.139-1.677 3.154-2.643 3.29-3.13 3.836-5.163 2.255-8.397-1.196-2.443-1.507-3.576-1.382-5.032.085-.999.27-1.396.953-2.051 1.131-1.085 2.34-1.405 3.462-.916 1.618.704 2.643 3.297 2.118 5.355l-.284 1.115.897-.746c1.985-1.65 2.528-3.536 1.629-5.662-1.136-2.688-4.148-4.106-7.345-3.456-.529.107-.537.083-.114-.35.683-.699 1.404-2.696 1.462-4.049.147-3.438-2.256-6.368-5.409-6.595-4.692-.338-7.495 5.205-3.96 7.832 1.825 1.356 4.729.142 4.856-2.03.071-1.201-.666-1.88-1.877-1.727-.807.101-.877.159-1.036.848-.094.407-.272.738-.396.736-.789-.017-.684-1.608.158-2.416 1.608-1.542 4.577-.311 4.979 2.064.283 1.666-.11 2.998-1.187 4.03-.507.487-1.198.968-1.534 1.068-1.03.306-2.575.234-3.494-.163-1.154-.5-2.907-2.354-3.38-3.575-1.294-3.34 1.042-7.994 4.729-9.417zm-25.125 26.375c.327.083.715.035.863-.106.476-.457.747-.166 1.61 1.73.971 2.132 3.37 5.072 5.234 6.414 1.018.732 1.093.837.704.976-.984.35-2.077 1.463-2.378 2.42-.435 1.386-.013 2.73 1.19 3.782.807.707 1.183.845 2.233.822.694-.016 1.53-.181 1.857-.368.975-.556 1.715-1.832 1.739-3 .012-.6.063-1.084.113-1.074.051.01 1.026.38 2.167.822l2.076.803-.627.6c-.883.848-2.857 3.675-4.028 5.77l-.992 1.775-2.043-.058c-1.591-.045-2.354.098-3.455.648-2.73 1.363-4.286 4.277-4.393 8.224l-.058 2.142-1.034-1.315a43.652 43.652 0 0 0-2.321-2.657l-1.288-1.343 1.051-1.815c.578-.998 1.519-3.1 2.091-4.673.897-2.462 1.053-3.322 1.127-6.202.085-3.314-.442-6.934-1.747-12.01-.31-1.205-.501-2.25-.425-2.324.076-.073.407-.066.734.017zm48.983-46.844c1.842-1.013 3.808-1.497 5.828-1.435 3.622.112 6.213 1.295 8.812 4.025 2.096 2.2 2.956 4.098 2.876 6.343-.067 1.848-.496 2.566-.506.845-.01-1.79-.483-2.977-1.818-4.562-1.87-2.222-3.964-3.286-6.741-3.426-3.983-.2-7.578 3.427-7.649 7.717-.097 5.807 5.367 11.827 11.678 12.866l1.008.166-1.226.52c-1.743.739-4.691 2.708-6.148 4.108-1.546 1.484-3.62 4.223-5.934 7.835-1.71 2.67-4.256 6.26-4.829 6.81-.161.154-.294-.597-.316-1.787-.022-1.13-.163-2.774-.314-3.654-.244-1.42-.2-1.674.387-2.246 1.625-1.582 1.534-4.246-.385-11.174-2.884-10.418-.767-19.626 5.277-22.951zM69.023-12.882c1.36 1.417 2.375 3.121 3.013 5.057.568 1.724 1.16 6.636.838 6.946-.272.26-4.308-4.524-5.08-6.02-.412-.8-.633-1.816-.647-2.981-.02-1.54.353-3.441.762-3.882.073-.08.575.317 1.114.88zM52.613 4.765c.638.527 2.027 1.449 3.086 2.049 2.613 1.48 3.037 1.966 2.893 3.31-.105.987-.229 1.18-1.337 2.08-.73.593-1.849 1.199-2.784 1.508-1.76.583-5.506.87-8.619.663l-2.081-.14 1.91-2.26c1.86-2.202 4.618-6.073 5.118-7.183.45-1 .628-1.003 1.813-.027zm138.926-132.612c3.151-1.048 7.004 1.289 8.094 4.908.772 2.567.195 5.296-1.662 7.853-2.951 4.065-9.049 4.652-13.404 1.289-3.201-2.473-2.572-7.979.938-8.206 1.581-.102 2.619.354 3.961 1.739.93.96 1.272 1.526 1.614 2.674.261.872.555 1.43.732 1.392.534-.114 1.225-2.926 1.01-4.108-.28-1.536-1.871-3.511-3.551-4.408-.663-.354-1.235-.674-1.271-.712-.179-.187 2.656-2.127 3.539-2.421zM61.885-3.907c.467-.177 1.2-.295 1.63-.26l.78.062-1.095.258c-1.71.404-3.332 2.244-3.45 3.915-.053.751.682 1.91 1.606 2.528.712.477 2.266.348 2.881-.24.593-.566.531-1.762-.129-2.5-.884-.988-.771-1.257.351-.832 1.383.523 2.07 1.906 1.706 3.44-.403 1.702-1.044 2.477-2.416 2.922-3.361 1.09-6.337-2.636-4.927-6.168.508-1.273 1.882-2.675 3.063-3.124zm-12.05 22.031c3.318.305 5.685 1.117 7.266 2.493 1.053.916 1.167 1.11 1.232 2.1.087 1.324-.57 2.052-2.8 3.101-.82.386-2.2 1.196-3.069 1.802-1.44 1.004-1.602 1.058-1.842.61-1.229-2.285-3.457-5.718-5.01-7.717L43.737 18.1l1.69-.113c.93-.062 2.913 0 4.408.137zM76.68 7.222c-.002.062-.466.327-1.033.588-1.027.474-1.814 1.455-2.593 3.229-.187.426-.233.433-.267.036-.075-.868-1.482-3.55-2.321-4.425-.454-.474-1.204-.99-1.668-1.149-.464-.158-.829-.328-.811-.376 1.15-3.107 1.099-4.535-.236-6.66-.778-1.237-.413-.907 4.038 3.643 2.691 2.75 4.891 5.052 4.891 5.113zM63.692 8.267c.927-.277.965-.264.69.242-.416.762.064 2.737 1.06 4.36.47.764.699 1.243.51 1.062-.19-.181-.848-.34-1.464-.353-.945-.02-1.206.09-1.668.704-.508.675-.57.689-.852.194-.231-.405-.56-.517-1.372-.464l-1.067.069.49-.47c1.272-1.22 1.398-3.92.222-4.755-.442-.314-.318-.356.982-.328.819.017 1.93-.1 2.469-.261zm26.144-20.573c2.496-1.12 4.716-.657 6.97 1.452 1.216 1.138 1.48 1.52 1.79 2.587.72 2.474-.224 4.876-2.307 5.87-1.559.745-3.819.218-4.666-1.087-.39-.6-.069-1.302.381-.832.87.906 3.204.188 3.657-1.125.807-2.34-1.794-4.671-4.184-3.749-3.277 1.265-3.92 5.13-1.305 7.837 1.34 1.387 2.79 1.966 4.66 1.86 2.456-.138 4.933-1.728 5.873-3.77.161-.352.275-.079.448 1.071.128.849.501 2.458.83 3.576.728 2.477.473 4.036-.997 6.096-.768 1.077-1.33 1.621-2.476 2.394-2.297 1.552-3.971 2.007-7.06 1.921-3.21-.089-5.817-.918-8.417-2.677-1.628-1.1-1.705-1.184-1.725-1.86-.033-1.121.98-1.903 2.283-1.763.926.1 1.169.243 1.689.993.334.483.912 1.297 1.285 1.81l.678.933.477-1.5c.658-2.067.394-4.016-1.037-7.66-1.038-2.644-1.216-3.417-1.188-5.158.053-3.23 1.755-6.06 4.34-7.22zM61.49 18.897c.31-.176.599-.46.642-.63.053-.2.23-.072.513.372.544.853 1.702 1.158 2.802.736l.798-.306-.675.893c-1.084 1.432-1.793 3.393-1.578 4.362l.194.875-.925-.328c-.508-.18-1.607-.354-2.44-.387-1.2-.047-1.41-.119-1.008-.343 1.282-.714 1.423-2.859.295-4.486l-.642-.928.73.246c.402.135.985.1 1.294-.076zm-6.704 10.299l1.155-.648-.375 1.327c-.465 1.642-.387 3.117.266 5 .434 1.25.703 1.634 1.964 2.801 1.67 1.545 2.99 2.106 4.96 2.109h1.277l-.336 1.369-.336 1.367-1.266.231c-3.147.573-5.494-.145-7.869-2.408-1.52-1.448-1.693-1.706-2.241-3.321-.327-.964-.609-2.479-.627-3.368-.032-1.583-.009-1.638 1.12-2.714.634-.604 1.672-1.39 2.308-1.745zm45.553-43.065c2.706-.894 4.05-.306 4.079 1.783.024 1.842-1.196 3.112-2.666 2.773-.642-.148-.843-.327-1.239-1.1-.261-.508-.849-1.315-1.308-1.793-.459-.479-.783-.92-.72-.98.062-.06.897-.367 1.854-.683zM72.328 13.435c2.349-.419 4.266 1.165 4.183 3.455-.117 3.249-4.1 4.535-6.103 1.97-.741-.949-.881-1.823-.517-3.233.307-1.19 1.17-1.966 2.437-2.192zm-23.27 23.032c.647 2.983 3.21 6.347 5.882 7.722 2.253 1.159 5.691 1.653 7.595 1.091l.805-.238.365 1.225.366 1.224-.916-.472c-.81-.418-1.902-.352-2.422.146-.083.08.278.515.803.967.808.695.962.973 1.008 1.815.048.88-.063 1.101-.973 1.937-1.329 1.219-2.678 1.708-4.598 1.665-1.993-.044-3.633-.911-5.599-2.96-2.7-2.816-4.045-6.146-3.954-9.792.044-1.784.746-4.647 1.26-5.14.092-.088.262.277.377.81zm58.324-53.257c.258-.029 1.199 2.055 1.798 3.98.833 2.676 1.042 6.013.563 8.98-.731 4.52-2.353 7.715-5.355 10.542l-1.801 1.697.715-1.132c1.459-2.305 1.599-3.995.603-7.237-.708-2.303-.618-4.135.245-4.962.337-.324.811-.584 1.054-.578.535.01 1.277.737 1.171 1.146-.129.5.242.67.638.29.207-.198.383-.71.391-1.138.014-.638-.155-.925-.935-1.597l-.951-.818.548-.766c.813-1.136 1.081-2.14.928-3.475-.117-1.03-.3-1.365-1.328-2.436l-1.192-1.242 1.387-.62c.763-.34 1.448-.626 1.521-.634zM60.117 27.97c2.642-1.44 5.556.319 5.495 3.316-.028 1.329-.764 2.463-1.815 2.794-.975.307-1.218-.06-.439-.664.433-.336.615-.742.628-1.402.023-1.088-.27-1.46-1.391-1.775-1.358-.38-2.715.348-3.275 1.758-.777 1.954 1.322 4.83 3.69 5.056l.854.082-.99.048c-2.802.138-5.343-2.78-5.024-5.769.062-.58.29-1.32.508-1.646.218-.325.454-.7.524-.833.209-.397.25-.429 1.235-.966zm42.005-35.633c.412.43.455.645.18.909-.198.19-.459.552-.579.804-.16.338-.243.135-.308-.76-.11-1.503.016-1.673.707-.953zm-17.93 20.167c2.764 1.278 5.023 1.827 7.708 1.872 3.056.05 5.477-.534 8.674-2.098 2.725-1.332 3.173-1.345 4.342-.126 1.211 1.263.669 3.511-1.129 4.687l-.793.518.743.686c1.435 1.324 1.709 1.79 1.687 2.872-.018.861-.186 1.232-.845 1.864-.453.434-1.063.816-1.356.85-.293.033-1.56-.496-2.815-1.176-3.653-1.978-6.723-2.707-10.49-2.49-1.826.105-5.661 1.21-6.87 1.98-.888.565-1.022.446-.719-.64.333-1.192-.396-2.847-1.608-3.65l-.918-.61 1.27-1.164c1.395-1.279 1.77-2.192 1.415-3.455-.11-.389-.184-.722-.166-.739.018-.017.86.351 1.87.819zM73.059 23.002c.39 1.279 1.226 2.338 2.267 2.872l.964.496-4.225 4.263c-2.323 2.345-4.67 4.559-5.214 4.92-.956.636-.968.636-.364-.003 1.538-1.624 2.105-3.938 1.471-6.001-.228-.741-.427-1.393-.443-1.447-.016-.055.294-.15.689-.21.43-.067 1.1-.478 1.673-1.028.968-.928 2.41-3.183 2.436-3.81a.987.987 0 0 1 .264-.58c.203-.196.29-.1.482.527zm4.09 6.69c-.02.998 1.21 1.54 2.826 1.244l.847-.156-1.51 1.45c-1.252 1.203-1.598 1.697-2.025 2.89-.85 2.372.07 5.032 2.044 5.924l.767.347-.352-.745c-.468-.991-.484-2.57-.037-3.623.282-.665.572-.97 1.303-1.37l.94-.515-.095 2.707c-.074 2.11.064 3.187.624 4.882.684 2.07.807 2.267 2.52 4.054 1.6 1.669 1.97 1.939 3.328 2.435.925.338 2.35.543 3.609.52a11.205 11.205 0 0 1 4.069.666c2.3.814 5.812 2.63 7.06 3.652l.862.705-1.751 1.68-1.751 1.678-1.167-.953c-2.429-1.985-5.437-2.932-7.422-2.334-1.533.462-1.625.627-.595 1.076 2.273.99 6.642 3.928 6.311 4.245-.493.473-3.096 1.656-4.705 2.138-2.811.842-2.697.866-2.576-.55.059-.685-.118-1.95-.393-2.813-.413-1.298-.735-1.815-1.864-2.992-1.2-1.252-1.538-1.468-2.815-1.805-1.569-.413-3.507-.033-4.451.873-.826.792-1.463 2.475-1.316 3.477.212 1.438 1.455 2.623 2.815 2.681.871.037 1.205-.09 1.692-.642.581-.66.578-.72-.092-1.418-.805-.84-.765-1.514.123-2.02.76-.434 1.959.088 2.779 1.21 1.1 1.505 1.299 4.448.328 4.855-.62.262-5.82-.396-8.03-1.015-1.866-.522-5.356-2.165-5.978-2.814-.159-.166-.47-.893-.69-1.617-.534-1.751-1.462-3.555-3.105-6.041l-1.358-2.053 1.997-2.04c3.471-3.542 4.136-5.358 5.057-13.825.182-1.675.77-3.088 1.641-3.95.425-.418.544-.44.537-.097zm-4.956 5.987c-.173 2.139-1.023 5.662-1.68 6.967-.745 1.479-3.583 4.633-3.886 4.317-.349-.364-.657-2.395-.596-3.933.089-2.218.92-3.605 3.835-6.398l2.44-2.338-.113 1.385zm11.801-11.563c2.431-1.212 4.91-1.683 8.015-1.521 3.482.18 5.063.906 7.493 3.44 2.483 2.589 2.876 4.454 1.67 7.912-.356 1.018-.743 2.475-.861 3.237l-.215 1.385-.48-1.05c-.899-1.962-3.8-3.745-6.042-3.713-3.841.055-6.965 4.052-5.625 7.198.878 2.064 2.922 3.13 4.82 2.516 1.162-.377 1.291-.48 1.767-1.409 1.062-2.074-.694-4.373-2.806-3.675-1.315.434-1.595-.004-.606-.95 1.077-1.031 2.498-1.305 3.887-.749 1.429.572 2.233 1.403 2.626 2.715.633 2.113.116 3.93-1.58 5.556-1.683 1.614-2.89 2.14-4.81 2.1-3.875-.083-6.792-3.616-6.648-8.052.056-1.709.284-2.54 1.385-5.044 1.555-3.539 1.89-5.096 1.504-7.002-.403-1.993-.645-2.164-1.446-1.021a15.266 15.266 0 0 1-1.55 1.8c-.729.706-1.057.858-1.685.778-.964-.122-1.876-1.032-1.901-1.896-.022-.749.754-1.39 3.088-2.555zM113.95.412c2.79-.053 5.092 1.77 5.12 4.055.014 1.187-1.532 2.572-4.281 3.835-2.547 1.17-3.429 1.92-3.401 2.889.021.706.259.952 3.037 3.136.973.765.924.969-.319 1.324-1.164.333-5.622.14-5.24-.228.176-.168.525-.758.775-1.312.951-2.098-.832-4.386-3.462-4.442l-1.359-.03 1.06-.824c1.463-1.139 3.591-3.942 4.686-6.17 1.013-2.062 1.208-2.19 3.384-2.233zM65.705 50.88c.302.497 1.125 1.78 1.83 2.853 2.747 4.176 2.96 6.788.729 8.91-2.037 1.937-4.405 2.09-6.035.39-1.28-1.335-1.464-3.643-.374-4.688.323-.31.853.094.733.558-.139.54.947 1.378 1.904 1.47 1.875.181 2.927-1.852 1.98-3.83-.505-1.059-1.61-1.867-2.517-1.84-1.001.028-1.088-.213-.336-.934.822-.788 1.389-2.067 1.353-3.051-.036-.96.065-.938.733.162zm48.813-30.967c.216.224.39.493.388.598-.002.105-.75.666-1.661 1.248-2.025 1.291-2.472 1.933-2.026 2.907.368.803.84 1.141 3.739 2.68 3.241 1.72 4.174 3.246 3.158 5.165-.937 1.766-3.886 2.776-6.264 2.145l-1.044-.277-.702-1.64c-.976-2.278-3.163-5.46-4.527-6.587l-1.107-.914 1.188.004c1.979.006 3.483-.918 4.011-2.463.262-.768.06-1.573-.73-2.91l-.404-.683 2.795.16c1.695.096 2.949.32 3.186.567zm-8.025 11.494c2.68 4.714 3.261 10.885 1.534 16.29-.609 1.907-1.824 4.256-2.197 4.248-.118-.002-.428-.22-.687-.483-.26-.263-.795-.574-1.19-.69-.395-.117-.762-.252-.815-.3-.053-.049.48-.64 1.184-1.316 1.114-1.069 1.305-1.383 1.466-2.416.218-1.4-.069-2.538-.89-3.525-.418-.503-.492-.759-.25-.861 1.429-.603 2.231-1.947 1.748-2.929-.347-.705-.798-.755-.962-.106-.075.295-.413.694-.753.888-.537.307-.709.256-1.327-.389-.973-1.014-.997-2.472-.082-5.13.953-2.771.915-4.676-.134-6.638l-.801-1.498 1.56 1.518c1.093 1.062 1.872 2.064 2.596 3.337zM74.579 63.171c1.918 1.104 5.752 2.111 9.304 2.444.816.077 1.56.22 1.655.317.219.229-1.792 1.799-3.501 2.734-3.175 1.738-5.888 1.207-7.52-1.47-.642-1.056-1.403-4.152-1.092-4.45.085-.082.605.11 1.154.425zm26.578-21.95c.499.63.567.87.282.99-.208.088-.554.328-.769.535-.33.316-.374.164-.279-.98.062-.744.111-1.359.11-1.366-.002-.007.294.363.656.82zm-.75 2.917c1.349-.38 2.298.193 2.728 1.646.318 1.075.095 2.077-.608 2.738-.805.756-1.336.75-3.557-.04l-1.949-.694 1.046-1.033c.575-.567 1.177-1.318 1.336-1.669.159-.35.31-.667.337-.705.026-.038.327-.147.667-.243zM84.335 70.342c.575-.346 1.949-1.547 3.052-2.669 1.935-1.966 2.047-2.044 3.143-2.169 2.384-.272 7.585-2.287 8.724-3.38.353-.339.445-.274 1.462 1.03 2.298 2.947 4.164 6.606 4.835 9.482.574 2.464.529 5.847-.102 7.57-.455 1.242-.805 1.75-1.983 2.876-1.62 1.548-2.576 1.94-4.556 1.87-2.407-.087-4.325-1.809-4.868-4.37-.471-2.22.626-4.398 2.817-5.597l.669-.365-.816-.229c-1.798-.503-4.434.61-5.576 2.356-.341.521-.675 1.004-.74 1.072-.066.067-.278-.366-.473-.963-.724-2.224-4.308-5.113-6.497-5.238-.927-.052-1.138-.226-.566-.467.236-.099.9-.463 1.475-.81zm22.964-13.5c-.022 1.22.2 2.866.528 3.901.496 1.572.746 1.98 2.028 3.318l1.463 1.526-1.086.316c-.597.175-1.542.677-2.099 1.118-.838.662-1.042.726-1.174.37-.446-1.2-2.132-4.207-2.975-5.302-1.814-2.36-1.858-1.96.47-4.322 1.128-1.145 2.238-2.296 2.467-2.558.362-.414.411-.202.378 1.633z" clip-rule="evenodd"/></g><defs><clipPath id="clip0"><path fill="#fff" d="M0 0h60v32H0z"/></clipPath></defs></svg>