<svg xmlns="http://www.w3.org/2000/svg" width="915" height="601" fill="none" viewBox="0 0 915 601"><g clip-path="url(#clip0)" filter="url(#filter0_bii)"><path fill="#fff" fill-opacity=".85" fill-rule="evenodd" d="M1853-3505.84c-.08.43-.29.77-.54 1.07-.91 3.58-2.58 6.83-4.65 9.57-3.93 5.16-9.45 8.52-14.48 8.84-5.04.32-9.72-1.58-13.06-4.58-1.94-1.7-3.41-3.8-4.27-6.06-.91-2.35-1.09-4.88-.43-7.34.81-3.08 3.02-6.02 6.95-8.3a2.22 2.22 0 0 1 3.03.81c.61 1.05.25 2.42-.81 3.03-2.83 1.64-4.37 3.63-4.94 5.63-.41 1.51-.26 3.1.31 4.59.6 1.58 1.66 3.08 3.06 4.35 2.53 2.26 6.12 3.7 9.87 3.45 3.8-.25 8.09-2.96 11.27-7.11 2.81-3.71 4.72-8.6 4.52-13.94-.84-6.89-4.42-12.8-9.47-16.83-5.06-3.99-11.62-6.02-18.51-5.27l-.13.01a32.091 32.091 0 0 0-21.46 12.06 32.289 32.289 0 0 0-6.74 23.63l.01.12c1.86 15.57 12.21 27.27 21.69 37.96 10.38 11.75 19.72 22.37 16.99 36.1-.07.43-.3.82-.58 1.11-.87 3.87-2.6 7.35-4.8 10.25-3.93 5.17-9.45 8.53-14.48 8.85-5.03.32-9.72-1.58-13.06-4.59-1.94-1.69-3.41-3.79-4.26-6.05-.92-2.36-1.1-4.88-.44-7.35.82-3.07 3.01-5.98 6.95-8.29 1.06-.62 2.42-.25 3.03.81.6 1.09.25 2.42-.8 3.03-2.84 1.68-4.38 3.62-4.95 5.62-.4 1.52-.26 3.1.32 4.6.59 1.58 1.65 3.08 3.06 4.35 2.52 2.26 6.11 3.7 9.87 3.45 3.79-.25 8.08-2.92 11.26-7.11 2.81-3.72 4.73-8.61 4.52-13.94-.84-6.89-4.42-12.8-9.48-16.79-5.05-4.03-11.68-6.09-18.62-5.3a32.136 32.136 0 0 0-21.47 12.06c-5.13 6.47-7.74 14.91-6.73 23.75 1.86 15.53 12.16 27.21 21.62 37.93l.06.07c10.39 11.71 19.73 22.33 16.99 36.1-.06.39-.27.74-.52 1.04-.92 3.61-2.58 6.82-4.65 9.56-3.93 5.17-9.45 8.53-14.48 8.85-5.05.35-9.73-1.55-13.07-4.55-1.93-1.73-3.4-3.83-4.26-6.09-.91-2.36-1.1-4.85-.45-7.31.83-3.11 3.03-6.02 6.96-8.3 1.05-.61 2.42-.25 3.03.81a2.22 2.22 0 0 1-.81 3.03c-2.83 1.64-4.36 3.59-4.93 5.59-.41 1.52-.26 3.1.31 4.59.59 1.62 1.66 3.09 3.06 4.36 2.52 2.25 6.1 3.74 9.87 3.44 3.8-.24 8.08-2.92 11.26-7.1 2.82-3.72 4.72-8.57 4.53-13.94-.84-6.89-4.42-12.8-9.48-16.79-5.06-4-11.61-6.07-18.5-5.31l-.14.04c-8.79 1.03-16.37 5.58-21.46 12.06a32.197 32.197 0 0 0-6.73 23.59l.01.13c1.86 15.56 12.2 27.3 21.68 38l.01.01c10.37 11.74 19.71 22.32 16.98 36.09-.07.42-.29.77-.53 1.07-.92 3.46-2.58 6.63-4.59 9.3-3.92 5.13-9.43 8.49-14.47 8.81-5.04.36-9.73-1.55-13.06-4.55-1.94-1.73-3.4-3.83-4.26-6.09-.93-2.32-1.11-4.85-.45-7.31.82-3.07 3.02-6.02 6.96-8.3 1.05-.61 2.41-.25 3.03.81.61 1.06.24 2.42-.81 3.04-2.83 1.64-4.38 3.62-4.95 5.62-.4 1.52-.26 3.1.32 4.59.59 1.58 1.65 3.09 3.07 4.32 2.51 2.29 6.1 3.74 9.86 3.48 3.8-.24 8.09-2.95 11.26-7.1 2.83-3.76 4.73-8.61 4.53-13.94a25.336 25.336 0 0 0-9.48-16.83c-5.06-3.99-11.6-6.07-18.51-5.27l-.12.01a32.08 32.08 0 0 0-21.46 12.05c-5.09 6.45-7.73 14.84-6.73 23.59v.17c1.85 15.56 12.2 27.26 21.68 37.96l.01.01c10.38 11.74 19.72 22.32 16.99 36.09-.08.43-.29.77-.53 1.08-.92 3.57-2.59 6.82-4.66 9.56-3.93 5.16-9.45 8.52-14.48 8.84-5.04.32-9.72-1.58-13.06-4.58-1.94-1.7-3.41-3.8-4.27-6.06-.91-2.35-1.09-4.88-.43-7.34.81-3.08 3.02-6.02 6.95-8.3a2.22 2.22 0 0 1 3.03.81 2.22 2.22 0 0 1-.81 3.03c-2.83 1.64-4.37 3.63-4.94 5.63-.41 1.51-.26 3.1.32 4.59.59 1.58 1.65 3.08 3.05 4.35 2.53 2.26 6.12 3.71 9.87 3.45 3.8-.24 8.09-2.96 11.27-7.11 2.81-3.71 4.72-8.6 4.52-13.94-.84-6.88-4.42-12.8-9.47-16.83-5.06-3.99-11.61-6.06-18.51-5.27l-.12.01a32.091 32.091 0 0 0-21.47 12.06 32.301 32.301 0 0 0-6.74 23.63l.01.12c1.86 15.57 12.21 27.27 21.69 37.97 10.38 11.74 19.72 22.36 16.99 36.1-.07.42-.3.81-.58 1.1-.87 3.87-2.6 7.35-4.8 10.25-3.93 5.17-9.45 8.53-14.48 8.85-5.03.32-9.72-1.58-13.06-4.58-1.94-1.7-3.41-3.8-4.26-6.06-.92-2.36-1.1-4.88-.44-7.35.82-3.07 3.01-5.97 6.96-8.29a2.21 2.21 0 0 1 3.02.81c.61 1.09.25 2.42-.8 3.03-2.84 1.68-4.38 3.62-4.95 5.62-.4 1.52-.26 3.1.32 4.6.59 1.58 1.65 3.08 3.06 4.35 2.52 2.26 6.11 3.7 9.87 3.45 3.8-.25 8.08-2.92 11.26-7.11 2.82-3.71 4.73-8.61 4.52-13.94-.84-6.89-4.41-12.8-9.48-16.79-5.05-4.03-11.6-6.07-18.5-5.31l-.12.01a32.091 32.091 0 0 0-21.46 12.06c-5.1 6.48-7.73 14.83-6.74 23.63v.12c1.86 15.53 12.17 27.21 21.62 37.93l.06.07c10.39 11.71 19.73 22.33 17 36.1-.07.39-.28.74-.52 1.04l-.06.19-.04.15-.04.15-.02.08-.03.11c-.96 3.32-2.54 6.35-4.48 8.92-3.93 5.16-9.44 8.49-14.48 8.84-5.04.33-9.72-1.58-13.06-4.58-1.93-1.73-3.4-3.83-4.26-6.09-.81-2.13-1.06-4.39-.63-6.63l.03-.11.03-.12.03-.11.03-.11.04-.12.03-.11.04-.15.04-.15.03-.12.01-.04.03-.11c.96-2.87 3.11-5.59 6.8-7.73a2.22 2.22 0 0 1 3.03.81c.28.48.36 1.07.23 1.57l-.01.03-.01.04-.01.04-.01.04-.01.04-.01.03-.01.04c-.17.48-.49.93-.97 1.2-2.72 1.55-4.23 3.42-4.82 5.34l-.06.06-.01.04-.02.08-.02.07-.01.04-.01.04-.02.07-.02.08-.02.07.01.09c-.32 1.38-.15 2.85.38 4.21.59 1.61 1.66 3.08 3.06 4.35 2.53 2.25 6.11 3.74 9.87 3.45 3.8-.25 8.08-2.92 11.27-7.11 1.44-1.93 2.64-4.13 3.45-6.59l.09-.18.06-.23.06-.23.06-.22.07-.23.06-.23.06-.23.06-.22.06-.23.02-.24c.36-1.65.53-3.35.46-5.08a25.325 25.325 0 0 0-9.47-16.82c-5.06-4-11.61-6.07-18.51-5.27h-.13a32.13 32.13 0 0 0-21.46 12.06c-2.32 2.92-4.14 6.25-5.29 9.8l-.13.37-.11.38-.13.37-.11.38-.1.38-.1.38-.1.38-.06.39-.1.37c-.72 3.31-.89 6.84-.5 10.39l.01.13c1.86 15.56 12.17 27.25 21.65 37.95l-.01.04.04.01.01.01c10.37 11.74 19.71 22.32 16.98 36.09-.07.43-.29.77-.53 1.08-.91 3.57-2.59 6.82-4.65 9.56-3.94 5.16-9.45 8.52-14.49 8.84-5.03.32-9.72-1.58-13.05-4.58-1.95-1.7-3.41-3.8-4.27-6.06-.92-2.35-1.1-4.88-.44-7.34.82-3.08 3.02-6.02 6.96-8.3 1.05-.61 2.41-.25 3.03.81.61 1.05.24 2.42-.81 3.03-2.83 1.64-4.37 3.63-4.95 5.63-.4 1.51-.26 3.1.32 4.59.59 1.58 1.65 3.08 3.06 4.35 2.52 2.26 6.11 3.71 9.87 3.45 3.8-.24 8.08-2.92 11.26-7.11 2.82-3.71 4.73-8.6 4.53-13.94-.85-6.89-4.42-12.8-9.49-16.79-5.05-4.03-11.6-6.06-18.5-5.31l-.12.01a32.091 32.091 0 0 0-21.46 12.06 32.2 32.2 0 0 0-6.74 23.63l.01.12c1.85 15.57 12.2 27.27 21.68 37.97 10.38 11.74 19.72 22.36 16.99 36.13-.08.43-.29.78-.57 1.07-.87 3.87-2.61 7.35-4.8 10.25-3.93 5.17-9.45 8.53-14.48 8.85-5.04.32-9.72-1.58-13.07-4.55-1.93-1.73-3.4-3.83-4.26-6.09-.91-2.36-1.09-4.88-.45-7.31.83-3.11 3.03-6.02 6.96-8.3 1.07-.65 2.43-.28 3.03.81.61 1.06.26 2.39-.8 3-2.84 1.68-4.37 3.62-4.94 5.62-.41 1.52-.26 3.1.31 4.6.6 1.58 1.66 3.08 3.06 4.35 2.52 2.26 6.11 3.7 9.87 3.45 3.8-.25 8.08-2.92 11.27-7.11 2.81-3.71 4.72-8.61 4.52-13.94-.84-6.89-4.42-12.8-9.48-16.79-5.05-4.03-11.68-6.09-18.63-5.3a32.091 32.091 0 0 0-21.46 12.06c-5.13 6.47-7.74 14.91-6.73 23.75 1.85 15.53 12.16 27.21 21.61 37.93l.07.07c10.38 11.71 19.72 22.33 16.99 36.1-.06.39-.28.74-.52 1.04-.92 3.61-2.59 6.82-4.66 9.56-3.93 5.17-9.44 8.53-14.48 8.85-5.04.36-9.73-1.55-13.06-4.55-1.94-1.73-3.41-3.83-4.26-6.09-.92-2.36-1.11-4.85-.45-7.31.83-3.11 3.02-6.02 6.96-8.3a2.21 2.21 0 0 1 3.02.81c.62 1.06.25 2.42-.8 3.03-2.83 1.64-4.38 3.63-4.94 5.59-.4 1.52-.26 3.1.31 4.63.59 1.58 1.65 3.08 3.07 4.32 2.52 2.25 6.1 3.74 9.86 3.48 3.81-.28 8.09-2.96 11.27-7.14 2.82-3.72 4.72-8.57 4.52-13.94-.84-6.89-4.41-12.8-9.48-16.79-5.06-4-11.6-6.07-18.51-5.27h-.12c-8.79 1.03-16.37 5.58-21.46 12.06a32.11 32.11 0 0 0-6.73 23.59v.13c1.86 15.56 12.2 27.3 21.68 38l.01.01c10.38 11.74 19.72 22.32 16.99 36.09-.08.42-.29.77-.53 1.07-.92 3.46-2.58 6.63-4.59 9.3-3.93 5.17-9.44 8.49-14.48 8.85-5.04.32-9.72-1.58-13.06-4.59-1.93-1.73-3.4-3.83-4.26-6.09-.92-2.32-1.1-4.85-.44-7.31.81-3.07 3.02-6.02 6.95-8.3 1.06-.61 2.42-.24 3.03.81.61 1.06.25 2.42-.81 3.04-2.83 1.64-4.37 3.62-4.94 5.62-.41 1.52-.26 3.1.32 4.59.59 1.58 1.65 3.09 3.05 4.36 2.53 2.25 6.12 3.7 9.87 3.44 3.8-.24 8.09-2.95 11.27-7.1 2.82-3.76 4.72-8.61 4.52-13.94a25.324 25.324 0 0 0-9.47-16.83c-5.06-3.99-11.61-6.07-18.51-5.27l-.12.01a32.08 32.08 0 0 0-21.47 12.05c-5.08 6.45-7.72 14.84-6.73 23.59v.17c1.86 15.56 12.21 27.26 21.69 37.96l.01.01c10.37 11.74 19.72 22.32 16.98 36.09-.07.43-.29.78-.53 1.08-.91 3.57-2.59 6.82-4.65 9.56-3.93 5.16-9.45 8.52-14.49 8.84-5.03.32-9.72-1.58-13.05-4.58-1.94-1.7-3.41-3.8-4.27-6.06-.92-2.35-1.09-4.88-.44-7.34.82-3.08 3.02-6.02 6.96-8.3 1.05-.61 2.42-.25 3.03.81.61 1.06.24 2.42-.81 3.03-2.84 1.68-4.37 3.63-4.95 5.63-.4 1.51-.25 3.1.32 4.59.59 1.58 1.65 3.08 3.06 4.35 2.52 2.26 6.11 3.71 9.87 3.45 3.8-.24 8.08-2.92 11.26-7.11 2.82-3.71 4.73-8.6 4.53-13.94-.85-6.88-4.42-12.8-9.48-16.79-5.06-4.03-11.61-6.06-18.51-5.3h-.12a32.091 32.091 0 0 0-21.46 12.06 32.257 32.257 0 0 0-6.74 23.63l.01.12c1.85 15.57 12.2 27.27 21.68 37.97 10.38 11.74 19.72 22.36 17 36.1-.09.46-.3.81-.58 1.1-.87 3.87-2.61 7.35-4.8 10.25-3.93 5.17-9.45 8.53-14.48 8.85-5.04.32-9.72-1.58-13.07-4.55-1.93-1.73-3.4-3.83-4.26-6.09-.91-2.36-1.09-4.88-.44-7.31.82-3.11 3.02-6.01 6.95-8.29 1.07-.65 2.43-.29 3.03.8.61 1.06.26 2.39-.8 3-2.84 1.68-4.37 3.63-4.94 5.62-.41 1.52-.26 3.1.31 4.6.6 1.58 1.66 3.08 3.06 4.35 2.53 2.26 6.12 3.7 9.87 3.45 3.8-.25 8.08-2.92 11.27-7.11 2.81-3.71 4.72-8.61 4.52-13.94-.84-6.89-4.42-12.8-9.48-16.79-5.06-3.99-11.61-6.07-18.5-5.31l-.13.01a32.091 32.091 0 0 0-21.46 12.06c-5.09 6.48-7.72 14.83-6.74 23.63l.01.12c1.85 15.53 12.16 27.22 21.62 37.93l.06.07c10.39 11.71 19.73 22.33 16.99 36.1-.06.39-.28.74-.52 1.04l-.01.04-.04.15-.04.15-.05.19c-.94 3.37-2.54 6.47-4.52 9.07-3.94 5.16-9.45 8.52-14.49 8.85-5.03.32-9.72-1.59-13.05-4.59-1.95-1.7-3.41-3.79-4.27-6.05-.83-2.22-1.1-4.56-.56-6.9l.02-.07.01-.04.02-.08.01-.03.03-.12.03-.11.03-.11.01-.04.03-.12c.89-3.01 3.06-5.84 6.89-8.03 1.05-.61 2.41-.25 3.03.81.3.53.35 1.11.21 1.64l-.01.04-.01.04c-.14.53-.47 1.01-1 1.31-2.78 1.62-4.3 3.49-4.9 5.44l-.02.08-.02.07-.01.04-.01.04-.01.04-.01.03-.01.04-.01.04-.01.04-.01.04c-.3 1.42-.12 2.89.4 4.29.58 1.61 1.64 3.12 3.06 4.35 2.52 2.25 6.1 3.74 9.86 3.48 3.81-.28 8.09-2.95 11.26-7.1 1.56-2.06 2.81-4.45 3.62-7.04l.06-.23.06-.22.06-.23.06-.23.06-.23.06-.22c.43-1.76.6-3.62.55-5.55-.85-6.88-4.42-12.79-9.49-16.78-5.05-4.03-11.6-6.07-18.5-5.31l-.12.01a32.08 32.08 0 0 0-21.46 12.05c-2.5 3.12-4.39 6.71-5.54 10.59l-.13.33-.1.38-.1.38-.1.38-.1.38c-.83 3.55-1.1 7.3-.66 11.15l.01.13c1.85 15.56 12.16 27.25 21.65 37.95l-.01.04.03.01c10.38 11.75 19.72 22.37 16.99 36.14-.04.24-.14.46-.26.67-.08.13-.17.25-.26.37-.93 3.61-2.59 6.82-4.66 9.56-3.93 5.16-9.45 8.52-14.48 8.84-5.05.36-9.73-1.54-13.07-4.54-1.93-1.74-3.4-3.84-4.26-6.1-.91-2.35-1.1-4.84-.44-7.31.82-3.11 3.02-6.01 6.95-8.29a2.22 2.22 0 0 1 3.03.81c.61 1.05.25 2.42-.81 3.03-2.83 1.64-4.36 3.59-4.93 5.59-.41 1.51-.26 3.1.32 4.59.59 1.58 1.65 3.08 3.05 4.35 2.53 2.26 6.11 3.74 9.88 3.45 3.79-.24 8.07-2.92 11.26-7.11 2.81-3.71 4.71-8.57 4.52-13.94-.84-6.88-4.42-12.8-9.48-16.79a25.341 25.341 0 0 0-18.5-5.31l-.13.05c-8.79 1.02-16.38 5.58-21.47 12.06a32.197 32.197 0 0 0-6.73 23.59l.01.12c1.86 15.57 12.2 27.31 21.68 38l.01.01c10.37 11.75 19.72 22.33 16.98 36.09-.07.43-.29.78-.57 1.07-.86 3.87-2.6 7.35-4.8 10.25-3.93 5.17-9.45 8.53-14.48 8.85-5.04.36-9.73-1.54-13.06-4.55-1.94-1.73-3.41-3.83-4.26-6.09-.92-2.36-1.11-4.84-.45-7.31.83-3.11 3.02-6.02 6.96-8.3a2.22 2.22 0 0 1 3.02.81c.62 1.06.25 2.43-.8 3.04-2.83 1.64-4.38 3.62-4.94 5.58-.4 1.52-.26 3.1.32 4.6.58 1.62 1.64 3.12 3.06 4.35 2.52 2.26 6.1 3.74 9.86 3.49 3.81-.29 8.09-2.96 11.26-7.11 2.83-3.75 4.73-8.61 4.53-13.98-.84-6.89-4.41-12.8-9.48-16.79-5.05-4.03-11.68-6.09-18.63-5.26-8.79 1.02-16.37 5.58-21.46 12.06a32.122 32.122 0 0 0-6.73 23.71c1.86 15.57 12.2 27.3 21.68 38l.01.01c10.38 11.75 19.72 22.32 16.99 36.09-.08.43-.29.78-.53 1.08-.92 3.57-2.59 6.82-4.66 9.56-3.93 5.16-9.44 8.49-14.48 8.84-5.04.33-9.72-1.58-13.06-4.58-1.93-1.73-3.4-3.83-4.26-6.09-.92-2.32-1.1-4.85-.44-7.31.81-3.07 3.02-6.02 6.95-8.3a2.22 2.22 0 0 1 3.03.81 2.22 2.22 0 0 1-.81 3.03c-2.83 1.64-4.37 3.63-4.94 5.63-.41 1.52-.26 3.1.31 4.59.6 1.58 1.66 3.08 3.06 4.35 2.53 2.26 6.12 3.71 9.87 3.45 3.8-.24 8.09-2.95 11.27-7.1 2.82-3.76 4.72-8.61 4.52-13.95a25.325 25.325 0 0 0-9.47-16.82c-5.06-4-11.61-6.07-18.51-5.27h-.13a32.13 32.13 0 0 0-21.46 12.06c-5.08 6.44-7.72 14.84-6.73 23.59v.16c1.86 15.57 12.21 27.27 21.69 37.97l.01.01c10.37 11.74 19.71 22.32 16.98 36.09-.07.43-.29.77-.53 1.07-.93 3.49-2.57 6.63-4.58 9.3-3.93 5.17-9.45 8.53-14.49 8.85-5.03.32-9.72-1.58-13.05-4.59-1.94-1.69-3.41-3.79-4.27-6.05-.92-2.36-1.09-4.89-.44-7.35.82-3.07 3.02-6.02 6.96-8.3 1.05-.61 2.42-.24 3.03.81.61 1.06.24 2.42-.81 3.04-2.84 1.67-4.37 3.62-4.95 5.62-.4 1.52-.25 3.1.32 4.59.59 1.58 1.65 3.09 3.06 4.36 2.52 2.25 6.11 3.7 9.87 3.44 3.8-.24 8.08-2.92 11.26-7.1 2.82-3.72 4.73-8.61 4.53-13.94-.85-6.89-4.42-12.8-9.48-16.79-5.06-4.03-11.61-6.07-18.51-5.31l-.12.01a32.08 32.08 0 0 0-21.46 12.05c-5.08 6.45-7.73 14.84-6.74 23.63l.01.13c1.85 15.56 12.2 27.26 21.68 37.96 10.38 11.75 19.72 22.37 16.99 36.14-.07.39-.28.74-.52 1.04-.92 3.61-2.59 6.82-4.66 9.56-3.93 5.16-9.45 8.52-14.48 8.84-5.05.36-9.73-1.54-13.07-4.54-1.93-1.74-3.4-3.84-4.26-6.1-.91-2.35-1.1-4.84-.44-7.31.83-3.1 3.02-6.01 6.95-8.29a2.22 2.22 0 0 1 3.03.81c.61 1.05.25 2.42-.81 3.03-2.83 1.64-4.36 3.59-4.93 5.59-.41 1.51-.26 3.1.32 4.59.59 1.58 1.65 3.08 3.06 4.35 2.52 2.26 6.11 3.71 9.87 3.45 3.79-.24 8.07-2.92 11.26-7.1 2.81-3.72 4.71-8.57 4.52-13.95-.84-6.88-4.42-12.79-9.48-16.79-5.06-3.99-11.61-6.06-18.5-5.3l-.13.04c-8.79 1.02-16.38 5.58-21.47 12.06a32.197 32.197 0 0 0-6.73 23.59l.01.12c1.86 15.57 12.2 27.31 21.68 38l.01.02c10.37 11.74 19.72 22.32 16.98 36.08-.07.43-.29.78-.57 1.07-.86 3.87-2.6 7.35-4.79 10.26-3.94 5.16-9.45 8.52-14.49 8.84-5.04.36-9.73-1.54-13.06-4.55-1.94-1.73-3.4-3.83-4.26-6.09-.92-2.35-1.11-4.84-.45-7.31.83-3.11 3.02-6.01 6.96-8.29 1.05-.62 2.41-.25 3.03.8a2.24 2.24 0 0 1-.81 3.04c-2.83 1.64-4.37 3.62-4.94 5.59-.4 1.51-.26 3.09.32 4.59.58 1.62 1.64 3.12 3.06 4.35 2.52 2.26 6.1 3.74 9.87 3.45 3.8-.25 8.08-2.92 11.25-7.07 2.83-3.75 4.73-8.61 4.54-13.98-.85-6.89-4.42-12.8-9.49-16.79-5.06-3.99-11.6-6.07-18.51-5.27l-.12.01c-8.79 1.02-16.37 5.58-21.46 12.06a32.096 32.096 0 0 0-6.73 23.59l.01.12c1.85 15.57 12.19 27.3 21.67 38l.01.01c10.38 11.75 19.72 22.33 16.99 36.09-.04.23-.12.44-.23.63-.08.16-.19.31-.3.45l-.04.15-.04.15-.06.19-.01.04-.03.11c-.96 3.32-2.54 6.35-4.48 8.92-3.93 5.16-9.45 8.52-14.48 8.85-5.04.32-9.72-1.59-13.06-4.59-1.94-1.7-3.41-3.79-4.27-6.05-.81-2.13-1.05-4.43-.62-6.67l.03-.07.01-.04.02-.08.01-.04.02-.07.01-.04.02-.08.01-.03.02-.08.01-.04.02-.07.01-.04.03-.11.01-.04.03-.12.04-.15.04-.15c.96-2.87 3.11-5.59 6.8-7.73a2.22 2.22 0 0 1 3.03.81c.28.48.36 1.07.23 1.57l-.01.03-.01.04-.01.04-.01.04-.01.04-.01.03-.01.04c-.17.48-.49.93-.97 1.21-2.73 1.58-4.24 3.45-4.82 5.33l-.07.1-.02.08-.03.11-.01.04-.01.04-.01.03-.01.04-.01.04-.01.04-.01.04.01.08c-.32 1.38-.14 2.85.38 4.24.59 1.58 1.65 3.09 3.05 4.35 2.53 2.26 6.12 3.71 9.88 3.45 3.79-.24 8.08-2.95 11.26-7.1a23.65 23.65 0 0 0 3.46-6.59l.09-.22.06-.23.07-.23.06-.22.06-.23.06-.23.06-.23.06-.22.06-.23.02-.24c.35-1.61.52-3.31.46-5.07-.84-6.89-4.42-12.8-9.48-16.79-5.06-4-11.61-6.07-18.5-5.31l-.12.01a32.102 32.102 0 0 0-21.47 12.05c-2.32 2.92-4.14 6.25-5.29 9.84l-.13.33-.01.04-.09.34-.01.04-.13.33-.01.04-.09.34-.11.38-.1.38-.1.38-.06.39-.1.38c-.73 3.34-.89 6.83-.5 10.38v.17c1.87 15.52 12.17 27.25 21.65 37.95l.03.05c10.39 11.71 19.73 22.33 16.99 36.1-.03.21-.11.4-.21.59-.09.16-.2.31-.31.45-.92 3.61-2.59 6.82-4.65 9.56-3.93 5.16-9.45 8.52-14.49 8.84-5.04.36-9.73-1.54-13.06-4.54-1.93-1.74-3.4-3.84-4.26-6.1-.92-2.35-1.1-4.84-.45-7.31.83-3.11 3.02-6.01 6.96-8.29 1.05-.61 2.42-.25 3.03.81.61 1.05.24 2.42-.81 3.03-2.83 1.64-4.36 3.59-4.94 5.59-.4 1.51-.25 3.1.32 4.59.58 1.62 1.65 3.08 3.06 4.35 2.52 2.26 6.1 3.74 9.87 3.45 3.8-.24 8.08-2.92 11.26-7.11 2.82-3.71 4.72-8.57 4.53-13.94-.85-6.88-4.42-12.8-9.48-16.79-5.07-3.99-11.61-6.06-18.51-5.31l-.13.05c-8.79 1.02-16.37 5.58-21.46 12.06-5.08 6.44-7.72 14.8-6.73 23.59l.01.12c1.85 15.57 12.19 27.31 21.67 38l.01.01c10.38 11.75 19.72 22.33 16.99 36.09-.08.43-.29.78-.57 1.07-.87 3.87-2.61 7.35-4.8 10.25-3.93 5.17-9.45 8.53-14.48 8.85-5.05.36-9.73-1.54-13.07-4.55-1.93-1.73-3.4-3.83-4.26-6.09-.91-2.36-1.1-4.84-.44-7.31.82-3.11 3.02-6.01 6.95-8.3 1.06-.61 2.42-.24 3.03.81.61 1.06.25 2.43-.81 3.04-2.83 1.64-4.37 3.62-4.93 5.58-.41 1.52-.26 3.1.3 4.64.6 1.58 1.66 3.08 3.07 4.31 2.52 2.29 6.11 3.74 9.86 3.49 3.81-.29 8.09-2.96 11.27-7.11 2.82-3.75 4.72-8.61 4.52-13.94-.83-6.93-4.41-12.84-9.47-16.83-5.06-3.99-11.68-6.09-18.64-5.26a32.091 32.091 0 0 0-21.46 12.06c-5.13 6.47-7.74 14.91-6.72 23.71 1.86 15.57 12.2 27.3 21.68 38l.01.01c10.37 11.75 19.71 22.32 16.98 36.09-.04.24-.13.46-.24.66-.09.15-.18.29-.29.42-.91 3.57-2.59 6.82-4.65 9.56-3.94 5.16-9.44 8.49-14.49 8.84-5.03.33-9.72-1.58-13.05-4.58-1.93-1.73-3.4-3.83-4.27-6.05-.92-2.36-1.1-4.89-.44-7.35.82-3.07 3.02-6.02 6.96-8.3 1.05-.61 2.41-.25 3.03.81.61 1.06.24 2.42-.81 3.03-2.83 1.65-4.37 3.63-4.95 5.63-.4 1.52-.26 3.1.32 4.59.59 1.58 1.65 3.08 3.06 4.35 2.52 2.26 6.11 3.71 9.87 3.45 3.8-.24 8.09-2.95 11.26-7.1 2.82-3.72 4.73-8.61 4.53-13.95a25.364 25.364 0 0 0-9.47-16.82c-5.07-4-11.61-6.07-18.52-5.27h-.12a32.13 32.13 0 0 0-21.46 12.06 32.213 32.213 0 0 0-6.74 23.63l.01.12c1.85 15.57 12.2 27.27 21.68 37.97 10.38 11.75 19.72 22.37 17 36.1-.08.43-.29.77-.53 1.08-.93 3.48-2.58 6.62-4.59 9.29-3.93 5.17-9.45 8.53-14.48 8.85-5.04.32-9.72-1.58-13.06-4.59-1.94-1.69-3.41-3.79-4.27-6.05-.91-2.36-1.09-4.88-.44-7.31.83-3.11 3.02-6.02 6.96-8.34 1.06-.61 2.42-.24 3.03.81.6 1.1.25 2.42-.81 3.04-2.84 1.67-4.37 3.62-4.94 5.62-.41 1.52-.26 3.1.32 4.59.59 1.59 1.65 3.09 3.06 4.36 2.52 2.25 6.11 3.7 9.87 3.44 3.79-.24 8.07-2.92 11.26-7.1 2.81-3.72 4.72-8.61 4.52-13.94-.84-6.89-4.42-12.8-9.48-16.79-5.05-4.03-11.61-6.07-18.5-5.31l-.12.01a32.164 32.164 0 0 0-21.47 12.05c-5.09 6.48-7.72 14.84-6.74 23.63l.01.13c1.85 15.53 12.16 27.21 21.62 37.93l.06.07c10.39 11.71 19.73 22.33 16.99 36.1-.06.39-.28.74-.52 1.04-.92 3.61-2.59 6.82-4.65 9.56-3.93 5.16-9.45 8.52-14.49 8.84-5.04.36-9.73-1.54-13.06-4.54-1.93-1.74-3.4-3.84-4.26-6.1-.91-2.35-1.1-4.84-.45-7.3.83-3.11 3.02-6.02 6.96-8.3 1.05-.61 2.42-.25 3.03.81.61 1.05.24 2.42-.81 3.03-2.83 1.64-4.36 3.59-4.94 5.59-.4 1.51-.25 3.1.32 4.59.58 1.62 1.66 3.08 3.06 4.35 2.52 2.26 6.1 3.74 9.87 3.45 3.8-.24 8.08-2.92 11.26-7.1 2.82-3.72 4.72-8.57 4.53-13.95-.85-6.88-4.42-12.79-9.48-16.79-5.06-3.99-11.61-6.06-18.5-5.3l-.14.04c-8.79 1.02-16.37 5.58-21.46 12.06a32.197 32.197 0 0 0-6.73 23.59l.01.12c1.85 15.57 12.19 27.31 21.68 38v.01c10.38 11.75 19.72 22.33 16.99 36.09-.07.43-.29.78-.57 1.07-.87 3.87-2.61 7.35-4.8 10.26-3.93 5.16-9.45 8.52-14.48 8.84-5.05.36-9.73-1.54-13.07-4.55-1.93-1.73-3.4-3.83-4.26-6.09-.91-2.35-1.1-4.84-.44-7.31.82-3.11 3.02-6.01 6.95-8.29 1.06-.62 2.42-.25 3.03.81.61 1.05.25 2.42-.81 3.03-2.83 1.64-4.37 3.62-4.93 5.59-.41 1.51-.26 3.09.31 4.63.59 1.58 1.65 3.08 3.06 4.31 2.52 2.3 6.11 3.74 9.87 3.49 3.8-.29 8.08-2.96 11.26-7.11 2.82-3.75 4.72-8.61 4.52-13.94-.83-6.93-4.41-12.84-9.47-16.83-5.06-3.99-11.61-6.06-18.51-5.27l-.12.01a32.114 32.114 0 0 0-21.47 12.06c-5.08 6.44-7.72 14.83-6.73 23.59l.01.12c1.86 15.57 12.2 27.31 21.68 38l.01.01c10.37 11.75 19.72 22.33 16.98 36.09-.04.25-.13.46-.24.66-.08.15-.18.29-.29.42l-.01.04-.03.11-.01.04a27.33 27.33 0 0 1-4.62 9.45c-3.92 5.12-9.44 8.48-14.48 8.8-5.04.36-9.73-1.54-13.06-4.54-1.93-1.74-3.4-3.84-4.26-6.1-.89-2.3-1.11-4.8-.46-7.27l.01-.03.02-.08.02-.08c.86-3.06 3.04-5.93 6.94-8.22 1.05-.61 2.42-.24 3.03.81.3.53.34 1.15.19 1.72-.15.57-.49 1.09-1.02 1.39-2.83 1.64-4.37 3.63-4.95 5.63l-.01.03c-.35 1.49-.2 3.04.35 4.48.59 1.58 1.65 3.09 3.06 4.36 2.52 2.25 6.11 3.7 9.87 3.44 3.8-.24 8.09-2.95 11.26-7.1 1.63-2.17 2.96-4.7 3.74-7.49l.04-.15.02-.08.04-.15c.51-1.9.76-3.9.67-6a25.387 25.387 0 0 0-9.47-16.83c-5.07-3.99-11.61-6.06-18.52-5.27l-.12.01a32.091 32.091 0 0 0-21.46 12.06c-2.63 3.32-4.62 7.13-5.77 11.3l-.08.3-.02.07-.08.31c-.94 3.69-1.21 7.59-.77 11.57l.01.13c1.86 15.52 12.17 27.25 21.65 37.95l-.05.03.06.05.01.01c10.38 11.75 19.72 22.33 16.99 36.09-.08.43-.29.78-.53 1.08-.91 3.58-2.59 6.83-4.66 9.56-3.93 5.17-9.45 8.53-14.48 8.85-5.04.32-9.72-1.58-13.06-4.59-1.94-1.69-3.41-3.79-4.27-6.05-.91-2.36-1.09-4.88-.43-7.35.82-3.07 3.02-6.01 6.95-8.29 1.06-.62 2.42-.25 3.03.8.61 1.06.25 2.43-.81 3.04-2.83 1.64-4.37 3.62-4.94 5.62-.41 1.52-.26 3.1.32 4.6.59 1.58 1.65 3.08 3.06 4.35 2.52 2.26 6.11 3.7 9.87 3.45 3.79-.25 8.08-2.96 11.26-7.11 2.81-3.72 4.72-8.61 4.52-13.94-.84-6.89-4.42-12.8-9.47-16.83-5.06-3.99-11.62-6.03-18.51-5.27l-.12.01a32.136 32.136 0 0 0-21.47 12.06 32.277 32.277 0 0 0-6.74 23.62l.01.13c1.86 15.56 12.21 27.26 21.69 37.96 10.38 11.75 19.72 22.37 16.99 36.1-.07.43-.3.82-.58 1.11-.86 3.87-2.6 7.34-4.79 10.25-3.94 5.17-9.45 8.53-14.49 8.85-5.03.32-9.72-1.58-13.05-4.59-1.95-1.69-3.41-3.79-4.27-6.05-.92-2.36-1.1-4.89-.44-7.35.82-3.07 3.02-6.02 6.96-8.3 1.05-.61 2.41-.24 3.03.81.61 1.06.24 2.42-.81 3.04-2.84 1.67-4.37 3.62-4.95 5.62-.4 1.52-.26 3.1.32 4.59.59 1.58 1.65 3.09 3.06 4.36 2.52 2.25 6.11 3.7 9.87 3.44 3.8-.24 8.08-2.92 11.26-7.1 2.82-3.72 4.73-8.61 4.53-13.94-.85-6.89-4.42-12.8-9.49-16.79-5.05-4.03-11.68-6.09-18.62-5.3a32.08 32.08 0 0 0-21.46 12.05c-5.13 6.47-7.75 14.92-6.73 23.76 1.85 15.53 12.16 27.21 21.61 37.93l.06.07c10.39 11.71 19.73 22.33 17 36.1-.07.39-.28.74-.52 1.04-.93 3.61-2.59 6.82-4.66 9.56-3.93 5.16-9.45 8.52-14.48 8.84-5.05.36-9.73-1.54-13.07-4.54-1.93-1.74-3.4-3.84-4.26-6.1-.91-2.35-1.1-4.84-.44-7.3.82-3.11 3.02-6.02 6.95-8.3a2.22 2.22 0 0 1 3.03.81c.61 1.05.25 2.42-.81 3.03-2.83 1.64-4.36 3.59-4.93 5.59-.41 1.51-.26 3.1.32 4.59.58 1.62 1.65 3.08 3.05 4.35 2.53 2.26 6.11 3.74 9.88 3.45 3.79-.24 8.07-2.92 11.26-7.1 2.81-3.72 4.71-8.57 4.52-13.95-.84-6.88-4.42-12.79-9.48-16.79-5.06-3.99-11.61-6.06-18.5-5.3l-.13.04c-8.79 1.02-16.38 5.58-21.47 12.06a32.197 32.197 0 0 0-6.73 23.59l.01.12c1.86 15.57 12.2 27.31 21.68 38l.01.02c10.37 11.74 19.72 22.318 16.98 36.085-.07.427-.29.776-.53 1.076-.92 3.451-2.57 6.624-4.58 9.296-3.92 5.127-9.44 8.487-14.48 8.808-5.04.358-9.73-1.543-13.06-4.547-1.93-1.734-3.4-3.833-4.26-6.093a11.634 11.634 0 0 1-.45-7.308c.82-3.072 3.02-6.017 6.96-8.298a2.224 2.224 0 0 1 3.03.81 2.234 2.234 0 0 1-.81 3.033c-2.83 1.641-4.37 3.625-4.95 5.625-.39 1.479-.25 3.1.32 4.594.59 1.58 1.65 3.082 3.07 4.313 2.51 2.296 6.1 3.742 9.86 3.487 3.8-.245 8.09-2.958 11.26-7.106 2.83-3.754 4.73-8.608 4.53-13.943a25.371 25.371 0 0 0-9.47-16.827c-5.06-3.993-11.61-6.066-18.51-5.27l-.13.008a32.093 32.093 0 0 0-21.46 12.058c-5.08 6.441-7.72 14.835-6.73 23.589l.01.125c1.84 15.603 12.19 27.304 21.68 38.001v.009c10.38 11.745 19.72 22.324 16.99 36.091-.04.198-.1.379-.18.546-.1.194-.22.369-.35.531-.91 3.575-2.59 6.823-4.66 9.561-3.93 5.165-9.45 8.525-14.48 8.845-5.03.322-9.72-1.58-13.06-4.584-1.94-1.696-3.41-3.794-4.27-6.055-.91-2.356-1.09-4.882-.43-7.347.82-3.071 3.02-6.016 6.95-8.296a2.22 2.22 0 0 1 3.03.809 2.225 2.225 0 0 1-.81 3.033c-2.83 1.641-4.37 3.626-4.94 5.625-.4 1.517-.26 3.1.32 4.594.59 1.58 1.65 3.082 3.06 4.351 2.52 2.258 6.11 3.704 9.87 3.449 3.79-.245 8.09-2.958 11.26-7.106 2.81-3.716 4.72-8.609 4.52-13.943-.84-6.887-4.42-12.798-9.47-16.828-5.06-3.992-11.6-6.065-18.51-5.269l-.12.007a32.147 32.147 0 0 0-21.47 12.059 32.243 32.243 0 0 0-6.73 23.627v.124c1.86 15.566 12.21 27.267 21.69 37.964 10.38 11.749 19.72 22.367 16.99 36.1-.07.427-.29.814-.57 1.105-.87 3.871-2.61 7.347-4.8 10.254-3.93 5.165-9.45 8.524-14.49 8.845-5.03.321-9.72-1.581-13.05-4.584-1.94-1.696-3.41-3.795-4.27-6.055-.92-2.357-1.09-4.882-.44-7.347.82-3.072 3.02-6.017 6.96-8.297a2.223 2.223 0 0 1 3.03.809 2.235 2.235 0 0 1-.81 3.034c-2.84 1.678-4.37 3.625-4.95 5.625-.4 1.516-.25 3.099.32 4.594.59 1.58 1.65 3.081 3.06 4.35 2.52 2.258 6.11 3.704 9.87 3.449 3.8-.245 8.08-2.919 11.26-7.106 2.82-3.716 4.73-8.608 4.53-13.942-.85-6.887-4.42-12.798-9.48-16.79-5.06-4.03-11.61-6.066-18.51-5.308l-.12.008a32.1 32.1 0 0 0-21.46 12.058c-5.08 6.442-7.73 14.835-6.74 23.628l.01.124c1.85 15.532 12.16 27.215 21.61 37.93l.06.071c10.39 11.711 19.73 22.33 17 36.1-.03.183-.1.357-.18.521-.09.186-.21.359-.34.519l-.05.189-.04.152-.04.151-.02.076-.03.114a27.84 27.84 0 0 1-4.49 8.917c-3.93 5.165-9.44 8.486-14.48 8.845-5.04.321-9.72-1.58-13.06-4.584-1.93-1.734-3.4-3.833-4.26-6.093-.81-2.127-1.06-4.387-.62-6.627l.03-.113.03-.114.03-.114.03-.114.03-.113.03-.114.04-.152.04-.151.03-.114.01-.038.03-.114c.97-2.869 3.11-5.587 6.8-7.728a2.22 2.22 0 0 1 3.03.809c.28.48.38 1.034.23 1.565l-.01.038-.01.038-.01.038-.01.037-.01.039-.01.037-.01.038c-.17.483-.49.926-.97 1.204-2.72 1.547-4.23 3.418-4.82 5.331l-.06.066-.01.038-.02.076-.02.076-.01.038-.01.038-.02.075-.02.076-.02.076.02.086c-.33 1.376-.15 2.844.38 4.204.58 1.618 1.65 3.082 3.06 4.351 2.52 2.258 6.1 3.743 9.87 3.45 3.79-.246 8.07-2.921 11.26-7.107a23.32 23.32 0 0 0 3.46-6.59l.09-.18.06-.227.06-.228.06-.228.06-.227.06-.228.06-.227.06-.228.06-.227.01-.038.01-.2c.36-1.651.53-3.352.46-5.077a25.331 25.331 0 0 0-9.47-16.827c-5.06-3.992-11.61-6.066-18.51-5.27l-.12.008a32.142 32.142 0 0 0-21.47 12.058c-2.31 2.915-4.13 6.247-5.28 9.799l-.14.369-.1.379-.14.369-.1.38-.1.379-.11.379-.1.379-.06.39-.1.379c-.72 3.301-.89 6.831-.5 10.388l.01.124c1.86 15.566 12.17 27.257 21.65 37.953l-.01.038.04.01.01.009c10.37 11.746 19.72 22.325 16.98 36.091-.07.427-.28.776-.53 1.077-.91 3.575-2.59 6.824-4.65 9.561-3.93 5.165-9.45 8.525-14.49 8.846-5.03.321-9.71-1.58-13.05-4.584-1.94-1.697-3.41-3.795-4.27-6.056-.91-2.355-1.09-4.881-.44-7.346.82-3.072 3.03-6.017 6.96-8.297a2.223 2.223 0 0 1 3.03.809 2.235 2.235 0 0 1-.81 3.034c-2.83 1.64-4.37 3.625-4.95 5.625-.4 1.517-.25 3.099.32 4.593.59 1.581 1.66 3.082 3.06 4.352 2.52 2.257 6.11 3.703 9.87 3.448 3.8-.245 8.09-2.957 11.26-7.106 2.82-3.716 4.73-8.608 4.53-13.943-.85-6.886-4.42-12.797-9.48-16.789-5.05-4.03-11.61-6.066-18.5-5.308l-.13.008a32.1 32.1 0 0 0-21.46 12.058 32.295 32.295 0 0 0-6.74 23.628l.01.124c1.85 15.566 12.2 27.266 21.69 37.964 10.37 11.748 19.71 22.367 16.99 36.1-.08.465-.3.814-.58 1.104-.87 3.871-2.61 7.347-4.8 10.254-3.93 5.165-9.45 8.524-14.48 8.845-5.04.321-9.72-1.58-13.07-4.546-1.93-1.734-3.4-3.832-4.26-6.092-.91-2.357-1.09-4.883-.44-7.31.82-3.109 3.02-6.017 6.96-8.334a2.22 2.22 0 0 1 3.03.809c.6 1.094.25 2.421-.81 3.033-2.84 1.679-4.37 3.625-4.94 5.625-.41 1.517-.26 3.099.32 4.594.59 1.58 1.65 3.082 3.05 4.351 2.53 2.257 6.12 3.704 9.88 3.449 3.79-.245 8.07-2.92 11.26-7.106 2.81-3.716 4.72-8.609 4.52-13.943-.84-6.887-4.42-12.798-9.48-16.79-5.05-4.03-11.68-6.085-18.62-5.3a32.124 32.124 0 0 0-21.47 12.059c-5.13 6.469-7.74 14.91-6.73 23.751 1.85 15.531 12.16 27.214 21.62 37.93l.06.072c10.39 11.711 19.73 22.329 16.99 36.1-.02.158-.07.309-.14.453-.1.211-.23.407-.38.586-.92 3.612-2.59 6.823-4.65 9.561-3.93 5.165-9.45 8.525-14.49 8.846-5.04.358-9.73-1.543-13.06-4.547-1.93-1.734-3.4-3.833-4.26-6.093-.92-2.356-1.1-4.844-.45-7.309.83-3.11 3.02-6.016 6.96-8.297a2.224 2.224 0 0 1 3.03.81 2.234 2.234 0 0 1-.81 3.033c-2.83 1.64-4.37 3.625-4.94 5.587-.4 1.517-.25 3.1.32 4.594.58 1.618 1.64 3.12 3.06 4.351 2.52 2.258 6.1 3.742 9.86 3.487 3.81-.283 8.09-2.958 11.27-7.144 2.82-3.717 4.72-8.571 4.53-13.943-.85-6.886-4.42-12.797-9.48-16.79-5.07-3.992-11.61-6.065-18.52-5.269l-.12.007c-8.79 1.024-16.37 5.579-21.462 12.058a32.171 32.171 0 0 0-6.729 23.591l.008.123c1.857 15.566 12.196 27.305 21.673 38.002l.01.01c10.38 11.745 19.72 22.324 16.99 36.09-.08.427-.29.776-.53 1.077-.92 3.45-2.58 6.623-4.59 9.296-3.93 5.164-9.44 8.486-14.48 8.845-5.034.321-9.719-1.581-13.057-4.584-1.931-1.735-3.4-3.833-4.258-6.093a11.567 11.567 0 0 1-.447-7.309c.819-3.072 3.022-6.017 6.956-8.297a2.221 2.221 0 0 1 3.029.809 2.228 2.228 0 0 1-.808 3.033c-2.83 1.641-4.373 3.626-4.946 5.626-.404 1.517-.257 3.099.318 4.593.593 1.58 1.654 3.082 3.06 4.351 2.521 2.258 6.111 3.704 9.873 3.449 3.79-.245 8.09-2.957 11.26-7.106 2.82-3.754 4.72-8.608 4.52-13.942a25.331 25.331 0 0 0-9.47-16.828c-5.06-3.993-11.605-6.066-18.509-5.27l-.124.008a32.104 32.104 0 0 0-21.463 12.058c-5.082 6.441-7.723 14.835-6.729 23.59l-.002.161c1.857 15.566 12.207 27.268 21.688 37.964l.01.012c10.373 11.744 19.719 22.322 16.979 36.088-.07.428-.28.776-.53 1.078-.91 3.574-2.584 6.822-4.652 9.56-3.931 5.165-9.449 8.525-14.483 8.846-5.034.321-9.719-1.581-13.056-4.585-1.941-1.696-3.41-3.794-4.269-6.054-.913-2.356-1.093-4.882-.436-7.347.818-3.072 3.022-6.017 6.955-8.297a2.22 2.22 0 0 1 3.029.809 2.228 2.228 0 0 1-.808 3.034c-2.84 1.679-4.372 3.625-4.945 5.624-.404 1.517-.258 3.1.318 4.594.593 1.58 1.653 3.082 3.059 4.351 2.522 2.258 6.112 3.704 9.871 3.449 3.796-.245 8.078-2.92 11.261-7.106 2.815-3.716 4.726-8.608 4.525-13.942-.843-6.887-4.42-12.798-9.481-16.79-5.051-4.03-11.607-6.066-18.502-5.308l-.123.008a32.113 32.113 0 0 0-21.464 12.058 32.272 32.272 0 0 0-6.738 23.628l.007.124c1.858 15.566 12.207 27.266 21.689 37.963 10.377 11.749 19.717 22.367 16.992 36.1a2.069 2.069 0 0 1-.578 1.105c-.868 3.871-2.605 7.347-4.799 10.254-3.931 5.165-9.45 8.525-14.483 8.845-5.034.321-9.719-1.58-13.066-4.546-1.932-1.734-3.401-3.833-4.259-6.093-.914-2.356-1.093-4.882-.446-7.308.828-3.11 3.022-6.018 6.965-8.336a2.222 2.222 0 0 1 3.029.809c.601 1.095.247 2.422-.808 3.034-2.84 1.679-4.372 3.625-4.945 5.625-.404 1.517-.258 3.1.317 4.594.594 1.58 1.654 3.082 3.06 4.351 2.522 2.258 6.111 3.704 9.87 3.449 3.797-.246 8.078-2.92 11.262-7.106 2.815-3.717 4.726-8.608 4.524-13.943-.842-6.887-4.419-12.798-9.481-16.79-5.061-3.992-11.607-6.065-18.501-5.307l-.124.007a32.112 32.112 0 0 0-21.463 12.058c-5.092 6.48-7.723 14.835-6.739 23.628l.008.124c1.853 15.531 12.16 27.214 21.614 37.93l.064.072c10.388 11.71 19.727 22.329 16.993 36.1-.063.389-.278.738-.52 1.039l-.01.038-.041.151-.04.152-.051.19a26.844 26.844 0 0 1-4.524 9.068c-3.931 5.165-9.449 8.525-14.483 8.845-5.034.321-9.719-1.58-13.056-4.584-1.941-1.696-3.41-3.795-4.268-6.055-.831-2.212-1.098-4.558-.558-6.892l.02-.076.01-.038.02-.075.011-.038.03-.114.03-.113.03-.114.011-.039.03-.113c.884-3.014 3.057-5.845 6.884-8.032a2.223 2.223 0 0 1 3.03.809c.305.529.353 1.111.212 1.641l-.011.038-.01.038a2.136 2.136 0 0 1-.999 1.317c-2.782 1.613-4.295 3.483-4.895 5.435l-.021.076-.02.076-.01.038-.01.038-.01.038-.01.038-.01.038-.01.037-.021.077c-.298 1.423-.121 2.892.399 4.29.583 1.618 1.653 3.082 3.059 4.351 2.522 2.257 6.102 3.742 9.871 3.449 3.796-.245 8.078-2.92 11.262-7.107 1.552-2.022 2.797-4.411 3.607-6.997l.061-.228.06-.227.061-.228.061-.227.06-.228.061-.228c.427-1.754.598-3.617.543-5.541-.843-6.887-4.42-12.798-9.481-16.79-5.051-4.03-11.607-6.065-18.501-5.308l-.124.009a32.104 32.104 0 0 0-21.463 12.058 31.182 31.182 0 0 0-5.537 10.585l-.129.331-.101.379-.101.379-.101.379-.101.379a32.91 32.91 0 0 0-.659 11.157l.007.124c1.858 15.566 12.17 27.257 21.651 37.953l-.01.039.038.01c10.377 11.748 19.717 22.367 16.993 36.1-.074.427-.288.776-.531 1.077-.911 3.575-2.588 6.823-4.655 9.561-3.931 5.165-9.45 8.524-14.483 8.845-5.044.36-9.729-1.542-13.067-4.546-1.931-1.734-3.4-3.833-4.258-6.093-.914-2.356-1.103-4.844-.446-7.309.828-3.11 3.022-6.017 6.955-8.297a2.221 2.221 0 0 1 3.029.81 2.23 2.23 0 0 1-.808 3.033c-2.83 1.641-4.362 3.587-4.935 5.587-.404 1.517-.258 3.1.317 4.593.594 1.58 1.654 3.083 3.06 4.352 2.522 2.257 6.111 3.703 9.87 3.448 3.797-.245 8.079-2.92 11.262-7.106 2.815-3.716 4.716-8.57 4.524-13.942-.842-6.887-4.419-12.798-9.481-16.79-5.061-3.992-11.607-6.065-18.501-5.307l-.134.045c-8.79 1.024-16.371 5.58-21.463 12.059a32.167 32.167 0 0 0-6.729 23.59l.008.123c1.853 15.53 12.16 27.214 21.614 37.928l.064.074.009.01c10.374 11.744 19.718 22.323 16.984 36.09-.073.427-.288.776-.568 1.066-.869 3.87-2.606 7.347-4.8 10.255-3.93 5.165-9.449 8.524-14.483 8.845-5.043.359-9.729-1.543-13.066-4.547-1.931-1.734-3.4-3.832-4.258-6.092-.914-2.357-1.103-4.845-.447-7.31.828-3.109 3.022-6.017 6.956-8.297a2.222 2.222 0 0 1 3.029.81 2.229 2.229 0 0 1-.808 3.033c-2.83 1.641-4.363 3.588-4.936 5.587-.404 1.518-.257 3.1.318 4.594.583 1.618 1.653 3.082 3.059 4.351 2.522 2.258 6.102 3.742 9.871 3.449 3.797-.245 8.078-2.92 11.252-7.068 2.825-3.754 4.726-8.608 4.534-13.98-.843-6.888-4.42-12.798-9.481-16.79-5.051-4.03-11.683-6.086-18.635-5.262-8.79 1.023-16.371 5.578-21.463 12.058a32.032 32.032 0 0 0-4.079 6.682l-2.72 10.247a32.457 32.457 0 0 0 .078 6.785c1.857 15.566 12.196 27.304 21.678 38.001l.008.01c10.374 11.745 19.718 22.323 16.985 36.09a2.05 2.05 0 0 1-.251.676 3.186 3.186 0 0 1-.28.401c-.911 3.575-2.587 6.823-4.655 9.561-3.931 5.165-9.439 8.487-14.483 8.845-5.034.321-9.719-1.58-13.056-4.584-1.931-1.734-3.4-3.832-4.259-6.092a11.56 11.56 0 0 1-.446-7.309c.818-3.072 3.022-6.017 6.955-8.297a2.221 2.221 0 0 1 3.029.809 2.23 2.23 0 0 1-.808 3.034c-2.83 1.64-4.372 3.625-4.945 5.624-.404 1.517-.258 3.1.318 4.594.593 1.58 1.653 3.082 3.059 4.351 2.522 2.257 6.111 3.704 9.87 3.449 3.797-.245 8.089-2.958 11.262-7.107 2.825-3.753 4.726-8.607 4.525-13.942a25.34 25.34 0 0 0-9.471-16.827c-5.062-3.992-11.607-6.066-18.512-5.27l-.123.008a32.108 32.108 0 0 0-21.464 12.058 32.397 32.397 0 0 0-3.933 6.39l-2.892 10.894a32.183 32.183 0 0 0 .097 6.306l-.003.162c1.857 15.566 12.207 27.266 21.688 37.963l.009.01c10.374 11.745 19.718 22.323 16.984 36.09-.073.427-.288.776-.53 1.077-.929 3.489-2.575 6.623-4.585 9.296-3.931 5.165-9.449 8.524-14.483 8.845-5.034.321-9.719-1.581-13.056-4.584-1.941-1.696-3.41-3.795-4.269-6.055-.913-2.357-1.092-4.882-.436-7.347.818-3.072 3.022-6.016 6.955-8.297a2.222 2.222 0 0 1 3.029.809 2.229 2.229 0 0 1-.807 3.034c-2.83 1.641-4.373 3.625-4.946 5.625-.404 1.517-.258 3.1.318 4.594.593 1.58 1.653 3.081 3.059 4.35 2.522 2.258 6.112 3.705 9.871 3.45 3.796-.245 8.078-2.92 11.261-7.107 2.815-3.716 4.727-8.608 4.525-13.942-.843-6.887-4.42-12.798-9.481-16.79-5.051-4.03-11.607-6.065-18.502-5.307l-.123.007a32.105 32.105 0 0 0-21.463 12.059 32.343 32.343 0 0 0-3.781 6.066l-3.078 11.593a32.544 32.544 0 0 0 .12 5.968l.007.124c1.858 15.566 12.207 27.267 21.689 37.963 10.377 11.749 19.717 22.368 16.992 36.1-.073.428-.287.777-.53 1.078-.911 3.574-2.588 6.823-4.655 9.561-3.931 5.165-9.45 8.525-14.483 8.845-5.034.321-9.729-1.543-13.067-4.546-1.931-1.734-3.4-3.833-4.258-6.093-.914-2.356-1.103-4.844-.446-7.309.828-3.11 3.021-6.016 6.955-8.297a2.222 2.222 0 0 1 3.029.809 2.229 2.229 0 0 1-.808 3.034c-2.83 1.641-4.362 3.587-4.936 5.587-.403 1.517-.257 3.099.318 4.593.594 1.58 1.654 3.083 3.06 4.352 2.522 2.258 6.111 3.704 9.87 3.448 3.797-.245 8.078-2.919 11.262-7.105 2.815-3.717 4.716-8.571 4.524-13.943-.842-6.887-4.419-12.798-9.481-16.79-5.061-3.992-11.607-6.065-18.501-5.308l-.134.046c-8.79 1.024-16.371 5.579-21.463 12.059a32.344 32.344 0 0 0-3.63 5.752l-3.242 12.212a32.682 32.682 0 0 0 .143 5.625l.008.124c1.853 15.531 12.16 27.214 21.614 37.93l.064.072.009.01c10.374 11.744 19.718 22.323 16.984 36.09-.073.427-.288.776-.568 1.066-.869 3.871-2.606 7.347-4.8 10.254-3.93 5.165-9.449 8.525-14.483 8.845-5.044.359-9.729-1.542-13.066-4.546-1.931-1.734-3.4-3.832-4.258-6.093-.914-2.356-1.103-4.843-.447-7.308.828-3.11 3.022-6.017 6.955-8.298a2.223 2.223 0 0 1 3.03.81 2.23 2.23 0 0 1-.808 3.034c-2.83 1.64-4.363 3.587-4.936 5.587-.404 1.517-.258 3.099.318 4.593.583 1.618 1.653 3.082 3.059 4.351 2.522 2.258 6.102 3.742 9.871 3.449 3.797-.246 8.078-2.919 11.251-7.068 2.825-3.754 4.727-8.608 4.535-13.981-.843-6.886-4.42-12.797-9.481-16.789-5.061-3.992-11.607-6.066-18.511-5.27l-.124.007c-8.79 1.024-16.371 5.58-21.463 12.059a32.37 32.37 0 0 0-3.484 5.461l-3.407 12.829a32.65 32.65 0 0 0 .162 5.299l.008.124c1.857 15.566 12.196 27.305 21.678 38.002l.008.009c10.374 11.745 19.718 22.324 16.984 36.091-.013.08-.032.157-.055.231a2.54 2.54 0 0 1-.475.846l-.04.152-.04.151-.051.19-.01.038-.03.114a27.692 27.692 0 0 1-4.484 8.916c-3.931 5.165-9.45 8.525-14.483 8.845-5.034.322-9.719-1.58-13.056-4.584-1.942-1.696-3.411-3.794-4.269-6.055-.813-2.126-1.052-4.424-.618-6.664l.02-.075.01-.039.02-.075.011-.039.02-.075.01-.038.02-.076.01-.038.02-.076.01-.038.031-.113.03-.114.01-.038.03-.114.011-.038.03-.113.04-.152c.967-2.87 3.111-5.588 6.804-7.729a2.222 2.222 0 0 1 3.029.809c.278.481.364 1.073.232 1.566l-.01.037-.01.038-.01.039-.01.038-.01.037-.01.038-.01.038a2.22 2.22 0 0 1-.97 1.203c-2.734 1.585-4.246 3.456-4.827 5.332l-.068.104-.02.075-.03.114-.011.039-.01.037-.01.038-.01.038-.01.038-.01.038-.01.038.018.086c-.326 1.375-.15 2.844.37 4.242.594 1.58 1.654 3.082 3.06 4.351 2.522 2.258 6.111 3.704 9.87 3.449 3.797-.245 8.089-2.957 11.262-7.106a23.338 23.338 0 0 0 3.459-6.591l.098-.218.061-.227.06-.227.061-.228.061-.228.06-.227.061-.227.06-.228.061-.228.023-.237c.348-1.613.517-3.315.459-5.077-.842-6.887-4.419-12.797-9.481-16.789-5.051-4.031-11.607-6.066-18.501-5.308l-.124.008a32.104 32.104 0 0 0-21.463 12.058 31.771 31.771 0 0 0-3.329 5.129l-3.585 13.504a33.88 33.88 0 0 0 .186 4.957l-.003.161c1.867 15.528 12.169 27.257 21.65 37.954l.028.048c10.388 11.711 19.727 22.329 16.993 36.1-.042.258-.15.498-.289.718a3.533 3.533 0 0 1-.231.321c-.922 3.613-2.588 6.823-4.656 9.561-3.93 5.165-9.449 8.524-14.483 8.845-5.043.359-9.729-1.542-13.066-4.546-1.931-1.734-3.4-3.833-4.258-6.093-.914-2.356-1.103-4.844-.447-7.308.828-3.11 3.022-6.018 6.955-8.298a2.223 2.223 0 0 1 3.03.81 2.229 2.229 0 0 1-.808 3.033c-2.83 1.641-4.363 3.588-4.936 5.587-.404 1.517-.258 3.1.318 4.594.583 1.618 1.653 3.082 3.059 4.351 2.522 2.258 6.102 3.742 9.871 3.449 3.796-.245 8.078-2.92 11.262-7.107 2.815-3.716 4.716-8.569 4.524-13.942-.843-6.887-4.42-12.797-9.481-16.789-5.061-3.993-11.607-6.066-18.501-5.308l-.134.045c-8.79 1.024-16.371 5.579-21.463 12.059a32.275 32.275 0 0 0-3.207 4.925l-3.709 13.967a32.72 32.72 0 0 0 .187 4.697l.008.124c1.857 15.566 12.196 27.304 21.678 38.002l.008.009c10.374 11.745 19.718 22.324 16.984 36.091-.073.427-.287.776-.568 1.067-.868 3.87-2.605 7.346-4.799 10.254-3.931 5.165-9.449 8.525-14.483 8.845-5.044.359-9.729-1.543-13.066-4.546-1.931-1.734-3.4-3.833-4.259-6.093-.913-2.356-1.103-4.844-.446-7.309.828-3.11 3.022-6.016 6.955-8.297a2.222 2.222 0 0 1 3.029.809 2.228 2.228 0 0 1-.808 3.034c-2.83 1.64-4.372 3.625-4.935 5.586-.404 1.518-.258 3.101.308 4.632.593 1.58 1.653 3.082 3.069 4.314 2.522 2.258 6.102 3.741 9.86 3.486 3.807-.283 8.089-2.957 11.262-7.106 2.825-3.754 4.726-8.608 4.535-13.98-.843-6.887-4.42-12.798-9.481-16.79-5.051-4.03-11.683-6.086-18.635-5.262a32.108 32.108 0 0 0-21.464 12.058 32.089 32.089 0 0 0-3.063 4.64l-3.868 14.569c-.034 1.485.034 2.99.21 4.505 1.858 15.566 12.197 27.305 21.678 38.001l.01.011c10.374 11.745 19.717 22.323 16.983 36.089-.073.428-.288.777-.53 1.078-.912 3.574-2.588 6.822-4.655 9.561-3.931 5.164-9.44 8.486-14.484 8.845-5.033.321-9.718-1.581-13.056-4.584-1.931-1.735-3.4-3.833-4.268-6.055-.914-2.356-1.093-4.882-.437-7.347.818-3.071 3.022-6.017 6.956-8.297a2.221 2.221 0 0 1 3.029.809 2.229 2.229 0 0 1-.808 3.034c-2.83 1.641-4.373 3.625-4.946 5.625-.404 1.516-.257 3.099.318 4.593.593 1.58 1.654 3.082 3.06 4.351 2.521 2.258 6.111 3.704 9.87 3.449 3.797-.245 8.088-2.957 11.262-7.106 2.815-3.716 4.726-8.608 4.524-13.942a25.34 25.34 0 0 0-9.471-16.828c-5.061-3.992-11.607-6.065-18.511-5.27l-.124.008a32.108 32.108 0 0 0-21.463 12.058 32.268 32.268 0 0 0-6.739 23.628l.008.124c1.857 15.566 12.207 27.266 21.688 37.963 10.377 11.749 19.717 22.367 16.993 36.1-.073.428-.288.777-.53 1.077-.93 3.489-2.576 6.624-4.585 9.296-3.931 5.165-9.45 8.524-14.483 8.846-5.034.32-9.719-1.581-13.056-4.585-1.942-1.696-3.411-3.795-4.269-6.055-.914-2.356-1.093-4.882-.436-7.347.818-3.072 3.022-6.016 6.955-8.297a2.223 2.223 0 0 1 3.029.809c.601 1.095.247 2.422-.808 3.034-2.84 1.679-4.372 3.626-4.945 5.625-.404 1.517-.258 3.1.317 4.594.594 1.58 1.654 3.081 3.06 4.351 2.522 2.258 6.111 3.704 9.87 3.449 3.797-.245 8.078-2.92 11.262-7.106 2.815-3.717 4.726-8.609 4.524-13.943-.843-6.886-4.419-12.797-9.481-16.79-5.051-4.03-11.607-6.065-18.501-5.307l-.124.008a32.104 32.104 0 0 0-21.463 12.058c-5.092 6.479-7.723 14.835-6.739 23.628l.008.124c1.853 15.53 12.16 27.213 21.614 37.929l.064.072c10.388 11.71 19.727 22.329 16.993 36.1-.063.389-.278.738-.52 1.039-.922 3.613-2.588 6.823-4.656 9.561-3.931 5.165-9.449 8.525-14.483 8.845-5.044.359-9.729-1.542-13.066-4.546-1.931-1.734-3.4-3.832-4.258-6.093-.914-2.356-1.103-4.844-.447-7.309.828-3.109 3.022-6.016 6.955-8.297a2.222 2.222 0 0 1 3.029.81 2.227 2.227 0 0 1-.807 3.033c-2.83 1.641-4.363 3.588-4.936 5.587-.404 1.517-.258 3.1.318 4.594.593 1.58 1.653 3.082 3.059 4.351 2.522 2.258 6.102 3.742 9.871 3.449 3.796-.246 8.078-2.92 11.261-7.106 2.815-3.717 4.716-8.57 4.525-13.943-.843-6.886-4.42-12.798-9.481-16.79-5.061-3.992-11.607-6.065-18.501-5.307l-.134.045c-8.79 1.024-16.371 5.579-21.463 12.059a32.165 32.165 0 0 0-6.729 23.589l.007.124c1.858 15.566 12.197 27.305 21.679 38.002l.007.009c10.375 11.744 19.719 22.324 16.985 36.091-.073.427-.287.776-.568 1.067-.868 3.871-2.605 7.346-4.799 10.254-3.931 5.164-9.449 8.524-14.483 8.845-5.044.358-9.729-1.542-13.066-4.546-1.932-1.734-3.401-3.833-4.259-6.093-.913-2.357-1.103-4.844-.446-7.309.828-3.11 3.022-6.017 6.955-8.297a2.221 2.221 0 0 1 3.029.809 2.229 2.229 0 0 1-.808 3.034c-2.83 1.64-4.372 3.625-4.935 5.587-.404 1.517-.258 3.099.318 4.593.583 1.619 1.643 3.12 3.059 4.351 2.522 2.258 6.101 3.743 9.86 3.487 3.807-.283 8.089-2.957 11.262-7.106 2.825-3.754 4.726-8.608 4.535-13.98-.843-6.887-4.42-12.798-9.481-16.79-5.062-3.992-11.607-6.066-18.512-5.27l-.124.008c-8.79 1.023-16.371 5.579-21.463 12.058-5.082 6.442-7.723 14.835-6.728 23.59l.007.124c1.857 15.565 12.197 27.304 21.678 38.001l.01.012c10.374 11.744 19.717 22.322 16.983 36.089-.073.43-.288.78-.53 1.08-.912 3.57-2.588 6.82-4.656 9.56-3.93 5.16-9.439 8.48-14.483 8.84-5.033.32-9.719-1.58-13.056-4.58-1.931-1.74-3.4-3.83-4.268-6.06-.914-2.35-1.093-4.88-.437-7.34.818-3.07 3.022-6.02 6.956-8.3a2.221 2.221 0 0 1 3.029.809 2.225 2.225 0 0 1-.808 3.031c-2.83 1.64-4.373 3.63-4.946 5.63-.404 1.51-.257 3.1.318 4.59.593 1.58 1.653 3.08 3.059 4.35 2.522 2.26 6.112 3.71 9.871 3.45 3.797-.24 8.088-2.96 11.262-7.1 2.825-3.76 4.726-8.61 4.524-13.947a25.34 25.34 0 0 0-9.471-16.828c-5.061-3.993-11.607-6.066-18.511-5.27l-.124.008a32.108 32.108 0 0 0-21.463 12.058 32.273 32.273 0 0 0-6.739 23.629l.008.12c1.867 15.53 12.169 27.26 21.65 37.96l-3.148 3.14-.149-.21c-9.883-11.17-20.699-23.4-22.716-40.35l-.025-.21a36.622 36.622 0 0 1 7.625-26.799c5.771-7.354 14.36-12.494 24.379-13.717l.21-.025a29.885 29.885 0 0 1 14.778 2.079l-2.467-2.771c-9.882-11.17-20.689-23.44-22.715-40.35l-.025-.21c-1.108-10.004 1.874-19.525 7.635-26.841 5.771-7.354 14.359-12.493 24.369-13.679l.209-.025a29.48 29.48 0 0 1 16.118 2.68 227.21 227.21 0 0 0-3.614-4.092c-9.883-11.17-20.69-23.44-22.716-40.351l-.025-.21c-1.108-10.004 1.874-19.524 7.635-26.84 5.771-7.355 14.36-12.494 24.369-13.679l.209-.025c5.228-.594 10.292.19 14.778 2.078l-2.456-2.809c-9.882-11.169-20.699-23.401-22.725-40.312l-.026-.209c-1.107-10.004 1.874-19.526 7.635-26.842 5.772-7.354 14.36-12.493 24.379-13.716l.21-.025a29.69 29.69 0 0 1 14.296 1.909l-2.055-2.336c-9.883-11.17-20.699-23.402-22.716-40.351l-.025-.21a36.623 36.623 0 0 1 7.625-26.802c5.771-7.354 14.36-12.493 24.379-13.717l.21-.025a29.885 29.885 0 0 1 14.778 2.079l-2.467-2.771-.163-.184c-9.828-11.159-20.575-23.358-22.542-40.204l-.018-.086a39.123 39.123 0 0 1-.078-.752H-20V0h877.634c5.753-6.82 14.047-11.544 23.645-12.702l.038.01c5.781-.69 11.307.34 16.204 2.663a229.424 229.424 0 0 0-3.615-4.093l-.095-.108c-9.847-11.179-20.6-23.386-22.62-40.242l-.026-.21c-1.107-10.004 1.874-19.525 7.635-26.84 5.772-7.355 14.36-12.495 24.38-13.718l.199.013c5.228-.594 10.292.19 14.778 2.08l-2.307-2.607-.056-.097-.093-.106c-9.883-11.17-20.7-23.401-22.726-40.312l-.025-.21a37.616 37.616 0 0 1 .677-12.29l.111-.417.01-.037.073-.427.111-.417.112-.417.01-.039.149-.407.111-.417a36.334 36.334 0 0 1 6.281-12.011c5.771-7.354 14.36-12.493 24.369-13.679l.21-.025c5.228-.594 10.292.19 14.777 2.079l-2.466-2.771-.095-.108c-9.847-11.179-20.601-23.386-22.62-40.242l-.026-.21c-1.107-10.004 1.874-19.524 7.635-26.841 5.772-7.354 14.36-12.493 24.38-13.717l.209-.025a29.815 29.815 0 0 1 16.108 2.719l-.028-.034c-1.167-1.359-2.334-2.718-3.576-4.098-9.883-11.169-20.7-23.4-22.726-40.312l-.025-.209c-1.108-10.004 1.874-19.525 7.635-26.841 5.771-7.354 14.359-12.494 24.379-13.717l.209-.025c5.218-.556 10.282.227 14.768 2.117l-2.456-2.809c-9.883-11.17-20.699-23.402-22.715-40.351l-.026-.21c-1.118-9.965 1.864-19.486 7.635-26.84 5.761-7.316 14.36-12.494 24.369-13.679l.21-.025a29.686 29.686 0 0 1 14.291 1.909l-2.05-2.336c-9.883-11.17-20.689-23.439-22.716-40.35l-.025-.21c-1.108-10.004 1.874-19.524 7.635-26.841 5.771-7.354 14.356-12.493 24.366-13.679l.21-.025c5.23-.593 10.29.191 14.78 2.079l-2.47-2.771-.16-.182c-9.83-11.158-20.57-23.359-22.53-40.244l-.03-.048c-1.14-10.014 1.81-19.583 7.62-26.927a36.4 36.4 0 0 1 24.45-13.696l.05-.028c5.77-.652 11.31.34 16.2 2.701-1.18-1.37-2.36-2.741-3.61-4.131-9.88-11.17-20.7-23.402-22.72-40.313l-.03-.209c-1.11-10.004 1.87-19.525 7.63-26.841A36.524 36.524 0 0 1 1056-669.07l.21-.025c5.22-.556 10.29.228 14.77 2.117l-2.3-2.645-.01.038-.08-.144-.06-.058c-9.89-11.17-20.7-23.402-22.72-40.35l-.03-.21c-.42-3.891-.25-7.744.49-11.407l.11-.417.07-.428.11-.417.01-.037.08-.428.11-.417.01-.038.11-.417.15-.407.11-.417.11-.417.01-.039.15-.407c1.36-4.062 3.38-7.829 6.01-11.148a36.313 36.313 0 0 1 24.37-13.679l.21-.025c5.23-.594 10.29.19 14.78 2.079l-2.46-2.809c-9.88-11.17-20.7-23.401-22.73-40.312l-.02-.21c-1.11-10.004 1.87-19.525 7.63-26.841a36.524 36.524 0 0 1 24.38-13.717l.21-.025c5.73-.624 11.25.405 16.11 2.719-.61-.71-1.22-1.419-1.84-2.131-.57-.663-1.16-1.33-1.76-2.001-9.89-11.169-20.7-23.401-22.72-40.35l-.03-.172c-1.11-10.004 1.87-19.525 7.63-26.841 5.77-7.354 14.36-12.493 24.38-13.716l.21-.025c5.22-.556 10.28.227 14.77 2.116l-2.46-2.809c-9.88-11.169-20.7-23.401-22.72-40.35l-.02-.21c-1.12-9.966 1.86-19.486 7.63-26.84 5.78-7.355 14.36-12.494 24.37-13.679l.21-.026c5.02-.568 9.93.176 14.3 1.91l-2.06-2.336-.09-.11c-9.85-11.182-20.6-23.382-22.62-40.242l-.03-.21c-1.1-10 1.88-19.52 7.64-26.84a36.345 36.345 0 0 1 24.37-13.68l.21-.02c5.23-.6 10.29.19 14.77 2.08l-2.45-2.81-.06-.06c-9.86-11.16-20.68-23.39-22.65-40.33l-.02-.05c-1.15-10.01 1.8-19.58 7.61-26.93a36.39 36.39 0 0 1 24.46-13.69l.05-.03c5.77-.65 11.3.34 16.19 2.7-1.18-1.37-2.35-2.74-3.6-4.13-9.89-11.17-20.7-23.4-22.72-40.35l-.04-.17c-1.1-10.01 1.88-19.53 7.64-26.84 5.77-7.36 14.36-12.5 24.38-13.72l.21-.03c5.23-.59 10.28.23 14.77 2.12l-2.46-2.81c-9.88-11.17-20.7-23.4-22.72-40.35l-.02-.21c-.49-4.56-.16-8.98.88-13.21l.09-.34.02-.07.1-.38c1.34-4.72 3.56-9.09 6.55-12.88a36.52 36.52 0 0 1 24.38-13.71l.21-.03c5.23-.59 10.28.23 14.77 2.12l-2.46-2.81c-9.88-11.17-20.68-23.44-22.71-40.35l-.03-.21c-1.1-10 1.88-19.52 7.64-26.84a36.306 36.306 0 0 1 24.37-13.68l.21-.03c5.73-.66 11.26.37 16.12 2.69-1.18-1.37-2.37-2.71-3.62-4.1-9.88-11.17-20.69-23.44-22.71-40.35l-.03-.21c-1.11-10 1.87-19.52 7.63-26.84 5.78-7.35 14.36-12.49 24.37-13.68l.21-.02c5.23-.6 10.3.19 14.78 2.08l-2.45-2.81c-9.89-11.17-20.7-23.4-22.73-40.31l-.03-.21c-1.1-10.01 1.88-19.53 7.64-26.85 5.77-7.35 14.36-12.49 24.38-13.71l.21-.03c5.02-.57 9.93.18 14.29 1.91l-2.05-2.33c-9.88-11.17-20.7-23.41-22.72-40.35l-.02-.21a36.634 36.634 0 0 1 7.62-26.81c5.77-7.35 14.36-12.49 24.38-13.71l.21-.03c5.23-.59 10.28.23 14.78 2.08l-2.47-2.77-.16-.18c-9.83-11.16-20.57-23.36-22.54-40.21l-.02-.09c-1.15-10.01 1.81-19.58 7.62-26.92 5.77-7.36 14.4-12.49 24.45-13.7l.04.01c5.78-.69 11.31.34 16.2 2.66-1.17-1.37-2.36-2.7-3.61-4.09-9.88-11.17-20.69-23.44-22.72-40.35l-.02-.21c-1.11-10 1.87-19.52 7.63-26.84 5.78-7.35 14.36-12.49 24.37-13.68l.21-.02c5.23-.6 10.29.19 14.78 2.08l-2.31-2.61-.08-.15-.08-.02-.09-.11c-9.85-11.17-20.6-23.38-22.62-40.24l-.03-.21c-.41-3.92-.25-7.74.49-11.4l.11-.42.01-.04.07-.43.11-.41.07-.43.01-.04.12-.41.11-.42.15-.41.01-.04.11-.41.11-.42.15-.41c1.36-4.06 3.39-7.87 6.01-11.15 5.77-7.35 14.36-12.49 24.38-13.71l.21-.03c5.23-.59 10.28.23 14.77 2.08l-2.46-2.77c-9.88-11.17-20.69-23.44-22.72-40.35l-.02-.21c-1.11-10 1.87-19.53 7.63-26.84 5.77-7.36 14.36-12.5 24.37-13.68l.21-.03c5.73-.66 11.26.37 16.12 2.69a186.9 186.9 0 0 0-3.62-4.1l-.09-.11c-9.85-11.18-20.6-23.38-22.62-40.24l-.03-.21c-1.1-10 1.88-19.52 7.64-26.84 5.77-7.35 14.36-12.49 24.38-13.72l.2.02c5.23-.6 10.29.19 14.78 2.08l-2.46-2.81c-9.88-11.17-20.7-23.4-22.73-40.32l-.02-.21c-1.11-10 1.87-19.52 7.63-26.84 5.77-7.35 14.36-12.49 24.38-13.71l.21-.03c5.02-.57 9.93.18 14.3 1.91l-2.06-2.33c-9.88-11.17-20.7-23.41-22.71-40.35l-.03-.21c-1.12-9.97 1.87-19.49 7.64-26.85 5.76-7.31 14.35-12.45 24.37-13.67l.21-.03c5.22-.59 10.28.23 14.77 2.08l-2.46-2.77-.16-.18c-9.83-11.16-20.58-23.36-22.55-40.21l-.02-.09c-1.14-10.01 1.81-19.58 7.62-26.92 5.77-7.36 14.4-12.49 24.46-13.7l.03.01c5.79-.69 11.31.34 16.21 2.66-1.18-1.37-2.36-2.7-3.62-4.09l-.09-.11c-9.85-11.18-20.6-23.38-22.62-40.24l-.03-.21c-1.1-10 1.88-19.52 7.64-26.84 5.77-7.35 14.36-12.49 24.38-13.72l.2.02c5.22-.6 10.29.19 14.77 2.07l-2.3-2.6-.06-.1-.09-.1c-9.88-11.17-20.7-23.41-22.73-40.32l-.02-.21c-.46-4.22-.2-8.38.67-12.29l.12-.41.01-.04.07-.43.11-.41.11-.42.01-.04.15-.41.11-.41a36.22 36.22 0 0 1 6.28-12.01c5.77-7.36 14.36-12.5 24.37-13.68l.21-.03c5.23-.59 10.29.19 14.78 2.08l-2.47-2.77-.09-.11c-9.85-11.18-20.6-23.39-22.62-40.24l-.03-.21c-1.11-10 1.88-19.53 7.64-26.84 5.77-7.36 14.36-12.5 24.38-13.72l.21-.02c5.72-.63 11.24.4 16.1 2.71-1.17-1.37-2.35-2.74-3.6-4.13-9.88-11.17-20.7-23.4-22.73-40.31l-.02-.21c-1.11-10 1.87-19.52 7.63-26.84 5.77-7.35 14.36-12.49 24.38-13.72l.21-.02c5.22-.56 10.28.23 14.77 2.12l-2.46-2.81c-9.88-11.17-20.7-23.4-22.71-40.35l-.03-.21c-1.11-9.97 1.87-19.49 7.64-26.84 5.76-7.32 14.35-12.46 24.37-13.68l.21-.03c5.02-.57 9.93.18 14.29 1.91l-2.05-2.33c-9.88-11.17-20.69-23.44-22.72-40.36l-.02-.2c-1.11-10.01 1.87-19.53 7.63-26.85 5.77-7.35 14.36-12.49 24.37-13.67l.21-.03c5.23-.59 10.29.19 14.78 2.08l-2.47-2.77-.16-.18c-9.83-11.16-20.58-23.36-22.53-40.25l-.03-.05c-1.15-10.01 1.81-19.58 7.62-26.92a36.38 36.38 0 0 1 24.45-13.7l.05-.03c5.77-.65 11.31.34 16.19 2.7-1.17-1.37-2.35-2.74-3.6-4.13-9.88-11.17-20.7-23.4-22.73-40.31l-.02-.21c-1.11-10 1.87-19.52 7.63-26.84 5.77-7.35 14.36-12.49 24.38-13.72l.21-.02c5.22-.56 10.28.23 14.77 2.11l-2.3-2.64-.01.04-.08-.15-.07-.05c-9.88-11.17-20.7-23.41-22.71-40.35l-.03-.21c-.42-3.9-.25-7.75.48-11.41l.12-.42.07-.43.11-.41.01-.04.07-.43.11-.42.01-.03.11-.38.01-.04.14-.41.12-.41.11-.42.01-.04.15-.41c1.36-4.06 3.38-7.83 6.01-11.15 5.77-7.35 14.36-12.49 24.37-13.67l.21-.03c5.22-.59 10.29.19 14.77 2.08l-2.45-2.81c-9.89-11.17-20.7-23.4-22.73-40.31l-.02-.21c-1.11-10.01 1.87-19.53 7.63-26.84 5.77-7.36 14.36-12.5 24.38-13.72l.21-.02c5.72-.63 11.25.4 16.11 2.71l-.01-.01c-1.18-1.37-2.35-2.73-3.6-4.12-9.88-11.17-20.7-23.4-22.71-40.35l-.04-.17c-1.1-10 1.88-19.52 7.64-26.84 5.77-7.35 14.36-12.49 24.38-13.72l.21-.02c5.21-.56 10.28.23 14.76 2.12l-2.45-2.81c-9.88-11.17-20.7-23.41-22.72-40.35l-.02-.21c-1.12-9.97 1.86-19.49 7.63-26.84 5.77-7.36 14.36-12.5 24.37-13.68l.21-.03c5.02-.57 9.93.18 14.3 1.91l-2.06-2.34-.09-.11c-9.85-11.17-20.6-23.38-22.62-40.24l-.03-.21c-1.11-10 1.88-19.52 7.64-26.84 5.77-7.35 14.36-12.49 24.37-13.67l.2-.03c5.23-.59 10.3.19 14.78 2.08l-2.45-2.81-.06-.06c-9.87-11.15-20.68-23.38-22.65-40.33l-.03-.05c-1.14-10.01 1.81-19.58 7.62-26.92a36.402 36.402 0 0 1 24.46-13.7l.04-.03c5.77-.65 11.31.34 16.2 2.7-1.18-1.37-2.35-2.74-3.61-4.13-9.88-11.17-20.7-23.4-22.71-40.35l-.04-.17c-1.11-10 1.88-19.52 7.64-26.84 5.77-7.35 14.36-12.49 24.38-13.72l.21-.02c5.21-.56 10.28.23 14.76 2.11l-2.17-2.49-.22.23-.15-.2c-9.89-11.17-20.7-23.4-22.72-40.35l-.02-.21c-.53-4.73-.14-9.38 1.02-13.74 1.31-4.93 3.59-9.52 6.7-13.45 5.77-7.35 14.36-12.49 24.37-13.67l.21-.03c4.98-.58 9.82.15 14.15 1.83l-1.93-2.18c-9.88-11.17-20.69-23.44-22.71-40.35l-.03-.21c-1.11-10 1.87-19.53 7.64-26.84a36.284 36.284 0 0 1 24.36-13.68l.21-.03c5.74-.66 11.26.37 16.12 2.69-1.17-1.38-2.36-2.71-3.61-4.1l-.1-.11c-9.85-11.17-20.6-23.38-22.62-40.24l-.02-.21c-1.11-10 1.87-19.52 7.63-26.84 5.77-7.35 14.36-12.49 24.38-13.72l.2.02c5.23-.6 10.29.19 14.78 2.08l-2.46-2.81c-9.88-11.17-20.7-23.4-22.72-40.32l-.03-.2a36.737 36.737 0 0 1 7.64-26.85c5.77-7.35 14.36-12.49 24.38-13.71l.2-.03c5.02-.57 9.94.18 14.3 1.91l-2.05-2.33c-9.89-11.17-20.7-23.41-22.72-40.35l-.03-.21c-1.11-9.97 1.87-19.49 7.64-26.85 5.76-7.31 14.35-12.45 24.37-13.67l.21-.03c5.23-.59 10.28.23 14.78 2.08l-2.47-2.77-.16-.18c-9.83-11.16-20.58-23.36-22.55-40.21l-.01-.09c-1.15-10.01 1.81-19.58 7.61-26.92 5.78-7.36 14.4-12.49 24.46-13.7l.04.01c5.78-.69 11.3.34 16.2 2.66-1.18-1.37-2.36-2.7-3.61-4.09l-.1-.11c-9.85-11.18-20.6-23.38-22.62-40.24l-.02-.21c-1.11-10 1.87-19.52 7.63-26.84 5.77-7.35 14.36-12.49 24.38-13.72l.2.02c5.23-.6 10.29.19 14.78 2.08l-2.31-2.61-.08-.15-.07-.05c-9.88-11.17-20.7-23.41-22.72-40.32l-.03-.21c-.41-3.92-.25-7.74.48-11.4l.11-.42.01-.04.08-.43.11-.41.01-.04.07-.43.11-.41.11-.42.01-.04.15-.41.11-.41.12-.42.14-.41c1.37-4.06 3.4-7.87 6.03-11.18 5.76-7.32 14.35-12.5 24.36-13.68l.21-.03c5.23-.59 10.29.23 14.78 2.08l-2.46-2.77-.1-.11c-9.85-11.18-20.6-23.39-22.62-40.24l-.03-.21c-1.1-10 1.88-19.53 7.64-26.84 5.77-7.36 14.36-12.5 24.37-13.68l.21-.03c5.73-.66 11.26.37 16.12 2.69-1.18-1.38-2.37-2.71-3.62-4.1l-.09-.11c-9.85-11.18-20.6-23.38-22.62-40.24l-.03-.21c-1.11-10 1.88-19.52 7.64-26.84 5.77-7.35 14.36-12.49 24.38-13.72l.19.02c5.23-.6 10.3.19 14.78 2.08l-2.45-2.81c-9.89-11.17-20.7-23.4-22.72-40.35l-.03-.18c-1.11-10 1.87-19.52 7.63-26.84 5.77-7.35 14.36-12.49 24.38-13.71l.21-.03c5.02-.57 9.93.18 14.29 1.91l-2.05-2.33c-9.88-11.17-20.7-23.41-22.72-40.35l-.02-.21c-1.12-9.97 1.86-19.49 7.63-26.85a36.587 36.587 0 0 1 24.37-13.67l.21-.03c5.23-.59 10.28.23 14.78 2.08l-2.47-2.77-.16-.18c-9.83-11.16-20.57-23.36-22.54-40.21l-.02-.09c-1.14-10.01 1.81-19.58 7.62-26.92 5.77-7.36 14.4-12.49 24.45-13.7l.04.01c5.78-.69 11.31.34 16.21 2.66-1.18-1.37-2.37-2.7-3.62-4.09l-.1-.11c-9.84-11.18-20.59-23.38-22.61-40.24l-.03-.21c-1.11-10 1.87-19.52 7.64-26.84 5.77-7.35 14.35-12.49 24.37-13.72l.2.02c5.23-.6 10.3.19 14.78 2.07l-2.31-2.6-.05-.1-.09-.1c-9.89-11.17-20.7-23.41-22.72-40.35l-.04-.18c-.45-4.22-.2-8.38.68-12.29l.11-.41.01-.04.08-.43.11-.41.01-.04.1-.38.01-.04.15-.41.11-.41a36.22 36.22 0 0 1 6.28-12.01c5.77-7.36 14.36-12.5 24.37-13.68l.21-.03c5.23-.59 10.29.19 14.78 2.08l-2.46-2.81c-7.83-8.83-16.24-18.35-20.39-30.35l5.26 1.41c4.17 9.85 11.44 18.09 18.27 25.84l.18.21c10.39 11.71 19.73 22.33 17 36.1-.07.39-.28.74-.52 1.04l-.01.04-.04.15-.04.15-.04.15a26.96 26.96 0 0 1-4.54 9.11c-3.93 5.16-9.45 8.52-14.48 8.85-5.03.32-9.72-1.59-13.06-4.59-1.94-1.7-3.41-3.79-4.27-6.05-.83-2.22-1.08-4.6-.55-6.9l.03-.11.03-.11.03-.12.03-.11.03-.11.01-.04.03-.12c.88-3.01 3.06-5.84 6.88-8.03a2.22 2.22 0 0 1 3.03.81c.31.53.36 1.11.21 1.64l-.01.04-.01.04c-.14.53-.47 1.01-1 1.31-2.78 1.62-4.29 3.49-4.89 5.44l-.02.08-.02.07-.01.04-.01.04-.01.04-.01.03-.01.04-.01.04-.02.08c-.3 1.42-.12 2.89.4 4.29.58 1.61 1.65 3.08 3.06 4.35 2.52 2.25 6.1 3.74 9.87 3.45 3.79-.25 8.07-2.92 11.26-7.11 1.55-2.02 2.8-4.41 3.61-7l.06-.23.06-.22.06-.23.06-.23.06-.23.06-.22c.43-1.76.6-3.62.54-5.55-.84-6.88-4.42-12.79-9.47-16.82-5.06-4-11.61-6.07-18.51-5.27l-.12.01a32.125 32.125 0 0 0-21.47 12.05 31.175 31.175 0 0 0-5.52 10.55l-.14.37-.1.38-.1.38-.1.38-.11.38a33.09 33.09 0 0 0-.66 11.15l.01.13c1.86 15.56 12.17 27.25 21.65 37.95l-.01.04.04.01c10.38 11.75 19.72 22.37 16.99 36.1-.07.43-.28.77-.53 1.08-.91 3.57-2.58 6.82-4.65 9.56-3.93 5.16-9.45 8.52-14.49 8.84-5.03.32-9.72-1.54-13.06-4.54-1.93-1.74-3.4-3.84-4.26-6.1-.91-2.35-1.1-4.84-.45-7.31.83-3.11 3.03-6.01 6.96-8.29 1.05-.61 2.42-.25 3.03.81.61 1.05.24 2.42-.81 3.03-2.83 1.64-4.36 3.59-4.94 5.59-.4 1.51-.25 3.1.32 4.59.6 1.58 1.66 3.08 3.06 4.35 2.52 2.26 6.11 3.71 9.87 3.45 3.8-.24 8.08-2.92 11.26-7.11 2.82-3.71 4.72-8.57 4.53-13.94-.84-6.88-4.42-12.8-9.48-16.79a25.341 25.341 0 0 0-18.5-5.31l-.14.05c-8.79 1.02-16.37 5.58-21.46 12.06a32.197 32.197 0 0 0-6.73 23.59l.01.12c1.85 15.53 12.16 27.22 21.61 37.93l.07.07v.01c10.38 11.75 19.72 22.33 16.99 36.09-.07.43-.29.78-.57 1.07-.87 3.87-2.61 7.35-4.8 10.25-3.93 5.17-9.45 8.53-14.48 8.85-5.05.36-9.73-1.54-13.07-4.55-1.93-1.73-3.4-3.83-4.26-6.09-.91-2.36-1.1-4.84-.44-7.31.83-3.11 3.02-6.02 6.95-8.3 1.06-.61 2.42-.24 3.03.81.61 1.06.25 2.43-.81 3.04-2.83 1.64-4.36 3.58-4.93 5.58-.41 1.52-.26 3.1.32 4.6.58 1.62 1.65 3.08 3.06 4.35 2.52 2.26 6.1 3.74 9.87 3.45 3.79-.25 8.07-2.92 11.26-7.11 2.81-3.71 4.71-8.57 4.52-13.94-.84-6.89-4.42-12.8-9.48-16.79-5.05-4.03-11.68-6.09-18.63-5.26-8.79 1.02-16.38 5.58-21.47 12.06-5.13 6.47-7.73 14.87-6.72 23.71 1.86 15.57 12.2 27.3 21.68 38l.01.01c10.37 11.75 19.72 22.32 16.98 36.09-.07.43-.29.78-.53 1.08-.91 3.57-2.59 6.82-4.65 9.56-3.92 5.13-9.44 8.49-14.48 8.81-5.04.36-9.73-1.55-13.06-4.55-1.93-1.73-3.4-3.83-4.26-6.09-.92-2.32-1.1-4.85-.45-7.31.82-3.07 3.02-6.02 6.96-8.3 1.05-.61 2.42-.25 3.03.81.61 1.06.24 2.42-.81 3.03-2.83 1.64-4.37 3.63-4.95 5.63-.4 1.52-.25 3.1.32 4.59.59 1.58 1.65 3.08 3.06 4.35 2.52 2.26 6.11 3.71 9.87 3.45 3.8-.24 8.09-2.95 11.26-7.1 2.83-3.76 4.73-8.61 4.53-13.95a25.364 25.364 0 0 0-9.47-16.82c-5.07-4-11.61-6.07-18.51-5.27h-.13a32.13 32.13 0 0 0-21.46 12.06c-5.08 6.44-7.72 14.84-6.73 23.59v.16c1.85 15.57 12.2 27.27 21.68 37.97l.01.01c10.38 11.74 19.72 22.32 16.99 36.09-.08.43-.29.77-.53 1.07-.93 3.49-2.58 6.63-4.59 9.3-3.93 5.17-9.45 8.53-14.48 8.85-5.03.32-9.72-1.58-13.06-4.59-1.94-1.69-3.41-3.79-4.26-6.05-.92-2.36-1.1-4.89-.44-7.35.82-3.07 3.02-6.02 6.95-8.3 1.06-.61 2.42-.24 3.03.81a2.24 2.24 0 0 1-.8 3.04c-2.83 1.64-4.38 3.62-4.95 5.62-.4 1.52-.26 3.1.32 4.59.59 1.58 1.65 3.09 3.06 4.36 2.52 2.25 6.11 3.7 9.87 3.44 3.79-.24 8.09-2.95 11.26-7.1 2.81-3.72 4.73-8.61 4.52-13.94-.84-6.89-4.42-12.8-9.47-16.83-5.06-3.99-11.6-6.07-18.51-5.27l-.12.01a32.125 32.125 0 0 0-21.47 12.05 32.264 32.264 0 0 0-6.73 23.63v.13c1.86 15.56 12.21 27.26 21.69 37.96 10.38 11.75 19.72 22.37 16.99 36.1-.07.43-.28.78-.53 1.08-.91 3.57-2.58 6.82-4.65 9.56-3.93 5.16-9.45 8.52-14.48 8.84-5.04.32-9.72-1.58-13.07-4.54-1.93-1.74-3.4-3.84-4.26-6.1-.91-2.35-1.1-4.84-.45-7.31.83-3.1 3.03-6.01 6.96-8.29 1.05-.61 2.42-.25 3.03.81.61 1.05.26 2.38-.81 3.03-2.83 1.64-4.36 3.59-4.93 5.59-.41 1.51-.26 3.1.31 4.59.6 1.58 1.66 3.08 3.06 4.35 2.52 2.26 6.11 3.71 9.87 3.45 3.8-.24 8.08-2.92 11.26-7.1 2.82-3.72 4.72-8.58 4.53-13.95-.84-6.88-4.42-12.79-9.48-16.79-5.06-3.99-11.61-6.06-18.5-5.3l-.14.04c-8.79 1.02-16.37 5.58-21.46 12.06a32.197 32.197 0 0 0-6.73 23.59l.01.12c1.85 15.53 12.16 27.22 21.61 37.93l.07.07.01.01c10.37 11.75 19.71 22.33 16.98 36.09-.07.43-.29.78-.57 1.07-.87 3.87-2.6 7.35-4.8 10.26-3.93 5.16-9.45 8.52-14.48 8.84-5.04.36-9.73-1.54-13.07-4.55-1.93-1.73-3.4-3.83-4.26-6.09-.91-2.35-1.1-4.84-.44-7.31.83-3.11 3.02-6.01 6.95-8.29 1.06-.62 2.42-.25 3.03.8.61 1.06.25 2.43-.81 3.04-2.83 1.64-4.36 3.59-4.93 5.59-.41 1.51-.26 3.09.32 4.59.58 1.62 1.65 3.08 3.06 4.35 2.52 2.26 6.1 3.74 9.87 3.45 3.79-.25 8.07-2.92 11.26-7.11 2.81-3.71 4.71-8.57 4.52-13.94-.84-6.89-4.42-12.8-9.48-16.79-5.06-3.99-11.61-6.07-18.5-5.31l-.13.05c-8.79 1.02-16.37 5.58-21.47 12.06a32.184 32.184 0 0 0-6.73 23.59l.01.12c1.86 15.57 12.2 27.3 21.68 38l.01.01c10.37 11.75 19.72 22.33 16.98 36.09-.07.43-.28.78-.53 1.08l-.04.15-.04.15-.05.19-.01.04-.03.11c-.96 3.32-2.54 6.35-4.48 8.92-3.93 5.16-9.45 8.52-14.49 8.85-5.03.32-9.71-1.59-13.05-4.59-1.94-1.7-3.41-3.79-4.27-6.05-.81-2.13-1.05-4.43-.62-6.67l.02-.07.01-.04.02-.08.01-.04.02-.07.01-.04.02-.08.01-.03.03-.12.03-.11.03-.11.01-.04.03-.12.01-.03.03-.12.04-.15c.97-2.87 3.12-5.59 6.81-7.73 1.05-.61 2.42-.25 3.03.81.28.48.36 1.07.23 1.57l-.01.03-.01.04-.01.04-.01.04-.01.04-.01.03-.01.04c-.17.48-.49.93-.97 1.21-2.73 1.58-4.25 3.45-4.83 5.33l-.07.1-.02.08-.03.11-.01.04-.01.04-.01.03-.01.04-.01.04-.01.04-.01.04.02.08c-.32 1.38-.15 2.85.37 4.24.6 1.58 1.66 3.09 3.06 4.35 2.52 2.26 6.11 3.71 9.87 3.45 3.8-.24 8.09-2.95 11.26-7.1a23.39 23.39 0 0 0 3.46-6.59l.1-.22.06-.23.06-.23.06-.22.06-.23.06-.23.06-.23.07-.22.06-.23.02-.24c.35-1.61.52-3.31.46-5.07-.84-6.89-4.42-12.8-9.48-16.79-5.05-4.03-11.61-6.07-18.5-5.31l-.13.01a32.08 32.08 0 0 0-21.46 12.05 31.348 31.348 0 0 0-5.3 9.84l-.13.33-.01.04-.09.34-.01.04-.13.33-.1.38-.1.38-.1.38-.1.38-.06.39-.1.38c-.73 3.34-.89 6.83-.5 10.38v.17c1.87 15.52 12.17 27.25 21.65 37.95l.04.01c10.37 11.75 19.71 22.37 16.99 36.1-.07.43-.29.78-.53 1.08-.92 3.61-2.59 6.82-4.66 9.56-3.93 5.16-9.45 8.52-14.48 8.84-5.04.36-9.73-1.54-13.07-4.54-1.93-1.74-3.4-3.84-4.25-6.1-.92-2.35-1.11-4.84-.45-7.31.83-3.11 3.02-6.01 6.95-8.29a2.22 2.22 0 0 1 3.03.81c.61 1.05.25 2.42-.8 3.03-2.83 1.64-4.37 3.59-4.94 5.59-.4 1.51-.26 3.1.32 4.59.59 1.58 1.65 3.08 3.06 4.35 2.52 2.26 6.11 3.71 9.87 3.45 3.79-.24 8.08-2.92 11.26-7.11 2.81-3.71 4.72-8.57 4.52-13.94-.84-6.88-4.42-12.8-9.48-16.79a25.328 25.328 0 0 0-18.5-5.31l-.13.05c-8.79 1.02-16.37 5.58-21.47 12.06a32.147 32.147 0 0 0-6.72 23.59v.12c1.86 15.53 12.16 27.22 21.62 37.93l.06.07.01.01c10.37 11.75 19.72 22.33 16.98 36.09-.07.43-.28.78-.56 1.07-.87 3.87-2.61 7.35-4.8 10.25-3.93 5.17-9.45 8.53-14.49 8.85-5.04.36-9.73-1.54-13.06-4.55-1.93-1.73-3.4-3.83-4.26-6.09-.91-2.36-1.1-4.84-.45-7.31.83-3.11 3.02-6.01 6.96-8.3 1.05-.61 2.42-.24 3.03.81a2.24 2.24 0 0 1-.81 3.04c-2.83 1.64-4.37 3.62-4.94 5.58-.4 1.52-.25 3.1.32 4.6.58 1.62 1.65 3.08 3.06 4.35 2.52 2.26 6.1 3.74 9.87 3.45 3.8-.25 8.08-2.92 11.25-7.07 2.83-3.75 4.73-8.61 4.54-13.98-.85-6.89-4.42-12.8-9.48-16.79-5.05-4.03-11.69-6.09-18.64-5.26-8.79 1.02-16.37 5.58-21.46 12.06a32.073 32.073 0 0 0-6.72 23.71c1.85 15.57 12.19 27.3 21.67 38l.01.01c10.38 11.75 19.72 22.32 16.99 36.09-.08.43-.29.78-.53 1.08-.91 3.57-2.59 6.82-4.66 9.56-3.93 5.16-9.44 8.49-14.48 8.84-5.03.33-9.72-1.58-13.06-4.58-1.93-1.73-3.4-3.83-4.26-6.09-.92-2.32-1.1-4.85-.44-7.31.82-3.07 3.02-6.02 6.95-8.3a2.22 2.22 0 0 1 3.03.81 2.22 2.22 0 0 1-.81 3.03c-2.83 1.65-4.37 3.63-4.94 5.63-.41 1.52-.26 3.1.32 4.59.59 1.58 1.65 3.09 3.06 4.35 2.52 2.26 6.11 3.71 9.87 3.45 3.79-.24 8.08-2.95 11.26-7.1 2.82-3.76 4.72-8.61 4.52-13.95a25.325 25.325 0 0 0-9.47-16.82c-5.06-4-11.61-6.07-18.51-5.27h-.12a32.176 32.176 0 0 0-21.47 12.06c-5.08 6.44-7.72 14.84-6.73 23.59v.16c1.86 15.57 12.21 27.27 21.69 37.97l.01.01c10.37 11.74 19.72 22.32 16.98 36.09-.07.43-.28.77-.53 1.08-.93 3.48-2.57 6.62-4.58 9.29-3.93 5.17-9.45 8.53-14.48 8.85-5.04.32-9.72-1.58-13.06-4.59-1.94-1.69-3.41-3.79-4.27-6.05-.91-2.36-1.09-4.88-.44-7.35.82-3.07 3.03-6.02 6.96-8.3 1.05-.61 2.42-.24 3.03.81.61 1.06.25 2.42-.81 3.04-2.84 1.67-4.37 3.62-4.94 5.62-.41 1.52-.26 3.1.31 4.59.6 1.58 1.66 3.09 3.06 4.36 2.52 2.25 6.11 3.7 9.87 3.44 3.8-.24 8.08-2.92 11.26-7.1 2.82-3.72 4.73-8.61 4.53-13.94-.84-6.89-4.42-12.8-9.48-16.79-5.05-4.03-11.61-6.07-18.5-5.31l-.13.01a32.12 32.12 0 0 0-21.46 12.05 32.314 32.314 0 0 0-6.74 23.63l.01.13c1.86 15.56 12.21 27.26 21.69 37.96 10.37 11.75 19.71 22.37 16.99 36.1-.07.43-.29.78-.53 1.08-.91 3.57-2.59 6.82-4.66 9.56-3.93 5.16-9.45 8.52-14.48 8.84-5.04.36-9.73-1.54-13.07-4.54-1.93-1.74-3.4-3.84-4.25-6.1-.92-2.35-1.11-4.84-.45-7.3.83-3.11 3.02-6.02 6.95-8.3a2.22 2.22 0 0 1 3.03.81c.62 1.05.25 2.42-.8 3.03-2.83 1.64-4.37 3.59-4.94 5.59-.4 1.51-.26 3.1.32 4.59.59 1.58 1.65 3.08 3.06 4.35 2.52 2.26 6.11 3.71 9.87 3.45 3.8-.24 8.08-2.92 11.26-7.1 2.82-3.72 4.72-8.57 4.52-13.95-.84-6.88-4.42-12.79-9.48-16.79-5.06-3.99-11.6-6.06-18.5-5.3l-.13.04c-8.79 1.02-16.37 5.58-21.46 12.06a32.11 32.11 0 0 0-6.73 23.59v.12c1.86 15.57 12.2 27.31 21.68 38l.01.01c10.37 11.75 19.72 22.33 16.99 36.09-.08.43-.29.78-.57 1.07-.87 3.87-2.61 7.35-4.8 10.26-3.93 5.16-9.45 8.52-14.49 8.84-5.04.36-9.72-1.54-13.06-4.55-1.93-1.73-3.4-3.83-4.26-6.09-.91-2.35-1.1-4.84-.45-7.31.83-3.11 3.03-6.01 6.96-8.29 1.05-.62 2.42-.25 3.03.8.61 1.06.25 2.43-.81 3.04-2.83 1.64-4.36 3.59-4.94 5.59-.4 1.51-.25 3.1.32 4.59.59 1.62 1.66 3.08 3.06 4.35 2.52 2.26 6.1 3.74 9.87 3.45 3.8-.25 8.08-2.92 11.25-7.07 2.83-3.75 4.73-8.61 4.54-13.98-.84-6.89-4.42-12.8-9.48-16.79-5.06-3.99-11.61-6.06-18.51-5.27l-.13.01c-8.79 1.02-16.37 5.58-21.46 12.06a32.184 32.184 0 0 0-6.73 23.59l.01.12c1.86 15.57 12.19 27.31 21.68 38l.01.01c10.37 11.75 19.71 22.33 16.98 36.09-.07.43-.29.78-.53 1.08l-.01.04c-.95 3.56-2.58 6.78-4.65 9.52-3.93 5.17-9.44 8.49-14.48 8.85-5.03.32-9.72-1.58-13.06-4.59-1.93-1.73-3.4-3.83-4.25-6.09-.93-2.32-1.11-4.85-.45-7.31l.03-.11.01-.04.05-.19c.82-3.07 3.02-6.02 6.96-8.3a2.21 2.21 0 0 1 3.02.81c.34.58.36 1.27.16 1.87-.12.58-.48 1.17-1.05 1.51-2.79 1.61-4.31 3.52-4.91 5.47-.35 1.45-.18 2.96.37 4.4.59 1.58 1.65 3.08 3.07 4.32 2.51 2.29 6.1 3.74 9.86 3.48 3.8-.24 8.09-2.95 11.26-7.1 1.64-2.21 2.97-4.77 3.78-7.65.49-1.85.72-3.91.65-5.95a25.324 25.324 0 0 0-9.47-16.83c-5.06-3.99-11.6-6.07-18.51-5.27l-.12.01a32.125 32.125 0 0 0-21.47 12.05 32.413 32.413 0 0 0-5.81 11.49c-.95 3.73-1.28 7.7-.82 11.76l-.01.16c1.86 15.57 12.21 27.27 21.69 37.97l.01.01c10.38 11.74 19.72 22.32 16.99 36.09zM850.157 33.307l-12.292 46.299c5.586-5.605 13.051-9.456 21.544-10.493l.209-.025a29.887 29.887 0 0 1 14.778 2.079l-2.466-2.772-.16-.181c-8.768-9.953-18.267-20.736-21.613-34.907zm-21.758 81.951l-12.162 45.81c5.582-5.578 13.011-9.392 21.458-10.424l.209-.025a29.712 29.712 0 0 1 14.296 1.909l-2.055-2.336c-8.797-9.943-18.335-20.729-21.746-34.934zm-21.682 81.664l-12.173 45.852c5.571-5.528 12.966-9.307 21.366-10.333l.2.013c5.228-.594 10.292.19 14.778 2.079l-2.456-2.809c-8.771-9.913-18.277-20.662-21.715-34.802zm-21.759 81.955l-12.299 46.324a36.27 36.27 0 0 1 21.265-10.204l.21-.025a29.482 29.482 0 0 1 16.118 2.68 230.828 230.828 0 0 0-3.615-4.093l-.095-.108c-8.708-9.886-18.125-20.576-21.584-34.574zm-21.944 82.651l-12.052 45.396c5.544-5.408 12.869-9.116 21.178-10.13l.209-.025a29.885 29.885 0 0 1 14.778 2.078l-2.466-2.77c-8.716-9.851-18.15-20.557-21.647-34.549zm-21.761 81.964l-11.991 45.162a36.272 36.272 0 0 1 21.083-10.025l.21-.025c5.228-.594 10.292.189 14.777 2.078l-2.307-2.606-.083-.144-.066-.059c-8.688-9.82-18.099-20.461-21.623-34.381zm-21.751 81.926l-12.126 45.671c5.539-5.334 12.827-8.965 21.078-9.961l.038.011c5.781-.69 11.307.339 16.205 2.663a231.32 231.32 0 0 0-3.615-4.094l-.096-.11c-8.626-9.791-17.948-20.373-21.484-34.18z" clip-rule="evenodd"/></g><defs><filter id="filter0_bii" width="2286.29" height="5935.89" x="-62.733" y="-4841.25" color-interpolation-filters="sRGB" filterUnits="userSpaceOnUse"><feFlood flood-opacity="0" result="BackgroundImageFix"/><feGaussianBlur in="BackgroundImage" stdDeviation="2.137"/><feComposite in2="SourceAlpha" operator="in" result="effect1_backgroundBlur"/><feBlend in="SourceGraphic" in2="effect1_backgroundBlur" result="shape"/><feColorMatrix in="SourceAlpha" result="hardAlpha" values="0 0 0 0 0 0 0 0 0 0 0 0 0 0 0 0 0 0 127 0"/><feOffset dx="-42.733" dy="42.733"/><feGaussianBlur stdDeviation="21.367"/><feComposite in2="hardAlpha" k2="-1" k3="1" operator="arithmetic"/><feColorMatrix values="0 0 0 0 1 0 0 0 0 1 0 0 0 0 1 0 0 0 0.2 0"/><feBlend in2="shape" result="effect2_innerShadow"/><feColorMatrix in="SourceAlpha" result="hardAlpha" values="0 0 0 0 0 0 0 0 0 0 0 0 0 0 0 0 0 0 127 0"/><feOffset dx="42.733" dy="-42.733"/><feGaussianBlur stdDeviation="21.367"/><feComposite in2="hardAlpha" k2="-1" k3="1" operator="arithmetic"/><feColorMatrix values="0 0 0 0 0.76 0 0 0 0 0.76 0 0 0 0 0.76 0 0 0 0.2 0"/><feBlend in2="effect2_innerShadow" result="effect3_innerShadow"/></filter><clipPath id="clip0"><path fill="#fff" d="M0 0h915v601H0z"/></clipPath></defs></svg>