<svg xmlns="http://www.w3.org/2000/svg" width="100" height="100" fill="none" viewBox="0 0 100 100"><circle cx="50" cy="50" r="50" fill="#F7C24D"/><path fill="#010107" fill-rule="evenodd" d="M67.993 37.558c.564 1.496.863 3.078.885 4.677.117 2.01.118 2.667.122 7.755v.071c0 5.155-.027 5.799-.118 7.829a13.895 13.895 0 0 1-.884 4.615 9.739 9.739 0 0 1-5.556 5.556 13.906 13.906 0 0 1-4.613.884c-2.016.118-2.676.118-7.829.118s-5.797-.027-7.829-.118a13.892 13.892 0 0 1-4.61-.95 9.729 9.729 0 0 1-5.559-5.553 13.918 13.918 0 0 1-.884-4.615C31 55.809 31 55.15 31 49.997c0-5.152.027-5.796.118-7.828.03-1.576.329-3.135.884-4.61a9.724 9.724 0 0 1 5.556-5.557 13.94 13.94 0 0 1 4.611-.886C44.184 31 44.845 31 49.998 31s5.797.025 7.827.116c1.576.032 3.136.332 4.612.886a9.73 9.73 0 0 1 5.556 5.556zM40.23 49.988a9.753 9.753 0 0 0 16.653 6.897 9.755 9.755 0 0 0-6.898-16.653 9.753 9.753 0 0 0-9.755 9.755zM57.854 39.87a2.272 2.272 0 0 0 2.275 2.275 2.273 2.273 0 0 0 1.607-3.883 2.274 2.274 0 0 0-3.882 1.608zm-1.532 10.114a6.337 6.337 0 1 1-12.674 0 6.337 6.337 0 0 1 12.674 0z" clip-rule="evenodd"/></svg>