<svg xmlns="http://www.w3.org/2000/svg" width="100" height="100" fill="none" viewBox="0 0 100 100"><circle cx="50" cy="50" r="50" fill="#F7C24D"/><path fill="#010107" fill-rule="evenodd" d="M64.824 54.228s3.072 3.035 3.832 4.439c.015.02.027.043.034.066.31.52.386.926.234 1.226-.256.496-1.125.745-1.42.766h-5.43c-.377 0-1.164-.1-2.122-.76-.731-.512-1.459-1.353-2.164-2.176-1.052-1.222-1.962-2.282-2.884-2.282-.116 0-.232.02-.342.057-.697.22-1.583 1.214-1.583 3.861 0 .828-.653 1.3-1.111 1.3H49.38c-.848 0-5.26-.297-9.172-4.422-4.793-5.05-9.099-15.18-9.14-15.27-.268-.656.294-1.013.902-1.013h5.484c.735 0 .974.445 1.141.844.194.458.912 2.29 2.09 4.347 1.908 3.348 3.08 4.71 4.017 4.71a1 1 0 0 0 .502-.133c1.223-.672.995-5.042.938-5.943 0-.175-.002-1.951-.629-2.81-.448-.616-1.212-.855-1.674-.942.124-.18.386-.453.722-.614.838-.418 2.353-.479 3.855-.479h.835c1.63.023 2.052.127 2.644.277 1.194.285 1.216 1.059 1.112 3.692-.03.752-.063 1.6-.063 2.597 0 .213-.01.45-.01.692-.035 1.35-.083 2.873.87 3.498a.778.778 0 0 0 .413.118c.33 0 1.32 0 4.005-4.608 1.178-2.035 2.09-4.434 2.153-4.615.053-.1.213-.384.407-.498a.91.91 0 0 1 .448-.106h6.45c.704 0 1.18.106 1.274.372.155.432-.03 1.748-2.976 5.73-.496.664-.93 1.238-1.313 1.74-2.67 3.503-2.67 3.68.158 6.34z" clip-rule="evenodd"/></svg>