<svg xmlns="http://www.w3.org/2000/svg" width="48" height="48" fill="none" viewBox="0 0 48 48"><circle cx="24" cy="24" r="24" fill="#F7C24D"/><path fill="#010107" fill-rule="evenodd" d="M32.089 34.611H16.26A2.263 2.263 0 0 1 14 32.35V16.522a2.263 2.263 0 0 1 2.261-2.26h2.261V12h2.261v2.261h6.784V12h2.26v2.261h2.262a2.263 2.263 0 0 1 2.261 2.261V32.35a2.263 2.263 0 0 1-2.261 2.261zm.001-2.261l-.001-13.567H16.26V32.35h15.83zM20.783 22.175h-2.26v2.261h2.26v-2.261zm0 4.522h-2.26v2.261h2.26v-2.26zm4.523-4.522h-2.262v2.261h2.262v-2.261zm0 4.522h-2.262v2.261h2.262v-2.26zm4.522-4.522h-2.261v2.261h2.26v-2.261zm0 4.522h-2.261v2.261h2.26v-2.26z" clip-rule="evenodd"/></svg>