<svg width="48" height="48" viewBox="0 0 48 48" fill="none" xmlns="http://www.w3.org/2000/svg">
<circle cx="24" cy="24" r="24" fill="#EFEFEF"/>
<path d="M26.0576 17.0018C26.2912 17.0013 26.5177 17.0827 26.6976 17.2318C26.7988 17.3157 26.8825 17.4188 26.9439 17.5352C27.0052 17.6515 27.043 17.7788 27.0551 17.9098C27.0672 18.0408 27.0533 18.1728 27.0143 18.2984C26.9752 18.4241 26.9118 18.5407 26.8276 18.6418L22.3476 24.0018L26.6676 29.3718C26.7506 29.4741 26.8127 29.5918 26.8501 29.7181C26.8875 29.8444 26.8996 29.9769 26.8857 30.108C26.8717 30.239 26.832 30.366 26.7689 30.4816C26.7057 30.5972 26.6203 30.6992 26.5176 30.7818C26.4141 30.8728 26.2929 30.9415 26.1617 30.9835C26.0304 31.0255 25.8919 31.0399 25.7548 31.0258C25.6177 31.0117 25.485 30.9694 25.365 30.9016C25.245 30.8338 25.1404 30.7419 25.0576 30.6318L20.2276 24.6318C20.0805 24.4528 20.0001 24.2284 20.0001 23.9968C20.0001 23.7651 20.0805 23.5407 20.2276 23.3618L25.2276 17.3618C25.3279 17.2408 25.4553 17.1451 25.5995 17.0825C25.7437 17.02 25.9007 16.9923 26.0576 17.0018Z" fill="#010107"/>
</svg>
