<svg width="48" height="48" viewBox="0 0 48 48" fill="none" xmlns="http://www.w3.org/2000/svg">
<circle cx="24" cy="24" r="24" fill="#EFEFEF"/>
<path d="M23.0018 31.0292C22.7681 31.0297 22.5417 30.9483 22.3618 30.7992C22.2605 30.7153 22.1768 30.6122 22.1154 30.4958C22.0541 30.3795 22.0163 30.2522 22.0042 30.1212C21.9921 29.9902 22.006 29.8582 22.0451 29.7326C22.0841 29.607 22.1476 29.4903 22.2318 29.3892L26.7118 24.0292L22.3918 18.6592C22.3087 18.5569 22.2467 18.4393 22.2092 18.3129C22.1718 18.1866 22.1597 18.0541 22.1736 17.9231C22.1876 17.792 22.2273 17.665 22.2905 17.5494C22.3536 17.4338 22.439 17.3318 22.5418 17.2492C22.6452 17.1582 22.7664 17.0895 22.8977 17.0475C23.0289 17.0056 23.1674 16.9912 23.3045 17.0052C23.4416 17.0193 23.5743 17.0616 23.6943 17.1294C23.8143 17.1972 23.919 17.2891 24.0018 17.3992L28.8318 23.3992C28.9788 23.5782 29.0592 23.8026 29.0592 24.0342C29.0592 24.2659 28.9788 24.4903 28.8318 24.6692L23.8318 30.6692C23.7314 30.7903 23.604 30.8859 23.4598 30.9485C23.3156 31.011 23.1587 31.0387 23.0018 31.0292Z" fill="#010107"/>
</svg>
