<svg xmlns="http://www.w3.org/2000/svg" width="48" height="48" fill="none" viewBox="0 0 48 48"><circle cx="24" cy="24" r="24" fill="#F7C24D"/><path fill="#010107" fill-rule="evenodd" d="M17.294 12A3.294 3.294 0 0 0 14 15.294v18.353a3.294 3.294 0 0 0 3.294 3.294H31.06a3.294 3.294 0 0 0 3.294-3.294V20.275a3.293 3.293 0 0 0-.991-2.356l-5.093-4.98A3.294 3.294 0 0 0 25.966 12h-8.672zm-.915 2.379c.243-.243.572-.379.915-.379h8.177v3.588a3.294 3.294 0 0 0 3.294 3.294h3.588v12.765a1.294 1.294 0 0 1-1.294 1.294H17.294A1.294 1.294 0 0 1 16 33.648V15.294c0-.343.136-.672.38-.915zm15.107 4.504l-4.015-3.927v2.632a1.294 1.294 0 0 0 1.294 1.294h2.721zm-10.75 5.735a1 1 0 1 0 0 2h6.882a1 1 0 1 0 0-2h-6.883zm-1 5.588a1 1 0 0 1 1-1h3.44a1 1 0 0 1 0 2h-3.44a1 1 0 0 1-1-1z" clip-rule="evenodd"/></svg>